<svg xmlns="http://www.w3.org/2000/svg" viewBox="0 0 68.59 4.87"><defs><style>.cls-1{fill:#aa0005;}.cls-2{fill:#fff;}</style></defs><g id="Layer_2" data-name="Layer 2"><g id="レイアウト"><g id="Layer_3" data-name="Layer 3"><rect class="cls-1" width="68.59" height="3.89" rx="1.95"/><path class="cls-2" d="M36.66,2.62V2.5h-.94v.12h-.19c0-.2,0-.74,0-1V1.49h.4V1.28h-.51v-.2h1.51v.2H36.4v.21h.44v.27c0,.27,0,.68,0,.86Zm0-1H36.4V2s0,0,.06,0,.06,0,.06-.2a.42.42,0,0,0,.14.08c0,.28,0,.29-.22.29s-.2,0-.2-.17V1.66H36.1a.71.71,0,0,1-.27.61.58.58,0,0,0-.11-.17.47.47,0,0,0,.22-.44h-.23v.22c0,.13,0,.29,0,.44h1V1.66Zm-.43-.38h-.13v.21h.13Z"/><path class="cls-2" d="M31.72,2.7c0-.33,0-.91,0-1.26V1.15h.67v.56h-.49c0,.32,0,.72,0,1Zm.5-1.42h-.31v.09h.31Zm0,.21h-.31v.09h.31Zm.67,1.2a.4.4,0,0,0,0-.16.46.46,0,0,0,0,.08.6.6,0,0,1-.34-.26.57.57,0,0,1-.43.27A.62.62,0,0,0,32,2.45a.49.49,0,0,0,.36-.16H32V2.14h.36s0-.06,0-.1h-.3V1.9h.17l-.12-.11.16-.06a1.43,1.43,0,0,1,.15.18h.06a.42.42,0,0,0,.1-.15s0,0,0,0h0c.16,0,.18,0,.18.05s0,0,0,0,0,0,0,0l-.06.06h.19v.15h-.33a.34.34,0,0,1,0,.1h.4V2.3H32.6a.57.57,0,0,0,.31.16l0,0h.07c.06,0,.07,0,.07-.08V1.71h-.5V1.15h.68v1.3c0,.2,0,.24-.24.24ZM33,1.28h-.33v.09H33Zm0,.21h-.33v.09H33Z"/><polygon class="cls-1" points="34.57 4.87 33.52 3.69 35.65 3.69 34.57 4.87"/></g></g></g></svg>