<svg xmlns="http://www.w3.org/2000/svg" viewBox="0 0 104.12 7.39"><defs><style>.cls-1{fill:#aa0005;}.cls-2{fill:#fff;}</style></defs><g id="Layer_2" data-name="Layer 2"><g id="レイアウト"><rect class="cls-1" width="104.12" height="5.91" rx="2.95"/><path class="cls-2" d="M44.64,4.09c0-.49,0-1.37,0-1.9V1.74h1V2.6h-.74c0,.48,0,1.09,0,1.49ZM45.41,2h-.47v.13h.47Zm0,.3h-.47V2.4h.47Zm1,1.84a.66.66,0,0,0-.06-.25A.55.55,0,0,0,46.3,4a1,1,0,0,1-.51-.4.86.86,0,0,1-.65.4A.85.85,0,0,0,45,3.72a.76.76,0,0,0,.55-.24h-.5V3.25h.55a.76.76,0,0,0,0-.16h-.46V2.88h.27a1.66,1.66,0,0,0-.19-.18l.24-.09a1.56,1.56,0,0,1,.23.28h.09A.75.75,0,0,0,46,2.67s0,0,0,0h0c.25,0,.26.07.26.09s0,0,0,0l-.07,0a.39.39,0,0,1-.08.1h.28v.23h-.5a.81.81,0,0,1,0,.16h.61v.24H46a.75.75,0,0,0,.46.24l-.06.08h.11c.09,0,.11,0,.11-.12V2.6h-.76V1.74h1v2c0,.3-.05.37-.36.37ZM46.61,2h-.5v.13h.5Zm0,.3h-.5V2.4h.5Z"/><path class="cls-2" d="M48.85,4.09c0-.2,0-.5,0-.8a2.59,2.59,0,0,1-1,.66.9.9,0,0,0-.14-.28,2.1,2.1,0,0,0,.85-.47h-.53v-1h.78V2.08h-1V1.81c.33,0,.65,0,1,0,0-.07,0-.11,0-.12a.39.39,0,0,1,0-.06s0,0,0,0h0c.3,0,.33,0,.33.06s0,0,0,.05a.16.16,0,0,0,0,.09c.35,0,.68,0,1,0v.28h-1v.14H50v1H49.4a1.93,1.93,0,0,0,.89.46.9.9,0,0,0-.15.29,2.42,2.42,0,0,1-1-.67c0,.3,0,.6,0,.81Zm0-1.65h-.52V2.6h.52Zm0,.37h-.52V3h.52Zm.83-.37h-.55V2.6h.55Zm0,.37h-.55V3h.55Z"/><path class="cls-2" d="M53.4,3.68h-.63c-.6,0-1.42,0-1.59,0V3.36l.93,0c0-.19,0-.39,0-.59s0-.28,0-.4l-.71,0V2.08a6.59,6.59,0,0,0,.73,0l1,0V2.4h-.74v1c.44,0,.86,0,1,0Z"/><path class="cls-2" d="M54.8,3.19c0-.17,0-.48,0-.77s0-.46,0-.55a.14.14,0,0,1,0-.06h0c.36,0,.38,0,.38.05l0,0a1.64,1.64,0,0,0,0,.59c0,.26,0,.54,0,.71Zm1.1-1.4c.4,0,.41,0,.41,0s0,0,0,0a3.69,3.69,0,0,0-.06.95,1.47,1.47,0,0,1-.79,1.31,1.5,1.5,0,0,0-.34-.25,1.07,1.07,0,0,0,.81-1.07c0-.09,0-.18,0-.26,0-.28,0-.55,0-.69a.15.15,0,0,1,0-.06,0,0,0,0,1,0,0Z"/><path class="cls-2" d="M58.59,2.4c.37,0,.37,0,.37.06s0,0,0,0a.24.24,0,0,0,0,.1.85.85,0,0,1,0,.23,1.29,1.29,0,0,0,.58-.58c-.44,0-1.42,0-1.73.08V2l.56,0c.5,0,1.14,0,1.28,0s.06,0,.09,0,.3.15.3.19-.06.06-.1.14a2.35,2.35,0,0,1-.77.86,1,1,0,0,0-.21-.21A1.48,1.48,0,0,1,58,4.08a1.33,1.33,0,0,0-.27-.26,1.2,1.2,0,0,0,.83-1.23V2.47l0-.06s0,0,0,0Z"/><polygon class="cls-1" points="52.48 7.39 50.9 5.6 54.13 5.6 52.48 7.39"/></g></g></svg>