<svg xmlns="http://www.w3.org/2000/svg" viewBox="0 0 68.59 4.87"><defs><style>.cls-1{fill:#aa0005;}.cls-2{fill:#fff;}</style></defs><g id="Layer_2" data-name="Layer 2"><g id="レイアウト"><rect class="cls-1" width="68.59" height="3.89" rx="1.95"/><path class="cls-2" d="M32,2.7c0-.33,0-.91,0-1.26V1.15h.67v.56h-.49c0,.32,0,.72,0,1Zm.51-1.42h-.31v.09h.31Zm0,.21h-.31v.09h.31Zm.67,1.2a.4.4,0,0,0,0-.16.46.46,0,0,0,0,.08.6.6,0,0,1-.34-.26.57.57,0,0,1-.43.27.5.5,0,0,0-.08-.17.51.51,0,0,0,.37-.16h-.33V2.14h.35a.34.34,0,0,0,0-.1h-.3V1.9h.18a.75.75,0,0,0-.13-.11l.16-.06a.93.93,0,0,1,.16.18h0a.36.36,0,0,0,.11-.15s0,0,0,0h0c.16,0,.17,0,.17.05a0,0,0,0,1,0,0s0,0-.05,0,0,0,0,.06h.18v.15h-.32a.34.34,0,0,1,0,.1h.4V2.3h-.33a.57.57,0,0,0,.31.16l0,0h.08c.06,0,.07,0,.07-.08V1.71h-.5V1.15h.68v1.3c0,.2,0,.24-.24.24Zm.12-1.41H33v.09h.33Zm0,.21H33v.09h.33Z"/><path class="cls-2" d="M36.32,2.7c0-.14,0-.33,0-.53a1.64,1.64,0,0,1-.63.43.44.44,0,0,0-.09-.18,1.57,1.57,0,0,0,.56-.31h-.35V1.46h.51V1.37h-.65V1.2h.65c0-.05,0-.07,0-.08a.08.08,0,0,1,0,0s0,0,0,0h0c.2,0,.21,0,.21,0a0,0,0,0,1,0,0,.07.07,0,0,0,0,.06h.67v.18h-.67v.09h.53v.65h-.37a1.26,1.26,0,0,0,.59.3.45.45,0,0,0-.1.19,1.5,1.5,0,0,1-.65-.44V2.7Zm0-1.09H36v.11h.34Zm0,.24H36V2h.34Zm.55-.24h-.36v.11h.36Zm0,.24h-.36V2h.36Z"/><polygon class="cls-1" points="34.57 4.87 33.52 3.69 35.65 3.69 34.57 4.87"/></g></g></svg>