<svg xmlns="http://www.w3.org/2000/svg" viewBox="0 0 18.11 1.9"><defs><style>.cls-1{fill:#b60005;}.cls-2{fill:#fff;}</style></defs><g id="Layer_2" data-name="Layer 2"><g id="レイアウト"><path class="cls-1" d="M2.43,1.33a.31.31,0,0,1-.27.12A.38.38,0,0,1,1.76,1,.4.4,0,0,1,2.44.7l0-.09h.11v.82c0,.24-.13.35-.43.35a.52.52,0,0,1-.33-.1V1.53a.5.5,0,0,0,.33.12c.21,0,.29-.07.29-.23Zm0-.43A.25.25,0,0,0,2.18.72c-.17,0-.26.09-.26.3s.09.3.26.3a.23.23,0,0,0,.25-.2Z"/><path class="cls-1" d="M2.76,1a.45.45,0,1,1,.89,0,.42.42,0,0,1-.44.45A.42.42,0,0,1,2.76,1Zm.73,0A.29.29,0,0,0,3.21.72.3.3,0,0,0,2.92,1a.29.29,0,0,0,.29.31A.28.28,0,0,0,3.49,1Z"/><path class="cls-1" d="M3.77,1a.45.45,0,1,1,.89,0,.42.42,0,0,1-.44.45A.42.42,0,0,1,3.77,1ZM4.5,1A.29.29,0,0,0,4.22.72.3.3,0,0,0,3.93,1a.29.29,0,0,0,.29.31A.28.28,0,0,0,4.5,1Z"/><path class="cls-1" d="M5.45,1.33a.3.3,0,0,1-.27.12A.38.38,0,0,1,4.78,1,.4.4,0,0,1,5.46.7l0-.09h.11v.82c0,.24-.13.35-.43.35a.54.54,0,0,1-.33-.1V1.53a.52.52,0,0,0,.33.12c.21,0,.29-.07.29-.23Zm0-.43A.25.25,0,0,0,5.2.72c-.17,0-.26.09-.26.3s.1.3.26.3a.23.23,0,0,0,.25-.2Z"/><path class="cls-1" d="M5.86,1.47V.19H6V1.47Z"/><path class="cls-1" d="M6.37,1.08a.27.27,0,0,0,.28.28.23.23,0,0,0,.25-.18H7a.36.36,0,0,1-.39.31A.41.41,0,0,1,6.22,1,.41.41,0,0,1,6.64.58c.25,0,.41.17.41.48v0ZM6.89,1a.26.26,0,0,0-.51,0Z"/><path class="cls-1" d="M8.64,1.43A3.85,3.85,0,0,0,8.1.9L8.22.83c.08.05.16.12.25.19A5,5,0,0,0,8.93.47c-.19,0-1,0-1.15.05V.35h.31L9,.33s0,0,.06,0l.14.1a0,0,0,0,1,0,0s0,0-.09.08-.33.38-.53.59l.22.21Z"/><path class="cls-1" d="M9.88.88A1.17,1.17,0,0,0,9.73.54L9.86.49A2.53,2.53,0,0,1,10,.82ZM10.7.53s0-.06,0-.06h0c.16.06.17.07.17.08a0,0,0,0,1,0,0l0,.07a1.34,1.34,0,0,1-.78.87l-.13-.1A1.13,1.13,0,0,0,10.7.53ZM10.23.8a1.51,1.51,0,0,0-.11-.34l.13,0a1.07,1.07,0,0,1,.12.33Z"/><path class="cls-1" d="M11.36.36h.27l.82,0s0,0,.05,0a.61.61,0,0,1,.16.12s0,0-.06.09a1.74,1.74,0,0,1-.95,1,1.79,1.79,0,0,0-.14-.13,1.45,1.45,0,0,0,.93-1c-.26,0-.87,0-1.08,0Zm1.36,0a.16.16,0,0,1-.16-.16A.16.16,0,0,1,12.72,0a.17.17,0,0,1,.17.17A.17.17,0,0,1,12.72.33Zm0-.25a.09.09,0,0,0-.09.09.09.09,0,0,0,.18,0A.09.09,0,0,0,12.72.08Z"/><path class="cls-1" d="M14.24,1.49c-.42,0-.68-.22-.68-.53a.7.7,0,0,1,.36-.59,4.53,4.53,0,0,0-.7.14h0s0,0,0,0,0-.16,0-.17h.07A8.75,8.75,0,0,0,14.29.19l.1,0s0,0,.07.14h0s0,0-.09,0a.73.73,0,0,0-.67.62c0,.33.33.39.52.39h.08a1.24,1.24,0,0,0,0,.16Zm.18-.8L14.29.51l.08,0a1.15,1.15,0,0,1,.14.17Zm.14-.08a1.18,1.18,0,0,0-.13-.18l.08,0a1.15,1.15,0,0,1,.14.17Z"/><path class="cls-1" d="M15.9,1.06v.28c0,.06,0,.08.19.08h.14c.07,0,.1,0,.12-.26l.12.09c0,.3-.1.31-.38.31s-.32,0-.32-.17V1.06h-.26c0,.33-.21.48-.57.54a.36.36,0,0,0-.09-.12c.36-.07.51-.15.53-.42h-.24V.1h1v1Zm.15-.83h-.78V.37h.78Zm0,.25h-.78V.64h.78Zm0,.28h-.78V.94h.78Z"/><path class="cls-1" d="M18.11,1.06c0,.31-.3.45-.58.45s-.44-.1-.44-.27A.2.2,0,0,1,17.3,1a.33.33,0,0,1,.32.33c.17,0,.34-.12.34-.31S17.81.8,17.6.8a.9.9,0,0,0-.67.36L16.81,1a4.58,4.58,0,0,0,.74-.72,1.66,1.66,0,0,0-.5.11h0S17,.27,17,.25H17a3.57,3.57,0,0,0,.61-.07l.05,0A1.49,1.49,0,0,1,17.8.3s0,0-.06,0-.29.27-.44.41a1,1,0,0,1,.35-.07c.29,0,.46.17.46.37Zm-.8.1a.08.08,0,0,0-.08.06v0c0,.07.11.13.25.14A.2.2,0,0,0,17.31,1.16Z"/><path class="cls-1" d="M1.36.79A1.55,1.55,0,0,1,.68,1.9,1.61,1.61,0,0,1,0,.79.67.67,0,0,1,.68.12.68.68,0,0,1,1.36.79Z"/><circle class="cls-2" cx="0.68" cy="0.76" r="0.36"/></g></g></svg>