<svg xmlns="http://www.w3.org/2000/svg" viewBox="0 0 27.85 11.31"><defs><style>.cls-1{fill:#aa0005;}.cls-2{fill:#fff;}.cls-3{fill:none;stroke:#fff;stroke-linecap:round;stroke-linejoin:round;stroke-width:0.4px;}</style></defs><g id="Layer_2" data-name="Layer 2"><g id="レイアウト"><rect class="cls-1" width="27.85" height="11.31" rx="1.99"/><path class="cls-2" d="M17,7.58a.47.47,0,0,0-.14-.33l-1-1a.47.47,0,0,0-.66,0L15,6.56h0l-.14.14c-.18.18-.46.46-1.5-.58s-.76-1.31-.57-1.49l.08-.09.06,0h0l.28-.28a.47.47,0,0,0,0-.66l-1-1a.47.47,0,0,0-.67,0l-.28.28h0l-.35.35c-.75.75-.17,2.46,1.35,4a5,5,0,0,0,3.1,1.68,1.19,1.19,0,0,0,.88-.32l.09-.08h0l.09-.1.18-.18h0l.28-.28A.45.45,0,0,0,17,7.58Zm-5.2-4.73a.07.07,0,0,1,.11,0l1,1a.11.11,0,0,1,0,.06.15.15,0,0,1,0,.06l-.28.27L11.53,3.13ZM16,8.27c-.57.58-2.11,0-3.43-1.35S10.6,4.06,11.17,3.49l.08-.09,1.1,1.1c-.36.49-.14,1,.7,1.9s1.41,1.06,1.9.7L16,8.19Zm.64-.63-.28.28L15.23,6.83l.28-.28a.07.07,0,0,1,.11,0l1,1a.06.06,0,0,1,0,0A.08.08,0,0,1,16.6,7.64Z"/><polyline class="cls-3" points="25.72 4.9 26.43 5.66 25.72 6.41"/></g></g></svg>