<svg xmlns="http://www.w3.org/2000/svg" viewBox="0 0 27.85 11.31"><defs><style>.cls-1{fill:#44a435;}.cls-2{fill:#fff;}.cls-3{fill:none;stroke:#fff;stroke-linecap:round;stroke-linejoin:round;stroke-width:0.4px;}</style></defs><g id="Layer_2" data-name="Layer 2"><g id="レイアウト"><rect class="cls-1" width="27.85" height="11.31" rx="1.99"/><path class="cls-2" d="M8.89,7.44V3.81h.73V6.73h1.51v.71Z"/><path class="cls-2" d="M11.64,7.44V3.81h.76V7.44Z"/><path class="cls-2" d="M15.07,7.44,14,5.2a4.35,4.35,0,0,1-.15-.6h0c0,.17.07.79.07,1.12V7.44h-.7V3.81h.85L15.12,6a2.81,2.81,0,0,1,.18.62h0a10.25,10.25,0,0,1-.09-1.08V3.81h.7V7.44Z"/><path class="cls-2" d="M16.71,7.44V3.81h2.37v.65H17.44v.76H18.8v.65H17.44v.91h1.74v.66Z"/><polyline class="cls-3" points="25.84 4.9 26.55 5.66 25.84 6.41"/></g></g></svg>