<svg xmlns="http://www.w3.org/2000/svg" xmlns:xlink="http://www.w3.org/1999/xlink" viewBox="0 0 279.22 103.94"><defs><style>.cls-1{fill:#fff;}.cls-2{fill:#b60005;}.cls-3{fill:url(#名称未設定グラデーション_3);}.cls-4{fill:#a30000;}.cls-5{fill:#b50005;}</style><linearGradient id="名称未設定グラデーション_3" x1="31.81" y1="43.11" x2="72.41" y2="83.71" gradientUnits="userSpaceOnUse"><stop offset="0" stop-color="#efd522"/><stop offset="0.24" stop-color="#f7f4cc"/><stop offset="0.44" stop-color="#eec51c"/><stop offset="1" stop-color="#eec51c"/></linearGradient></defs><g id="Layer_2" data-name="Layer 2"><g id="レイアウト"><path class="cls-1" d="M9,3.5H270.17A5.54,5.54,0,0,1,275.72,9V94.89a5.55,5.55,0,0,1-5.55,5.55H9A5.55,5.55,0,0,1,3.5,94.89V9A5.55,5.55,0,0,1,9,3.5Z"/><path class="cls-2" d="M270.17,7a2.05,2.05,0,0,1,2.05,2.05V94.9a2.05,2.05,0,0,1-2.05,2H9.05A2.05,2.05,0,0,1,7,94.9V9.05A2.05,2.05,0,0,1,9.05,7H270.17m0-7H9.05A9,9,0,0,0,0,9.05V94.9a9,9,0,0,0,9.05,9H270.17a9,9,0,0,0,9.05-9V9.05a9,9,0,0,0-9.05-9Z"/><path class="cls-2" d="M108.62,48.73V45.87c0-5.18,3.9-10.88,9-14,2.89-1.77,3.82-3.37,3.82-5a2.79,2.79,0,0,0-2.86-2.77c-1.72,0-3.17,1.28-3.21,3.89h-7.15c.08-6.18,3.94-10.44,11-10.44,6.22,0,10,3.82,10,9.08,0,4.21-2.41,7.31-8.12,10.56-1.72,1-3.73,3-4,4.94H129v6.55Z"/><path class="cls-2" d="M138.22,48.73V27.4h-5.1V22.62c3-.24,5.78-2,6.47-4.17h6.18V48.73Z"/><path class="cls-2" d="M158.06,35.75v-6h3.33a3.47,3.47,0,0,0,3.45-3.21A2.49,2.49,0,0,0,162.23,24a2.56,2.56,0,0,0-2.37,1,2.11,2.11,0,0,0-.4,1h-6.91c.73-5.55,4.38-8.4,10.21-8.4,6,0,9.67,3.54,9.67,8.07a6.59,6.59,0,0,1-4.57,6.71,7.94,7.94,0,0,1,5.82,7.83c0,5.66-4.06,9.36-11.16,9.36-6.23,0-10.53-3.45-11.17-9.6h7.35a3.36,3.36,0,0,0,3.69,3.09,3.41,3.41,0,0,0,3.54-3.25,4.07,4.07,0,0,0-4.26-4.06Z"/><path class="cls-2" d="M176.41,37.84v-7h15.38v7Z"/><path class="cls-2" d="M194.68,48.73V45.87c0-5.18,3.89-10.88,9-14,2.89-1.77,3.81-3.37,3.81-5a2.79,2.79,0,0,0-2.85-2.77c-1.73,0-3.17,1.28-3.21,3.89h-7.15c.08-6.18,3.93-10.44,11-10.44,6.23,0,10,3.82,10,9.08,0,4.21-2.41,7.31-8.11,10.56-1.73,1-3.74,3-4,4.94h11.89v6.55Z"/><path class="cls-2" d="M224.27,48.73V27.4h-5.1V22.62c3.06-.24,5.79-2,6.47-4.17h6.18V48.73Z"/><path class="cls-2" d="M244.11,35.75v-6h3.33a3.48,3.48,0,0,0,3.46-3.21A2.49,2.49,0,0,0,248.29,24a2.54,2.54,0,0,0-2.37,1,2.11,2.11,0,0,0-.4,1h-6.91c.72-5.55,4.38-8.4,10.2-8.4,6,0,9.68,3.54,9.68,8.07a6.6,6.6,0,0,1-4.58,6.71,7.94,7.94,0,0,1,5.82,7.83c0,5.66-4.05,9.36-11.16,9.36-6.23,0-10.52-3.45-11.17-9.6h7.35a3.36,3.36,0,0,0,3.7,3.09A3.4,3.4,0,0,0,252,39.81a4.07,4.07,0,0,0-4.25-4.06Z"/><path class="cls-2" d="M17.25,87.16V78.61h2.53a5.52,5.52,0,0,0-1.55,4.27,5.54,5.54,0,0,0,1.55,4.28Z"/><path class="cls-2" d="M26.32,83.12a.5.5,0,0,0,.3-.09.19.19,0,0,1,.11,0,.16.16,0,0,1,.1,0,5.33,5.33,0,0,1,.78.48.12.12,0,0,1,.06.09c0,.11-.26.24-.32.32a5.55,5.55,0,0,1-1.5,1.55,12.36,12.36,0,0,0,3.28.7,3.18,3.18,0,0,0-.46,1,11.73,11.73,0,0,1-3.82-1.1,12.26,12.26,0,0,1-4.09,1.11,3.34,3.34,0,0,0-.42-1,11.28,11.28,0,0,0,3.53-.72A7.43,7.43,0,0,1,22.44,84l-.49,0v-1c1.07,0,3,0,3.93,0Zm1.37.39c0-.48,0-1.09,0-1.09h-6v.12a9.18,9.18,0,0,0,0,1H20.67c0-.45,0-1.08,0-1.52v-.5h1.47a7.11,7.11,0,0,0-.71-1.15l.91-.25a5.51,5.51,0,0,1,.79,1.21l-.79.19h3.85A4.8,4.8,0,0,0,26.92,80c0-.15,0-.2.1-.2s1.13.14,1.13.33,0,.1-.14.16a.46.46,0,0,0-.19.21,6.2,6.2,0,0,1-.52,1h1.46v.26c0,.42,0,1.21,0,1.76Zm.83-3.92-.21,0-.18,0a52.91,52.91,0,0,1-7.12.49,2.85,2.85,0,0,0-.32-1h.77a36.92,36.92,0,0,0,6.09-.41c.07,0,.11-.07.16-.07s.25.13.91.72a.21.21,0,0,1,.07.15c0,.06-.05.11-.14.11Zm-3.67,5.46a3.43,3.43,0,0,0,1.2-1H23.58A5.78,5.78,0,0,0,24.85,85.05Zm-.43-3.61A4.56,4.56,0,0,0,24,80.12L24.9,80a5.43,5.43,0,0,1,.47,1.3Z"/><path class="cls-2" d="M31,87.16c0-1.19.05-2.47.05-3.52,0-.39,0-.76,0-1.07a13.36,13.36,0,0,1-.89,1.13,4.24,4.24,0,0,0-.47-1.16,8.43,8.43,0,0,0,2.08-3.65c0-.18,0-.27.09-.27h.05c.95.23,1.12.3,1.12.39s-.05.12-.16.19a.51.51,0,0,0-.18.24A13.57,13.57,0,0,1,32,81.11l.21,0c.08,0,.11,0,.11.09a.47.47,0,0,1-.08.2c-.09.12-.11.2-.11,2.1,0,1,0,2.28,0,3.63Zm7.46-5.75-1.2,0v4.53c0,1-.48,1.25-1.95,1.25l-.67,0a3.2,3.2,0,0,0-.33-1.07c.47,0,.81.05,1.08.05.72,0,.78-.14.79-.51,0-.85,0-2.15,0-3.39v-.85h-.88c-.94,0-1.83,0-2.69,0V80.32q1.26.06,2.64.06h.93a10.83,10.83,0,0,0-.07-1.47,1.57,1.57,0,0,1-.06-.23s0-.06.1-.06h0c1.09.07,1.26.09,1.26.21a.35.35,0,0,1-.1.19c-.11.13-.11.2-.11,1.35l1.19,0Zm-4,3.47a14,14,0,0,0-1.39-2.69l.92-.42a19.24,19.24,0,0,1,1.45,2.61Z"/><path class="cls-2" d="M41.27,85.87c0-.14,0-.31,0-.5h-.87c0,.33,0,.61,0,.84h-1c0-1.17,0-4.25,0-5.92V79.18h2.84v1.07c0,1.6,0,4.55,0,5.62Zm0-5.78h-.92v1.65h.92Zm0,4.37c0-.58,0-1.22,0-1.83h-.92c0,.6,0,1.24,0,1.83Zm6.48-2.23c-1,0-1.83,0-2.7,0s-1.7,0-2.6,0v-1c.7,0,1.37,0,2,.05,0-.26,0-.54,0-.82-.54,0-1.09,0-1.69,0v-1c.6,0,1.14.06,1.68.06a4.37,4.37,0,0,0,0-.7,1.65,1.65,0,0,1-.05-.22c0-.05,0-.06.1-.06h0c1.06.06,1.13.12,1.13.2a.34.34,0,0,1-.08.18.52.52,0,0,0-.1.34v.27c.57,0,1.18,0,1.84-.07v1c-.67,0-1.27,0-1.85,0,0,.26,0,.53,0,.82.73,0,1.48,0,2.28-.05Zm.1,1.78-1.19,0v1.9c0,.94-.36,1.26-1.6,1.26l-.64,0a2.83,2.83,0,0,0-.28-1,8.77,8.77,0,0,0,.88.06c.57,0,.64-.14.64-.48s0-1.13,0-1.74c-1.08,0-2.12,0-3.2,0V83c.9,0,1.76,0,2.64,0h.54a4.31,4.31,0,0,0,0-.52,1,1,0,0,1,0-.21s0-.07.1-.07h0c.86,0,1.13.08,1.13.2a.34.34,0,0,1-.08.18.52.52,0,0,0-.1.31v.1l1.19,0Zm-3.82,2a7.75,7.75,0,0,0-1.15-1.5l.76-.44a9,9,0,0,1,1.23,1.41Z"/><path class="cls-2" d="M49,87.16c.05-1.71.06-4.77.06-6.63V79h3.45v3.21H50c0,1.59,0,3.6.06,5Zm2.58-7.42H50v.49h1.56Zm0,1.15H50v.54h1.56Zm.33,5.18c0,.15,0,.3,0,.44h-1c0-.87,0-2.46,0-3.3v-.56h3.73v3.42Zm1.87-2.66H51.87V84h1.89Zm0,1.28H51.87v.63h1.89Zm2-2.5h-2.6V79h3.57v6.86c0,1-.29,1.32-1.82,1.32h-.4a2.65,2.65,0,0,0-.34-1c.36,0,.64,0,.85,0,.66,0,.74-.13.74-.43Zm0-2.45H54.06v.49h1.66Zm0,1.15H54.06v.54h1.66Z"/><path class="cls-2" d="M57.82,87.16a5.54,5.54,0,0,0,1.55-4.28,5.52,5.52,0,0,0-1.55-4.27h2.53v8.55Z"/><path class="cls-2" d="M69.11,85A1.24,1.24,0,0,0,70.4,86c.73,0,1.62-.69,1.62-2.64a2.18,2.18,0,0,1-1.89.93,2.71,2.71,0,0,1-2.83-2.94,3,3,0,0,1,3.11-3.15c1.86,0,3.33,1.26,3.33,4.43,0,3.49-1.42,4.93-3.36,4.93a2.88,2.88,0,0,1-3-2.49Zm1.33-5.25a1.36,1.36,0,0,0-1.37,1.52,1.33,1.33,0,0,0,1.36,1.42,1.6,1.6,0,0,0,1.46-1.23C71.83,80.3,71.17,79.78,70.44,79.78Z"/><path class="cls-2" d="M75.12,82.25V80.33H77v1.92Zm0,4.24V84.56H77v1.93Z"/><path class="cls-2" d="M78.26,82.83c0-2.32.89-4.67,3.33-4.67s3.31,2.32,3.31,4.67-.86,4.69-3.31,4.69S78.26,85.42,78.26,82.83Zm4.77,0c0-1.77-.48-3-1.44-3s-1.45,1.2-1.45,3,.51,3,1.45,3S83,84.73,83,82.83Z"/><path class="cls-2" d="M85.36,82.83c0-2.32.89-4.67,3.32-4.67S92,80.48,92,82.83s-.85,4.69-3.31,4.69S85.36,85.42,85.36,82.83Zm4.77,0c0-1.77-.48-3-1.45-3s-1.44,1.2-1.44,3,.5,3,1.44,3S90.13,84.73,90.13,82.83Z"/><path class="cls-2" d="M99.3,84.15a2.33,2.33,0,0,1-1.67.72c-.89,0-1.36-.64-2.14-.64a3.05,3.05,0,0,0-1.76.73V83.31a2.84,2.84,0,0,1,1.76-.73c.9,0,1.42.65,2.17.65a2.27,2.27,0,0,0,1.64-.75Z"/><path class="cls-2" d="M100.33,87.3v-.76a4.9,4.9,0,0,1,2.72-4c1-.55,1.44-1.11,1.44-1.69a1.08,1.08,0,0,0-1.17-1A1.33,1.33,0,0,0,102,81.22h-1.77a2.94,2.94,0,0,1,3.19-3.06,2.62,2.62,0,0,1,2.94,2.62c0,1.24-.76,2.17-2.48,3.08a2.68,2.68,0,0,0-1.53,1.81h4V87.3Z"/><path class="cls-2" d="M109.81,87.3V80.77h-1.55V79.58a2.16,2.16,0,0,0,1.95-1.19h1.46V87.3Z"/><path class="cls-2" d="M115.05,82.25V80.33h1.87v1.92Zm0,4.24V84.56h1.87v1.93Z"/><path class="cls-2" d="M118.2,82.83c0-2.32.89-4.67,3.32-4.67s3.31,2.32,3.31,4.67-.85,4.69-3.31,4.69S118.2,85.42,118.2,82.83Zm4.76,0c0-1.77-.48-3-1.44-3s-1.44,1.2-1.44,3,.5,3,1.44,3S123,84.73,123,82.83Z"/><path class="cls-2" d="M125.29,82.83c0-2.32.89-4.67,3.33-4.67s3.31,2.32,3.31,4.67-.86,4.69-3.31,4.69S125.29,85.42,125.29,82.83Zm4.77,0c0-1.77-.48-3-1.44-3s-1.45,1.2-1.45,3,.51,3,1.45,3S130.06,84.73,130.06,82.83Z"/><path class="cls-2" d="M143.65,84.93c-1.05,0-2.35,0-3.45-.05,0,.86,0,1.68,0,2.28H139.1c0-.6,0-1.41.05-2.28-1.55,0-2.86,0-4.29.05V83.87l1.64,0V81.69a5.63,5.63,0,0,1-.85.84,3.15,3.15,0,0,0-.72-.9,4.94,4.94,0,0,0,2-2.78c0-.17,0-.24.1-.24a8.77,8.77,0,0,1,1.1.27.14.14,0,0,1,.12.13c0,.06,0,.11-.12.16s-.15.13-.32.46c1.31,0,3.89,0,5.41,0v1c-.78,0-2,0-3,0v1.05c.85,0,1.8,0,2.38,0v1c-.64,0-1.59,0-2.38,0v1.4l3.47-.07Zm-4.48-4.36h-1.86a7.46,7.46,0,0,1-.75,1.06h2.61Zm-1.68,2v1.4h1.67c0-.48,0-1,0-1.41Z"/><path class="cls-2" d="M151.31,84.92c0-.21,0-.43,0-.68h-2.18c0,1,0,2,0,2.92H148c0-.86,0-1.94.05-2.92H146c0,.24,0,.47,0,.68h-1.13c0-1.17,0-3.27,0-4.24v-.53h3.17A7.6,7.6,0,0,0,148,78.9a1,1,0,0,1-.07-.22c0-.05,0-.07.13-.07h0c1.15.09,1.3.11,1.3.23a.39.39,0,0,1-.09.2.51.51,0,0,0-.11.35c0,.15,0,.35,0,.76h3.25v.67c0,1,0,3,0,4.1Zm-3.25-1.63V81.11h-2.13c0,.17,0,1.17,0,2.18Zm3.3-2.18h-2.22v2.18h2.21c0-.51,0-1,0-1.4Z"/><path class="cls-2" d="M162.17,85c-1.33,0-2.77,0-4.19,0s-2.83,0-4.12,0V84l1.16,0V82.55h-.17c-.37,0-.74,0-1.08,0h-.16v-1c.46,0,.94,0,1.41,0v-.85a1.67,1.67,0,0,1-.59.59,2.85,2.85,0,0,0-.57-.85,3.69,3.69,0,0,0,1.61-1.66c.06-.19.05-.26.14-.26h.06c1,.17,1,.27,1,.32s-.06.12-.16.19a.77.77,0,0,0-.2.28c1.37,0,3.93,0,5.6,0v.91H161v1.37c.44,0,.93,0,1.37,0v1c-.44,0-.93,0-1.37,0v1.52l1.14,0Zm-7.5.29c0-.14,0-.2.09-.2h.05c.28,0,.6.14.92.23.08,0,.13.07.13.13s-.05.13-.15.19-.2.15-.23.23a4.1,4.1,0,0,1-.82,1.29,4.65,4.65,0,0,0-1-.53A3.08,3.08,0,0,0,154.67,85.28Zm2.06-5h-.82v1.41h.82Zm0,2.28h-.82v1.55h.82Zm-.2,4.57c0-.2,0-.43,0-.65a10.75,10.75,0,0,0-.06-1.11l1,0a12.53,12.53,0,0,1,.12,1.77Zm1.9-6.85h-.83v1.42h.83Zm0,2.27h-.83v1.59h.83Zm.35,4.57a7.46,7.46,0,0,0-.39-1.73l1-.12a10.52,10.52,0,0,1,.46,1.72Zm1.36-6.83h-.85v1.41h.85Zm0,2.27h-.85V84.1h.85Zm1.22,4.63a8.08,8.08,0,0,0-1-1.76l.9-.29a9.13,9.13,0,0,1,1.12,1.64Z"/><path class="cls-2" d="M167.92,87.16c0-1.48.07-3.16.07-4.8a12.06,12.06,0,0,1-2.18,3.94,3.86,3.86,0,0,0-.54-.85c0,.55,0,1.13,0,1.71h-1.09c0-1.16.05-2.42.05-3.48,0-.39,0-.76,0-1.08a10,10,0,0,1-.8,1.1,4.63,4.63,0,0,0-.47-1.17,8.33,8.33,0,0,0,1.89-3.65c0-.11,0-.26.1-.26h0a8,8,0,0,1,1,.26c.09,0,.13.07.13.12s0,.1-.11.15a.67.67,0,0,0-.21.28,12.22,12.22,0,0,1-.69,1.68c.3,0,.33.06.33.12a.39.39,0,0,1-.09.2c-.09.13-.1.26-.1,2.35,0,.46,0,1,0,1.51a11.62,11.62,0,0,0,2.18-3.8l-1.79,0v-1c.83,0,1.58,0,2.32,0a13.56,13.56,0,0,0-.07-1.68,1.19,1.19,0,0,1-.07-.23s0-.06.11-.06h0c1.07.07,1.15.1,1.15.19a.47.47,0,0,1-.08.2c-.09.12-.12.29-.12,1.58.78,0,1.62,0,2.5,0v1l-2,0a16.73,16.73,0,0,0,2.37,3.86,3.54,3.54,0,0,0-.63.91,13.56,13.56,0,0,1-2.22-3.9c0,1.57,0,3.22.06,4.8Z"/><path class="cls-2" d="M176.59,87.44a7,7,0,0,1,0-8.74l.69.31a6.9,6.9,0,0,0,0,8.12Z"/><path class="cls-2" d="M181.84,83.58c-.08.09-.15.19-.23.29h2.3a.47.47,0,0,0,.28-.09.09.09,0,0,1,.08,0,2.11,2.11,0,0,1,.79.55c0,.11-.27.2-.36.28a4.08,4.08,0,0,1-1.29,1,13.77,13.77,0,0,0,2.92.28,2.64,2.64,0,0,0-.36.85A9.61,9.61,0,0,1,182.5,86a10.5,10.5,0,0,1-3.72.69,2.43,2.43,0,0,0-.32-.82,12.88,12.88,0,0,0,3.08-.31,2.68,2.68,0,0,1-1-.73,3,3,0,0,1-1.2.65,2.91,2.91,0,0,0-.5-.76,4.26,4.26,0,0,0,2.1-1.15H179.6V80.41h1.81a2.29,2.29,0,0,0,.16-.31l-2.89,0v-.83c1.24,0,2.46.06,3.69.06s2.47,0,3.74-.06v.83c-1.21,0-2.4,0-3.59,0a2.88,2.88,0,0,1-.13.31h2.84v3.17ZM184.37,81h-3.9v.29h3.9Zm0,.78h-3.9v.31h3.9Zm0,.82h-3.9V83h3.9Zm-3.16,1.91a5,5,0,0,0,1.23.73,4.79,4.79,0,0,0,1.19-.73Z"/><path class="cls-2" d="M194.42,81.32c-.74,0-1.83,0-2.62,0a11.56,11.56,0,0,0,2.92.83,2.25,2.25,0,0,0-.42.83,10.83,10.83,0,0,1-3.12-1.27c0,.38,0,.6,0,.94h-.93c0-.34,0-.55,0-.93a9.1,9.1,0,0,1-3,1.22,2.45,2.45,0,0,0-.41-.81,8.67,8.67,0,0,0,2.84-.81c-.76,0-1.85,0-2.54,0v-.83c1,0,2.07.05,3.16.06V80.1l-2.21.05a2.73,2.73,0,0,0-.31-.78h.63a24.31,24.31,0,0,0,4.1-.24c.07,0,.1-.07.15-.07h.06c.24.15.51.39.76.58a.15.15,0,0,1,.07.12.1.1,0,0,1-.11.1h0l-.22,0h-.1c-.53.08-1.18.14-1.92.18v.51c1.11,0,2.22,0,3.24-.06Zm.23,3.88-3.38,0v.56c0,.71-.22,1-1.37,1l-.6,0a2.61,2.61,0,0,0-.26-.83c.37,0,.63,0,.82,0,.42,0,.48-.07.48-.29v-.43l-3.41,0v-.84c1.09,0,2.26,0,3.41,0V84a11.66,11.66,0,0,0,1.3-.37h-.49c-.76,0-2.21,0-3.11,0v-.8c1.1,0,2.84,0,3.74,0h.58a.49.49,0,0,0,.27-.06.13.13,0,0,1,.08,0,.14.14,0,0,1,.09,0c.1,0,.75.41.75.53s-.27.15-.39.21a11.72,11.72,0,0,1-1.89.77v.11l3.38,0Z"/><path class="cls-2" d="M199.19,83.62a.76.76,0,0,1-.77-.75.77.77,0,0,1,1.54,0A.76.76,0,0,1,199.19,83.62Z"/><path class="cls-2" d="M210,84.7c-.94,0-2.11,0-3.09,0,0,.77,0,1.51,0,2h-1c0-.54,0-1.27,0-2-1.39,0-2.57,0-3.84,0v-1l1.47,0v-2a6,6,0,0,1-.76.75,3,3,0,0,0-.65-.8,4.46,4.46,0,0,0,1.78-2.49c0-.16,0-.22.09-.22a8.83,8.83,0,0,1,1,.24.12.12,0,0,1,.1.12.19.19,0,0,1-.1.15c-.12.07-.14.11-.29.41,1.17,0,3.48,0,4.84,0v.9l-2.71,0v.93l2.14,0v.89c-.58,0-1.43,0-2.14,0v1.25c1,0,2.16,0,3.11-.06Zm-4-3.9h-1.66a7.33,7.33,0,0,1-.67.95h2.33Zm-1.5,1.75V83.8h1.49c0-.43,0-.86,0-1.26Z"/><path class="cls-2" d="M213.88,86.7c0-.9,0-2.17,0-3.3A8.89,8.89,0,0,1,211,86a2.61,2.61,0,0,0-.53-.89A6.34,6.34,0,0,0,213.25,83c-.61,0-1.21,0-1.78,0v-.9l2.46,0c0-.36,0-.66,0-1-1,0-2.07,0-3.08,0v-1c1,0,2,.05,3.07.06a8.11,8.11,0,0,0-.06-1,.76.76,0,0,1,0-.19s0-.06.09-.06h0c1,.09,1.09.1,1.09.19a.31.31,0,0,1-.08.18.45.45,0,0,0-.08.31c0,.11,0,.31,0,.58,1,0,2.1,0,3.12-.06v1c-1.1,0-2.83,0-3.13,0v1c.83,0,1.69,0,2.52,0V83c-.6,0-1.24,0-1.85,0A7.15,7.15,0,0,0,218.35,85a2.57,2.57,0,0,0-.51.88,10,10,0,0,1-3-2.51c0,1.09,0,2.33,0,3.3Z"/><path class="cls-2" d="M226.74,84.7c-.93,0-2.1,0-3.08,0,0,.77,0,1.51,0,2h-1c0-.54,0-1.27,0-2-1.38,0-2.56,0-3.84,0v-1l1.47,0v-2a4.9,4.9,0,0,1-.76.75,3,3,0,0,0-.64-.8,4.46,4.46,0,0,0,1.78-2.49c0-.16,0-.22.09-.22a8.68,8.68,0,0,1,1,.24.14.14,0,0,1,.11.12s0,.1-.11.15-.14.11-.28.41c1.17,0,3.48,0,4.84,0v.9l-2.71,0v.93l2.13,0v.89c-.57,0-1.42,0-2.13,0v1.25c1,0,2.16,0,3.1-.06Zm-4-3.9h-1.66a7.33,7.33,0,0,1-.67.95h2.33Zm-1.5,1.75V83.8h1.49c0-.43,0-.86,0-1.26Z"/><path class="cls-2" d="M230.21,85.77l-.77-.68a5.56,5.56,0,0,1-1.6,1.61,2.78,2.78,0,0,0-.53-.81,4.35,4.35,0,0,0,1.43-1.35l-.42-.31c0,.13-.07.24-.1.35l-.83-.34a24.5,24.5,0,0,0,.72-2.82h-.78v-.87l.93,0a9.33,9.33,0,0,0,.17-1.25v-.18s0-.09.06-.09h0c1,.16,1,.2,1,.28a.19.19,0,0,1-.07.13.43.43,0,0,0-.15.28c0,.23-.09.52-.15.84h1.42a11.62,11.62,0,0,1-.69,3.71c.28.2.56.43.86.67ZM229,81.41c-.13.65-.29,1.35-.45,2l.59.38a8.39,8.39,0,0,0,.49-2.39Zm5.32,1.44c-.09-.22-.17-.44-.26-.64-1.08.16-2,.26-2.77.3a.58.58,0,0,0-.31.11.36.36,0,0,1-.17.08s-.08,0-.11-.13a6.4,6.4,0,0,1-.17-.86c0-.06,0-.07.08-.07h.08l.25,0a9.13,9.13,0,0,0,1.06-2.4c0-.16,0-.22.07-.22h.07c.79.1,1,.15,1,.26a.19.19,0,0,1-.09.14.72.72,0,0,0-.19.25,18.28,18.28,0,0,1-.9,1.93c.53,0,1.14-.1,1.72-.18a10.76,10.76,0,0,0-.62-1.06l.79-.29a13.69,13.69,0,0,1,1.31,2.39Zm-.64,3.85c0-.16,0-.32,0-.49h-1.89c0,.17,0,.34,0,.49h-1c0-.86,0-2.48,0-3.23v-.41h3.69v.4c0,.75,0,2.34,0,3.24Zm.05-2.8h-1.94s0,.7,0,1.48h1.92c0-.4,0-.76,0-1Z"/><path class="cls-2" d="M239.77,85.06c0-.43,0-.77,0-1-.65.32-1,.65-1,.95,0,.48,1,.54,1.46.54a5.77,5.77,0,0,0,2.13-.39,6,6,0,0,0-.05.77c0,.14,0,.28,0,.41-.57,0-1.26.1-1.93.1-2.34,0-2.55-.85-2.55-1.38,0-.91,1-1.53,1.94-2,0-.46-.23-.52-.49-.52-1,0-1.78,1.55-2.05,2.14l-1-.67a10.42,10.42,0,0,0,1.88-2.78l-1.14,0h-.23l-.15-1a5.11,5.11,0,0,0,1,.07c.24,0,.53,0,.85,0a6.2,6.2,0,0,0,.2-.91v0c0-.07,0-.12,0-.15s0,0,0,0h0l1.1.19c.06,0,.09,0,.09.06a.29.29,0,0,1-.06.1.75.75,0,0,0-.15.29c-.06.14-.11.28-.16.41a7.76,7.76,0,0,0,1.9-.4l0,1c-.61.11-1.42.23-2.26.3-.09.22-.2.45-.31.69a1.84,1.84,0,0,1,.63-.12,1.16,1.16,0,0,1,1.13,1,14,14,0,0,0,1.6-.8c.12-.06.16-.13.19-.13s0,0,0,0c.13.2.52.78.61,1a.13.13,0,0,1,0,.06s0,.06-.14.07a19.24,19.24,0,0,0-2.22.74c0,.38,0,.9,0,1.42Z"/><path class="cls-2" d="M244.55,86.7c0-1.75,0-4.24,0-5.83V79.36h1.58a.31.31,0,0,0,.24-.08l.07,0a2,2,0,0,1,.76.46c0,.09-.16.18-.21.32-.21.65-.47,1.36-.72,2a4.18,4.18,0,0,1,.75,2c0,.72-.46,1.1-1.29,1.1h-.15a2.43,2.43,0,0,0-.19-.77c0,.79,0,1.6,0,2.34Zm.87-6.52v1.39c0,.75,0,1.71,0,2.72h.28c.33,0,.53-.11.53-.45a4.06,4.06,0,0,0-.79-1.79,15.51,15.51,0,0,0,.73-1.88Zm2.24,3.76c0-.14,0-.18.08-.18s.88.25.88.39,0,.08-.11.14a.45.45,0,0,0-.17.2,6.79,6.79,0,0,1-1.19,1.75,3.71,3.71,0,0,0-.67-.61A3.73,3.73,0,0,0,247.66,83.94Zm4.19-.35-2,0v2.06c0,.84-.26,1.09-1.28,1.09h-.4a3,3,0,0,0-.23-.87l.6,0c.36,0,.43-.07.43-.3v-2l-1.95,0v-.88c.64,0,1.32,0,1.95,0v-.68l-1.13,0v-.49a6.45,6.45,0,0,1-.73.45,3.34,3.34,0,0,0-.48-.84,3.89,3.89,0,0,0,2.16-2c0-.15,0-.19.1-.19H249c.91.08.95.18.95.23s0,.08-.09.12l-.08.07a7.62,7.62,0,0,0,2.38,1.6,3.33,3.33,0,0,0-.44.92,7.14,7.14,0,0,1-.79-.47v.57l-1,0v.68c.65,0,1.31,0,2,0Zm-2.56-3.4a5.43,5.43,0,0,1-1.06,1.09l1.08,0c.39,0,.76,0,1.21,0A7.38,7.38,0,0,1,249.29,80.19Zm1.62,3.61a8.82,8.82,0,0,0,1.19,1.81,4.61,4.61,0,0,0-.7.58,12.72,12.72,0,0,1-1.24-2Z"/><path class="cls-2" d="M257.76,86.87a12.21,12.21,0,0,0-2.95-3,1.11,1.11,0,0,1-.06-1.89,11.88,11.88,0,0,0,2.44-2.58c.07-.14.08-.23.13-.23h0c.29.27.78.69,1,.9a.17.17,0,0,1,.06.11s-.05.1-.13.11a.69.69,0,0,0-.34.19c-1,.86-1.62,1.43-2.47,2.17a.33.33,0,0,0-.16.25q0,.13.18.24A22.07,22.07,0,0,1,258.69,86Z"/><path class="cls-2" d="M260,87.13A6.9,6.9,0,0,0,260,79l.69-.31a7,7,0,0,1,0,8.74Z"/><path class="cls-3" d="M77.52,73.51H26.7c-6.27,0-11.34-4.52-11.34-10.1h0c0-5.58,5.07-10.11,11.34-10.11H77.52c6.26,0,11.34,4.53,11.34,10.11h0C88.86,69,83.78,73.51,77.52,73.51Z"/><path class="cls-4" d="M35.25,64.57H33.76c0,.61,0,1.22.07,1.76H32c0-.54.06-1.15.06-1.76H30.67c0,.72,0,1.45.06,2.13H29c.6.3,1.21.36,3.6.36,1.54,0,3.23-.07,5-.21a9.38,9.38,0,0,0-.53,2s-4.65,0-6.87,0a3.92,3.92,0,0,1-2.82-1.12,13.91,13.91,0,0,1-1.27.94.66.66,0,0,0-.3.37.25.25,0,0,1-.21.2c-.07,0-.17-.07-.23-.25a15.11,15.11,0,0,1-.58-1.82c0-.07,0-.07.22-.11a3.68,3.68,0,0,0,1.2-.7v-3h-.27a5.38,5.38,0,0,0-1,.07v-2c.78.08,2,.1,2.63.1h.48v4.68a4.06,4.06,0,0,0,.72.5c.11-2.09.11-7.06.11-7.06h1.85a9.9,9.9,0,0,0-1.09-.43l1.2-.54c-.81,0-1.62,0-2.23,0V57.09c1.85.06,4.13.06,5.27.06h.74a1,1,0,0,0,.58-.14.45.45,0,0,1,.2-.09.52.52,0,0,1,.21.09c1.4.81,1.53,1,1.53,1.08s-.53.38-.81.61a13.83,13.83,0,0,1-1.13.83H37v5.41c0,1.42-.28,1.76-1.91,1.76h-.69a5.32,5.32,0,0,0-.47-1.54c.38,0,.65.06.85.06.44,0,.48-.1.48-.29Zm-8-4.19a13.06,13.06,0,0,0-2.32-2.32l1.34-1.22A13.29,13.29,0,0,1,28.69,59Zm4.83.5H30.64v.53h1.41Zm0,1.82h-1.4a5.33,5.33,0,0,1,0,.57H32Zm-.6-4.15c.51.18,1.08.44,1.66.71a7.72,7.72,0,0,0,1.17-.71Zm3.81,2.33H33.73v.53h1.52Zm0,1.82H33.73c0,.19,0,.37,0,.57h1.51Z"/><path class="cls-4" d="M44.33,60.38c-.93,0-1.81-.07-2.68-.07s-1.74,0-2.63.07V58.73c.92.06,1.77.09,2.64.09s1.74,0,2.67-.09ZM44,62c-.77,0-1.54-.05-2.31-.05s-1.5,0-2.25.05V60.55c.76.05,1.51.07,2.27.07s1.52,0,2.29-.07Zm0,1.68c-.77,0-1.54-.05-2.31-.05s-1.5,0-2.25.05V62.23c.76.05,1.51.07,2.27.07s1.52,0,2.29-.07Zm-1.82,5.2c0-.11,0-.24,0-.37h-.94c0,.2,0,.38,0,.57H39.5c.06-1.34.06-3.37.06-4.44V64H44v.72c0,1.06,0,3.11.06,4.21Zm1.59-10.36c-.7,0-1.38,0-2.05,0s-1.34,0-2,0V57.09c.69,0,1.35.06,2,.06s1.33,0,2-.06Zm-1.52,7h-1V67h1Zm7.09,3.63c0-.17,0-.35,0-.52H46.87a4.67,4.67,0,0,1,0,.52H45c.06-1.16.06-3,.06-4.33v-1.5H47.1V62l-2.65.07V60.18c.93,0,1.75.06,2.65.07V59.16c-.65.05-1.32.1-2,.13a7.75,7.75,0,0,0-.57-1.74h.28a17.69,17.69,0,0,0,5-.58c.1-.08.18-.15.25-.15a4.92,4.92,0,0,1,1.33,1.58c0,.12-.11.16-.27.16h-.21a.79.79,0,0,0-.2,0,13.37,13.37,0,0,1-1.74.35v1.33c.89,0,1.88,0,2.84-.07v1.88c-1,0-1.95-.05-2.84-.07v1.35h2.24v.82c0,1.22,0,3.58.06,5ZM46.83,65s0,.89,0,2h2.59c0-1.06,0-2,0-2Z"/><path class="cls-4" d="M65.78,65.86c-2,0-4.07-.07-6.16-.07s-4.16,0-6.07.07V64.08l1.54,0v-1.6c-.61,0-1.24,0-1.84,0V60.75l1.84,0v-.54a7.3,7.3,0,0,1-.61.43,6.33,6.33,0,0,0-1-1.58A4.37,4.37,0,0,0,55.63,57c.06-.24,0-.32.22-.32H56c.52.07,1,.17,1.58.3.13,0,.18.1.18.18s0,.17-.18.25a1,1,0,0,0-.29.25c2.08,0,5.85,0,8.16-.07v1.74l-1.14,0v1.45l1.77,0v1.82l-1.77,0v1.6l1.48,0Zm-11.3.33c0-.21,0-.26.1-.26a.26.26,0,0,1,.11,0,12.81,12.81,0,0,1,1.78.41c.12,0,.19.12.19.2s-.06.16-.19.23a.61.61,0,0,0-.28.33,8.1,8.1,0,0,1-1.07,2,9.53,9.53,0,0,0-1.87-.86A5.15,5.15,0,0,0,54.48,66.19Zm3.1-6.88h-.74v1.51c.22,0,.53,0,.74,0Zm0,3.19h-.3a3,3,0,0,0-.44,0v1.64h.74Zm-.33,6.6c0-.53.06-1,.06-1.53s0-.85,0-1.28l1.81-.07a16.2,16.2,0,0,1,.11,2c0,.27,0,.54,0,.82ZM60,59.31h-.77v1.54H60Zm0,3.19h-.77v1.67H60Zm.49,6.58a15.68,15.68,0,0,0-.45-2.78l1.81-.18a15.76,15.76,0,0,1,.59,2.73Zm2-9.75h-.83v1.51c.26,0,.57,0,.83,0Zm0,3.19c-.26,0-.57,0-.83,0v1.66h.83Zm1.65,6.65A14,14,0,0,0,63,66.35l1.78-.43a14.37,14.37,0,0,1,1.33,2.59Z"/><path class="cls-4" d="M69.44,69.17c0-.9.06-2.22.09-3.69a23.54,23.54,0,0,1-1.2,2.5,8.68,8.68,0,0,0-.84-2.06A12.31,12.31,0,0,0,69.2,62.5l-1.52,0V60.81c.63,0,1.28.06,1.89.07,0-2,0-3.63-.07-3.79a1.71,1.71,0,0,1-.08-.3c0-.07,0-.09.19-.09h.08c1.76,0,1.85.18,1.85.29a.39.39,0,0,1-.15.27.65.65,0,0,0-.15.45c0,.48,0,1.68,0,3.17.57,0,1.21,0,1.78-.07v1.72l-1.67,0A11,11,0,0,0,73,64.43a8.51,8.51,0,0,0-.71,1.83c-.37-.52-.71-1.07-1-1.61,0,1.7,0,3.33.06,4.52Zm-1.25-8.46a15.16,15.16,0,0,0-.5-3.06L69,57.34a18.24,18.24,0,0,1,.55,3.06Zm3.56-3.1a1.94,1.94,0,0,1,0-.22c0-.07,0-.1.08-.1a.22.22,0,0,1,.1,0c1.25.15,1.34.3,1.34.38a.38.38,0,0,1-.13.24.58.58,0,0,0-.14.33c-.09.64-.2,1.5-.43,2.51a8.2,8.2,0,0,0-1.28-.4,11.81,11.81,0,0,0,.47-2.64Zm5.3,11.56c0-.9,0-2,0-3.18-1.32.3-2.64.64-3.93,1l-.44-2c1.46-.24,2.91-.54,4.39-.9V62.55A54.21,54.21,0,0,0,77,57.09a.79.79,0,0,1-.1-.28c0-.07.06-.1.18-.1h.12c2,.1,2.16.2,2.16.36a.42.42,0,0,1-.14.27.51.51,0,0,0-.16.41c0,.78,0,3.2,0,5.86l.87-.25.45,2L79,65.58c0,1.27,0,2.52.06,3.59Zm-1.9-4.9A13.5,13.5,0,0,0,73,61.37l1.48-1a14.91,14.91,0,0,1,2.22,2.74ZM75.49,61a13.67,13.67,0,0,0-2-2.93l1.47-.94a14.5,14.5,0,0,1,2.14,2.79Z"/><rect class="cls-5" x="95.74" y="56.08" width="165.13" height="16.04"/><path class="cls-1" d="M123.49,69.61c-1.92,0-3.87,0-5.82,0s-3.88,0-5.77,0V67.77l2.36,0c.81,0,1.62,0,2.39,0,0-1.28,0-2.68,0-4-1.29,0-2.69,0-3.94.05V62.05c1.25,0,2.65.07,3.94.07a21.67,21.67,0,0,0-.13-3.11,1,1,0,0,1-.08-.27c0-.06,0-.08.14-.08h.09c1.92.09,2.26.15,2.26.33a.41.41,0,0,1-.12.25.65.65,0,0,0-.17.47c0,.27,0,1.17,0,2.42,1.42,0,2.72,0,4.13-.08v1.83c-1.4,0-2.7-.05-4.13-.05,0,1.27,0,2.68,0,4,1.66,0,3.2,0,4.83-.08Z"/><path class="cls-1" d="M133.59,70c0-.25,0-.48,0-.74h-5.13c0,.25,0,.5,0,.74h-2c.07-2.62.08-6.57.08-8.93V59.08h8.86V60c0,2,0,6.92.08,10Zm.09-9.19h-5.22V63.2h5.22Zm-5.22,4.06c0,.89,0,1.79,0,2.71h5.18c0-.93,0-1.83,0-2.71Z"/><path class="cls-1" d="M141.15,65.59a1.29,1.29,0,0,1-1.32-1.29,1.32,1.32,0,0,1,2.63,0A1.29,1.29,0,0,1,141.15,65.59Z"/><path class="cls-1" d="M148.14,70c0-1.32.05-2.76.07-3.83-.31.32-.65.63-1,.95a6.19,6.19,0,0,0-.53-1.94,8,8,0,0,0,2.53-3.07H149c-.46,0-1.44,0-2,.07V60.47l1.3.05a8.55,8.55,0,0,0-.08-1.49,1.3,1.3,0,0,1-.08-.29c0-.06,0-.08.16-.08h.06c.5,0,1,.07,1.57.13.16,0,.22.09.22.17a.42.42,0,0,1-.09.21c-.13.16-.18.22-.18,1.35a.4.4,0,0,0,.22-.12.2.2,0,0,1,.13,0,4.52,4.52,0,0,1,1.2.61c.09,0,.11.1.11.16s-.23.33-.32.54A17.92,17.92,0,0,1,150,63.92a9.87,9.87,0,0,0,1.76,1.53,5.39,5.39,0,0,0-.79,1.55,13.85,13.85,0,0,1-1.09-1.07c0,1.31,0,2.84,0,4Zm6.47-5.4H154c-.09,2.33-.48,4.11-2.87,5.4a5.74,5.74,0,0,0-.92-1.65c1.92-.79,2.09-2.37,2.18-3.75h-1V59.19h6.1v5.36h-1.36v3.21c0,.06,0,.19.24.19s.34-.31.34-2a4.13,4.13,0,0,0,1.48.78c-.09,2.75-.58,2.87-1.93,2.87s-1.74-.23-1.74-1.79ZM156,60.76H153.1V63H156Z"/><path class="cls-1" d="M168.38,70c0-.25,0-.48,0-.74h-5.13c0,.25,0,.5,0,.74h-2c.06-2.62.08-6.57.08-8.93V59.08h8.86V60c0,2,0,6.92.07,10Zm.09-9.19h-5.23V63.2h5.23Zm-5.23,4.06c0,.89,0,1.79,0,2.71h5.17c0-.93,0-1.83,0-2.71Z"/><path class="cls-1" d="M179.89,68.23a1.72,1.72,0,0,0,1.84-1.7A3.45,3.45,0,0,0,180.16,64a5.65,5.65,0,0,0,1.74-.57,4.46,4.46,0,0,1,1.59,3.22A3.4,3.4,0,0,1,179.91,70a3.1,3.1,0,0,1-3.22-3c0-.14,0-.26.07-.71A2.22,2.22,0,0,1,175,64.15a2,2,0,0,1,1.06-1.75l1,.84c-.42.21-.61.5-.61.74a.51.51,0,0,0,.31.47l.2.1c.1-.7.22-1.42.34-2.15a5.9,5.9,0,0,1-1.45-.83l.46-1.78a3.36,3.36,0,0,0,1.21,1c.06-.6.11-1.17.13-1.65v0c0-.12,0-.23,0-.29s0-.07.05-.07l.06,0,1.95.54c.14,0,.18.07.18.13s0,.1-.1.16-.24.3-.56,1.81a5.59,5.59,0,0,0,1.19.14,3.43,3.43,0,0,0,.47,0l-.24,1.71a8.45,8.45,0,0,1-1.74-.24c-.11.63-.23,1.3-.32,1.94a6.91,6.91,0,0,0,.78,0,5.45,5.45,0,0,0,1.19-.12l-.31,1.82a5.86,5.86,0,0,1-.75,0,11,11,0,0,1-1.12-.07.15.15,0,0,0,0,.07v.12a1.49,1.49,0,0,0,1.48,1.46Z"/><path class="cls-1" d="M197.16,68.55a27.07,27.07,0,0,1-4.48.42,15,15,0,0,1-1.85-.11c-1.63-.2-2.66-1.16-2.66-2.38a3.4,3.4,0,0,1,1.19-2.36l1.43.91c-.57.54-.87,1-.87,1.35,0,.59.83.84,2.6.84a13.55,13.55,0,0,0,4.55-.77Zm-6.08-6c.23-.15.56-.42.79-.6L190,62h-.68l-.18-1.89a9.92,9.92,0,0,0,2.42.22,16.22,16.22,0,0,0,2.86-.22c.22,0,.32-.12.39-.12a.07.07,0,0,1,.06,0c.09.13.9,1.43.9,1.51s-.32.15-.55.25a12.64,12.64,0,0,0-2.72,1.69Zm4.51,1.81A9.06,9.06,0,0,0,194.46,63l.86-.52a12.85,12.85,0,0,1,1.16,1.3Zm1.33-.67a9.15,9.15,0,0,0-1.12-1.34l.86-.5a15.39,15.39,0,0,1,1.15,1.29Z"/><path class="cls-1" d="M204.87,68.83c-.36-.57-.75-1.13-1.11-1.59a9.77,9.77,0,0,1-2.33,2.69,7.2,7.2,0,0,0-1.13-1.58,7.16,7.16,0,0,0,2.29-2.67,19.39,19.39,0,0,0-2.09-2.33l1.25-1a17.05,17.05,0,0,1,1.41,1.41,13,13,0,0,0,.18-1.86h-.53c-.81,0-1.6,0-2.41,0V60.21c.61,0,1.2.08,1.8.1v-.42a3.84,3.84,0,0,0-.06-.86,1.3,1.3,0,0,1-.08-.29c0-.06,0-.08.16-.08h.06c1.69,0,1.88.15,1.88.29a.39.39,0,0,1-.09.2c-.14.2-.18.26-.18,1.15.55,0,1.11,0,1.69-.09V62h-.52a13.43,13.43,0,0,1-.53,3.44c.57.7,1.18,1.44,1.76,2.27Zm2.3-2a14.39,14.39,0,0,0-1.41-3.52l1.49-.48a16.63,16.63,0,0,1,1.51,3.44Zm3.76,1.23c0,1.48-.63,1.9-2.53,1.9l-.94,0a5.48,5.48,0,0,0-.49-1.73c.6,0,1.05.07,1.38.07.74,0,.82-.14.83-.56,0-1.28,0-3.46,0-5.31h-.6c-.93,0-1.83,0-2.8,0V60.66c1.2.08,2.27.1,3.39.1,0-.91-.05-1.58-.09-1.75a1.32,1.32,0,0,1-.07-.27c0-.06,0-.08.17-.08h.08c1.7.09,1.93.13,1.93.3a.34.34,0,0,1-.13.24.54.54,0,0,0-.14.38c0,.13,0,.54,0,1.13l.92-.05v1.78l-.94,0Z"/><path class="cls-1" d="M221.91,63.84a24.71,24.71,0,0,0-3.11-1.69l.69-1.14h-3.26v1.81a18.64,18.64,0,0,1-1,7.13,8.07,8.07,0,0,0-1.56-1.19,15.25,15.25,0,0,0,.84-6V59.48h4.31a2,2,0,0,0-.06-.45,1.3,1.3,0,0,1-.08-.29c0-.06,0-.08.16-.08h.06c.5,0,1.32.08,1.71.12.16,0,.22.09.22.17a.32.32,0,0,1-.09.2.63.63,0,0,0-.15.31c1.65,0,3.28,0,4.43-.06v1.67C223.6,61,221.67,61,220,61a21,21,0,0,1,2.82,1.45Zm-5.25.32c0-.09,0-.11.06-.11h.09a10.77,10.77,0,0,1,1.54.32.18.18,0,0,1,.14.16.26.26,0,0,1-.13.2.45.45,0,0,0-.16.3,17.17,17.17,0,0,1-.69,3.22,6.4,6.4,0,0,0-1.56-.73,8.48,8.48,0,0,0,.71-3.1Zm7,3.65c-.07-.32-.13-.63-.21-.93-.4,2.83-.89,2.85-2.66,2.85-1.23,0-2.27-.08-2.27-1.37v0c0-1,0-2.08,0-3a12.94,12.94,0,0,0-.07-1.87c0-.14-.06-.23-.06-.28s0-.08.13-.08h.05c1.78.08,1.93.15,1.93.29a.38.38,0,0,1-.13.24.49.49,0,0,0-.13.32v4c0,.23.07.29.56.29.68,0,.85,0,1-2.06a6.4,6.4,0,0,0,1.61.67,11.91,11.91,0,0,0-.94-2.62l1.54-.52a16.45,16.45,0,0,1,1.26,3.58Z"/><path class="cls-1" d="M236.12,67.15c0-.22,0-.45,0-.68h-2.41c0,1.16,0,2.34,0,3.48h-2c0-1.07,0-2.28,0-3.48h-2.22c0,.23,0,.46,0,.68h-1.88c.05-1.58.06-3.76.06-5.12V60.71h4a9.53,9.53,0,0,0-.09-1.67,1,1,0,0,1-.09-.27c0-.07,0-.09.17-.09h.1c1.69.11,2.12.15,2.12.36a.39.39,0,0,1-.12.24.52.52,0,0,0-.2.38c0,.23,0,.59,0,1.05H238V62.3c0,1.4,0,3.43.05,4.85Zm-4.25-4.8h-2.26v2.48h2.25c0-.62,0-1.2,0-1.76Zm4.32,0h-2.46v2.48h2.46Z"/><path class="cls-1" d="M243.29,69V67.06h1.88V69Zm.27-2.73a71.34,71.34,0,0,1-.26-7.3h1.87c0,2.39,0,4.88-.27,7.3Z"/><path class="cls-2" d="M20.1,49.45a20.71,20.71,0,0,1,0-25.78l3,1.39a18.66,18.66,0,0,0-3.66,11.5,18.66,18.66,0,0,0,3.66,11.5Z"/><path class="cls-2" d="M25.61,35.56c0-4.71,1.77-10.21,7.28-10.21s7.23,5.42,7.23,10.21c0,5-1.7,10.26-7.23,10.26S25.61,40.94,25.61,35.56Zm9.64,0c0-3.42-.77-5.92-2.36-5.92s-2.4,2.42-2.4,5.92c0,3.73.85,6,2.4,6S35.25,39.29,35.25,35.56Z"/><path class="cls-2" d="M44.77,45.28V31.62H41.5V28.56c2-.15,3.71-1.26,4.14-2.67h4V45.28Z"/><path class="cls-2" d="M53.8,45.28V43.46c0-3.32,2.49-7,5.76-9C61.41,33.37,62,32.34,62,31.31a1.78,1.78,0,0,0-1.82-1.77c-1.11,0-2,.82-2.06,2.49H53.54c.05-4,2.52-6.68,7.07-6.68,4,0,6.41,2.44,6.41,5.81,0,2.7-1.54,4.68-5.2,6.77a5.13,5.13,0,0,0-2.57,3.16h7.61v4.19Z"/><path class="cls-2" d="M68.87,35.56c0-4.71,1.77-10.21,7.28-10.21s7.23,5.42,7.23,10.21c0,5-1.7,10.26-7.23,10.26S68.87,40.94,68.87,35.56Zm9.65,0c0-3.42-.78-5.92-2.37-5.92s-2.39,2.42-2.39,5.92c0,3.73.84,6,2.39,6S78.52,39.29,78.52,35.56Z"/><path class="cls-2" d="M85.53,38.31V33.83h9.86v4.48Z"/><path class="cls-2" d="M96.49,48.06a18.65,18.65,0,0,0,3.65-11.5,18.65,18.65,0,0,0-3.65-11.5l3-1.39a20.71,20.71,0,0,1,0,25.78Z"/></g></g></svg>