<svg xmlns="http://www.w3.org/2000/svg" viewBox="0 0 24.824 6.86"><defs><style>.cls-1,.cls-3{fill:#b00005;}.cls-2{fill:none;stroke:#b00005;stroke-linecap:round;stroke-linejoin:round;stroke-width:0.318px;}.cls-3{font-size:1.803px;font-family:CezanneProN-B, CezanneProN B-90ms-RKSJ-H;}</style></defs><g id="Layer_2" data-name="Layer 2"><g id="レイアウト"><path class="cls-1" d="M14.189.85a.137.137,0,0,0-.137-.137H9.975A.137.137,0,0,0,9.838.85V3.3a.559.559,0,0,0,.558.558h3.236a.559.559,0,0,0,.557-.558Zm-.557,2.735H10.4a.284.284,0,0,1-.284-.283V1.214l1.481,1.454a.6.6,0,0,0,.841,0l1.481-1.454V3.3A.283.283,0,0,1,13.632,3.585Zm-3.36-2.6h3.483L12.242,2.472a.327.327,0,0,1-.457,0Z"/><path class="cls-1" d="M4.711.981A.137.137,0,0,0,4.573.844H3.758l-.23-.69A.137.137,0,0,0,3.4.06H1.57a.138.138,0,0,0-.131.094l-.23.69H.394A.137.137,0,0,0,.257.981V3.855a.137.137,0,0,0,.137.137H4.573a.138.138,0,0,0,.138-.137ZM1.668.335H3.3l.17.509H1.5ZM4.436,3.717H.531v-2.6H4.436ZM2.484,1.432a.986.986,0,1,0,.986.986A.987.987,0,0,0,2.484,1.432Zm0,1.7A.712.712,0,1,1,3.2,2.418.713.713,0,0,1,2.484,3.13Z"/><path class="cls-1" d="M22.3.511a1.75,1.75,0,1,0-.443,2.8l1.105,1.1a.139.139,0,0,0,.2,0l.569-.57a.136.136,0,0,0,0-.194l-1.105-1.1A1.752,1.752,0,0,0,22.3.511Zm-2.279,2.28a1.474,1.474,0,1,1,1.042.432A1.477,1.477,0,0,1,20.024,2.791Zm2.279.194a1.737,1.737,0,0,0,.172-.2l.963.963-.376.376L22.1,3.157A1.742,1.742,0,0,0,22.3,2.985Zm-.2-1.237a1.035,1.035,0,1,0-.3.732A1.028,1.028,0,0,0,22.1,1.748Zm-1.572.538a.759.759,0,1,1,.537.223A.756.756,0,0,1,20.529,2.286Z"/><polyline class="cls-2" points="6.807 1.933 7.373 2.533 6.807 3.133"/><polyline class="cls-2" points="16.995 1.933 17.561 2.533 16.995 3.133"/><text class="cls-3" transform="translate(0 6.249)">①撮る</text><text id="_送る" data-name="②送る" class="cls-3" transform="translate(9.707 6.249)">②送る</text><text class="cls-3" transform="translate(19.414 6.249)">③査定</text></g></g></svg>