<svg xmlns="http://www.w3.org/2000/svg" viewBox="0 0 24.82 6.86"><defs><style>.cls-1,.cls-3{fill:#b50005;}.cls-2{fill:none;stroke:#b50005;stroke-linecap:round;stroke-linejoin:round;stroke-width:0.32px;}.cls-3{font-size:1.8px;font-family:CezanneProN-B, CezanneProN B-90ms-RKSJ-H;}</style></defs><g id="Layer_2" data-name="Layer 2"><g id="メインビジュアル"><path class="cls-1" d="M14.61.85a.13.13,0,0,0-.13-.14H10.4a.14.14,0,0,0-.14.14V3.3a.56.56,0,0,0,.56.56h3.24a.56.56,0,0,0,.55-.56Zm-.55,2.74H10.82a.28.28,0,0,1-.28-.29V1.21L12,2.67a.59.59,0,0,0,.42.17.63.63,0,0,0,.42-.17l1.48-1.46V3.3A.29.29,0,0,1,14.06,3.59ZM10.7,1h3.48L12.67,2.47a.32.32,0,0,1-.46,0Z"/><path class="cls-1" d="M5.13,1A.14.14,0,0,0,5,.84H4.18L4,.15A.14.14,0,0,0,3.82.06H2a.14.14,0,0,0-.13.09L1.63.84H.82A.14.14,0,0,0,.68,1V3.85A.14.14,0,0,0,.82,4H5a.13.13,0,0,0,.13-.14Zm-3-.65H3.72l.17.51h-2ZM4.86,3.72H1V1.12h3.9ZM2.91,1.43a1,1,0,1,0,1,1A1,1,0,0,0,2.91,1.43Zm0,1.7a.71.71,0,1,1,.71-.71A.71.71,0,0,1,2.91,3.13Z"/><path class="cls-1" d="M22.73.51A1.75,1.75,0,0,0,20.25,3a1.71,1.71,0,0,0,1.24.52,1.77,1.77,0,0,0,.79-.19l1.11,1.1a.12.12,0,0,0,.1,0,.11.11,0,0,0,.09,0l.57-.57a.12.12,0,0,0,0-.19l-1.1-1.11A1.76,1.76,0,0,0,22.73.51ZM20.45,2.79a1.46,1.46,0,0,1,0-2.08,1.45,1.45,0,0,1,2.08,0,1.47,1.47,0,0,1-2.08,2.08ZM22.73,3a1.63,1.63,0,0,0,.17-.2l1,1-.37.38-1-1Zm-.2-1.23A1,1,0,0,0,22.22,1a1,1,0,0,0-1.46,0,1,1,0,0,0-.3.73,1,1,0,0,0,.3.73,1,1,0,0,0,1.46,0A1,1,0,0,0,22.53,1.75ZM21,2.29a.79.79,0,0,1-.22-.54A.76.76,0,0,1,21,1.21a.77.77,0,0,1,1.08,0,.76.76,0,0,1,.22.54.79.79,0,0,1-.22.54.77.77,0,0,1-1.08,0Z"/><polyline class="cls-2" points="7.23 1.93 7.8 2.53 7.23 3.13"/><polyline class="cls-2" points="17.42 1.93 17.98 2.53 17.42 3.13"/><text class="cls-3" transform="translate(0 6.25)">①撮る</text><text class="cls-3" transform="translate(9.71 6.25)">①送る</text><text class="cls-3" transform="translate(19.41 6.25)">①査定</text></g></g></svg>