<svg xmlns="http://www.w3.org/2000/svg" viewBox="0 0 278.52 53.87"><defs><style>.cls-1{fill:#b60005;}.cls-2{fill:#fff;}.cls-3{fill:none;stroke:#fff;stroke-linecap:round;stroke-linejoin:round;stroke-width:2px;}</style></defs><g id="Layer_2" data-name="Layer 2"><g id="レイアウト"><path class="cls-1" d="M269.48,53.87H9.05c-5,0-9-3.06-9-6.84V6.83C0,3.06,4.05,0,9.05,0H269.48c5,0,9,3.06,9,6.83V47C278.52,50.81,274.47,53.87,269.48,53.87Z"/><path class="cls-2" d="M105.35,44.9c0-.39,0-.76,0-1.25-1,.23-2,.41-2.76.53a.94.94,0,0,0-.31.12.35.35,0,0,1-.16.06c-.13,0-.31-.79-.31-.79s0,0,.05,0h.15c.18,0,.46,0,.8-.07V40.3l-1,0v-.71c1.4,0,2.86.07,4.34.07s3,0,4.38-.07v.71c-1.45,0-3,0-4.49,0,0,.88,0,3.26.06,4.63Zm-2.2-5.71V36.51h6.21v2.68Zm2.26,1.08-1.89,0v.56h1.89Zm0,1.13h-1.89V42h1.89Zm0,1.19h-1.88v.79c.58-.08,1.31-.2,1.88-.33Zm3.28-5.5h-4.85v.49h4.85Zm0,1h-4.85v.54h4.85ZM110,40.85a5.13,5.13,0,0,1-1.16,2.48,4.9,4.9,0,0,0,1.69.87,2.28,2.28,0,0,0-.38.7,5.77,5.77,0,0,1-1.8-1.11,6,6,0,0,1-1.79,1.1,2,2,0,0,0-.4-.65,5,5,0,0,0,1.71-.92,5.14,5.14,0,0,1-1-1.85h-.52v-.67c.78,0,2.31,0,3.13,0Zm-1.65,2a3.56,3.56,0,0,0,.78-1.44l-1.59,0A4,4,0,0,0,108.39,42.87Z"/><path class="cls-2" d="M118.32,41h-2c-1.47,0-3,0-4.36.05v-.75c1.4,0,2.81.07,4.23.07s2.84,0,4.27-.07v.75l-1.36,0v2.63c0,1-.49,1.24-1.53,1.24h-.46a2.67,2.67,0,0,0-.25-.79c.36,0,.62,0,.83,0,.53,0,.66-.13.66-.59Zm1.21-2.61a7.28,7.28,0,0,0,0-.86v-.11h-6.76v.1a7.88,7.88,0,0,0,0,.87h-.79c0-.37,0-.87,0-1.21v-.38h3.65c0-.13,0-.23,0-.36a1.52,1.52,0,0,1-.06-.27s0,0,.08,0h0c.4,0,.89,0,.89.16a.59.59,0,0,1-.08.2.89.89,0,0,0-.07.32h3.78V37c0,.31,0,.93,0,1.38Zm-.33.32c-.56,0-1.75-.06-2.38-.06.63.63,1.5.8,3.06.8a2.39,2.39,0,0,0-.3.7c-1.42-.1-2.46-.24-3.4-1.34-.59,1-1.76,1.24-3.38,1.34a1.94,1.94,0,0,0-.31-.7h.14c1.41,0,2.44-.15,2.89-.8-.78,0-1.58,0-2.35.06v-.68c.86,0,1.72.07,2.58.07a2.22,2.22,0,0,0,0-.38V37.6c0-.08,0-.12.07-.12h0c.66.09.76.11.76.18a.26.26,0,0,1-.07.14,1,1,0,0,0-.15.32c.91,0,1.83,0,2.77-.07ZM116.3,44c0-.1,0-.24,0-.33H113.9c0,.17,0,.37,0,.54h-.75c0-.58,0-1.4,0-2V41.6H117v.56c0,.5,0,1.25,0,1.85Zm0-1.8h-2.43v.86h2.43Z"/><path class="cls-2" d="M124,42.2a6.28,6.28,0,0,1-.33-2.32c0-1.1.12-2.22.18-2.85V37c0-.06,0-.11,0-.14s0,0,0,0h.05c1,.23,1,.28,1,.34a.12.12,0,0,1-.06.09.59.59,0,0,0-.21.38,10.26,10.26,0,0,0-.25,2.11,4.39,4.39,0,0,0,.07.84l.74-1.33.41.29a5.74,5.74,0,0,0-.76,2.52Zm3.83-1.33c0-.16,0-.37,0-.61a22.4,22.4,0,0,0-.23-3.13c0-.13-.1-.23-.1-.29s0,0,.08,0c1.1,0,1.12.1,1.12.15a.41.41,0,0,1,0,.12,1.82,1.82,0,0,0-.08.8c0,.67.06,1.52.06,2.33A4.51,4.51,0,0,1,125.38,45a3.26,3.26,0,0,0-.68-.81A3.47,3.47,0,0,0,127.8,40.87Z"/><path class="cls-2" d="M136.36,43.37a2.81,2.81,0,0,0,3.06-2.79,2.74,2.74,0,0,0-2.55-2.74c-.38,2.82-1.66,6.2-3,6.2-.73,0-1.66-1.15-1.66-2.75a4,4,0,0,1,4.12-4.15,3.53,3.53,0,0,1,3.87,3.49,3.65,3.65,0,0,1-3.47,3.62,3,3,0,0,0-.49-.88ZM133,41.25c0,1,.47,1.88.91,1.88.19,0,.38-.13.56-.4a13,13,0,0,0,1.65-4.93A3.36,3.36,0,0,0,133,41.25Z"/><path class="cls-2" d="M150.43,37.81c-1.67-.05-4.23-.06-5.77-.06h-1.27v1.73a10.4,10.4,0,0,1-1.08,5.42,2.94,2.94,0,0,0-.62-.61c.65-1.12.93-2.31.93-4.81V37.07H146a3.44,3.44,0,0,0,0-.61,1.52,1.52,0,0,1-.06-.27s0,0,.08,0h0c.82.07.92.11.92.17a.47.47,0,0,1-.07.21,1.3,1.3,0,0,0-.08.55c1.32,0,2.68,0,3.62-.06Zm-1.69,7.09c0-.19,0-.38,0-.57H144.9c0,.2,0,.39,0,.57h-.81c0-.9,0-2.4,0-3.18v-.51h1.95c0-.36,0-.78,0-1.21a13.28,13.28,0,0,0-.06-1.73A2,2,0,0,1,146,38s0,0,.08,0h0c.89.07.92.16.92.2a.5.5,0,0,1-.07.19,1.68,1.68,0,0,0-.1.78h.83c.83,0,1.92,0,2.55,0v.73c-.87,0-2.65,0-3.38,0v1.43h2.66v.5c0,.76,0,2.24,0,3.19Zm0-3h-3.9s0,.89,0,1.76h3.88c0-.44,0-.88,0-1.21Z"/><path class="cls-2" d="M155.53,41c-.64,0-1.23-.05-1.82-.05s-1.19,0-1.83.05v-.71c.54,0,1.06.06,1.55.07,0-.26,0-.67,0-1-.34,0-.7,0-1.05,0V39q-.18.2-.39.39a2.37,2.37,0,0,0-.31-.71,5.21,5.21,0,0,0,1.64-2.29c0-.15,0-.2.09-.2h0a3.88,3.88,0,0,1,.64.14q.09,0,.09.09a.21.21,0,0,1-.09.13.44.44,0,0,0-.08.11,6.75,6.75,0,0,0,1.75,1.56,2.46,2.46,0,0,0-.42.61,8.31,8.31,0,0,1-1.65-1.59,8.63,8.63,0,0,1-1.18,1.61l.91.06a4.05,4.05,0,0,0,0-.61c0-.14-.06-.22-.06-.27s0,0,.06,0h.05c.65.06.73.09.73.18a.67.67,0,0,1-.06.19,1,1,0,0,0-.06.4v.15c.35,0,.72,0,1.11-.07v.67c-.39,0-.76,0-1.11,0v1l1.48-.07Zm-1.09,3.77c0-.13,0-.28,0-.44H153c0,.19,0,.37,0,.54h-.73c0-.77,0-2,0-2.71v-.6h2.78v.64c0,.77,0,2,0,2.57Zm0-2.61H153s0,.75,0,1.57h1.42c0-.4,0-.79,0-1.08Zm5.1.12H158.3c0,.79,0,1.57,0,2.26h-.76c0-.67,0-1.45,0-2.26h-1.14c0,1,0,2,.05,2.59h-.79c0-1,.06-3.45.06-5V38.59h1.84c0-.26,0-.52,0-.74-.72,0-1.41,0-2.1,0v-.7l1,0,1.06,0c0-.42,0-.71,0-.79s-.05-.21-.05-.25a.07.07,0,0,1,.08-.07h0c.23,0,.48,0,.7.09.07,0,.09,0,.09.08a.78.78,0,0,1-.06.19,2.09,2.09,0,0,0-.08.75l1.33,0a5.77,5.77,0,0,0-1-.64l.41-.45a7,7,0,0,1,1,.7l-.36.39,1,0v.7c-.82,0-1.63,0-2.4,0v.74h2v5.2c0,.85-.31,1.11-1.15,1.11l-.47,0a1.86,1.86,0,0,0-.19-.68l.6,0c.47,0,.54-.11.54-.44Zm-1.93-3.12h-1.17v.92h1.17Zm-1.17,1.49v1.06h1.15c0-.34,0-.72,0-1.06Zm3.1-1.49h-1.29v.92h1.29Zm0,1.49h-1.29c0,.34,0,.71,0,1.06h1.28Z"/><path class="cls-2" d="M166.55,42.93c0-.57,0-1,0-1.34-.88.37-1.57.83-1.57,1.39,0,.4.32.8,1.79.8a8,8,0,0,0,2.4-.38,3.44,3.44,0,0,0-.06.63c0,.12,0,.23,0,.34-.68.05-1.49.13-2.24.13-1,0-2.67-.14-2.67-1.53,0-1,1-1.59,2.32-2.12,0-.41-.16-.88-.77-.88-.93,0-1.74,1-2.47,2.42l-.81-.56a12.43,12.43,0,0,0,2.24-3.42l-1.74.07-.1-.87a5.62,5.62,0,0,0,1.14.08l1,0a7.66,7.66,0,0,0,.25-1s0-.06,0-.08a1.39,1.39,0,0,0,0-.15s0,0,0,0h0c1,.12,1,.19,1,.23s0,0-.06.1a.75.75,0,0,0-.18.33q-.1.3-.21.57a7.75,7.75,0,0,0,2.31-.47V38a21.26,21.26,0,0,1-2.59.34,11.43,11.43,0,0,1-.7,1.4,2,2,0,0,1,1.17-.39,1.25,1.25,0,0,1,1.21,1.2,18,18,0,0,0,2-1c.13-.07.17-.15.21-.15a.05.05,0,0,1,0,0,7.93,7.93,0,0,1,.51.82.11.11,0,0,1,0,.07s-.05.08-.16.09a12,12,0,0,0-2.54.85c0,.42,0,1,0,1.59Z"/><path class="cls-2" d="M173.7,43.75c0,.92-.3,1.15-1.32,1.15H172a3.71,3.71,0,0,0-.27-.78,6.16,6.16,0,0,0,.66,0c.54,0,.56-.16.57-.59,0-.58,0-1.37,0-2.2-.67.33-.69.35-.75.42s-.13.15-.19.15-.28-.57-.34-.83a.25.25,0,0,1,0-.08c0-.05,0-.05.17-.06a4.79,4.79,0,0,0,1.13-.37v-1.9c-.38,0-.76,0-1.19,0V38c.43,0,.81.06,1.18.07a12.92,12.92,0,0,0-.07-1.62c0-.12-.07-.21-.07-.25s0-.07.09-.07h0c.88.07.93.11.93.2a.42.42,0,0,1-.08.18c-.09.16-.1.37-.12,1.55l1-.06v.72l-1,0v1.57a7.59,7.59,0,0,0,.79-.44v.71l-.79.47v.85c0,.68,0,1.31,0,1.81ZM177,44.9c.05-1.11.07-2.47.07-3.48a8.33,8.33,0,0,1-2.53,2.91,3.12,3.12,0,0,0-.45-.71,5.65,5.65,0,0,0,2.4-2.46l-1.83,0v-.7l1.2,0,1.19,0a2.56,2.56,0,0,0-.05-.64c0-.12,0-.21,0-.25s0-.06.08-.06h0c.84.07.88.13.88.19a.55.55,0,0,1-.08.19.79.79,0,0,0-.08.38v.19c.84,0,1.71,0,2.65-.06v.7l-2.08,0a6,6,0,0,0,2.39,2.36,3.12,3.12,0,0,0-.45.71,8.65,8.65,0,0,1-2.53-2.85c0,.88,0,2.22.06,3.52Zm-.59-7.24c0-.06,0-.11,0-.15s0-.08.06-.08h.05c.75.12.75.21.75.24a.22.22,0,0,1-.06.14.45.45,0,0,0-.13.29c-.13,1.19-.64,1.68-2.12,2a2.79,2.79,0,0,0-.37-.67c1.57-.2,1.83-.67,1.83-1.61Zm3.14.58a7.75,7.75,0,0,0,0-.89v-.12h-4v.14a8.63,8.63,0,0,0,0,1h-.81c0-.49,0-1.18,0-1.54v-.23h5.48v.22c0,.34,0,1,0,1.45Zm-1.65.72c0-.15,0-.32,0-.48a6,6,0,0,0,0-.69,2.35,2.35,0,0,1,0-.25s0,0,.06,0h0c.73.06.78.09.78.16a.55.55,0,0,1-.08.19s0,.09,0,.13a2.28,2.28,0,0,0,0,.54c0,.14,0,.3,0,.43s.05.25.58.25.66,0,.68-.86a2.13,2.13,0,0,0,.65.28c-.16,1-.24,1.22-1.34,1.22s-1.25-.21-1.25-.83Z"/><path class="cls-2" d="M190.19,38.51a12.86,12.86,0,0,0-2.24-.12h-.89c0,.22,0,.46,0,.69s0,.66,0,.95a2.22,2.22,0,0,1,.35,1.31,4,4,0,0,1-2.28,3.55,2.46,2.46,0,0,0-.78-.66,3,3,0,0,0,2.24-2.4,1.26,1.26,0,0,1-1.1.55,1.32,1.32,0,0,1-1.33-1.49,1.43,1.43,0,0,1,1.47-1.61,1.55,1.55,0,0,1,.73.18c0-.21,0-.61,0-1-1.43,0-3.08.14-3.56.23-.3.06-.41.13-.46.13s0,0,0,0c0-.23-.11-.65-.14-.9v0a0,0,0,0,1,0,0,2.73,2.73,0,0,0,.47.07h.21c.68,0,2.08-.06,3.45-.09,0-.43,0-.81-.07-1s-.08-.14-.08-.18,0,0,.08,0h0c.1,0,1,0,1,.17a.28.28,0,0,1-.05.12c-.1.16-.12.3-.12.93,1.3,0,2.3,0,3.12-.07Zm-3.86,2.17a.67.67,0,0,0-.69-.74.86.86,0,0,0-.77,1c0,.41.2.8.7.8C186.25,41.69,186.33,40.87,186.33,40.68Z"/><polyline class="cls-3" points="249.08 19.23 257.24 27.1 249.08 34.64"/><path class="cls-2" d="M53.16,8H19.29a6.87,6.87,0,0,0-6.86,6.86v5.61a1.34,1.34,0,0,0,1.35,1.35h2.15V44.49a1.34,1.34,0,0,0,1.35,1.35H55.17a1.35,1.35,0,0,0,1.36-1.35V21.84h2.14A1.35,1.35,0,0,0,60,20.49V14.88A6.87,6.87,0,0,0,53.16,8ZM29.55,43.14V30.29h5.32V43.14Zm8,0V30.29H42.9V43.14Zm16.24,0H45.61V28.94a1.35,1.35,0,0,0-1.35-1.36H28.2a1.36,1.36,0,0,0-1.36,1.36v14.2h-8.2V21.84H53.82Zm3.5-24H15.13V14.88a4.16,4.16,0,0,1,4.16-4.15H53.16a4.15,4.15,0,0,1,4.16,4.15Z"/><path class="cls-2" d="M123.33,17.38c-2.37-.06-5.71-.08-8.1-.08h-2.75v2.18a22.43,22.43,0,0,1-1.33,8.64,10,10,0,0,0-1.92-1.47,17.35,17.35,0,0,0,1.14-7.25v-4h5.25a3.8,3.8,0,0,0-.08-.8,1.19,1.19,0,0,1-.1-.35c0-.08,0-.1.19-.1h.08c.63,0,1.63.1,2.21.15.19,0,.27.11.27.2a.56.56,0,0,1-.11.26.58.58,0,0,0-.19.46.41.41,0,0,1,0,.16c2,0,4,0,5.46-.08ZM120,28.12a6.28,6.28,0,0,0,0-.64h-4.82c0,.21,0,.44,0,.64H113c.08-1.57.08-4.3.08-5.58v-.69h2.89V20.63a21.71,21.71,0,0,0-.08-2.73,3.29,3.29,0,0,1-.08-.34c0-.08,0-.1.19-.1h.09a20.19,20.19,0,0,1,2.08.18c.18,0,.26.1.26.19a.47.47,0,0,1-.16.31.59.59,0,0,0-.18.46v.18c1.4,0,3.51,0,5.09-.12v2.05c-1.56-.08-3.71-.08-5.12-.08v1.22h4.08v.86c0,1.35,0,3.89.07,5.41Zm.08-4.35h-4.9v1.79H120Z"/><path class="cls-2" d="M137.36,27.75c0-.83,0-1.93,0-3.13h-.79c0,1.31,0,2.59.1,3.5h-2.1c.08-1.81.1-5.7.1-8.1V18h2.72v-.56c-1,0-1.95,0-2.94.05-.26.53-.41.94-.41.94a13.67,13.67,0,0,1-2.57-1.87c-.21.29-.43.54-.67.82,1.85.11,1.9.21,1.9.35a.45.45,0,0,1-.13.27.71.71,0,0,0-.13.43v.18c.53,0,1.08,0,1.6-.06v1.68c-.54,0-1.08,0-1.63,0v.61c.69,0,1.38-.05,2.1-.1v1.74c-1.07,0-2.07-.08-3.06-.08s-2,0-3.07.08V20.68l1.12.06,1.07,0v-.61l-1.58,0V19c-.13.1-.28.19-.4.29a6.46,6.46,0,0,0-.56-2.15,5.47,5.47,0,0,0,2.49-2.65c.05-.28,0-.39.15-.39a.26.26,0,0,1,.11,0c1.76.24,2.06.35,2.06.57a.29.29,0,0,1-.2.26,1.33,1.33,0,0,1-.12.06,9.57,9.57,0,0,0,1.93,1.24v-.71l2.91.07a7.36,7.36,0,0,0-.1-1.09.94.94,0,0,1-.09-.31c0-.09.06-.11.2-.11h.12c2,.07,2.13.24,2.13.35a.45.45,0,0,1-.16.29.57.57,0,0,0-.18.47c0,.06,0,.2,0,.4l1,0a9.19,9.19,0,0,0-.52-.85l1.5-.51a9,9,0,0,1,1.18,2.13l-.38.14v1l-2.83-.05V18H142v8.2c0,1.53-.41,1.93-1.74,1.93h-.51a7,7,0,0,0-.47-2c0,.61,0,1.17,0,1.66Zm-5.23.23c0-.18,0-.37,0-.55h-1.27c0,.23,0,.45,0,.69h-2c0-1.5,0-3.37,0-4.45v-.88h5.23v1.57c0,1.14,0,2.63.05,3.62Zm-1.62-10.24c-.29.28-.59.55-.93.83l1,0A4,4,0,0,0,130.51,17.74Zm1.68,6.77h-1.31v1.21h1.31Zm5.25-4.79h-.83v.77h.83Zm0,3.28c0-.3,0-.59,0-.9h-.83c0,.29,0,.6,0,.9Zm2.73-3.28h-.85v.77h.85Zm0,2.38h-.85V23h.85Zm0,2.52h-.84v1.44a4.39,4.39,0,0,0,.52.05c.25,0,.32-.08.32-.28Z"/><path class="cls-2" d="M157.23,24.47a11,11,0,0,0,4.16,1.32,5.78,5.78,0,0,0-.89,2,12,12,0,0,1-5.33-2.54c0,.89,0,1.93,0,2.89H153c0-.83.05-1.85.05-2.83a12,12,0,0,1-5.21,2.46,5.22,5.22,0,0,0-.89-2,10.38,10.38,0,0,0,4.11-1.3c-1.25,0-2.48,0-3.71.05V22.63c1.9.05,3.78.08,5.65.08a5.06,5.06,0,0,0,0-.53,30,30,0,0,1-4.26.21A4.89,4.89,0,0,0,148,20.7c.82,0,1.57,0,2.28,0a15.65,15.65,0,0,0,2.58-.16l-1.41-.33c-.2.16-.39.32-.58.46L149,19.86a10.13,10.13,0,0,0,1.12-.88l-1.65,0v-.77h-1.13c.09-.8.11-2,.11-2.68v-.49h5.46a2.28,2.28,0,0,0-.08-.53,1.19,1.19,0,0,1-.1-.35c0-.08.05-.1.19-.1H153c2.37.07,2.47.18,2.47.35a.61.61,0,0,1-.11.26c-.15.18-.18.19-.2.37h5.73v.32c0,.61,0,2,.08,2.85h-1.13V19l-1.7,0a6.33,6.33,0,0,1-.88,1.19c.91.22,1.87.49,2.88.8l-1.09,1.58c-1.16-.45-2.28-.83-3.41-1.18a7.53,7.53,0,0,1-.91.38c.19,0,.35.05.51.07s.26.09.26.19a.45.45,0,0,1-.16.3.58.58,0,0,0-.18.4c1.91,0,3.85,0,5.81-.08v1.89Zm-7.71-7.62v.45l2.29,0a5.45,5.45,0,0,0,.36-.49ZM152.75,19l-.14.14c.84.16,1.71.34,2.61.55a4.29,4.29,0,0,0,.72-.69Zm6.12-2.12h-4.5c-.1.16-.21.32-.34.5,1.59,0,3.15,0,4.84-.05Z"/><path class="cls-2" d="M177.19,23.63l-1.69,1.58A36.66,36.66,0,0,0,173.2,22a9.55,9.55,0,0,1-3,3.89,8.79,8.79,0,0,0-1.22-2c0,1.46.05,2.93.08,4.27h-2.37c.08-3.18.1-8.74.1-11V16H172a8.72,8.72,0,0,0-.08-1.5,1.15,1.15,0,0,1-.08-.31c0-.08.05-.09.18-.09h.09c2.29.09,2.48.21,2.48.38a.43.43,0,0,1-.16.29.62.62,0,0,0-.22.5c0,.16,0,.41,0,.73h5.23v9.73c0,1.83-.54,2.36-2.82,2.36-.36,0-.78,0-1.24,0a5.88,5.88,0,0,0-.55-2c.66.05,1.14.08,1.49.08.9,0,.95-.17.95-.61ZM168.93,18c0,1,0,3.26,0,5.73a7.07,7.07,0,0,0,3-5.73Zm8.26,0H174c-.05.56-.09,1.14-.17,1.63,1.07,1.15,2.22,2.47,3.33,3.88Z"/></g></g></svg>