<svg xmlns="http://www.w3.org/2000/svg" viewBox="0 0 4.06 2.65"><defs><style>.cls-1{fill:#b50005;}.cls-2{fill:#fff;}</style></defs><g id="Layer_2" data-name="Layer 2"><g id="レイアウト"><rect class="cls-1" width="4.06" height="2.65"/><path class="cls-2" d="M1,2.06a.51.51,0,0,1-.5-.53c0-.27.27-.49.5-.62.23.13.5.35.5.62a.51.51,0,0,1-.5.53m1.53-.53c0-.27.27-.49.5-.62.23.13.5.35.5.62a.5.5,0,1,1-1,0M4.06.41A2.45,2.45,0,0,0,3,.64a2.29,2.29,0,0,0-2,0A2.45,2.45,0,0,0,0,.41V.64A2.07,2.07,0,0,1,.77.79a1,1,0,0,0-.5.74A.76.76,0,0,0,1,2.28a.74.74,0,0,0,.73-.75A.94.94,0,0,0,1.28.79a1.95,1.95,0,0,1,1.5,0,.94.94,0,0,0-.48.74A.74.74,0,0,0,3,2.28a.75.75,0,0,0,.75-.75A1,1,0,0,0,3.29.79,2.07,2.07,0,0,1,4.06.64Z"/></g></g></svg>