<svg xmlns="http://www.w3.org/2000/svg" viewBox="0 0 68.35 63.04"><defs><style>.cls-1{fill:#fff;}.cls-2{fill:none;stroke:#b50005;stroke-linecap:round;stroke-linejoin:round;stroke-width:0.35px;}.cls-3{fill:#b20005;}.cls-4{fill:#b50005;}.cls-5{fill:#f3cc60;}.cls-6{fill:#b40005;}.cls-7{fill:#004093;}.cls-8{fill:#878ec3;}</style></defs><g id="Layer_2" data-name="Layer 2"><g id="レイアウト"><path class="cls-1" d="M65.2.18h-62a3,3,0,0,0-3,3V11a3,3,0,0,0,3,3H32.47l1.72,3.8,1.7-3.8H65.2a3,3,0,0,0,3-3V3.15A3,3,0,0,0,65.2.18Z"/><path class="cls-2" d="M65.2.18h-62a3,3,0,0,0-3,3V11a3,3,0,0,0,3,3H32.47l1.72,3.8,1.7-3.8H65.2a3,3,0,0,0,3-3V3.15A3,3,0,0,0,65.2.18Z"/><path class="cls-3" d="M21.12,5.9c0,.06,0,.11,0,.17h-.47c0-.3,0-.81,0-1l-.09,0a1.46,1.46,0,0,0-.18-.37c0,.35,0,.82,0,1.5h-.5c0-.73,0-1.53,0-2V3.86h.72a1.18,1.18,0,0,0-.11-.27h-.7V3.12l1.31,0a.39.39,0,0,0,0-.13l0-.08s0,0,.05,0h0l.52,0c.05,0,.06,0,.06.05l0,.06a.12.12,0,0,0,0,.09l1.35,0V3.6h-.76a.77.77,0,0,1-.08.27H23V5.65c0,.43-.07.55-.6.55h-.32A.91.91,0,0,0,22,5.9ZM20.4,4.29v.35c.24-.06.35-.16.38-.35Zm2.08.19c-.06.36-.11.38-.53.38s-.52,0-.52-.28V4.29h-.19a.77.77,0,0,1-.35.64h1.32v.2c0,.17,0,.43,0,.62.25,0,.26,0,.26-.14ZM21.1,3.59a.88.88,0,0,1,.1.27h.46a.77.77,0,0,0,.11-.27Zm.66,1.72h-.64v.22h.64Zm.72-1h-.59v.17s0,0,.08,0,.12,0,.12-.18a1.29,1.29,0,0,0,.39.13Z"/><path class="cls-3" d="M24.57,6.2s0-.09,0-.13h-.41s0,.09,0,.13h-.52c0-.36,0-.85,0-1.2V4.5h1.41v.3c0,.37,0,1,0,1.4ZM24,4.3V3h2.45V4.3Zm.58,1.31c0-.29,0-.5,0-.65h-.43v.65Zm1.35-2.13H24.52v.36h1.41Zm.34,2.72V6.07h-.48s0,.09,0,.13h-.52c0-.36,0-.85,0-1.2V4.5h1.49v.3c0,.37,0,1,0,1.4Zm0-1.24h-.5v.65h.5Z"/><path class="cls-3" d="M27.66,5.35s0-.07,0-.07.54.1.54.18,0,0-.05.06a.18.18,0,0,0-.07.09,2.7,2.7,0,0,1-.32.59A2.86,2.86,0,0,0,27.3,6,1.69,1.69,0,0,0,27.66,5.35Zm.12-.11V4h.86V3.68a5.13,5.13,0,0,0,0-.67l0-.08s0,0,0,0h0c.52,0,.58,0,.58.08a.1.1,0,0,1,0,.08.13.13,0,0,0,0,.1v.09c.35,0,1,0,1.41,0v.49H29.16V4h1.07V5.24Zm1.91-.82H28.32v.37h1.37ZM28.36,6.19c0-.14,0-.28,0-.41s0-.22,0-.34l.48,0a4.71,4.71,0,0,1,0,.53v.22Zm.86,0a4,4,0,0,0-.12-.73l.48,0a4.52,4.52,0,0,1,.16.72Zm1,0a4.88,4.88,0,0,0-.36-.79l.46-.14a6,6,0,0,1,.4.76Z"/><path class="cls-3" d="M32.69,6l-.4-.22a2,2,0,0,1-1,.38,1.19,1.19,0,0,0-.2-.43,2.07,2.07,0,0,0,.74-.17l-.16-.06-.07.09-.41-.19A2.65,2.65,0,0,0,31.5,5l-.4,0V4.59l.3,0h.31a.48.48,0,0,0,.05-.11c0-.07,0-.09,0-.09h.05c0-.09,0-.21,0-.31a2.29,2.29,0,0,1-.54.46,1.42,1.42,0,0,0-.25-.4,1.37,1.37,0,0,0,.52-.3l-.45,0v-.4h.29a1.26,1.26,0,0,0-.26-.4L31.54,3a1.71,1.71,0,0,1,.28.42l-.26.1h.31a3.35,3.35,0,0,0,0-.5.12.12,0,0,1,0-.07s0,0,.05,0h0c.47,0,.49.06.49.09s0,0,0,.07,0,.06,0,.44h.28l-.24-.1A1,1,0,0,0,32.57,3s0-.06,0-.06.43.09.43.15a.07.07,0,0,1,0,.05l-.06,0v0a2,2,0,0,1-.15.27H33v.4l-.43,0a1,1,0,0,0,.34.25A2.62,2.62,0,0,0,33.2,3V3a.2.2,0,0,1,0-.07s0,0,0,0h0c.5.06.51.08.51.12a.07.07,0,0,1,0,.06.15.15,0,0,0-.06.11c0,.08,0,.17,0,.25.23,0,.56,0,.81,0v.49h-.16a3.27,3.27,0,0,1-.33,1.33,2.56,2.56,0,0,0,.53.5,1.48,1.48,0,0,0-.25.46,2.89,2.89,0,0,1-.55-.56A3.11,3.11,0,0,1,33,6.2a1.44,1.44,0,0,0-.17-.35ZM32,5l-.1.17.3.11A1.25,1.25,0,0,0,32.34,5Zm.11-.56s.18,0,.18.08l-.05,0,0,0,.81,0a2.52,2.52,0,0,0-.15-.27.79.79,0,0,0-.09.2,2.13,2.13,0,0,1-.46-.43v.36ZM33,5h-.25a1.34,1.34,0,0,1-.19.44,2.52,2.52,0,0,1,.34.15,2.14,2.14,0,0,0,.47-.4,3.18,3.18,0,0,1-.2-.66l-.13.2a.67.67,0,0,0,0-.12Zm.47-1.14a3.94,3.94,0,0,0,.16.83,3.57,3.57,0,0,0,.14-.83Z"/><path class="cls-3" d="M35,5.82a4.48,4.48,0,0,0,.67-1.35,1.1,1.1,0,0,0-.41.11l0,0s0,0,0,0S35,4.18,35,4.06V4s0,0,0,0h.06A5.51,5.51,0,0,0,35.78,4a3.37,3.37,0,0,0,.07-.69V3.2s0,0,0,0h0c.15,0,.43.06.55.08s0,0,0,0a.08.08,0,0,1,0,0s0,0-.16.57h.2c.61,0,.62.46.62.7a5.08,5.08,0,0,1-.11,1c-.08.34-.31.48-.8.48h-.16a3.1,3.1,0,0,0-.15-.6,2.24,2.24,0,0,0,.38.06c.13,0,.21,0,.23-.14a4,4,0,0,0,.09-.79v0c0-.13,0-.18-.16-.18h0l-.24,0a9.25,9.25,0,0,1-.67,1.7ZM37.8,5A2.69,2.69,0,0,0,37,3.92l.44-.28a3.06,3.06,0,0,1,.84,1.06Zm0-1.19a3,3,0,0,0-.35-.37l.24-.17a3.06,3.06,0,0,1,.36.36Zm.38-.21a2.09,2.09,0,0,0-.36-.37l.24-.17c.13.11.26.24.37.35Z"/><path class="cls-3" d="M41.34,4.53a.17.17,0,0,0,.12,0s0,0,0,0a1.58,1.58,0,0,1,.47.28s-.11.11-.14.15a3.6,3.6,0,0,1-3,1.3,1.93,1.93,0,0,0-.19-.49,5.76,5.76,0,0,0,1.41-.18,3.73,3.73,0,0,0-.39-.25,4.31,4.31,0,0,1-.49.22,1.27,1.27,0,0,0-.28-.43,3.48,3.48,0,0,0,1.29-.64,7.92,7.92,0,0,1-1.4.35,1.3,1.3,0,0,0-.19-.48,6,6,0,0,0,1.13-.19L39.4,3.9a3.45,3.45,0,0,1-.43.2,1.34,1.34,0,0,0-.27-.43A2.42,2.42,0,0,0,39.86,3c0-.06,0-.09,0-.09a3.13,3.13,0,0,1,.48.12s.06,0,.06,0,0,.05-.07.07a.21.21,0,0,0-.1.06H41a.17.17,0,0,0,.12,0h.05a1.61,1.61,0,0,1,.44.25s0,0,0,0-.11.1-.14.14a2.63,2.63,0,0,1-.82.66c.28.08.3.09.3.12a.08.08,0,0,1-.07.07s-.07,0-.11.08l0,0Zm-1.51-.9s.29.17.45.28a2,2,0,0,0,.5-.28ZM40.23,5,40.14,5a5.6,5.6,0,0,1,.49.31A2.17,2.17,0,0,0,41.15,5Z"/><path class="cls-3" d="M42.81,3.33s0,0,0,0h0a4.21,4.21,0,0,1,.55.16,0,0,0,0,1,0,0s0,0,0,0a.17.17,0,0,0-.08.13,3.3,3.3,0,0,0-.12.86,2.33,2.33,0,0,0,.1.71s0,.07.08.07.39-.3.54-.58a5.6,5.6,0,0,0,.3.48,3.36,3.36,0,0,1-.46.54.61.61,0,0,1-.41.18.5.5,0,0,1-.47-.35,2.81,2.81,0,0,1-.18-1.08,7.57,7.57,0,0,1,.09-1.08.11.11,0,0,0,0-.05ZM45.1,5.45a1.09,1.09,0,0,0,0-.18,2.28,2.28,0,0,0-.53-1.43l.51-.14a2.81,2.81,0,0,1,.57,1.62Z"/><path class="cls-3" d="M47.07,6.2a8.9,8.9,0,0,0-.91-1l.36-.32c.33.27.66.59,1,.91Z"/><path class="cls-3" d="M12.72,10.8a5.46,5.46,0,0,1-.8,0c-.8,0-1-.06-1-.57V8.74H10.7c0,.14.09.28.12.42l-.32.13c-.05-.2-.11-.39-.16-.57,0,.22,0,.47,0,.73,0,.52,0,1.08,0,1.52H9.84c0-.49,0-1.23,0-1.88V8.44a.15.15,0,0,0-.06.14,10,10,0,0,1-.06,1,1.5,1.5,0,0,0-.36-.18,7.45,7.45,0,0,0,.08-.92V8.39a.18.18,0,0,1,0-.06s0,0,0,0h0l.36.06c0-.33,0-.57,0-.6a.2.2,0,0,1,0-.08s0,0,.06,0h0c.46,0,.54,0,.54.08a.13.13,0,0,1,0,.08.1.1,0,0,0,0,.1c0,.1,0,.28,0,.52l.21-.08a2.44,2.44,0,0,1,.1.24V8.24h.77V8.13a1.53,1.53,0,0,0,0-.36.2.2,0,0,1,0-.08s0,0,.06,0h0c.52,0,.57,0,.57.09a.11.11,0,0,1,0,.07c-.06,0-.06.08-.06.42h.85v.5H11.39v1.51c0,.12.09.12.44.12a3.48,3.48,0,0,0,.88-.11Z"/><path class="cls-3" d="M13.93,10.19c0-.38,0-1,0-1.54,0-.28,0-.53,0-.7l0-.09s0,0,0,0h0c.62,0,.62,0,.62.07a.07.07,0,0,1,0,.06,16.33,16.33,0,0,0-.11,2c0,.26.07.4.29.4A1.58,1.58,0,0,0,16,9.48a2.31,2.31,0,0,0,.3.61,2.2,2.2,0,0,1-1.58.84.7.7,0,0,1-.77-.72Z"/><path class="cls-3" d="M19.11,11.09a5.24,5.24,0,0,0-1.29-1.32.56.56,0,0,1-.25-.46.54.54,0,0,1,.23-.44,4.07,4.07,0,0,0,1.06-1.1c0-.06,0-.1.06-.1s.43.35.53.45,0,0,0,.05,0,0,0,.05a.22.22,0,0,0-.15.08c-.43.4-.69.61-1.05.91a.14.14,0,0,0-.06.1.11.11,0,0,0,.06.1,8.67,8.67,0,0,1,1.39,1.24Z"/><path class="cls-3" d="M21,8.22a18.39,18.39,0,0,0,2.38-.28c.14,0,.2-.07.24-.07a0,0,0,0,1,0,0c0,.1.13.37.17.49h0s-.07,0-.21,0c-.79.09-1.35.58-1.35,1.12s.66.69.92.69l.31,0a2.9,2.9,0,0,0-.12.57h-.18a1.28,1.28,0,0,1-1.46-1.18,1.38,1.38,0,0,1,.47-1,6.24,6.24,0,0,0-1.11.23l-.06,0s0,0,0,0-.11-.43-.13-.55v0s0,0,.08,0Z"/><path class="cls-3" d="M25.87,11s0-.45,0-1.12a2.81,2.81,0,0,1-1.16.88,1.3,1.3,0,0,0-.27-.48,2.18,2.18,0,0,0,1-.65l-1,0v-.5h.73a3.25,3.25,0,0,0-.35-.57l.46-.14a3,3,0,0,1,.37.61l-.36.11h.52V8.39H24.67V7.9l.6,0h.61a.38.38,0,0,0,0-.16.45.45,0,0,1,0-.08s0,0,.06,0h0c.54,0,.59,0,.59.09a.13.13,0,0,1,0,.07.14.14,0,0,0,0,.1l1.23,0v.5H26.42v.75h.5A1.36,1.36,0,0,0,26.56,9a1.65,1.65,0,0,0,.28-.5c0-.08,0-.11.05-.11h0c.48.07.5.13.5.16s0,0,0,.05-.07,0-.08.08a3.36,3.36,0,0,1-.25.43l.77,0v.5l-1,0a2.35,2.35,0,0,0,1.05.66,1.5,1.5,0,0,0-.27.48,3,3,0,0,1-1.17-.89c0,.4,0,.8,0,1.12Z"/><path class="cls-3" d="M31.56,8.44c-.56,0-1.34,0-1.9,0H29v.51a5.33,5.33,0,0,1-.32,2,2.41,2.41,0,0,0-.45-.35,4,4,0,0,0,.27-1.71V8h1.24a.84.84,0,0,0,0-.19.27.27,0,0,1,0-.08s0,0,.05,0h0l.52,0s.06,0,.06,0a.14.14,0,0,1,0,.06c0,.05,0,.06,0,.11V8l1.28,0ZM30.77,11v-.15H29.64a.76.76,0,0,0,0,.15h-.53c0-.37,0-1,0-1.32V9.49h.68V9.2a4.76,4.76,0,0,0,0-.64s0-.06,0-.08,0,0,0,0h0a3.47,3.47,0,0,1,.49,0s.06,0,.06,0a.1.1,0,0,1,0,.08.14.14,0,0,0,0,.11v0c.33,0,.83,0,1.2,0v.48c-.37,0-.87,0-1.21,0v.29h1v.2c0,.32,0,.92,0,1.28Zm0-1H29.63v.43h1.16Z"/><path class="cls-3" d="M32.79,10.51v-.18h-.18c0,.11,0,.21,0,.29h-.51c0-.59,0-1.86,0-2.45V7.85h1.15v.41c0,.62,0,1.78,0,2.25Zm0-2.2H32.6v.53h.21Zm0,1.56c0-.19,0-.58,0-.58H32.6v.58Zm2.57-.75-1.11,0-.91,0V8.65h.73V8.42h-.61V8h.61a2.09,2.09,0,0,0,0-.23l0-.08s0,0,.05,0h0c.54,0,.54,0,.54.08a.13.13,0,0,1,0,.08.1.1,0,0,0,0,.1V8l.64,0v.45h-.65v.24h.8ZM35,10.41c0,.41-.11.56-.67.56H34.1a1.18,1.18,0,0,0-.13-.49l.36,0c.19,0,.2-.05.2-.17V9.81h-.66a3,3,0,0,1,.4.51l-.43.22a2.68,2.68,0,0,0-.39-.58l.33-.14h-.43V9.36h1.18v0a.45.45,0,0,0,0-.11.45.45,0,0,1,0-.08s0,0,0,0h0c.47,0,.53.05.53.09a.14.14,0,0,1,0,.06l0,0a.06.06,0,0,0,0,0v0h.38v.47H35Z"/><path class="cls-3" d="M35.93,11c0-.6,0-1.81,0-2.56V7.79h1.42V9.1h-.92c0,.62,0,1.39,0,1.87Zm1-2.82h-.44v.14h.44Zm0,.44h-.44v.15h.44Zm1.6.51h-1V7.79H39v2.62c0,.42-.11.56-.68.56h-.18a1.45,1.45,0,0,0-.07-.32h-.9a.86.86,0,0,1,0,.15h-.5c0-.33,0-1,0-1.34V9.22h1.55v.46c0,.25,0,.57,0,.8h0c.17,0,.2-.05.2-.12Zm-.71.5h-.62v.15h.62Zm0,.5h-.62v.16h.62Zm.71-1.95H38v.14h.48Zm0,.44H38v.15h.48Z"/><path class="cls-3" d="M39.68,10.58a4.5,4.5,0,0,0,.68-1.35,1.1,1.1,0,0,0-.41.11l-.05,0,0,0c0-.13-.12-.38-.15-.51v0s0,0,0,0h.07l.67-.06a3.5,3.5,0,0,0,.08-.7s0,0,0-.07a0,0,0,0,1,0,0h0l.54.08s.06,0,.06,0a.08.08,0,0,1,0,0s0,0-.17.58h.2c.61,0,.63.46.63.71a5.07,5.07,0,0,1-.11,1c-.09.34-.31.48-.81.48h-.15a3.57,3.57,0,0,0-.16-.6,1.69,1.69,0,0,0,.39.06c.12,0,.2,0,.23-.14a4.78,4.78,0,0,0,.09-.79v0c0-.12,0-.18-.17-.18h0l-.24,0a8.62,8.62,0,0,1-.68,1.7Zm2.83-.8a2.49,2.49,0,0,0-.78-1.09l.43-.29A3.13,3.13,0,0,1,43,9.46Zm0-1.18a3.19,3.19,0,0,0-.36-.38l.24-.17c.13.12.26.24.37.36Zm.37-.22A3,3,0,0,0,42.57,8l.23-.16a4.12,4.12,0,0,1,.37.35Z"/><path class="cls-3" d="M43.49,10.16a5.2,5.2,0,0,0,.75-1.42h-.55l0-.53a2.37,2.37,0,0,0,.51,0h.24a2.45,2.45,0,0,0,.07-.42V7.74a0,0,0,0,1,0,0h0c.54.1.56.1.56.14a.09.09,0,0,1,0,.06.35.35,0,0,0-.08.13l0,.13a1.88,1.88,0,0,0,.4-.13l-.08.56-.49.08A11,11,0,0,1,44,10.46Zm2.78.61a2.6,2.6,0,0,0-.41-.31.68.68,0,0,1-.72.43c-.41,0-.84-.21-.84-.57,0-.07,0-.56.73-.56l.28,0a1.9,1.9,0,0,1-.05-.4.52.52,0,0,1,.44-.59,3.09,3.09,0,0,0-.43-.14l.27-.39a5.78,5.78,0,0,1,1.12.49l-.26.42A.54.54,0,0,0,46.05,9c-.31,0-.31.33-.31.37a2.58,2.58,0,0,0,.09.52,3.56,3.56,0,0,1,.78.39Zm-.9-.54a1.29,1.29,0,0,0-.38-.08c-.12,0-.2,0-.21.15h0c0,.09.14.15.3.15s.3-.06.3-.18Z"/><path class="cls-3" d="M47.52,8.1s0,0,0,0h0a5.14,5.14,0,0,1,.55.15.09.09,0,0,1,0,0,.05.05,0,0,1,0,0,.27.27,0,0,0-.08.14,3.17,3.17,0,0,0-.11.86,2,2,0,0,0,.1.7c0,.05,0,.08.08.08s.39-.3.53-.59A5,5,0,0,0,49,10a4.69,4.69,0,0,1-.46.54.69.69,0,0,1-.42.17.53.53,0,0,1-.47-.34,2.87,2.87,0,0,1-.17-1.08,7.7,7.7,0,0,1,.09-1.09V8.1Zm2.3,2.11V10a2.3,2.3,0,0,0-.52-1.42l.51-.14a2.77,2.77,0,0,1,.56,1.61Z"/><path class="cls-3" d="M52.17,9.44a2.09,2.09,0,0,1-1,1.53,1.84,1.84,0,0,0-.35-.49c.69-.49.78-.94.8-1.9h-.74V8.08l.68,0h.68a2.27,2.27,0,0,0,0-.33.17.17,0,0,1,0-.08s0,0,0,0h0a4.73,4.73,0,0,1,.54,0s.06,0,.06,0,0,0,0,.06-.06.08-.06.28c.47,0,.93,0,1.4,0v.51h-2c0,.13,0,.25,0,.38h1.62a10,10,0,0,1-.14,1.52c-.06.33-.22.47-.83.47a3.39,3.39,0,0,1-.43,0,1.51,1.51,0,0,0-.15-.52l.55,0c.26,0,.29,0,.31-.14a6.42,6.42,0,0,0,.1-.75V9.44Z"/><path class="cls-3" d="M55.19,10.8A2.9,2.9,0,0,1,55,9.65,12.43,12.43,0,0,1,55.17,8V8s0,0,0,0l0,0a2.25,2.25,0,0,1,.56.22.05.05,0,0,1,0,0,3.4,3.4,0,0,0-.33,1.5v.13l.22-.42.26.2a2,2,0,0,0-.26,1.06v.08Zm1.34-1.1a.46.46,0,0,0-.07.22c0,.12.09.21.44.21a3.23,3.23,0,0,0,.92-.14,3.43,3.43,0,0,0,0,.47.45.45,0,0,0,0,.12,6,6,0,0,1-.82.06c-.33,0-1,0-1-.63a1.24,1.24,0,0,1,.07-.39Zm1.17-.93a3,3,0,0,0-.54,0,4.71,4.71,0,0,0-1.06.1V8.33a9.19,9.19,0,0,1,1.31-.09h.29Z"/><rect class="cls-1" x="4.88" y="27.14" width="28.03" height="17.15" rx="1.84"/><path class="cls-4" d="M20.55,33.73H18.86v-.29h.69v-.53H19v-.28h.52v-.45H19a2.15,2.15,0,0,1-.22.35c0,.3,0,.9,0,1.22h-.28c0-.27,0-.66,0-.93a1.84,1.84,0,0,1-.22.17,1.15,1.15,0,0,0-.1-.28,1.46,1.46,0,0,0,.56-.65s0-.06,0-.06l.21.06V32l.72,0h.14a4.67,4.67,0,0,0-.62-.27l.14-.22a6.71,6.71,0,0,1,.67.27l-.15.22.6,0v.28h-.63v.45h.54v.28h-.54v.53l.72,0Zm-1.9-2.19s0-.06,0-.06h0l.24.07,0,0s0,0,0,0-.05,0-.06.05a1.73,1.73,0,0,1-.59.67.91.91,0,0,0-.12-.27A1,1,0,0,0,18.65,31.54Z"/><path class="cls-4" d="M21.12,33.8c0-.27,0-.68,0-.95l-.2.19a.81.81,0,0,0-.1-.28,1.32,1.32,0,0,0,.47-.64s0-.06,0-.06.29,0,.29.09l0,0a.12.12,0,0,0,0,.06,2,2,0,0,1-.14.25v.39c0,.31,0,.68,0,.91Zm.13-2.26c0-.05,0-.06,0-.06h0l.23.06s0,0,0,0,0,0,0,0a.23.23,0,0,0-.05.05,1.86,1.86,0,0,1-.54.67.9.9,0,0,0-.1-.27A1.09,1.09,0,0,0,21.25,31.54Zm.94,1.21a.6.6,0,0,0-.06.11h.54a.1.1,0,0,0,.08,0h0s.26.12.26.16-.07.06-.09.09a1.3,1.3,0,0,1-.32.34,2.92,2.92,0,0,0,.6.14.75.75,0,0,0-.12.25,2.54,2.54,0,0,1-.72-.23,2.63,2.63,0,0,1-.83.23.86.86,0,0,0-.11-.24,3,3,0,0,0,.68-.14,1.71,1.71,0,0,1-.25-.22,1.5,1.5,0,0,1-.24.2.61.61,0,0,0-.18-.2,1.32,1.32,0,0,0,.46-.45h-.2v-.69l-.09.09a.71.71,0,0,0-.18-.21.76.76,0,0,0,.34-.39c0-.05,0-.07,0-.07h0c.25,0,.28.05.28.07a.05.05,0,0,1,0,0,.34.34,0,0,0-.06.06h1.14v.24H21.88l-.08.1H23v.78Zm.54-.59H22v.11h.76Zm0,.28H22v.12h.76Zm-.69.62a1.33,1.33,0,0,0,.33.24,1.08,1.08,0,0,0,.28-.24Z"/><path class="cls-4" d="M25.6,33.73h-1a.66.66,0,0,1-.54-.23,3.1,3.1,0,0,1-.25.21.07.07,0,0,0-.06.06.05.05,0,0,1,0,0l0,0a1.91,1.91,0,0,1-.1-.27l0,0a.88.88,0,0,0,.29-.18v-.63h-.3v-.29h.58v.86a.58.58,0,0,0,.42.2H25c.29,0,.61,0,.91,0a1.16,1.16,0,0,0-.09.3ZM24,32.14a3.4,3.4,0,0,0-.38-.47l.21-.16a2.83,2.83,0,0,1,.4.44Zm1.81.57h-.53a1,1,0,0,0,.59.44,1.12,1.12,0,0,0-.14.26,1.25,1.25,0,0,1-.69-.65,1.15,1.15,0,0,1-.68.65.8.8,0,0,0-.14-.28.83.83,0,0,0,.57-.42h-.51v-.26h.59a2.53,2.53,0,0,0,0-.28h-.52v-.27l.37,0a2.48,2.48,0,0,0-.33-.32l.22-.14c.12.1.22.19.36.33l-.2.13h.5a1.32,1.32,0,0,0-.22-.12,1,1,0,0,0,.27-.29s0-.05,0-.05.28.09.28.13,0,0,0,0a.12.12,0,0,0-.07.05,1.6,1.6,0,0,1-.22.24l.4,0v.27h-.56v.28l.66,0Z"/><path class="cls-4" d="M26.63,33.8c0-.14,0-.65,0-.88a2.1,2.1,0,0,1-.31.64.92.92,0,0,0-.13-.3,1.9,1.9,0,0,0,.4-.75h-.35v-.26h.39c0-.38,0-.68,0-.72a.39.39,0,0,1,0-.06s0,0,0,0h0c.24,0,.29,0,.29.05a.09.09,0,0,1,0,0c0,.05,0,.11,0,.7l.38,0v.26H26.9a1.76,1.76,0,0,0,.38.46.91.91,0,0,0-.12.26,1.73,1.73,0,0,1-.27-.43c0,.34,0,.73,0,1Zm-.24-1.58a4.19,4.19,0,0,0-.13-.56l.19-.06a4.29,4.29,0,0,1,.15.57Zm.67-.6s0,0,0,0h0l.19.05s0,0,0,0a.05.05,0,0,1,0,0,.43.43,0,0,1,0,.07,3.46,3.46,0,0,1-.12.45l-.2-.08a1.66,1.66,0,0,0,.13-.5Zm1,2.18c0-.19,0-.43,0-.67l-.72.2L27.25,33c.29,0,.52-.11.79-.17,0-.15,0-.3,0-.44a6.6,6.6,0,0,0,0-.87.18.18,0,0,1,0-.06s0,0,0,0h0c.29,0,.32,0,.32.06a.17.17,0,0,1,0,.05s0,0,0,.76v.44l.22-.06.07.28-.29.06c0,.25,0,.51,0,.73Zm-.35-1a1.84,1.84,0,0,0-.36-.47l.19-.16a3.39,3.39,0,0,1,.39.46Zm.09-.58a2.64,2.64,0,0,0-.34-.49l.2-.14a3.07,3.07,0,0,1,.36.46Z"/><path class="cls-4" d="M22.76,38c-.65,0-1.36,0-2.07,0s-1.39,0-2,0v-.47h.57v-.75h-.08l-.53,0h-.08v-.48l.69,0v-.42a.89.89,0,0,1-.29.29,1.35,1.35,0,0,0-.28-.42,1.78,1.78,0,0,0,.79-.82c0-.1,0-.13.07-.13h0c.48.09.49.14.49.16s0,.06-.08.1a.71.71,0,0,0-.1.13c.68,0,1.95,0,2.77,0v.45H22.2v.68l.68,0v.48l-.68,0v.75h.56Zm-3.7.14c0-.07,0-.1,0-.1h0a4.2,4.2,0,0,1,.45.11.08.08,0,0,1,.07.07s0,.06-.08.09a.22.22,0,0,0-.11.11,1.82,1.82,0,0,1-.41.64,2.14,2.14,0,0,0-.47-.26A1.56,1.56,0,0,0,19.06,38.14Zm1-2.48h-.41v.7h.41Zm0,1.13h-.41v.76h.41ZM20,39c0-.1,0-.21,0-.32a5.21,5.21,0,0,0,0-.55l.48,0a7.1,7.1,0,0,1,.06.88Zm.94-3.38h-.41v.7h.41Zm0,1.12h-.41v.78h.41ZM21.09,39a4.27,4.27,0,0,0-.19-.86l.47-.06a4.22,4.22,0,0,1,.23.85Zm.67-3.38h-.42v.7h.42Zm0,1.13h-.42v.78h.42Zm.6,2.28a3.75,3.75,0,0,0-.51-.87l.44-.14a4.72,4.72,0,0,1,.56.81Z"/><path class="cls-4" d="M24.39,39.07c0-.27,0-1.19,0-1.61a3.77,3.77,0,0,1-.56,1.16,1.67,1.67,0,0,0-.23-.53,3.84,3.84,0,0,0,.72-1.37h-.64v-.46l.35,0h.37c0-.7,0-1.23,0-1.31a.36.36,0,0,1,0-.11s0,0,.05,0h0c.44,0,.52,0,.52.09a.26.26,0,0,1,0,.1c-.06.08-.06.19-.06,1.26l.68,0v.46h-.66a3.19,3.19,0,0,0,.68.83,1.69,1.69,0,0,0-.21.48,3.53,3.53,0,0,1-.49-.78c0,.62,0,1.31,0,1.82Zm-.45-2.88a5.25,5.25,0,0,0-.23-1l.35-.1a6.47,6.47,0,0,1,.27,1Zm1.23-1.09s0-.05,0-.05h0a2.42,2.42,0,0,1,.36.1s0,0,0,0a.1.1,0,0,1,0,.08.42.42,0,0,0-.07.13,6.91,6.91,0,0,1-.22.81,2.93,2.93,0,0,0-.36-.14,4.24,4.24,0,0,0,.23-.91Zm1.75,4c0-.36,0-.78,0-1.22-.45.1-.84.22-1.31.35l-.12-.51c.53-.1.94-.2,1.43-.32,0-.27,0-.54,0-.8A13.83,13.83,0,0,0,26.91,35l0-.1s0,0,0,0h0c.54,0,.59,0,.59.1a.16.16,0,0,1-.05.1c-.05.07-.05.07-.05,1.39v.79l.4-.11.13.5-.53.12c0,.46,0,.92,0,1.33Zm-.62-1.78a3.33,3.33,0,0,0-.66-.86l.35-.29a6.27,6.27,0,0,1,.7.83Zm.16-1.07a3.81,3.81,0,0,0-.63-.87l.37-.27a5.44,5.44,0,0,1,.65.84Z"/><rect class="cls-5" x="18.28" y="40.16" width="10.15" height="0.67"/><rect class="cls-1" x="34.5" y="27.14" width="28.03" height="17.15" rx="1.84"/><path class="cls-4" d="M49.48,33.8c0-.3,0-.75,0-1.12a2.64,2.64,0,0,1-.2.58,1.55,1.55,0,0,0-.14-.29,3,3,0,0,0,.32-.8H49.2v-.26h.29a2.09,2.09,0,0,0,0-.38.39.39,0,0,1,0-.06s0,0,0,0h0c.22,0,.3,0,.3.05l0,0a.13.13,0,0,0,0,.1v.26l.23,0v.26h-.24a2.27,2.27,0,0,0,.27.48,1.19,1.19,0,0,0-.12.24,2.28,2.28,0,0,1-.15-.36c0,.4,0,.91,0,1.27Zm1.72,0v-.13h-.91v.13H50c0-.37,0-1.17,0-1.7v-.52h1.44v.26c0,.49,0,1.52,0,2Zm0-.36V31.82h-.94v.41c0,.34,0,.83,0,1.21Zm-.59-.06c0-.19,0-.45,0-.68a1.67,1.67,0,0,1-.22.49A.68.68,0,0,0,50.3,33a1.85,1.85,0,0,0,.31-.61h-.27v-.24l.3,0c0-.12,0-.18,0-.21a.1.1,0,0,1,0-.06s0,0,0,0h0c.25,0,.26,0,.26.06l0,0a.23.23,0,0,0,0,.11v.08l.3,0v.24h-.3a2.59,2.59,0,0,0,.33.57,1.25,1.25,0,0,0-.12.23,3,3,0,0,1-.22-.48c0,.22,0,.49,0,.7Z"/><path class="cls-4" d="M52.54,32.94v.39c0,.08,0,.11.12.11l.57,0,.53,0c.12,0,.15,0,.18-.34a1,1,0,0,0,.29.14c-.06.44-.17.47-.39.48l-.64,0-.65,0a.28.28,0,0,1-.3-.32v-.71h.86v-.28h-.69v-.21a2.63,2.63,0,0,1-.43.53,1.09,1.09,0,0,0-.15-.29,1.93,1.93,0,0,0,.58-.89s0-.08,0-.08h0c.29.05.31.07.31.09a.05.05,0,0,1,0,0,.22.22,0,0,0-.07.11H54A8.48,8.48,0,0,1,54,32.87c0,.29-.11.38-.46.38h-.2a.91.91,0,0,0-.07-.28h.25c.16,0,.18,0,.2-.12a6.23,6.23,0,0,0,.07-.86H52.55a.51.51,0,0,1-.09.16h.93v.78Z"/><path class="cls-4" d="M54.81,33.8c0-.31,0-.68,0-1v-.3a1.45,1.45,0,0,1-.23.34,1.44,1.44,0,0,0-.15-.31,2.38,2.38,0,0,0,.57-1s0-.07,0-.07h0c.25.05.31.08.31.11a.05.05,0,0,1,0,0,.19.19,0,0,0-.06.07,2.35,2.35,0,0,1-.21.46c.08,0,.1,0,.1,0a.09.09,0,0,1,0,0s0,.09,0,.57c0,.26,0,.62,0,1Zm2-1.5-.82.1c.12.8.47,1.08.53,1.08s.08-.12.08-.36c0,0,0-.08,0-.12a1,1,0,0,0,.28.16c0,.43-.08.65-.31.65s-.66-.26-.85-1.37l-.42.07,0-.31.43,0c0-.29,0-.55,0-.6l0-.06s0,0,0,0h0c.3,0,.33,0,.33.06a0,0,0,0,1,0,0,.15.15,0,0,0,0,.09,4.6,4.6,0,0,0,0,.46l.81-.14ZM56.29,32a1.34,1.34,0,0,0-.33-.42l.22-.12a2.64,2.64,0,0,1,.36.39Z"/><path class="cls-4" d="M52.38,38c-.66,0-1.36,0-2.07,0s-1.4,0-2,0v-.47h.57v-.75h-.08l-.54,0h-.07v-.48l.69,0v-.42a1,1,0,0,1-.29.29,1.35,1.35,0,0,0-.28-.42,1.78,1.78,0,0,0,.79-.82c0-.1,0-.13.07-.13h0c.49.09.5.14.5.16s0,.06-.08.1a.42.42,0,0,0-.1.13c.68,0,1.94,0,2.77,0v.45h-.44v.68l.68,0v.48l-.68,0v.75h.56Zm-3.7.14c0-.07,0-.1,0-.1h0c.13,0,.29.07.45.11a.07.07,0,0,1,.06.07s0,.06-.07.09a.22.22,0,0,0-.11.11,1.82,1.82,0,0,1-.41.64,2.08,2.08,0,0,0-.48-.26A1.6,1.6,0,0,0,48.68,38.14Zm1-2.48h-.4v.7h.4Zm0,1.13h-.4v.76h.4ZM49.6,39c0-.1,0-.21,0-.32a5.21,5.21,0,0,0,0-.55l.48,0a7,7,0,0,1,0,.88Zm.93-3.38h-.41v.7h.41Zm0,1.12h-.41v.78h.41ZM50.71,39a3.7,3.7,0,0,0-.2-.86l.48-.06a5,5,0,0,1,.23.85Zm.67-3.38H51v.7h.42Zm0,1.13H51v.78h.42Zm.6,2.28a4.14,4.14,0,0,0-.51-.87l.44-.14a4.72,4.72,0,0,1,.56.81Z"/><path class="cls-4" d="M54,39.07c0-.27,0-1.19,0-1.61a4,4,0,0,1-.56,1.16,2,2,0,0,0-.23-.53A4,4,0,0,0,54,36.72h-.64v-.46l.35,0h.37c0-.7,0-1.23,0-1.31a.36.36,0,0,1,0-.11s0,0,0,0h0c.43,0,.52,0,.52.09a.26.26,0,0,1,0,.1c-.06.08-.06.19-.06,1.26l.68,0v.46H54.5a3.19,3.19,0,0,0,.68.83A1.69,1.69,0,0,0,55,38a3.19,3.19,0,0,1-.49-.78c0,.62,0,1.31,0,1.82Zm-.45-2.88a5.25,5.25,0,0,0-.23-1l.35-.1a6.46,6.46,0,0,1,.26,1Zm1.23-1.09s0-.05,0-.05h0a2.42,2.42,0,0,1,.36.1s0,0,0,0a.1.1,0,0,1,0,.08.42.42,0,0,0-.07.13c0,.2-.12.48-.22.81a2.93,2.93,0,0,0-.36-.14,4.24,4.24,0,0,0,.23-.91Zm1.75,4c0-.36,0-.78,0-1.22-.46.1-.84.22-1.31.35l-.12-.51c.53-.1.94-.2,1.43-.32,0-.27,0-.54,0-.8a13.83,13.83,0,0,0,0-1.58c0-.05,0-.09,0-.1s0,0,0,0h0c.54,0,.58,0,.58.1a.21.21,0,0,1,0,.1c0,.07,0,.07,0,1.39v.79l.4-.11.12.5-.52.12c0,.46,0,.92,0,1.33Zm-.62-1.78a3.57,3.57,0,0,0-.66-.86l.35-.29a7.13,7.13,0,0,1,.7.83Zm.16-1.07a4.14,4.14,0,0,0-.63-.87l.36-.27a4.44,4.44,0,0,1,.65.84Z"/><rect class="cls-5" x="47.9" y="40.16" width="10.15" height="0.67"/><path class="cls-6" d="M41.34,33.22c-1.68,0-3,.57-3,1.33v2.32c0,.77,1.27,1.34,3,1.34s2.95-.57,2.95-1.34V34.55C44.29,33.79,43,33.22,41.34,33.22Zm0,.35c1.53,0,2.6.52,2.6,1s-1.07,1-2.6,1-2.59-.52-2.59-1S39.81,33.57,41.34,33.57Zm-2.59,3.3V35.21a3.92,3.92,0,0,0,2.29.67l.27.42-.29.45a.17.17,0,0,0,0,.19l.29.45-.29.45h0C39.66,37.78,38.75,37.31,38.75,36.87Zm2.68,1,.24-.37a.21.21,0,0,0,0-.19l-.29-.45.29-.45a.21.21,0,0,0,0-.19l-.21-.32a4.15,4.15,0,0,0,2.48-.68v1.66C43.94,37.33,42.91,37.84,41.43,37.86Zm-.09-2.79c.48,0,1-.16,1-.52s-.52-.51-1-.51-1,.16-1,.51S40.86,35.07,41.34,35.07Zm0-.68a1,1,0,0,1,.64.16.91.91,0,0,1-.64.17.9.9,0,0,1-.63-.17A1,1,0,0,1,41.34,34.39Z"/><rect class="cls-1" x="4.88" y="45.89" width="28.03" height="17.15" rx="1.84"/><path class="cls-4" d="M17.72,52.51c0-.13-.06-.48-.12-.86-.32,0-.75.09-.88.13l0-.3h0c.14,0,.5,0,.88-.07,0-.08,0-.17,0-.25l-.64.09L16.83,51l.64-.05c0-.19-.07-.35-.09-.41s0,0,0,0h0l.32,0h0l0,0s0,0,0,0a.16.16,0,0,0,0,.1s0,.16,0,.31l.67-.09,0,.29h0l-.65.05c0,.08,0,.16,0,.25l.8-.1.05.28c-.1,0-.4,0-.81.07.06.35.13.71.17.85Z"/><path class="cls-4" d="M19.71,52.53c0-.18-.12-.62-.22-1a3.47,3.47,0,0,0-.55.13l-.07-.29a5.19,5.19,0,0,0,.56-.08c0-.17-.08-.32-.1-.37a.07.07,0,0,0,0,0,1,1,0,0,1,.27-.05h0s0,0,0,0v0a.09.09,0,0,0,0,0,3.17,3.17,0,0,0,.06.34l.66-.11.08,0a.84.84,0,0,1,.23.18s-.05,0-.09.09a3.56,3.56,0,0,1-.43.48.68.68,0,0,0-.23-.14,1.44,1.44,0,0,0,.33-.32l-.5.08a9.38,9.38,0,0,0,.28,1Z"/><path class="cls-4" d="M21.27,52.35a.36.36,0,0,0-.13.08s0,0-.05,0a2,2,0,0,1-.21-.31v0s0,0,.11,0a3.63,3.63,0,0,0,1.66-1.06c.05.07.12.18.17.24A4.57,4.57,0,0,1,21.27,52.35Zm.16-1.13a2.44,2.44,0,0,0-.54-.45l.22-.19a2.17,2.17,0,0,1,.52.4Z"/><path class="cls-4" d="M25.07,52.35h-.42c-.62,0-.87,0-.87-.45v0c0-.1,0-.28,0-.48a3.55,3.55,0,0,0-.57.13l-.07-.32c.1,0,.35,0,.64-.08,0-.22,0-.43,0-.55s0,0,0-.06h0c.33,0,.35,0,.35,0l0,0a1.84,1.84,0,0,0,0,.49l.8-.14c.06,0,.07,0,.09,0a1.18,1.18,0,0,1,.28.2s-.07,0-.12.11a3,3,0,0,1-.6.63,1.7,1.7,0,0,0-.26-.18,2,2,0,0,0,.48-.43l-.68.12c0,.21,0,.42,0,.55v0c0,.16,0,.18.41.18a2.64,2.64,0,0,0,.65-.07,1.45,1.45,0,0,0,0,.3Z"/><path class="cls-4" d="M26.2,50.73s0,0,0,0a0,0,0,0,1,0,0,.18.18,0,0,0,0,.1,2,2,0,0,1-.46,1.52,1.3,1.3,0,0,0-.34-.15,1.23,1.23,0,0,0,.51-1.15c0-.13,0-.24,0-.33l0-.07h0Zm.22-.1.34,0a.08.08,0,0,1,0,0s-.05.11-.05.85c0,.15,0,.3,0,.39a3.38,3.38,0,0,0,.82-.74,1.32,1.32,0,0,0,.18.22,5.37,5.37,0,0,1-1,.87c-.07.05-.08.09-.1.09a.8.8,0,0,1-.23-.22s0,0,0-.07c0-.22,0-.47,0-.71a6.76,6.76,0,0,0,0-.69.43.43,0,0,0,0,0Z"/><path class="cls-4" d="M28.29,52.54c0-.29,0-.64,0-.92a2.44,2.44,0,0,0,0-.28,1.48,1.48,0,0,1-.21.32,1.55,1.55,0,0,0-.14-.29,2.23,2.23,0,0,0,.53-.94s0-.07,0-.07h0c.23.05.29.07.29.1l0,0a.15.15,0,0,0-.05.07,3.17,3.17,0,0,1-.2.42c.07,0,.09,0,.09,0l0,.05s0,.08,0,.53c0,.25,0,.58,0,.92Zm1.84-1.41-.76.09c.11.76.43,1,.49,1s.07-.11.07-.33v-.11a1,1,0,0,0,.26.15c0,.41-.08.61-.29.61s-.62-.25-.8-1.29l-.4.07,0-.29.4,0c0-.27,0-.51,0-.56l0-.06s0,0,0,0h0c.28,0,.3,0,.3.06a.06.06,0,0,1,0,0,.13.13,0,0,0,0,.08,4,4,0,0,0,0,.43,7.11,7.11,0,0,0,.76-.13Zm-.45-.25a1.49,1.49,0,0,0-.31-.4l.21-.1a1.94,1.94,0,0,1,.33.37Z"/><path class="cls-4" d="M22.76,56.75c-.65,0-1.36,0-2.07,0s-1.39,0-2,0v-.47h.57v-.74h-.69v-.49l.69,0v-.42a.81.81,0,0,1-.29.29,1.48,1.48,0,0,0-.28-.42,1.73,1.73,0,0,0,.79-.82c0-.1,0-.13.07-.13h0c.48.09.49.14.49.16s0,.06-.07.1a.39.39,0,0,0-.11.13c.68,0,1.95,0,2.77,0v.45H22.2v.68l.68,0v.48H22.2v.74h.56Zm-3.7.14c0-.07,0-.1,0-.1h0c.14,0,.3.07.46.11a.09.09,0,0,1,.06.07s0,.06-.07.09-.11.08-.12.12a1.88,1.88,0,0,1-.41.63,2.14,2.14,0,0,0-.47-.26A1.56,1.56,0,0,0,19.06,56.89Zm1-2.48h-.41v.7h.41Zm0,1.13h-.41v.76h.41ZM20,57.79c0-.1,0-.21,0-.32a5.36,5.36,0,0,0,0-.55l.48,0a6.82,6.82,0,0,1,.06.87Zm.94-3.38h-.41v.7h.41Zm0,1.12h-.41v.78h.41Zm.17,2.26a3.68,3.68,0,0,0-.19-.86l.47-.06a5.27,5.27,0,0,1,.24.85Zm.67-3.38h-.42v.7h.42Zm0,1.13h-.42v.78h.42Zm.6,2.28a3.75,3.75,0,0,0-.51-.87l.44-.14a4.22,4.22,0,0,1,.56.81Z"/><path class="cls-4" d="M24.39,57.82c0-.27,0-1.18,0-1.61a3.77,3.77,0,0,1-.56,1.16,1.67,1.67,0,0,0-.23-.53,3.68,3.68,0,0,0,.72-1.37h-.64V55l.36,0h.36c0-.7,0-1.23,0-1.31a.36.36,0,0,1,0-.11s0,0,.05,0h0c.44,0,.52,0,.52.09a.26.26,0,0,1,0,.1c-.06.08-.06.19-.06,1.26l.68,0v.46h-.66a3,3,0,0,0,.69.83,1.55,1.55,0,0,0-.22.48,3.53,3.53,0,0,1-.49-.78c0,.62,0,1.32,0,1.82Zm-.45-2.88a5.25,5.25,0,0,0-.23-1l.35-.1a6.47,6.47,0,0,1,.27,1Zm1.23-1.09s0-.05,0-.05h0a2.42,2.42,0,0,1,.36.1.05.05,0,0,1,0,.05s0,0,0,.07-.06.09-.07.13a6.91,6.91,0,0,1-.22.81,2.93,2.93,0,0,0-.36-.14,4,4,0,0,0,.23-.91Zm1.75,4c0-.36,0-.78,0-1.22-.45.1-.84.22-1.31.35l-.12-.51c.53-.09.94-.2,1.43-.32,0-.27,0-.54,0-.8,0-.82,0-1.49,0-1.58a.33.33,0,0,1,0-.1s0,0,0,0h0c.54,0,.59.06.59.1a.16.16,0,0,1-.05.1c-.05.07-.05.07-.05,1.39V56l.41-.11.12.5-.53.12c0,.46,0,.92,0,1.33ZM26.3,56a3.28,3.28,0,0,0-.66-.86l.35-.29a7,7,0,0,1,.7.83ZM26.46,55a4.11,4.11,0,0,0-.62-.87l.36-.27a5.81,5.81,0,0,1,.65.84Z"/><rect class="cls-5" x="18.28" y="58.91" width="10.15" height="0.67"/><rect class="cls-1" x="34.5" y="45.89" width="28.03" height="17.15" rx="1.84"/><path class="cls-4" d="M48.51,52.36V50.43h.74a.62.62,0,1,1,0,1.23h-.42v.7Zm.71-1a.33.33,0,0,0,.37-.34c0-.22-.16-.33-.38-.33h-.39v.67Z"/><path class="cls-4" d="M51.59,52.35a4.08,4.08,0,0,0-.84-.82l.24-.17a3.69,3.69,0,0,1,.35.27,7.08,7.08,0,0,0,.58-.69c-.27,0-1.42,0-1.62.08v-.35l.51,0c.46,0,1.08,0,1.26,0s.07,0,.1,0a.92.92,0,0,1,.28.24s-.09,0-.15.13a11,11,0,0,1-.74.82l.31.31Z"/><path class="cls-4" d="M54.82,51.53H54.2c-.55,0-1.26,0-1.41,0v-.34l.69,0c.53,0,1.19,0,1.33,0Z"/><path class="cls-4" d="M55.47,52.25A2.15,2.15,0,0,0,56.94,51l-.71,0a3.09,3.09,0,0,1-.64.6,1.06,1.06,0,0,0-.29-.2,1.79,1.79,0,0,0,.91-1c0-.06,0-.09,0-.09h0l.31.1s0,0,0,0,0,0,0,0,0,0-.14.23c.19,0,.44,0,.6,0s.06,0,.08,0a1.06,1.06,0,0,1,.26.2s0,0-.09.14a2.66,2.66,0,0,1-1.53,1.52A1.72,1.72,0,0,0,55.47,52.25Z"/><path class="cls-4" d="M49.75,57.82c0-.29,0-.63,0-1-.43.12-.87.23-1.16.29a.34.34,0,0,0-.13.09.09.09,0,0,1-.08.06s0,0-.06-.08a3.57,3.57,0,0,1-.13-.52s0,0,0,0h0l.3,0V54.23h-.34v-.49c.39,0,.75,0,1.1,0s.73,0,1.13,0V54h.67l1.18,0a5.87,5.87,0,0,1-.59,2.49,3.61,3.61,0,0,0,.79.83,1.88,1.88,0,0,0-.31.49,5,5,0,0,1-.77-.93,3.73,3.73,0,0,1-.86.93,1.41,1.41,0,0,0-.31-.47,3.14,3.14,0,0,0,.89-.89,5.45,5.45,0,0,1-.56-2h-.19v-.27h-.18v.69c0,.85,0,2.07,0,2.89Zm0-3.6h-.71v.42h.71Zm0,.83h-.71v.46h.71Zm-.71.87v.59l.71-.16v-.43Zm2.4.08a5.16,5.16,0,0,0,.34-1.51h-.72A5.38,5.38,0,0,0,51.47,56Z"/><path class="cls-4" d="M53.76,57.82c0-.51,0-1.31,0-1.81a1.19,1.19,0,0,1-.4.43,1.4,1.4,0,0,0-.18-.51,2.63,2.63,0,0,0,.9-1.15.06.06,0,0,0,0,0c0-.09,0-.11,0-.11h0c.43.08.49.12.49.16a.1.1,0,0,1,0,.07.19.19,0,0,0-.1.12,2.83,2.83,0,0,1-.28.5c0,.22,0,.55,0,.9,0,.51,0,1.07,0,1.44ZM54,53.7c0-.08,0-.1,0-.1h0a3.39,3.39,0,0,1,.43.11s.06,0,.06.06,0,0,0,.07a.22.22,0,0,0-.09.11,3,3,0,0,1-1,1.21,1.4,1.4,0,0,0-.19-.48A2,2,0,0,0,54,53.7Zm3.54,2.93-.67,0v.59c0,.46-.09.62-.73.62h-.23a1.41,1.41,0,0,0-.15-.5l.37,0c.23,0,.26-.05.26-.23v-.5h-.47c-.49,0-1,0-1.46,0v-.47c.56,0,1,0,1.6,0h.33v-.27H56c-.46,0-.88,0-1.35,0v-.45c.47,0,.93,0,1.4,0l1.37,0v.45h-.53v.25l.67,0Zm-2.73-1.32V53.78h2.4v1.53Zm.8,2.16a3.47,3.47,0,0,0-.69-.55l.31-.3a5.61,5.61,0,0,1,.72.5Zm1.14-3.33H55.27v.22h1.48Zm0,.55H55.27V55h1.48Z"/><rect class="cls-5" x="47.9" y="58.91" width="10.15" height="0.67"/><path class="cls-6" d="M9,54.47a2.68,2.68,0,0,1,2.68-2.68,2.64,2.64,0,0,1,1.89.79l-.24.27a2.3,2.3,0,0,0-1.65-.7A2.32,2.32,0,1,0,14,54.47a2.27,2.27,0,0,0-.09-.65l.27-.31a2.56,2.56,0,0,1,.18,1,2.68,2.68,0,0,1-5.35,0Zm2.62.84L10.4,54.08h0l-.12.13-.13.13,1.47,1.5,2.84-3.2-.13-.12-.14-.12h0Z"/><rect class="cls-1" x="37.27" y="50.4" width="8.14" height="8.14" rx="0.86"/><path class="cls-7" d="M42.67,57.47a2,2,0,0,0,0,.4.76.76,0,0,0,.06.2h-.08a.6.6,0,0,1-.06-.19.69.69,0,0,1,0-.2s0-.07,0-.1a.43.43,0,0,1,0-.11.3.3,0,0,1,0-.1.39.39,0,0,1,0-.09h.08A.6.6,0,0,0,42.67,57.47Z"/><path class="cls-7" d="M42.92,57.54a.3.3,0,0,1,0-.1l0,0h.13l0,0a.3.3,0,0,1,0,.1,1.13,1.13,0,0,1,0,.3.3.3,0,0,1,0,.1.12.12,0,0,1,0,.05l-.07,0L43,58a.12.12,0,0,1,0-.05.3.3,0,0,1,0-.1,1.13,1.13,0,0,1,0-.3Zm.08.21s0,0,0,.07a.08.08,0,0,0,0,.06.05.05,0,0,0,0,0,.05.05,0,0,0,0,0,.08.08,0,0,0,0-.06.15.15,0,0,0,0-.07v-.14a.43.43,0,0,0,0,0s0,0,0,0l0,0H43l0,0s0,0,0,0a.43.43,0,0,0,0,0v.14Z"/><path class="cls-7" d="M43.55,58v-.4h-.12v-.09h0a.05.05,0,0,0,0,0l0,0a.14.14,0,0,0,0-.06h.07V58Z"/><path class="cls-7" d="M44,57.88a1.06,1.06,0,0,0,0-.41,1.05,1.05,0,0,0,0-.19H44a1.34,1.34,0,0,1,.07.18,1.49,1.49,0,0,1,0,.21.38.38,0,0,1,0,.1.41.41,0,0,1,0,.11l0,.1a.36.36,0,0,1,0,.09h-.07A1.33,1.33,0,0,0,44,57.88Z"/><path class="cls-7" d="M38.78,58v-.4h-.11v-.09h0l0,0,0,0s0,0,0-.06h.08V58Z"/><path class="cls-7" d="M39.39,57.6a.5.5,0,0,0,0,.13l0,.13s0,.1,0,.14h-.1a1.17,1.17,0,0,1,0-.27,1,1,0,0,1,.11-.23h-.22v-.11h.31v.1Z"/><path class="cls-7" d="M39.63,57.54a.3.3,0,0,1,0-.1l0,0h.13l0,0a.3.3,0,0,1,0,.1,1.13,1.13,0,0,1,0,.3.3.3,0,0,1,0,.1.12.12,0,0,1,0,.05l-.06,0-.07,0a.12.12,0,0,1,0-.05.3.3,0,0,1,0-.1,1.13,1.13,0,0,1,0-.3Zm.08.21s0,0,0,.07,0,0,0,.06a.05.05,0,0,0,0,0s0,0,0,0a.08.08,0,0,0,0-.06.15.15,0,0,0,0-.07v-.14a.07.07,0,0,0,0,0s0,0,0,0l0,0h-.07l0,0s0,0,0,0a.11.11,0,0,1,0,0v.14Z"/><path class="cls-7" d="M40.13,57.54a.29.29,0,0,1,0-.1s0,0,.05,0h.13l.06,0,0,.1a.57.57,0,0,1,0,.3l0,.1-.06.05-.06,0-.07,0-.05-.05a.29.29,0,0,1,0-.1.57.57,0,0,1,0-.3Zm.08.21v.07a.16.16,0,0,0,0,.06s0,0,0,0,0,0,0,0a.16.16,0,0,0,0-.06v-.26s0,0,0,0,0,0,0,0h-.06s0,0,0,0,0,0,0,0v0a.06.06,0,0,1,0,0v.1Z"/><path class="cls-7" d="M40.77,57.63h0l0,0v0a.08.08,0,0,0,0-.06.06.06,0,0,0-.1,0,.15.15,0,0,0,0,.08h-.09a.24.24,0,0,1,0-.09.09.09,0,0,1,0-.07.1.1,0,0,1,.05,0h.12l.05,0,0,0a.17.17,0,0,1,0,.07.19.19,0,0,1,0,.08.12.12,0,0,1,0,.05h0s0,0,.06,0a.2.2,0,0,1,0,.09.19.19,0,0,1,0,.08.16.16,0,0,1,0,.07s0,0,0,0l-.07,0-.07,0a.1.1,0,0,1-.05,0,.16.16,0,0,1,0-.07s0-.06,0-.09h.09a.06.06,0,0,0,0,0s0,0,0,0l0,0h0a.05.05,0,0,0,0,0,.08.08,0,0,0,0-.07v-.05l0,0h-.07v-.09Z"/><path class="cls-7" d="M41.36,57.6a.5.5,0,0,0,0,.13l0,.13s0,.1,0,.14h-.1a1.17,1.17,0,0,1,0-.27,1.6,1.6,0,0,1,.1-.23h-.21v-.11h.31v.1Z"/><path class="cls-7" d="M41.85,57.6s0,.08-.05.13l0,.13s0,.1,0,.14h-.1a2.16,2.16,0,0,1,.05-.27,1,1,0,0,1,.11-.23H41.6v-.11h.31v.1Z"/><path class="cls-7" d="M42.25,57.63h0l0,0a.06.06,0,0,0,0,0s0-.05,0-.06,0,0,0,0a.05.05,0,0,0,0,0s0,0,0,.08h-.09s0-.06,0-.09a.16.16,0,0,1,0-.07s0,0,0,0h.12a.05.05,0,0,1,.05,0,.1.1,0,0,1,0,0,.17.17,0,0,1,0,.07.19.19,0,0,1,0,.08.12.12,0,0,1,0,.05h0a.13.13,0,0,1,.06,0,.2.2,0,0,1,0,.09.19.19,0,0,1,0,.08.15.15,0,0,1,0,.07l-.06,0-.06,0-.07,0a.1.1,0,0,1,0,0,.16.16,0,0,1,0-.07.28.28,0,0,1,0-.09h.09v0s0,0,0,0l0,0h0a.05.05,0,0,0,0,0,.08.08,0,0,0,0-.07.07.07,0,0,0,0-.05l0,0h-.07v-.09Z"/><path class="cls-7" d="M42.66,52.17a3.41,3.41,0,0,0-2.53.5,3.38,3.38,0,0,0-1.57,2,1.94,1.94,0,0,0,.21,1.52c.67,1.08,2.37,1.25,3.8.37s2-2.48,1.36-3.57a2,2,0,0,0-1.27-.87Zm-.24,4.2c-1.29.81-2.83.68-3.42-.28a1.72,1.72,0,0,1-.18-1.31,3.38,3.38,0,0,1,3.78-2.34,1.69,1.69,0,0,1,1.1.74c.59,1,0,2.39-1.28,3.19Z"/><path class="cls-7" d="M39.27,55.75c.56,0,3.26-1,3.2-1.78s-1.61,0-2.11.26l.06-.6c.34-.27,2.52-1.22,2.88-.1.44,1.38-2.86,2.31-4,2.22Z"/><path class="cls-8" d="M40.3,54.53a.54.54,0,0,0,0-1.07.54.54,0,0,0,0,1.07Z"/><path class="cls-8" d="M40.7,56.64V55.19a.4.4,0,0,0-.79,0v1.34a2.52,2.52,0,0,0,.79.11Z"/><path class="cls-8" d="M37.83,54.24l.07,0,.05-.14.1,0,0,.15a3.15,3.15,0,0,1,.38.24l-.08.09a2.14,2.14,0,0,0-.34-.24l0,.08-.1,0,0-.09-.08,0,0-.1Zm.44,0s0,0,0,0,0,0,.08-.08,0-.08,0-.12l.1,0a.81.81,0,0,1,0,.09.44.44,0,0,1-.1.16.09.09,0,0,1-.11,0,.24.24,0,0,1-.11-.09l.08,0ZM38.22,54l0,.07a.43.43,0,0,0,0,.17h-.1a.5.5,0,0,1,.06-.28l.1,0Z"/><path class="cls-8" d="M38.11,53.71a1,1,0,0,0,.18.13l.15.08s.06,0,.07,0,0,0,0,0l-.07-.09.1,0c0,.05.14.17.09.25a.13.13,0,0,1-.15.05.64.64,0,0,1-.24-.11.81.81,0,0,1-.18-.12l.06-.09Zm.61,0,0,0a.88.88,0,0,0-.22-.1.49.49,0,0,0-.17,0v-.1a.56.56,0,0,1,.32,0l.18.1-.05.1Z"/><path class="cls-8" d="M38.68,52.85l.11.08.06-.07.08.07-.06.07c.1.1.17.15.09.24l-.06.06-.08-.06,0-.05s0,0-.07-.11l-.11.14.12.1c.08.08.08.08.18,0l.11-.15.09.08-.1.11c-.07.09-.13.16-.21.15s-.06,0-.13-.07l-.13-.11,0,.07-.09-.07.06-.07-.09-.08.06-.08.1.08.11-.14-.1-.08.06-.08Z"/><path class="cls-8" d="M39.22,53a.81.81,0,0,0,.16-.16.17.17,0,0,0,0-.23.15.15,0,0,0-.08,0s-.06,0-.11,0l-.12.16-.07.1-.1-.07.08-.11a1,1,0,0,1,.15-.17.22.22,0,0,1,.33,0,.26.26,0,0,1,.06.29.93.93,0,0,1-.21.25L39.22,53Z"/><path class="cls-8" d="M39.49,52.18a2.28,2.28,0,0,0,.17.3,1.72,1.72,0,0,0,.15.2l-.08.07a1,1,0,0,1-.15-.2,3.37,3.37,0,0,1-.19-.32l.1,0Zm.35-.19.06.1-.28.18-.06-.1.28-.18Zm0,.36a.14.14,0,0,0,0,.09s.07,0,.12,0l.13-.09.06.1-.09.07c-.09.06-.21.13-.29,0a.25.25,0,0,1,0-.14l.09,0Z"/><path class="cls-8" d="M40,51.82c.05.11.15.33.16.34s.07.12.15.08.09-.19.07-.27h.1a.42.42,0,0,1,0,.23.21.21,0,0,1-.13.15c-.17.09-.24,0-.31-.15l-.15-.32.1,0Z"/><path class="cls-8" d="M40.7,51.6l0-.05.1,0,0,.06L41,51.5l0,.1-.18.06v.05l.18-.06,0,.1-.17,0,0,.07a.76.76,0,0,1,.21.06l0,.12a.48.48,0,0,0-.14-.06h0s0,0,0,.08a.21.21,0,0,1-.1.07c-.11,0-.18,0-.2-.07s0-.16.12-.19h0v0l-.21.07,0-.09.21-.07,0,0-.22.07,0-.09.22-.08Zm.13.37h0s-.06,0-.05.06.06,0,.07,0,0,0,0-.06v0Z"/><path class="cls-8" d="M41.36,51.36l.1,0v.06l.17,0,0,.11-.17,0,0,.15,0,.09a.17.17,0,0,1-.07.2.44.44,0,0,1-.17.07l-.05-.09.13,0s.06,0,.06-.07a.06.06,0,0,1-.05,0,.13.13,0,0,1-.16-.12.14.14,0,0,1,.11-.17h0v0l-.29,0,0-.1.29-.06v-.06Zm.07.33s0,0-.06,0,0,0,0,.07a.05.05,0,0,0,.06.05s0,0,0-.06v0Z"/><path class="cls-7" d="M42.22,51.06c0,.13.06.16.11.16a.74.74,0,0,1-.41.72l-.05-.16c.26-.07.33-.29.35-.55h-.4v-.17Zm.1.13s-.07-.06-.08-.12,0-.12.08-.12.07,0,.07.11,0,.13-.07.13Zm0-.17s0,0,0,0,0,0,0,0,0,0,0-.06a0,0,0,0,0,0,0Z"/><path class="cls-7" d="M43,51.11l0,.16-.43-.07,0-.16.44.07Zm0,.27c-.08.35-.2.58-.53.57v-.17a.32.32,0,0,0,.39-.26l-.4-.07,0-.16.53.09Z"/><path class="cls-7" d="M43.22,52.13l-.1,0,.16-.41a.92.92,0,0,1-.26.07v-.15a.86.86,0,0,0,.33-.11,1.94,1.94,0,0,0,.3-.21l0,.13a1.43,1.43,0,0,1-.27.19l-.2.52Z"/><path class="cls-7" d="M43.44,52.07a1.49,1.49,0,0,0,.27-.23,2.79,2.79,0,0,0,.26-.32l.08.07a2.11,2.11,0,0,1-.62.63v-.15Zm.78-.38a.91.91,0,0,1-.07.14h0a1.85,1.85,0,0,0-.23.58l-.15.05a2.23,2.23,0,0,1,.37-.8l.07,0Zm0,.13.07-.16.06,0a1.64,1.64,0,0,1-.07.15Zm.08,0,.07-.16,0,0a.62.62,0,0,1-.07.16l0,0Z"/><path class="cls-7" d="M44.48,52.28a.59.59,0,0,0,0-.23l.14-.06a.72.72,0,0,1,0,.22l-.14.07Zm-.24.12a.58.58,0,0,0,0-.23l.13-.06a.67.67,0,0,1,0,.22l-.15.07Zm-.25,0c.15.13.28.2.72,0v.13c-.46.24-.66.2-.85,0l.13-.13Z"/><polygon class="cls-7" points="44.9 53.22 44.73 53.29 44.51 52.76 44.68 52.7 44.9 53.22 44.9 53.22 44.9 53.22"/><path class="cls-6" d="M14.15,33.91h-1v-.08a.8.8,0,0,0-.8-.8H10.72a.8.8,0,0,0-.79.8v.08H9a.48.48,0,0,0-.49.48v3.18a.48.48,0,0,0,.49.48h.2v.07a.27.27,0,0,0,.54,0v-.07h3.7v.07a.28.28,0,0,0,.55,0v-.07h.2a.48.48,0,0,0,.48-.48V34.39A.48.48,0,0,0,14.15,33.91Zm-3.81-.1a.39.39,0,0,1,.35-.42h1.72a.39.39,0,0,1,.36.42v.1H10.34Zm3.9,3.79a0,0,0,0,1,0,0H8.91a0,0,0,0,1,0,0V34.36a0,0,0,0,1,0,0H14.2a0,0,0,0,1,0,0Z"/><circle class="cls-6" cx="9.39" cy="34.81" r="0.22"/><circle class="cls-6" cx="9.39" cy="37.19" r="0.22"/><circle class="cls-6" cx="13.71" cy="34.81" r="0.22"/><circle class="cls-6" cx="13.71" cy="37.19" r="0.22"/><path class="cls-6" d="M11.54,36.34a.28.28,0,0,0-.28.27.28.28,0,1,0,.28-.27Zm0,.39a.11.11,0,1,1,.11-.11A.11.11,0,0,1,11.54,36.73Z"/><path class="cls-6" d="M11.55,36.08a.49.49,0,0,0-.4.17.08.08,0,0,0,0,.12s0,0,.05,0a.11.11,0,0,0,.07,0,.38.38,0,0,1,.26-.11.4.4,0,0,1,.27.12.09.09,0,1,0,.13-.11A.55.55,0,0,0,11.55,36.08Z"/><path class="cls-6" d="M11.55,35.78A.88.88,0,0,0,11,36a.08.08,0,1,0,.12.12.75.75,0,0,1,.46-.17.64.64,0,0,1,.45.18.07.07,0,0,0,.06,0l.06,0a.08.08,0,0,0,0-.12A.76.76,0,0,0,11.55,35.78Z"/><path class="cls-6" d="M11.55,35.47a1.17,1.17,0,0,0-.76.28.08.08,0,0,0,0,.12.07.07,0,0,0,.12,0,.94.94,0,0,1,.63-.23,1,1,0,0,1,.63.25l.06,0a.07.07,0,0,0,.06,0,.08.08,0,0,0,0-.12A1.13,1.13,0,0,0,11.55,35.47Z"/><path class="cls-6" d="M12.37,35.65l.06,0,.06,0a.11.11,0,0,0,0-.13,1.56,1.56,0,0,0-.93-.35,1.48,1.48,0,0,0-.94.33.09.09,0,0,0,0,.12.08.08,0,0,0,.12,0,1.42,1.42,0,0,1,.83-.29A1.35,1.35,0,0,1,12.37,35.65Z"/><path class="cls-3" d="M12.92,24.2a3.29,3.29,0,0,0-.8-.62v0c0,.43-.46.63-1,.63S10,24,9.93,23.51c0,0,0,0,0-.06,0-.5.43-.76,1.06-.76a3.29,3.29,0,0,1,.42,0l0-.49H10.2l0-.67a4.91,4.91,0,0,0,.95.07h.23c0-.1,0-.2,0-.29h-.15c-.35,0-.72,0-1.08-.05l0-.65a5.22,5.22,0,0,0,1.15.1h.1c0-.23,0-.42,0-.51a.56.56,0,0,0,0-.1s0,0,.05,0h0l.7.05c.06,0,.08,0,.08,0a.14.14,0,0,1,0,.06.4.4,0,0,0-.07.22c0,.08,0,.15,0,.24a8,8,0,0,0,1-.16v.64c-.3.05-.65.09-1,.12v.28a5.8,5.8,0,0,0,.95-.16v.66a8.77,8.77,0,0,1-.94.1c0,.23,0,.46.05.69a4.89,4.89,0,0,1,1.24.6Zm-2.36-.8c0,.15.27.23.49.23s.39-.06.39-.2a.71.71,0,0,0,0-.14,2.2,2.2,0,0,0-.51-.08c-.23,0-.36.07-.36.18Z"/><path class="cls-3" d="M18.13,24.13a1.67,1.67,0,0,0-.34-.44,1.23,1.23,0,0,1-.93.41.74.74,0,0,1-.82-.68c0-.07,0-.68.78-.68a2.16,2.16,0,0,1,.65.11,2.19,2.19,0,0,0,0-.36c0-.84-.24-.87-.37-.87a.74.74,0,0,0-.27.06,3,3,0,0,0-1,.69v.44a12.08,12.08,0,0,0,.07,1.35l-.75,0,0-1a5.09,5.09,0,0,0-.31.45c-.06.1-.1.2-.15.2a4,4,0,0,1-.48-.63s.06,0,.14-.12a3.88,3.88,0,0,0,.84-1.14.91.91,0,0,0,0-.17l-.35.13a.35.35,0,0,0-.16.09.23.23,0,0,1-.1.05s0,0-.05,0c-.2-.7-.2-.71-.2-.72a0,0,0,0,1,0,0h.15a4.18,4.18,0,0,0,.72-.12c0-.31,0-.6,0-.76v-.07a.88.88,0,0,0,0-.14s0,0,0,0h0l.74.06s.05,0,.05,0a.09.09,0,0,1,0,.06.27.27,0,0,0-.07.14c0,.15,0,.31-.07.5h0c.31.26.33.33.33.36v0a1.56,1.56,0,0,1,.89-.31c.36,0,1,.17,1,1.41a2.88,2.88,0,0,1-.09.71,1.9,1.9,0,0,1,.55.44Zm-1.55-.73a.19.19,0,0,0,.21.17.69.69,0,0,0,.48-.21,1.24,1.24,0,0,0-.46-.1c-.13,0-.22,0-.23.11Z"/><path class="cls-3" d="M22.08,24.16a5.13,5.13,0,0,1-.93.09c-.92,0-1.64-.3-1.65-1h0c0-.73.66-1,1.38-1a3.42,3.42,0,0,1,.45,0c-.07-.1-.13-.21-.2-.32-.56.11-1.14.19-1.72.26l-.16-.61a10.28,10.28,0,0,0,1.6-.19c0-.06-.05-.12-.08-.17-.4.07-.82.12-1.23.15l-.15-.62h.15a7.14,7.14,0,0,0,1-.08c-.06-.11-.11-.22-.17-.32s-.06-.08-.06-.1a0,0,0,0,1,0,0c.55-.15.73-.19.75-.19s0,0,0,0v0a.11.11,0,0,0,0,.05,1.5,1.5,0,0,0,.13.37,3.82,3.82,0,0,0,.88-.32l.15.62a6.93,6.93,0,0,1-.8.24l.09.18A7.25,7.25,0,0,0,22.57,21l.17.61c-.3.1-.61.18-.91.26a3.59,3.59,0,0,0,.82.92l-.55.51a1.7,1.7,0,0,0-1.19-.46c-.39,0-.72.14-.72.43h0c0,.22.36.33.82.33a3.77,3.77,0,0,0,1.14-.18,6.64,6.64,0,0,0-.07.75Z"/><path class="cls-3" d="M25.57,24.44a16.16,16.16,0,0,0-.8-2.41c-.45.24-.52.3-.59.39s-.08.09-.11.09-.05,0-.08-.06a4.91,4.91,0,0,1-.49-.67s.09,0,.25-.08l.73-.3a5.09,5.09,0,0,0-.4-.73c0-.06-.08-.1-.08-.12s0,0,0,0l.72-.2h.06s.05,0,.05.07a.11.11,0,0,1,0,.05v0c0,.06,0,.06.28.66L25.6,21a2.83,2.83,0,0,0-.43-.48l.59-.29c.18.18.35.36.53.57a4.12,4.12,0,0,1,.48-.05A1.11,1.11,0,0,1,28,21.77c0,.6-.51,1.22-1.57,1.22l-.31,0a2.4,2.4,0,0,0-.25-.77,2.59,2.59,0,0,0,.67.1c.55,0,.8-.27.8-.53s-.21-.47-.59-.47h-.08l.31.48-.67.32c-.12-.22-.24-.43-.36-.62l-.59.24c.32.76.65,1.63.93,2.45Z"/><path class="cls-3" d="M30.66,23.37h.12a1.2,1.2,0,0,0,1.36-1.17,1.16,1.16,0,0,0-.92-1.15,6.28,6.28,0,0,1-.9,2.53.83.83,0,0,1-.65.4c-.51,0-.94-.68-.94-1.47a2.06,2.06,0,0,1,2.11-2.11,1.83,1.83,0,0,1,2,1.82,1.89,1.89,0,0,1-1.78,1.87A4.83,4.83,0,0,0,30.66,23.37Zm-1.26-.86c0,.46.19.71.27.71a4.07,4.07,0,0,0,.87-2.17A1.42,1.42,0,0,0,29.4,22.51Z"/><path class="cls-3" d="M34.12,23.68v-3.6h1.32v.5h-.79v3.1Z"/><path class="cls-3" d="M40.35,22.8,38.26,23v.36c0,.14.07.18.61.18a3.48,3.48,0,0,0,.49,0c.24,0,.27-.11.32-.63a2.2,2.2,0,0,0,.69.26c-.12,1.06-.31,1.09-1.52,1.09-.3,0-.58,0-.79,0a.57.57,0,0,1-.5-.61v-.51L36,23.28,36,22.54l1.6-.12v-.36c-.29.05-.66.1-1,.13a3.13,3.13,0,0,0-.25-.64,6.84,6.84,0,0,0,2.55-.44s0-.06.08-.06.63.44.63.55,0,.07-.09.07h-.09l-.15,0a8.85,8.85,0,0,1-1,.25v.41c.68-.08,1.36-.17,2-.28Zm-.79-1.24a3.17,3.17,0,0,0,0-.42V21H36.77v.11a2.25,2.25,0,0,0,0,.34h-.72c0-.32,0-.73,0-.93V20.4h1.68a1.76,1.76,0,0,0,0-.27.43.43,0,0,1,0-.1s0,0,.06,0h0c.67,0,.79,0,.79.11a.1.1,0,0,1,0,.08c0,.06,0,0-.06.12a.28.28,0,0,1,0,.09h1.78v.15c0,.23,0,.69,0,1Z"/><path class="cls-3" d="M42.67,24.3v-.16H41.6v.2H41c0-.48,0-1.46,0-2.23V21h.52v-.26l-.67,0v-.62l1.2,0,1.21,0v.62l-.63,0V21h.53v.67c0,.79,0,2.08,0,2.63Zm0-1.58c-.27,0-.5,0-.5-.34v-.83h-.09v.2a1.75,1.75,0,0,1-.27,1.14,1.65,1.65,0,0,0-.23-.25v.26h1.09Zm-1-1.17h-.11v.9a1.7,1.7,0,0,0,.11-.81Zm1,1.84H41.59v.21h1.09Zm-.49-2.65h-.12V21h.12Zm.49.81h-.12v.62c0,.08,0,.09.12.1Zm1.81.85a2.71,2.71,0,0,0,0-.29H44v1.32c0,.14,0,.16.29.16h.21c.18,0,.2-.06.23-.81a1.7,1.7,0,0,0,.61.27c-.11,1.17-.18,1.2-1,1.2s-.9,0-.9-.63v-2.1h1.1v-.73h-.13c-.22,0-.72,0-1,0v-.64c.35,0,1.14,0,1.5,0h.21s0,.3,0,.69,0,1.18,0,1.53Z"/><path class="cls-3" d="M49.07,23.61a9.76,9.76,0,0,0,1.26.18,2.29,2.29,0,0,0-.26.55,8.27,8.27,0,0,1-1.84-.44l.36-.29h-1c.28.16.37.23.37.28a.08.08,0,0,1-.09.07l-.16,0a5.52,5.52,0,0,1-1.58.36,1.87,1.87,0,0,0-.24-.55,6.93,6.93,0,0,0,1.27-.18h-.71V21.5h3.31v2.11Zm-2.94-2.24V20.15h3.94v1.22Zm1.15-.73h-.49v.24h.49ZM49.05,22H47.12v.13h1.93Zm0,.52H47.12v.14h1.93Zm0,.53H47.12v.16h1.93Zm-.73-2.36h-.48v.24h.48Zm1.09,0h-.53v.24h.53Z"/><path class="cls-3" d="M52.32,24.34c0-.25,0-.55,0-.87-.44.12-.86.22-1.09.26a.19.19,0,0,0-.12.1c0,.05-.06.08-.1.08a.1.1,0,0,1-.07-.08c-.06-.27-.13-.67-.13-.69s0,0,.05,0h0l.26,0v-2.3H50.9v-.65c.4,0,.75,0,1.11,0s.75,0,1.17,0v.35h2a6.61,6.61,0,0,1-.57,2.57,3.81,3.81,0,0,0,.72.64,2.89,2.89,0,0,0-.42.64,5.83,5.83,0,0,1-.71-.69,4,4,0,0,1-.84.69A2.17,2.17,0,0,0,53,23.8c0,.2,0,.38,0,.54Zm0-3.58h-.54v.31h.54Zm0,.86h-.54V22h.54Zm0,.9h-.53V23l.53-.12Zm.74-1.75H53c0,.62,0,1.9,0,2.89a3.16,3.16,0,0,0,.78-.61,4.85,4.85,0,0,1-.53-1.93h-.16Zm.77.33a4.35,4.35,0,0,0,.31,1.31,4.63,4.63,0,0,0,.28-1.31Z"/><path class="cls-3" d="M56.09,24.26v-.51h.79V20.66h.53v3.6Z"/></g></g></svg>