<svg xmlns="http://www.w3.org/2000/svg" viewBox="0 0 67.52 82.76"><defs><style>.cls-1,.cls-3{fill:#fff;}.cls-1{stroke:#b50005;stroke-miterlimit:10;stroke-width:0.35px;}.cls-2{fill:#b50005;}.cls-4{fill:#b20005;}.cls-5{fill:#333;}.cls-6{fill:#b00005;}</style></defs><g id="Layer_2" data-name="Layer 2"><g id="レイアウト"><rect class="cls-1" x="0.18" y="0.18" width="67.16" height="82.41" rx="4.34"/><path class="cls-2" d="M67.34,3.9c0-2.06-3-3.72-4.34-3.72H4.2c-1.38,0-4,1.66-4,3.72V11H67.34Z"/><path class="cls-3" d="M24,4.85V2.69h.76v.25h-.5V4.85Z"/><path class="cls-3" d="M27.25,5.11a1.77,1.77,0,0,0-.5-.34v0c0,.23-.28.36-.57.36s-.59-.13-.61-.39v0c0-.26.23-.41.57-.41l.26,0c0-.11,0-.24,0-.37H25.7l0-.33a2.85,2.85,0,0,0,.5,0h.19a1.93,1.93,0,0,0,0-.24h-.19a4.49,4.49,0,0,1-.51,0l0-.33a2.53,2.53,0,0,0,.62.06h.11c0-.15,0-.26,0-.32a.35.35,0,0,0,0-.06h0c.35,0,.39,0,.39,0l0,0c0,.05,0,.06,0,.29A3.74,3.74,0,0,0,27.27,3v.33c-.16,0-.37,0-.6.06v.23a2.83,2.83,0,0,0,.56-.09v.33l-.56.06,0,.48a4.16,4.16,0,0,1,.7.35Zm-.83-.41V4.64a1.1,1.1,0,0,0-.33,0c-.14,0-.22,0-.22.12h0c0,.09.14.13.28.13s.27,0,.27-.14Z"/><path class="cls-3" d="M30.65,5.08a.79.79,0,0,0-.23-.25.67.67,0,0,1-.53.24c-.27,0-.48-.15-.48-.36a.43.43,0,0,1,0-.11.41.41,0,0,1,.44-.26,1.53,1.53,0,0,1,.4.07,1.45,1.45,0,0,0,0-.3c0-.48-.14-.54-.26-.54a1.41,1.41,0,0,0-.84.49v.27a6.74,6.74,0,0,0,0,.79h-.36c0-.24,0-.48,0-.73-.08.11-.17.22-.25.35s-.06.12-.09.12a1.54,1.54,0,0,1-.22-.3s0,0,.08-.08a3.17,3.17,0,0,0,.51-.7,1,1,0,0,1,0-.17l-.25.09a.19.19,0,0,0-.1,0l-.06,0s0,0,0,0-.09-.33-.09-.36,0,0,0,0h.08A2.55,2.55,0,0,0,29,3.33c0-.18,0-.34,0-.44V2.83a.54.54,0,0,0,0-.08h0c.33,0,.39,0,.39,0l0,0c0,.05,0,.05-.09.4a.6.6,0,0,1,.21.17s0,0-.05,0a1.46,1.46,0,0,0-.15.24,1.32,1.32,0,0,1,.8-.41c.13,0,.55,0,.55.81a1.39,1.39,0,0,1-.07.46,1.31,1.31,0,0,1,.33.26Zm-.8-.48c-.08,0-.13,0-.14.07a0,0,0,0,0,0,0s.06.09.15.09a.45.45,0,0,0,.3-.12A1,1,0,0,0,29.85,4.6Z"/><path class="cls-3" d="M33.23,4.59a1.06,1.06,0,0,0-.75-.27c-.26,0-.48.09-.48.27h0c0,.16.25.25.56.25a1.81,1.81,0,0,0,.61-.1,1.46,1.46,0,0,0,0,.31v.06a3.27,3.27,0,0,1-.53,0c-.52,0-.92-.16-.93-.55v0c0-.38.36-.54.78-.54a1.48,1.48,0,0,1,.41,0c-.06-.09-.13-.19-.19-.3A9.32,9.32,0,0,1,31.61,4l-.08-.3a6.47,6.47,0,0,0,1-.12s-.05-.09-.07-.14a6.49,6.49,0,0,1-.77.11l-.07-.31h.08a3.8,3.8,0,0,0,.63-.06l-.12-.25s0,0,0-.06a1.64,1.64,0,0,1,.38-.1s0,0,0,0h0v0s0,.05.09.26a1.79,1.79,0,0,0,.52-.19l.08.31-.48.15a.83.83,0,0,0,.07.13,4.26,4.26,0,0,0,.63-.2l.08.31L33,3.73a2.48,2.48,0,0,0,.52.61Z"/><path class="cls-3" d="M35.43,5.28a8.78,8.78,0,0,0-.5-1.5,1.35,1.35,0,0,0-.37.25s-.05,0-.07,0a1.91,1.91,0,0,1-.28-.33,0,0,0,0,1,0,0s0,0,.15,0l.46-.18a3.45,3.45,0,0,0-.24-.45s0,0,0-.07a2.52,2.52,0,0,1,.39-.12s0,0,0,.05a0,0,0,0,1,0,0V3s0,.08.18.41l.39-.14a2.68,2.68,0,0,0-.28-.3l.29-.15a2.66,2.66,0,0,1,.32.35l.24,0h.07a.63.63,0,0,1,.71.6c0,.34-.3.69-.92.69h-.16A1.09,1.09,0,0,0,35.64,4a1.4,1.4,0,0,0,.33,0c.39,0,.56-.19.56-.37a.34.34,0,0,0-.38-.31H36a2.2,2.2,0,0,1,.19.3l-.33.16-.21-.37-.44.17c.2.46.4,1,.57,1.48Z"/><path class="cls-3" d="M37.28,5.19V5h.5V3H38V5.19Z"/><path class="cls-3" d="M41,4.73A.78.78,0,0,0,41.82,4a.74.74,0,0,0-.63-.73c-.08.49-.42,1.79-.91,1.79-.29,0-.54-.43-.54-.86A1.22,1.22,0,0,1,41,2.92,1.08,1.08,0,0,1,42.16,4a1.11,1.11,0,0,1-1.1,1.1,1.4,1.4,0,0,0-.19-.36Zm-.92-.58c0,.26.11.49.22.49s.08,0,.12-.09a3.77,3.77,0,0,0,.46-1.34A.91.91,0,0,0,40.06,4.15Z"/><path class="cls-3" d="M45.21,4.25,44,4.37v.35c0,.12.1.12.42.12h.33c.17,0,.2,0,.24-.43a1.63,1.63,0,0,0,.31.14c-.06.5-.16.58-.41.6a3.47,3.47,0,0,1-.47,0c-.52,0-.75,0-.75-.37V4.41l-1,.11,0-.33,1-.08V3.8L43,3.88a1,1,0,0,0-.12-.3,4.84,4.84,0,0,0,1.58-.29l0,0a1.46,1.46,0,0,1,.28.21.05.05,0,0,1,0,0s0,0-.06,0h-.12a4.34,4.34,0,0,1-.63.18v.33l1.16-.15Zm-.36-.69c0-.11,0-.24,0-.31v0H43v0c0,.06,0,.16,0,.28h-.34c0-.14,0-.33,0-.46V2.92h1a1,1,0,0,0,0-.19.25.25,0,0,1,0-.07s0,0,0,0h0c.34,0,.37,0,.37.07a.17.17,0,0,1,0,0,.19.19,0,0,0,0,.09v.07h1.12V3c0,.13,0,.38,0,.55Z"/><path class="cls-3" d="M46.75,5.22V5.1H46c0,.06,0,.1,0,.15h-.28c0-.36,0-1,0-1.46V3.26h.32V3h-.43v-.3l.69,0,.7,0V3h-.37v.23H47v.29C47,4,47,4.8,47,5.22Zm0-1h-.07c-.16,0-.25,0-.25-.19V3.52h-.1v0a1.32,1.32,0,0,1-.18.84A1,1,0,0,0,46,4.25v.18h.73Zm-.61-.74H46V4.2a1.13,1.13,0,0,0,.12-.66ZM46,4.66v.19h.73V4.66ZM46.44,3h-.1v.23h.1Zm.32.49h-.12V4s0,0,0,.06h.07Zm1.11.54a1.41,1.41,0,0,1,0-.2h-.43v.9c0,.11,0,.12.27.12h.17c.12,0,.15-.09.17-.54a1,1,0,0,0,.29.14c-.07.68-.13.7-.65.7s-.53,0-.53-.33V3.59h.71V3h-.74v-.3h1V3c0,.29,0,.74,0,1Z"/><path class="cls-3" d="M50.46,4.78a6.06,6.06,0,0,0,.9.2,1.09,1.09,0,0,0-.14.27,5.8,5.8,0,0,1-1-.3l.21-.17H49.7c.21.12.23.14.23.16s0,0,0,0l-.11,0a3.76,3.76,0,0,1-.91.25A1,1,0,0,0,48.73,5a2.55,2.55,0,0,0,.86-.19h-.5V3.53H51V4.78ZM48.89,3.42V2.75h2.32v.67ZM49.58,3h-.39v.19h.39Zm1.1.77H49.4v.12h1.28Zm0,.32H49.4v.14h1.28Zm0,.33H49.4v.15h1.28ZM50.24,3h-.39v.19h.39Zm.67,0h-.4v.19h.4Z"/><path class="cls-3" d="M52.7,5.25c0-.18,0-.4,0-.61L52,4.82a.1.1,0,0,0-.08,0l-.05,0s0,0,0,0a3,3,0,0,1-.08-.32s0,0,0,0h0l.18,0V3h-.21v-.3l.68,0,.7,0V2.9H54.3a3.6,3.6,0,0,1-.37,1.53,2.35,2.35,0,0,0,.49.51,1.31,1.31,0,0,0-.19.31,2.78,2.78,0,0,1-.47-.58,2.61,2.61,0,0,1-.53.58A1,1,0,0,0,53,5a2.05,2.05,0,0,0,.55-.55,3.45,3.45,0,0,1-.36-1.21h-.11V3H53v.43c0,.52,0,1.27,0,1.78Zm0-2.22h-.44v.25h.44Zm0,.51h-.44v.28h.44Zm-.44.54v.36l.44-.1V4.08Zm1.48,0A3.25,3.25,0,0,0,54,3.19h-.44A3.16,3.16,0,0,0,53.76,4.13Z"/><path class="cls-3" d="M55.26,5.06a1.92,1.92,0,0,1-.2-.94,11.37,11.37,0,0,1,.13-1.21v0s0,0,0,0l.37.12s0,0,0,0a.05.05,0,0,1,0,0,2.22,2.22,0,0,0-.25,1.1,1.51,1.51,0,0,0,0,.32L55.6,4l.19.15a1.5,1.5,0,0,0-.21.75V5ZM57.14,5a1.74,1.74,0,0,0-.27-.22c0,.21-.28.32-.54.32s-.55-.13-.56-.39h0c0-.26.22-.4.54-.4l.24,0c0-.23,0-.51,0-.73h-.7V3.25a2.15,2.15,0,0,0,.45,0h.24c0-.14,0-.27,0-.42a.39.39,0,0,1,0-.06h0c.39,0,.4,0,.4,0s0,0,0,0a1.21,1.21,0,0,0,0,.37,1.25,1.25,0,0,0,.43-.12l0,.34-.45.08c0,.25,0,.57,0,.85a2,2,0,0,1,.52.3Zm-.58-.38a.88.88,0,0,0-.28-.06c-.12,0-.2,0-.2.12h0c0,.07.12.11.24.11s.24,0,.24-.14Z"/><path class="cls-3" d="M26,9.05h-.51c-.74,0-1,0-1-.54v0c0-.12,0-.33,0-.58a5.88,5.88,0,0,0-.68.16l-.08-.39c.12,0,.42,0,.76-.09a6,6,0,0,0,0-.66s0,0,0-.06,0,0,0,0h0c.4,0,.41,0,.41.06a.1.1,0,0,1,0,0c0,.05,0,.08-.05.59l1-.17c.06,0,.07,0,.1,0a1.45,1.45,0,0,1,.34.23s-.09,0-.15.13a3.58,3.58,0,0,1-.72.77,1.29,1.29,0,0,0-.3-.22,2.35,2.35,0,0,0,.56-.52l-.8.14c0,.26,0,.51,0,.66v0c0,.19.05.21.48.21A3.31,3.31,0,0,0,26,8.65,1.08,1.08,0,0,0,26,9Z"/><path class="cls-3" d="M28,9.24c0-.17-.07-.58-.14-1-.38,0-.9.11-1.06.15L26.73,8h0c.16,0,.59,0,1.05-.08,0-.1,0-.2-.05-.3-.33,0-.64.08-.76.11l-.07-.34c.14,0,.44,0,.78-.06a4.66,4.66,0,0,0-.12-.5.14.14,0,0,1,0-.06h0c.09,0,.27,0,.37,0h0s0,0,0,0a.08.08,0,0,1,0,0,.2.2,0,0,0,0,.11c0,.06,0,.19.05.38.35,0,.67-.08.8-.11l.05.34h0c-.14,0-.45,0-.79.07a2.5,2.5,0,0,1,.05.29c.43,0,.83-.09,1-.12l.05.34-1,.08c.07.42.15.85.2,1Z"/><path class="cls-3" d="M32,8.91l-.64,0c-.52,0-1.17,0-1.32,0V8.6a7.36,7.36,0,0,0,.79,0h.32c0-.31.07-.64.08-.89a8.81,8.81,0,0,0-.92,0V7.47h.23c.29,0,.7,0,1,0-.05.37-.09.81-.12,1.16l.55,0Z"/><path class="cls-3" d="M33.24,8.32c0-.18,0-.51,0-.81s0-.49,0-.59a.14.14,0,0,1,0-.06s0,0,0,0c.39,0,.4,0,.4,0s0,0,0,0,0,.1,0,.63c0,.27,0,.57,0,.75ZM34.4,6.83c.43,0,.44,0,.44,0l0,0a3.54,3.54,0,0,0-.06,1,1.57,1.57,0,0,1-.84,1.39,1.66,1.66,0,0,0-.36-.26,1.14,1.14,0,0,0,.86-1.14V7.64a6.65,6.65,0,0,0,0-.73s0,0,0-.06,0,0,0,0Z"/><path class="cls-3" d="M38.24,7.93H37.3a1.44,1.44,0,0,1-.78,1.39A1.19,1.19,0,0,0,36.14,9,1,1,0,0,0,37,8v0c-.47,0-.92,0-1.08,0V7.61h.56c.63,0,1.57,0,1.8,0Zm-.41-.62H37.3c-.39,0-.85,0-1,0V7h.45c.41,0,.93,0,1.11,0Z"/><path class="cls-3" d="M40,9.16c0-.16,0-.59,0-1V8.05a6.81,6.81,0,0,1-.77.47A1.34,1.34,0,0,0,39,8.27a3.94,3.94,0,0,0,1.53-1.09s0-.08,0-.08h0s.29.21.29.25,0,0-.05,0a.42.42,0,0,0-.12.08l-.42.36c0,.12,0,.31,0,.5s0,.68,0,.82Z"/><path class="cls-3" d="M42.25,9.11a2.21,2.21,0,0,1-.17-.87A8.83,8.83,0,0,1,42.24,7v0s0,0,0,0h0a1.48,1.48,0,0,1,.37.15.05.05,0,0,1,0,0,2.75,2.75,0,0,0-.25,1.19,1.77,1.77,0,0,0,0,.24l.23-.42.18.15a1.48,1.48,0,0,0-.22.78v0Zm1-.8a.45.45,0,0,0-.05.17c0,.15.19.18.4.18a2.45,2.45,0,0,0,.74-.11,1.24,1.24,0,0,0,0,.33v.06a4,4,0,0,1-.58.05c-.3,0-.81,0-.81-.48a.77.77,0,0,1,0-.25Zm1-.82a2.72,2.72,0,0,0-.43,0,3.34,3.34,0,0,0-.76.08V7.21a6.42,6.42,0,0,1,.91-.06h.28Z"/><path class="cls-3" d="M45.18,8.28c0,.05,0,.1,0,.14l-.29,0a8.67,8.67,0,0,0,.13-1h.46V7.08h-.59v-.3h.87v.87h-.48c0,.09,0,.21,0,.34h.54c0,.33,0,.68-.07.89s-.13.37-.45.37h-.19A.92.92,0,0,0,45,9l.24,0c.13,0,.16,0,.18-.12a2.72,2.72,0,0,0,.06-.58Zm2.08,1a1.08,1.08,0,0,0-.08-.19c-.43.06-.88.09-1.15.1a.21.21,0,0,0-.12,0l0,0s0,0-.1-.32v0s0,0,0,0h0l.28,0h.35V8.56H45.9V7.75h.55a.72.72,0,0,0,0-.18l0-.07s0,0,0,0h0c.3,0,.33,0,.33.06a.14.14,0,0,1,0,.06.14.14,0,0,0,0,.11v0h.58v.81h-.58v.31l.3,0a1.4,1.4,0,0,0-.1-.16l.23-.09a3.73,3.73,0,0,1,.34.57Zm0-1.7-.12-.19c-.36,0-.78.09-1,.1a.18.18,0,0,0-.1,0l-.06,0s-.09-.26-.1-.3h0s0,0,0,0H46a1.84,1.84,0,0,0,.25-.48c0-.06,0-.07,0-.07h0c.24,0,.32,0,.32.1s0,0,0,.05a.15.15,0,0,0-.05.07c0,.08-.11.19-.19.31l.56-.06L46.74,7,47,6.82a3.22,3.22,0,0,1,.5.58Zm-.75.74V8h-.3v.32ZM47.07,8h-.32v.32h.32Z"/><path class="cls-3" d="M48.23,7s0,0,0,0h0l.36.1a.05.05,0,0,1,0,0l0,0a.18.18,0,0,0-.07.1,2.67,2.67,0,0,0-.09.69c0,.27.07.69.19.69s.38-.4.43-.49a1.32,1.32,0,0,0,.2.32,2.43,2.43,0,0,1-.34.4.51.51,0,0,1-.32.13c-.4,0-.47-.67-.47-1.06a7.18,7.18,0,0,1,.06-.86.08.08,0,0,0,0,0Zm1.84,1.6a.53.53,0,0,0,0-.13,1.8,1.8,0,0,0-.4-1.08L50,7.33a2.21,2.21,0,0,1,.42,1.22Z"/><path class="cls-3" d="M52.14,8.44a16.19,16.19,0,0,1-.06-1.71h.36c0,.57,0,1.15-.07,1.71Zm-.06.61v-.4h.35v.4Z"/><path class="cls-2" d="M49.67,36a1,1,0,1,0,1,1A1,1,0,0,0,49.67,36Zm0,1.38a.39.39,0,0,1,0-.78.39.39,0,0,1,0,.78Z"/><path class="cls-2" d="M49.67,35.12a1.92,1.92,0,0,0-1.4.63.3.3,0,0,0,0,.42.29.29,0,0,0,.43,0,1.3,1.3,0,0,1,.94-.42,1.33,1.33,0,0,1,.94.42.3.3,0,0,0,.42,0,.29.29,0,0,0,0-.42A1.92,1.92,0,0,0,49.67,35.12Z"/><path class="cls-2" d="M49.68,34.07a3,3,0,0,0-2,.8.3.3,0,0,0,0,.42.3.3,0,0,0,.43,0,2.34,2.34,0,0,1,1.6-.62,2.26,2.26,0,0,1,1.58.61.27.27,0,0,0,.22.1.32.32,0,0,0,.2-.08.31.31,0,0,0,0-.43A2.89,2.89,0,0,0,49.68,34.07Z"/><path class="cls-2" d="M49.67,33A3.79,3.79,0,0,0,47,34a.3.3,0,0,0,0,.42.29.29,0,0,0,.42,0,3.41,3.41,0,0,1,4.46,0,.29.29,0,0,0,.21.09.28.28,0,0,0,.21-.08.29.29,0,0,0,0-.42A3.75,3.75,0,0,0,49.67,33Z"/><path class="cls-2" d="M52.55,33.57a.32.32,0,0,0,.2.08.28.28,0,0,0,.22-.1.29.29,0,0,0,0-.42,5.11,5.11,0,0,0-6.58,0,.3.3,0,0,0,0,.42.31.31,0,0,0,.43,0,4.51,4.51,0,0,1,5.76,0Z"/><path class="cls-2" d="M49.67,39.24a4.47,4.47,0,1,0-4.47-4.47A4.48,4.48,0,0,0,49.67,39.24Zm0-8.46a4,4,0,1,1-4,4A4,4,0,0,1,49.67,30.78Z"/><path class="cls-2" d="M52.44,40.53l.09-.11c1.81-2.28,2.72-4.18,2.72-5.65a5.59,5.59,0,1,0-11.17,0c0,1.46.92,3.36,2.73,5.65l.08.1c-2.2.41-3.55,1.26-3.55,2.26,0,.71.69,1.36,1.94,1.83a14.51,14.51,0,0,0,8.78,0c1.25-.47,1.94-1.12,1.94-1.83C56,41.77,54.67,40.94,52.44,40.53ZM49.5,43.39l.17.16.16-.16s.8-.75,1.76-1.84c1.64.24,2.37.74,2.37,1.14S52.33,44,49.67,44s-4.3-.76-4.3-1.29.82-.9,2.38-1.15C48.71,42.64,49.49,43.38,49.5,43.39Zm-4.93-8.62a5.1,5.1,0,1,1,10.2,0c0,2.94-4.21,7.23-5.1,8.11-.29-.28-.91-.92-1.63-1.74l0,0C46.49,39.36,44.57,36.75,44.57,34.77Zm9.32,9.39a14,14,0,0,1-8.44,0c-1-.39-1.63-.89-1.63-1.38,0-.75,1.4-1.5,3.42-1.84l.14.18c-1.57.3-2.49.87-2.49,1.57,0,1.15,2.46,1.77,4.78,1.77s4.78-.62,4.78-1.77c0-.72-.9-1.29-2.49-1.57,0,0,.09-.1.13-.16,2,.33,3.42,1.06,3.42,1.82C55.51,43.27,54.92,43.77,53.89,44.16Z"/><path class="cls-4" d="M5.51,16.26a4.81,4.81,0,0,0-.68-.36L5,15.62a7.52,7.52,0,0,1,.69.33Zm-.07,1a.85.85,0,0,0-.16.11s0,0,0,0A1.43,1.43,0,0,1,5,17s0,0,0,0,.07,0,.16,0A4.2,4.2,0,0,0,7,15.65a1,1,0,0,0,.23.27A5.48,5.48,0,0,1,5.44,17.23Zm.41-1.56a3.38,3.38,0,0,0-.67-.41L5.41,15a5.16,5.16,0,0,1,.67.38Zm.82,0-.28-.28.16-.11a2.33,2.33,0,0,1,.28.26Zm.22-.21a3.32,3.32,0,0,0-.27-.25l.15-.12.28.25Z"/><path class="cls-4" d="M10,17.05H9.37c-.52,0-1.17,0-1.33,0v-.32H9.15c0-.3.07-.64.08-.89-.3,0-.66,0-.92.06v-.31h.22l1,0c0,.36-.08.81-.11,1.16a4.81,4.81,0,0,0,.55,0Z"/><path class="cls-4" d="M10.91,15.66h.5c.49,0,1.16,0,1.36,0s.07,0,.1,0a1.2,1.2,0,0,1,.31.21s-.06.07-.11.17a2.54,2.54,0,0,1-1.54,1.39,2.72,2.72,0,0,0-.3-.29A2,2,0,0,0,12.69,16c-.45,0-1.46,0-1.75.07Zm1.91-.26h-.41c-.43,0-1,0-1.21,0v-.34h.31c.43,0,1.09,0,1.31,0Z"/><path class="cls-4" d="M14.67,15.26s0,0,0,0a.06.06,0,0,1,0,0,.7.7,0,0,0,0,.12,2.42,2.42,0,0,1-.54,1.82,1.38,1.38,0,0,0-.41-.18,1.46,1.46,0,0,0,.61-1.37c0-.16,0-.3,0-.4a.54.54,0,0,0,0-.08h0Zm.26-.13c.4,0,.41,0,.41,0l0,0a3.64,3.64,0,0,0-.05,1v.47a3.94,3.94,0,0,0,1-.89,1.49,1.49,0,0,0,.23.27,6.83,6.83,0,0,1-1.19,1c-.08.06-.09.1-.12.1A1.11,1.11,0,0,1,14.9,17a.13.13,0,0,0,0-.09c0-.25,0-.56,0-.84s0-.64,0-.83c0,0,0,0,0-.06h0Z"/><path class="cls-4" d="M18.83,17.45a7.8,7.8,0,0,0-1.58-.64l.15-.3a8.7,8.7,0,0,1,1.6.59Zm-.17-1.77a7.43,7.43,0,0,0-1.14-.43l.14-.29a7.29,7.29,0,0,1,1.14.39Zm-.12.72a6.66,6.66,0,0,0-1-.47l.13-.3c.33.12.72.28,1,.43Z"/><path class="cls-4" d="M20.56,17.19a.57.57,0,0,0-.15.09s0,0-.06,0a2.27,2.27,0,0,1-.26-.37v0s.05,0,.13,0a4.12,4.12,0,0,0,2-1.26,2.11,2.11,0,0,0,.2.29A5.43,5.43,0,0,1,20.56,17.19Zm.19-1.35a2.62,2.62,0,0,0-.64-.54l.26-.23a2.55,2.55,0,0,1,.62.48Z"/><path class="cls-4" d="M25.43,15.85l-.56,0h-.16a2,2,0,0,1-1,1.53,1.2,1.2,0,0,0-.34-.25,1.63,1.63,0,0,0,1-1.28l-.71,0a2.64,2.64,0,0,1-.43.52,1.58,1.58,0,0,0-.33-.22A2,2,0,0,0,23.7,15c0-.06,0-.09,0-.09h0c.35.09.39.1.39.13s0,0,0,.05-.05,0-.08.12-.1.23-.16.34a12.6,12.6,0,0,0,1.55-.07Z"/><path class="cls-4" d="M28.38,16.27h-.69c-.61,0-1.41,0-1.58,0v-.38l.77,0c.59,0,1.33,0,1.5,0Z"/><path class="cls-4" d="M31.18,17.26a5.25,5.25,0,0,0-.83-.8,4.62,4.62,0,0,1-1,.84A1.59,1.59,0,0,0,29,17a3.21,3.21,0,0,0,1.57-1.51,9.37,9.37,0,0,0-1.16.07v-.38h.47c.27,0,.58,0,.81,0,.06,0,.07,0,.11,0s.29.18.29.22-.06,0-.1.13a6.12,6.12,0,0,1-.43.69,7.07,7.07,0,0,1,.92.77Z"/><path class="cls-4" d="M33.15,17.11v-.89h-.88V15.9h.88V15h.33v.88h.88v.32h-.88v.89Z"/><path class="cls-4" d="M36.6,17.2,36.53,17a.65.65,0,0,1-.58.27c-.58,0-1-.42-1-1.15A1,1,0,0,1,36,15a.83.83,0,0,1,.85.68h-.37a.44.44,0,0,0-.48-.35c-.37,0-.61.33-.61.79s.27.81.62.81a.52.52,0,0,0,.45-.2.75.75,0,0,0,.08-.37h-.57V16h.89V17.2Z"/><path class="cls-4" d="M37.31,17.2V15h.82a.68.68,0,0,1,.75.68.67.67,0,0,1-.75.69h-.47v.79Zm.79-1.1a.37.37,0,0,0,.42-.37c0-.26-.19-.38-.43-.38h-.43v.75Z"/><path class="cls-4" d="M40.43,15.62c0-.23-.2-.32-.45-.32s-.37.13-.37.27.07.22.3.29l.31.09c.43.13.61.34.61.67s-.28.63-.82.63a.79.79,0,0,1-.84-.71h.37a.46.46,0,0,0,.48.37c.28,0,.43-.11.43-.28s-.12-.28-.37-.36l-.32-.09c-.39-.12-.52-.3-.52-.6s.3-.6.75-.6a.7.7,0,0,1,.79.64Z"/><path class="cls-4" d="M44.56,16.46h-.72a2,2,0,0,0,.11.29.57.57,0,0,0,.17-.21s0-.06,0-.06.28.09.28.13,0,0,0,0l-.07,0a1.22,1.22,0,0,1-.24.27c.07.09.14.17.18.17s.09-.16.1-.33a.8.8,0,0,0,.23.16c-.06.35-.16.47-.29.47s-.36-.2-.43-.31a2.43,2.43,0,0,1-.59.24.8.8,0,0,0-.16-.23,2,2,0,0,0,.61-.23,3.16,3.16,0,0,1-.16-.44h-.38v.05c.12.07.26.17.4.27l-.16.21a1.67,1.67,0,0,0-.28-.25,1,1,0,0,1-.38.66.66.66,0,0,0-.19-.21.87.87,0,0,0,.34-.72H42.7V16.2h.82a5.54,5.54,0,0,1-.06-.92s-.06,0-.08.08a4.36,4.36,0,0,1-.32.5l.19,0a.74.74,0,0,1,0-.14l.17,0a3.48,3.48,0,0,1,.1.44l-.19,0a.34.34,0,0,0,0-.1l-.34,0a.14.14,0,0,0-.09,0l-.06,0s-.08-.23-.08-.24,0,0,0,0h.08a2.51,2.51,0,0,0,.2-.29,1.59,1.59,0,0,0-.26-.26v.27h-.26a2.93,2.93,0,0,0,.24.47,1.25,1.25,0,0,0-.11.29,2.88,2.88,0,0,1-.13-.31c0,.45,0,1,0,1.38h-.29c0-.26,0-.87,0-1.19-.06.2-.12.38-.2.58a1.07,1.07,0,0,0-.14-.31,3.85,3.85,0,0,0,.33-.91H42v-.29h.28a2.72,2.72,0,0,0,0-.43s0-.05,0-.07,0,0,0,0h0c.29,0,.31,0,.31.06a.14.14,0,0,1,0,.06s0,0,0,.39h.24a.1.1,0,0,0,0,0l.14-.16.07.06a1.3,1.3,0,0,0,.12-.26c0-.05,0-.06,0-.06h0l.19,0s0,0,0,0,0,0,0,0,0,0,0,0a2.38,2.38,0,0,1-.17.29l.08.09.07-.16v0s0-.06,0-.06h0l.21.07a2.29,2.29,0,0,0,0-.32.45.45,0,0,1,0-.08s0,0,0,0h0c.25,0,.29,0,.29.06a.07.07,0,0,1,0,.06.12.12,0,0,0,0,.08v.25l.13-.14.06.06a1.13,1.13,0,0,0,.11-.26c0-.05,0-.07,0-.07h0c.19,0,.23.05.23.07a.05.05,0,0,1,0,0l-.05.06c0,.08-.1.19-.17.3a.41.41,0,0,1,.09.1.89.89,0,0,0,.1-.22c0-.05,0-.06,0-.06s.25,0,.25.09l0,0a.18.18,0,0,0,0,.07,5.15,5.15,0,0,1-.31.48l.18,0a.78.78,0,0,0,0-.14l.19-.05a2.16,2.16,0,0,1,.1.44l-.19,0a.41.41,0,0,1,0-.11L44,16l-.09,0s0,0,0,0-.07-.21-.08-.23v0h.1l.16-.23a2.19,2.19,0,0,0-.31-.32,6.24,6.24,0,0,0,.06.92h.32a.64.64,0,0,0-.1-.13l.2,0a1.26,1.26,0,0,1,.13.17h.23Z"/><path class="cls-4" d="M46.15,15.76s0-.11-.07-.17l-.87.09-.11,0-.06,0s0,0,0-.05-.06-.26-.06-.27,0,0,0,0h.17a2.15,2.15,0,0,0,.24-.53c0-.05,0-.07,0-.07h0c.29,0,.32.06.32.09a.05.05,0,0,1,0,0,.23.23,0,0,0-.07.08c0,.09-.11.23-.19.37l.49-.05a2.2,2.2,0,0,0-.17-.25L46,15a3,3,0,0,1,.41.63ZM46,16.87h-.55c0,.2,0,.41,0,.55H45.1c0-.3,0-1,0-1.36v-.28h1.13v1.28c0,.28-.09.36-.39.36H45.7a1,1,0,0,0-.07-.27h.19c.13,0,.14,0,.14-.1ZM46,16h-.55v.17H46Zm0,.41h-.55v.19H46Zm.47-.74v-.33c0-.2,0-.42,0-.47a.25.25,0,0,1,0-.07s0,0,0,0h0c.32,0,.34,0,.34.07a.09.09,0,0,1,0,.06s0,.07,0,.23a1.25,1.25,0,0,0,.49-.22s0,0,.05,0,.25.17.25.22,0,0-.05,0l-.09,0a2.66,2.66,0,0,1-.65.26.81.81,0,0,0,0,.16c0,.1,0,.11.28.11h.16c.09,0,.11,0,.14-.37a.9.9,0,0,0,.28.14c-.08.53-.15.53-.62.53s-.55,0-.55-.29Zm0,1.33v-.35c0-.23,0-.48,0-.53a.25.25,0,0,1,0-.07s0,0,0,0h0c.33,0,.34,0,.34.07a.09.09,0,0,1,0,.06s0,.1,0,.27a1.55,1.55,0,0,0,.51-.26s0,0,0,0,.26.17.26.23,0,0,0,0l-.09,0a2.25,2.25,0,0,1-.68.31,1.15,1.15,0,0,0,0,.2c0,.08,0,.1.28.1h.18c.1,0,.12-.06.15-.41a.81.81,0,0,0,.28.15c-.08.57-.15.57-.64.57s-.56,0-.56-.29Z"/><path class="cls-4" d="M49.47,17.4a.67.67,0,0,1-.69-.67c0-.05,0-.08,0-.23-.32-.09-.39-.29-.39-.42a.42.42,0,0,1,.22-.37l.18.16a.21.21,0,0,0-.13.17c0,.06,0,.1.16.15,0-.16,0-.33.07-.5a1.18,1.18,0,0,1-.32-.21l.08-.35a.76.76,0,0,0,.29.22c0-.14,0-.28,0-.4h0a.56.56,0,0,0,0-.07,0,0,0,0,1,0,0h0c.41.11.41.11.41.13l0,0a1.55,1.55,0,0,0-.13.44,1.09,1.09,0,0,0,.24,0l.13,0,0,.34a2.1,2.1,0,0,1-.37,0,3.65,3.65,0,0,0-.07.46h.18a1.58,1.58,0,0,0,.32,0l0,.35h-.18l-.31,0c0,.12,0,.12,0,.14a.36.36,0,0,0,.35.38h0a.44.44,0,0,0,.46-.44.75.75,0,0,0-.34-.57A1.33,1.33,0,0,0,49.9,16a1,1,0,0,1,.34.71.74.74,0,0,1-.77.74Z"/><path class="cls-4" d="M51.43,17.42c0-.36,0-.75,0-1.07V16a2.88,2.88,0,0,1-.27.34A1.3,1.3,0,0,0,51,16a2.5,2.5,0,0,0,.64-1.11c0-.05,0-.09,0-.09h0c.29.08.34.1.34.12A.07.07,0,0,1,52,15a.2.2,0,0,0-.06.07,3.82,3.82,0,0,1-.23.51h.06s0,0,0,0a.09.09,0,0,1,0,.06s0,.06,0,.64c0,.3,0,.7,0,1.11Zm2.27-1.75h-.36V17c0,.3-.15.38-.6.38h-.2a1.11,1.11,0,0,0-.1-.32h.33c.22,0,.23,0,.24-.15v-1.3h-.27l-.81,0v-.34c.25,0,.52,0,.8,0H53a3.31,3.31,0,0,0,0-.45.25.25,0,0,1,0-.07s0,0,0,0h0c.33,0,.38,0,.38.07a.09.09,0,0,1,0,0c0,.05,0,.07,0,.42l.36,0Zm-1.22,1a4.27,4.27,0,0,0-.43-.82l.28-.12a4.53,4.53,0,0,1,.44.79Z"/><path class="cls-4" d="M54.5,15.8v-.45h-.38v-.29l.38,0a.87.87,0,0,0,0-.19.2.2,0,0,1,0-.07h0c.3,0,.32,0,.32.06l0,0a.24.24,0,0,0,0,.09v.07h.45a.81.81,0,0,0,0-.2l0-.06a0,0,0,0,1,0,0h0c.31,0,.33,0,.33.07l0,0a.2.2,0,0,0,0,.11v.06H56a.93.93,0,0,0,0-.2.2.2,0,0,1,0-.07h0c.27,0,.32,0,.32.06l0,0a.14.14,0,0,0,0,.09v.07h.4v.28h-.4v.45Zm1.89.72v.37c0,.24-.08.33-.42.33h-.18A.65.65,0,0,0,55.7,17H56c.13,0,.15,0,.15-.11v-.11h-.57c0,.2,0,.41,0,.68h-.33c0-.22,0-.45,0-.68h-.52v0c0,.08,0,.27,0,.44h-.33c0-.19,0-.43,0-.59v-.11h-.25c0-.13,0-.31,0-.43V16h2.46V16c0,.12,0,.34,0,.5Zm-.07-.3H54.48v0a1.94,1.94,0,0,0,0,.22h.74a.7.7,0,0,0,0-.13l0-.07s0,0,0,0h0c.29,0,.35,0,.35.06s0,0,0,.05a.2.2,0,0,0,0,.11h.77a1.56,1.56,0,0,0,0-.2Zm-1.08-.66v-.21h-.45v.21Zm.76-.21h-.47v.21H56Z"/><path class="cls-4" d="M58.08,16.73c0,.2.1.31.28.31a1.27,1.27,0,0,0,1-.71,1,1,0,0,0,.18.39,1.66,1.66,0,0,1-1.19.65.54.54,0,0,1-.59-.55v0c0-.3,0-.83,0-1.26,0-.19,0-.36,0-.48s0-.06,0-.08h0l.37,0s0,0,0,0a.09.09,0,0,1,0,.05,12.53,12.53,0,0,0-.09,1.66Z"/><path class="cls-4" d="M60.3,17.2a5.2,5.2,0,0,0,.54-1.49h-.4l0-.36a2,2,0,0,0,.43,0h.1a4.34,4.34,0,0,0,.07-.46h0s0,0,0-.06,0,0,0,0h0c.36.05.38.07.38.09l0,0a.19.19,0,0,0,0,.09c0,.1,0,.19-.07.29a1.77,1.77,0,0,0,.56-.14l0,.36a3.87,3.87,0,0,1-.61.1c-.15.59-.33,1.18-.51,1.69Zm2.4,0a4.2,4.2,0,0,1-.69.06c-.58,0-.74-.19-.74-.43a.91.91,0,0,1,0-.26l.31.05a.27.27,0,0,0,0,.14c0,.17.21.18.33.18a2.08,2.08,0,0,0,.75-.13Zm-.2-1.06a2.67,2.67,0,0,0-.42,0,2.17,2.17,0,0,0-.59.07l0-.34a7.07,7.07,0,0,1,.94-.06h.1Z"/><path class="cls-4" d="M15,21.22h-.5c-.74,0-1,0-1-.54v-.05c0-.12,0-.33,0-.58a5.88,5.88,0,0,0-.68.16l-.09-.39a7.59,7.59,0,0,0,.77-.09,6,6,0,0,0,0-.66s0,0,0-.06h0c.4,0,.41,0,.41,0a.1.1,0,0,1,0,0s0,.08-.05.59l1-.17c.06,0,.07-.05.1-.05a1.45,1.45,0,0,1,.34.23s-.09.05-.15.13a3.58,3.58,0,0,1-.72.77,1.29,1.29,0,0,0-.3-.22,2.54,2.54,0,0,0,.56-.51l-.8.13c0,.26,0,.51,0,.67v0c0,.19,0,.21.48.21a3.31,3.31,0,0,0,.79-.08,1.09,1.09,0,0,0-.06.36Z"/><path class="cls-4" d="M17.06,21.41c0-.16-.07-.58-.14-1-.38,0-.9.11-1.06.15l-.06-.36h0c.16,0,.59,0,1.05-.08,0-.1,0-.2-.05-.3-.33,0-.64.08-.76.11L16,19.56c.14,0,.44,0,.78-.06a4.66,4.66,0,0,0-.12-.5.17.17,0,0,1,0-.05l0,0a2.4,2.4,0,0,0,.37,0h0s0,0,0,0a.06.06,0,0,1,0,0,.2.2,0,0,0,0,.11c0,.06,0,.19.05.38.35,0,.67-.08.8-.11l.05.35h0c-.14,0-.45,0-.79.06a2.5,2.5,0,0,1,.05.29c.43,0,.83-.09,1-.12l.06.34-1,.08c.07.43.15.85.2,1Z"/><path class="cls-4" d="M21.05,21.08l-.64,0c-.52,0-1.17,0-1.32,0v-.31h1.11c0-.31.07-.64.08-.89-.3,0-.66,0-.92.05v-.31h.22c.3,0,.71,0,1.05,0-.05.37-.09.81-.12,1.16l.55,0Z"/><path class="cls-4" d="M22.31,20.49c0-.18,0-.51,0-.81s0-.49,0-.59a.14.14,0,0,1,0-.06s0,0,0,0c.39,0,.4,0,.4,0s0,0,0,0-.05.1-.05.63c0,.27,0,.57,0,.75ZM23.47,19c.43,0,.44,0,.44,0l0,0a3.61,3.61,0,0,0-.06,1A1.57,1.57,0,0,1,23,21.48a1.66,1.66,0,0,0-.36-.26,1.14,1.14,0,0,0,.86-1.13v-.28a6.65,6.65,0,0,0,0-.73s0,0,0-.06Z"/><path class="cls-4" d="M27.31,20.1h-.94a1.44,1.44,0,0,1-.78,1.39,1.19,1.19,0,0,0-.38-.27A1,1,0,0,0,26,20.14v0c-.46,0-.91,0-1.07,0v-.36h.56c.63,0,1.57,0,1.79,0Zm-.41-.62h-.54c-.38,0-.84,0-1,0v-.35h.45c.41,0,.93,0,1.11,0Z"/><path class="cls-4" d="M29.07,21.33c0-.16,0-.59,0-1v-.15a6.81,6.81,0,0,1-.77.47,1.34,1.34,0,0,0-.23-.25,4,4,0,0,0,1.53-1.09s0-.08.05-.08h0s.28.2.28.25,0,0,0,0a.42.42,0,0,0-.12.08L29.4,20c0,.12,0,.31,0,.5s0,.68,0,.82Z"/><path class="cls-4" d="M33.35,20.3h-.7c-.61,0-1.4,0-1.58,0v-.38h.78c.59,0,1.33,0,1.5,0Z"/><path class="cls-4" d="M34.22,21.45c0-.39,0-.84,0-1.19v-.2a2.06,2.06,0,0,1-.2.33,1.42,1.42,0,0,0-.13-.37,2.36,2.36,0,0,0,.45-1.1c0-.05,0-.08,0-.08h0l.3.07s0,0,0,0a.09.09,0,0,1,0,.05.09.09,0,0,0-.06.08,5.56,5.56,0,0,1-.18.53c.11,0,.12,0,.12,0a.09.09,0,0,1,0,.06c0,.05,0,.11,0,.64,0,.31,0,.7,0,1.11Zm1.49-.94a.75.75,0,0,1-.19.49,2.08,2.08,0,0,0,.81.11h.26a.89.89,0,0,0-.11.31,2.19,2.19,0,0,1-1.16-.23,2.11,2.11,0,0,1-.6.27.93.93,0,0,0-.15-.29,1.09,1.09,0,0,0,.5-.17,3,3,0,0,1-.27-.32l.23-.14a1.22,1.22,0,0,0,.24.3.39.39,0,0,0,.15-.32h-.61V19.39h.63v-.18l-.7,0v-.29h1.75v.29l-.77,0v.18h.65v1.12Zm-.27-.88h-.36v.2h.36Zm0,.42h-.36v.22h.36Zm.66-.42h-.38v.2h.38Zm0,.42h-.38v.22h.38Z"/><path class="cls-4" d="M38.42,21.42a.66.66,0,0,1-.68-.67,1.49,1.49,0,0,1,0-.23.43.43,0,0,1-.38-.42.44.44,0,0,1,.21-.37l.19.16a.22.22,0,0,0-.13.18c0,.05,0,.1.16.14,0-.16,0-.32.07-.49a1.27,1.27,0,0,1-.32-.21l.07-.35a1.11,1.11,0,0,0,.3.22c0-.15,0-.29,0-.41h0s0-.05,0-.07a0,0,0,0,1,0,0h0c.4.12.4.12.4.14s0,0,0,0a1.55,1.55,0,0,0-.13.44,1,1,0,0,0,.24,0h.12l-.05.34a1.57,1.57,0,0,1-.37-.05c0,.16,0,.31-.07.47h.19a1.66,1.66,0,0,0,.32,0l0,.34h-.18a1.62,1.62,0,0,1-.31,0l0,.13a.38.38,0,0,0,.36.39h0a.44.44,0,0,0,.45-.44.74.74,0,0,0-.34-.57,1.42,1.42,0,0,0,.33-.12,1,1,0,0,1,.34.71.73.73,0,0,1-.77.73Z"/><path class="cls-4" d="M41.08,21.17a3.14,3.14,0,0,0-.26-.45,2.09,2.09,0,0,1-.65.71.9.9,0,0,0-.19-.28,1.78,1.78,0,0,0,.63-.69,4.59,4.59,0,0,0-.52-.63l.23-.19a3.18,3.18,0,0,1,.4.48,2.58,2.58,0,0,0,.07-.59H40v-.31l.47,0v-.11a1.16,1.16,0,0,0,0-.21s0-.06,0-.07,0,0,0,0h0c.33,0,.35,0,.35.06a.17.17,0,0,1,0,.05c0,.05,0,.08,0,.3l.43,0v.31h-.15a3.06,3.06,0,0,1-.14.88,5.71,5.71,0,0,1,.38.54Zm.52-.53a3.14,3.14,0,0,0-.32-.75l.27-.09a4.6,4.6,0,0,1,.34.74Zm.75.42c0,.3-.14.39-.54.39h-.16a1,1,0,0,0-.1-.31h.27c.19,0,.21,0,.21-.15,0-.33,0-.88,0-1.33h-.13l-.6,0v-.33c.27,0,.46,0,.73,0a3.12,3.12,0,0,0,0-.44s0-.06,0-.07,0,0,0,0h0c.32,0,.37,0,.37.06a.14.14,0,0,1,0,.06s0,.05,0,.4h.31v.33h-.31v1.39Z"/><path class="cls-4" d="M45.64,19.37H43.57v.45a3.72,3.72,0,0,1-.28,1.64,1.25,1.25,0,0,0-.27-.23,3.1,3.1,0,0,0,.23-1.41v-.73h1c0-.06,0-.12,0-.15s0-.06,0-.07,0,0,0,0h0l.33,0a0,0,0,0,1,0,0,.06.06,0,0,1,0,.05.15.15,0,0,0,0,.1v0h1.06Zm-1.93.75v0s0,0,0,0h0a1.43,1.43,0,0,1,.28.07,0,0,0,0,1,0,0,.17.17,0,0,1,0,.05.14.14,0,0,0,0,.08,3.24,3.24,0,0,1-.2.75.91.91,0,0,0-.28-.14,2.12,2.12,0,0,0,.2-.76Zm.41.94c0-.15,0-.39,0-.61a3.14,3.14,0,0,0,0-.53s0-.05,0-.07a0,0,0,0,1,0,0h0c.34,0,.36.05.36.07s0,0,0,.06a.12.12,0,0,0,0,.1V21c0,.06,0,.09.21.09s.28,0,.32-.48a1.23,1.23,0,0,0,.29.15c-.08.49-.17.59-.37.61h-.48c-.2,0-.29-.12-.29-.3Zm.76-1a3.34,3.34,0,0,0-.66-.45l.19-.21a3.46,3.46,0,0,1,.66.42Zm.52.83a3.31,3.31,0,0,0-.3-.82l.28-.1a3.25,3.25,0,0,1,.31.81Z"/><path class="cls-4" d="M47,20.76c0,.2.1.3.28.3a1.25,1.25,0,0,0,1-.7,1.29,1.29,0,0,0,.19.39,1.66,1.66,0,0,1-1.19.64.53.53,0,0,1-.59-.55h0c0-.31,0-.83,0-1.26v-.49a.25.25,0,0,1,0-.07s0,0,0,0h0l.37,0s0,0,0,0a.06.06,0,0,1,0,.05A11.47,11.47,0,0,0,47,20.75Z"/><path class="cls-4" d="M51.21,21.31a1.66,1.66,0,0,0-.5-.35v0c0,.24-.28.37-.57.37s-.58-.13-.6-.4v0c0-.26.23-.41.56-.41a1.14,1.14,0,0,1,.26,0c0-.12,0-.25,0-.38h-.69l0-.34a2.11,2.11,0,0,0,.51.05h.19a1.77,1.77,0,0,1,0-.23h-.19a4.61,4.61,0,0,1-.52,0l0-.33a2.57,2.57,0,0,0,.61.05h.11a2.05,2.05,0,0,0,0-.31.35.35,0,0,0,0-.06s0,0,0,0h0c.35,0,.38,0,.38.06a0,0,0,0,1,0,0c0,.05,0,.06-.05.29a3.39,3.39,0,0,0,.58-.09v.33l-.6.06v.23a2.83,2.83,0,0,0,.56-.09v.33l-.56.06,0,.48a4.57,4.57,0,0,1,.7.35Zm-.82-.41s0,0,0-.06a1,1,0,0,0-.32-.05c-.14,0-.22,0-.22.12h0c0,.08.14.13.28.13s.27-.05.27-.14Z"/><path class="cls-4" d="M54.68,19.61a3.31,3.31,0,0,0-.65,0h-.26c0,.12,0,.25,0,.37a.7.7,0,0,1,.11.4,1.27,1.27,0,0,1-.74,1.12,1.24,1.24,0,0,0-.32-.27.91.91,0,0,0,.68-.54.43.43,0,0,1-.25.07.41.41,0,0,1-.42-.47.47.47,0,0,1,.46-.53l.17,0v-.18a9.68,9.68,0,0,0-1,.07l-.14.05s0-.18-.08-.36h0s0,0,0,0l.14,0h.08l1,0c0-.12,0-.23,0-.29a.21.21,0,0,1,0-.06h0c.33,0,.38,0,.38.05l0,0a.64.64,0,0,0,0,.27l.91,0Zm-1.38.82c.1,0,.16-.14.16-.24a.14.14,0,0,0-.15-.16c-.11,0-.17.1-.17.23s0,.17.15.17Z"/><path class="cls-5" d="M7.14,54.59v-.15H5.55v-.2h1.6v-.34H5.66v-.19H7.15v-.3H5.56v-.2h.8c0-.11,0-.24,0-.36a3.32,3.32,0,0,0,0-.42.35.35,0,0,0,0-.06s0,0,0,0h0c.22,0,.22,0,.22.05a.13.13,0,0,1,0,0,.11.11,0,0,0,0,.08v.68h.77v.21c0,.3,0,.87,0,1.11ZM5.94,53.2a2.36,2.36,0,0,0-.38-.57l.16-.08a3.09,3.09,0,0,1,.4.55Zm1.21-.6s0-.06,0-.06h0s.2,0,.2.07l0,0a.18.18,0,0,0-.05.07,2.14,2.14,0,0,1-.33.5.6.6,0,0,0-.16-.11A1.51,1.51,0,0,0,7.15,52.6Z"/><path class="cls-5" d="M10,52.83l-1.44,0H8.25v.43A2.58,2.58,0,0,1,8,54.59a.61.61,0,0,0-.15-.15,2.22,2.22,0,0,0,.23-1.2v-.6h.85a.66.66,0,0,0,0-.15l0-.06a0,0,0,0,1,0,0h0c.21,0,.23,0,.23,0a.14.14,0,0,1,0,.06.39.39,0,0,0,0,.13H10Zm-.42,1.76v-.14h-1v.14h-.2c0-.22,0-.6,0-.79v-.13h.49v-.3c0-.19,0-.38,0-.43l0-.06s0,0,0,0h0c.22,0,.23,0,.23,0s0,0,0,.05a.56.56,0,0,0,0,.2H10v.18H9.11v.35h.67v.13c0,.19,0,.55,0,.79Zm0-.75h-1s0,.22,0,.44h1c0-.11,0-.22,0-.3Z"/><path class="cls-5" d="M11.47,54.21a.71.71,0,0,0,.77-.69.68.68,0,0,0-.64-.68c-.09.7-.41,1.54-.74,1.54-.18,0-.41-.29-.41-.69a1,1,0,0,1,1-1,.88.88,0,0,1,1,.87.92.92,0,0,1-.87.9.6.6,0,0,0-.12-.22Zm-.84-.53c0,.26.12.47.23.47a.17.17,0,0,0,.14-.1,3.19,3.19,0,0,0,.41-1.22A.83.83,0,0,0,10.63,53.68Z"/><path class="cls-5" d="M13.13,54.59c0-.35,0-.78,0-1.16a2.83,2.83,0,0,1-.25.6.55.55,0,0,0-.1-.19,3.46,3.46,0,0,0,.34-.81h-.3v-.18a1.67,1.67,0,0,0,.31,0c0-.21,0-.35,0-.39l0-.06a0,0,0,0,1,0,0h0c.19,0,.2,0,.2.05l0,0a1.16,1.16,0,0,0,0,.38l.24,0V53H13.3a2.87,2.87,0,0,0,.28.5.84.84,0,0,0-.1.15,2.5,2.5,0,0,1-.18-.37c0,.39,0,.88,0,1.28Zm1.61,0v-.14H13.8v.14h-.2c0-.49,0-1.2,0-1.65v-.42h1.32v.21c0,.4,0,1.28,0,1.86Zm0-.3c0-.37,0-.77,0-1.08s0-.53,0-.53h-1v.43c0,.32,0,.77,0,1.18Zm-.57-.07c0-.27,0-.6,0-.86v-.11a2.75,2.75,0,0,1-.29.78.51.51,0,0,0-.11-.14,1.89,1.89,0,0,0,.29-.7h-.23V53l.34,0a1,1,0,0,0,0-.24.35.35,0,0,0,0-.06s0,0,0,0h0c.2,0,.2,0,.2,0a.06.06,0,0,1,0,.05s0,0,0,.22l.33,0v.16h-.23a2.24,2.24,0,0,0,.28.69.62.62,0,0,0-.1.14,3.1,3.1,0,0,1-.28-.78v.13c0,.24,0,.55,0,.85Z"/><path class="cls-5" d="M15.91,52.84a2.44,2.44,0,0,1-.53.71.58.58,0,0,0-.11-.18,2,2,0,0,0,.59-.87s0-.09,0-.09h0c.22.05.23.07.23.09s0,0,0,0,0,0-.06.09l0,0h1.32a10.48,10.48,0,0,1-.08,1.14c0,.22-.14.29-.36.29h-.21a.73.73,0,0,0-.05-.2l.25,0c.13,0,.16,0,.18-.13a7,7,0,0,0,.07-.93Zm0,.92v.44c0,.09,0,.12.14.13l.56,0,.54,0c.13,0,.17-.1.21-.48a.91.91,0,0,0,.18.1c-.06.45-.14.56-.36.57H16a.26.26,0,0,1-.28-.29v-.64h.83v-.35h-.71v-.19h.9v.69Z"/><path class="cls-5" d="M18.94,54.54c0-.14-.06-.5-.12-.88-.39.05-.78.09-.91.12l0-.21c.12,0,.51,0,.91-.08l-.06-.33-.65.09L18,53l.66,0c0-.2-.07-.36-.09-.43l0,0s0,0,.27,0h0a0,0,0,0,1,0,0,.08.08,0,0,1,0,0,.24.24,0,0,0,0,.09s0,.17,0,.33l.69-.08,0,.2h0a6.21,6.21,0,0,0-.68.06l.06.33c.35,0,.71-.08.83-.11l0,.22h0l-.81.06c.06.37.13.73.17.87Z"/><path class="cls-5" d="M20.83,53.59a2.22,2.22,0,0,0-.2-.47l.17-.06a2.58,2.58,0,0,1,.22.44ZM22,53.1S22,53,22,53h0c.22.08.24.09.24.1l0,0a.18.18,0,0,0-.05.08,1.86,1.86,0,0,1-1.09,1.21l-.17-.13A1.59,1.59,0,0,0,22,53.1Zm-.65.38a1.62,1.62,0,0,0-.15-.47l.18,0a2.46,2.46,0,0,1,.17.46Z"/><path class="cls-5" d="M23.53,54.51c0-.25,0-.76,0-1.2a6.81,6.81,0,0,0,0-.75s0,0,0,0a0,0,0,0,1,0,0h0c.27,0,.28,0,.28,0a0,0,0,0,1,0,0c0,.06,0,.08,0,.73l.12-.12a7,7,0,0,1,.66.34l-.12.19a3.29,3.29,0,0,0-.66-.37v.3c0,.34,0,.69,0,.86Z"/><path class="cls-5" d="M25.59,54.41a1.88,1.88,0,0,1-.14-.77,8.62,8.62,0,0,1,.1-1h0s0,0,0-.05h0l.23.08,0,0v0c-.13.1-.19.69-.19.93a1.05,1.05,0,0,0,.05.39l.2-.42.11.09a1.21,1.21,0,0,0-.17.65Zm1.6-.09a1.93,1.93,0,0,0-.27-.19v0c0,.19-.2.28-.41.28s-.46-.11-.46-.31h0c0-.18.15-.31.41-.31a1.38,1.38,0,0,1,.26,0c0-.22,0-.51,0-.71H26.1V53a1.66,1.66,0,0,0,.36,0h.24l0-.35a.43.43,0,0,0,0,0h0l.24,0a.08.08,0,0,1,0,0,2.11,2.11,0,0,0,0,.34,1,1,0,0,0,.38-.1v.2h-.06a1.63,1.63,0,0,1-.33,0c0,.23,0,.55,0,.8a1.62,1.62,0,0,1,.42.23Zm-.46-.24a.43.43,0,0,1,0,0,.71.71,0,0,0-.27-.05c-.13,0-.21.05-.22.13h0c0,.08.13.13.26.13s.24,0,.24-.16Z"/><path class="cls-5" d="M28.6,54.57a.49.49,0,0,0,0-.12H28v.14h-.18c0-.33,0-.85,0-1.22V53h.29v-.27h-.39v-.18l.57,0,.57,0v.18h-.36V53h.3v.22c0,.34,0,1,0,1.4Zm-.27-1.47h-.11v.08a1.1,1.1,0,0,1-.18.71.35.35,0,0,0-.09-.13.82.82,0,0,0,.13-.59V53.1h-.14V54h.67c0-.06,0-.13,0-.19h-.07c-.2,0-.22,0-.22-.15Zm-.39,1a1.34,1.34,0,0,0,0,.21h.66v-.21Zm.39-1.41h-.11V53h.11Zm.29.94c0-.29,0-.52,0-.52h-.14v.47s0,0,.11,0Zm.92,0a1,1,0,0,0,0-.17h-.42v.82c0,.12,0,.13.26.13h.19c.11,0,.13-.18.16-.51l.18.1c-.05.37-.11.56-.3.58h-.23c-.24,0-.44,0-.44-.29v-1h.6v-.54h-.66v-.19l.75,0h.08v.12c0,.2,0,.59,0,.92Z"/><path class="cls-5" d="M30.52,53.49H30.2v-.19h.51v.8c.14.2.33.21.83.21.29,0,.6,0,.86,0a1.31,1.31,0,0,0-.08.21H31.14a.63.63,0,0,1-.51-.25,2.06,2.06,0,0,1-.25.22l-.06.06s0,.05,0,.05l0,0s-.09-.18-.09-.18,0,0,0,0a1,1,0,0,0,.32-.21Zm.14-.51a2.52,2.52,0,0,0-.39-.41l.12-.11a2.4,2.4,0,0,1,.41.38Zm1.66.55h-.6a1.11,1.11,0,0,0,.63.53,1.77,1.77,0,0,0-.1.17,1.21,1.21,0,0,1-.67-.63,1.11,1.11,0,0,1-.68.62.55.55,0,0,0-.1-.18.85.85,0,0,0,.61-.52h-.55v-.19l.59,0a1.46,1.46,0,0,0,0-.3H31v-.2c.21,0,.41,0,.62,0s.42,0,.65,0v.2h-.58a1.51,1.51,0,0,1,0,.3l.69,0Zm-1-.65A1.74,1.74,0,0,0,31,52.5l.16-.08a2.86,2.86,0,0,1,.3.36Zm.6-.47.18.05s0,0,0,0l0,0a.34.34,0,0,0-.06.06,1,1,0,0,1-.2.29.83.83,0,0,0-.18-.08.88.88,0,0,0,.23-.32s0-.06,0-.06Z"/><path class="cls-5" d="M33,54.59c0-.28,0-.7,0-1a2,2,0,0,1-.23.27.54.54,0,0,0-.09-.17,2.14,2.14,0,0,0,.54-.76h-.5V52.8H33v-.08a1.49,1.49,0,0,0,0-.24.18.18,0,0,1,0-.06s0,0,0,0h0c.22,0,.22,0,.22.05l0,0a.45.45,0,0,0,0,.17v.13h.07a.07.07,0,0,0,.06,0h0s.15.09.15.12,0,.05-.07.08a2.65,2.65,0,0,1-.22.4l.09.11a.54.54,0,0,0,.1-.16s0-.06,0-.06.15.08.15.1,0,0,0,0a.11.11,0,0,0-.06.06l-.11.13.17.15a.51.51,0,0,0-.11.14,2.17,2.17,0,0,1-.24-.29c0,.3,0,.74,0,1ZM34.57,54h-.36c0,.19,0,.39,0,.56H34c0-.17,0-.36,0-.56H33.7c0,.25,0,.5,0,.64h-.21c0-.36,0-1.57,0-1.57H34v-.18h-.6v-.18l.6,0c0-.11,0-.18,0-.2l0-.06,0,0h0l.18,0s0,0,0,0a.43.43,0,0,0,0,0,.45.45,0,0,0,0,.19h.36l-.23-.16.1-.11a1.45,1.45,0,0,1,.25.18l-.09.09h.28v.18h-.67V53h.53v1.29c0,.22-.07.28-.28.28h-.1a.39.39,0,0,0,0-.17h.14c.11,0,.12,0,.12-.11ZM34,53.18H33.7v.22H34Zm-.34.36v.26H34v-.26Zm.87-.36h-.36v.22h.36Zm0,.36h-.36v.26h.36Z"/><path class="cls-5" d="M35.37,54.59c0-.3,0-.66,0-.94a3.22,3.22,0,0,0,0-.33,1.92,1.92,0,0,1-.18.31.52.52,0,0,0-.08-.19,2.26,2.26,0,0,0,.39-1v0s0,0,0,0h0c.19,0,.2.05.2.07s0,0,0,0a.22.22,0,0,0-.05.08,2.16,2.16,0,0,1-.14.43h.06s0,0,0,0a.06.06,0,0,1,0,0s0,.1,0,.51,0,.63,0,1Zm.24-.15a1.22,1.22,0,0,0,.57-.18l0,0s.19.07.19.11,0,0,0,0l-.09,0a2.46,2.46,0,0,1-.58.19A.81.81,0,0,0,35.61,54.44Zm1.52-1.33a2.11,2.11,0,0,0,0-.23v0H35.87v0a2,2,0,0,0,0,.23h-.19c0-.13,0-.28,0-.36v0h.35a.77.77,0,0,0-.17-.19l.15-.07a1.79,1.79,0,0,1,.2.26h.16a1.48,1.48,0,0,0,0-.21.35.35,0,0,0,0-.06s0,0,0,0h0c.21,0,.21,0,.21,0s0,0,0,0a.25.25,0,0,0,0,.09s0,.07,0,.11h.17a.82.82,0,0,0,.14-.2s0-.06,0-.06h0l.15.06a0,0,0,0,1,0,0l0,0-.06.06-.07.08h.39v.06c0,.08,0,.23,0,.35Zm-1.29,1.12v-.84h1.3v.84Zm.15-.92v-.38h1v.38Zm1,.22H36v.1h1Zm0,.21H36v.11h1ZM37,54H36v.12h1Zm-.13-.91h-.7v.12h.7Zm-.11,1.19a3.24,3.24,0,0,0,.62.19.65.65,0,0,0-.11.15,3.82,3.82,0,0,1-.65-.25Z"/><path class="cls-5" d="M37.75,54.34a3.37,3.37,0,0,0,.46-1c-.28,0-.3,0-.33.07h0a.62.62,0,0,1-.08-.23h.08l.4,0a2.22,2.22,0,0,0,.07-.49s0,0,0,0h0c.24,0,.26,0,.26,0v0a.2.2,0,0,0,0,.08l-.09.37.25,0c.33,0,.33.23.33.43a3.14,3.14,0,0,1-.06.58c-.06.24-.16.3-.52.3a1.12,1.12,0,0,0-.06-.23l.17,0a.19.19,0,0,0,.21-.12,2.73,2.73,0,0,0,.07-.59c0-.19,0-.23-.15-.23h0l-.24,0A6.13,6.13,0,0,1,38,54.45Zm1.87-.65a1.57,1.57,0,0,0-.44-.61l.16-.11a2.06,2.06,0,0,1,.49.61Zm0-.59-.22-.24.11-.08c.07.07.16.15.22.22ZM39.8,53a1.52,1.52,0,0,0-.22-.22l.11-.09a2.18,2.18,0,0,1,.22.21Z"/><path class="cls-5" d="M42,54.29a5.45,5.45,0,0,1-.85.06h-.31c-.31,0-.48-.19-.48-.4a.57.57,0,0,1,.17-.37l.14.09a.53.53,0,0,0-.12.26c0,.22.3.24.63.24a2.88,2.88,0,0,0,.81-.11Zm-1-1.16.28-.19-.5,0H40.6l0-.22a1.6,1.6,0,0,0,.43,0,3.83,3.83,0,0,0,.53,0l.06,0a.8.8,0,0,1,.13.19s0,0-.08,0a2.45,2.45,0,0,0-.48.3Zm.73.28a2.4,2.4,0,0,0-.18-.26l.11-.07a1.69,1.69,0,0,1,.2.25Zm.2-.11a1.6,1.6,0,0,0-.18-.25l.11-.07a1.69,1.69,0,0,1,.2.24Z"/><path class="cls-5" d="M44.27,53.93a1.34,1.34,0,0,0-.61-.15c-.29,0-.53.1-.53.28v0c0,.17.25.24.53.24a2.24,2.24,0,0,0,.57-.08.58.58,0,0,0,0,.19v0a4.38,4.38,0,0,1-.5,0c-.42,0-.75-.11-.77-.44v0c0-.31.32-.44.68-.44a1.57,1.57,0,0,1,.37,0,2.73,2.73,0,0,1-.34-.47,4.63,4.63,0,0,1-.74.07h0l0-.2.19,0a2.8,2.8,0,0,0,.55-.06l-.15-.32s0-.05,0-.06h0l.22-.07h0s0,0,0,0v.05a1.43,1.43,0,0,0,.13.35,2.26,2.26,0,0,0,.47-.14l0,.19-.41.12a2.06,2.06,0,0,0,.55.61Zm.12-1a2.39,2.39,0,0,0-.23-.22l.1-.09a2.41,2.41,0,0,1,.24.21Zm.17-.15a1.47,1.47,0,0,0-.22-.21l.09-.09a2.31,2.31,0,0,1,.24.2Z"/><path class="cls-5" d="M45.67,54.37c-.27,0-.37-.44-.37-.89a6.22,6.22,0,0,1,.05-.68v0s0,0,0,0,0,0,0,0h0s.24.05.24.08l0,0a1.64,1.64,0,0,0-.11.65c0,.13,0,.67.18.67s.13,0,.39-.38a1.26,1.26,0,0,0,.11.17C45.93,54.26,45.81,54.37,45.67,54.37ZM47,54v0a1.65,1.65,0,0,0-.31-.94l.19,0a2,2,0,0,1,.34,1Z"/><path class="cls-5" d="M49.31,54.43a1.79,1.79,0,0,0-.47-.3.09.09,0,0,0,0,0v0c0,.19-.22.29-.44.29s-.49-.11-.49-.32h0c0-.19.16-.32.44-.32a1.47,1.47,0,0,1,.27,0c0-.13,0-.28,0-.43H48v-.2a1.7,1.7,0,0,0,.37,0h.22a2.71,2.71,0,0,0,0-.29h-.16A3.39,3.39,0,0,1,48,53v-.2a1.67,1.67,0,0,0,.49.05h.13c0-.12,0-.21,0-.26a.18.18,0,0,1,0-.06s0,0,0,0c.22,0,.24,0,.24,0a.08.08,0,0,1,0,0,.87.87,0,0,0,0,.25,2.27,2.27,0,0,0,.51-.08V53l-.51,0v.28a2,2,0,0,0,.48-.07v.2l-.47.05,0,.49a2.85,2.85,0,0,1,.59.28Zm-.66-.29v-.07a1.57,1.57,0,0,0-.32,0c-.15,0-.23,0-.23.14h0c0,.09.14.15.28.15s.27-.06.27-.17Z"/><path class="cls-5" d="M52.13,53a3.51,3.51,0,0,0-.56,0h-.22c0,.06,0,.12,0,.18s0,.16,0,.23a.52.52,0,0,1,.09.33,1,1,0,0,1-.57.88.54.54,0,0,0-.2-.16.76.76,0,0,0,.56-.6A.32.32,0,0,1,51,54a.33.33,0,0,1-.33-.37.36.36,0,0,1,.36-.4.34.34,0,0,1,.18,0V53a7.06,7.06,0,0,0-.89.06l-.11,0h0c0-.06,0-.16,0-.22h0a.33.33,0,0,0,.11,0h0l.86,0c0-.11,0-.21,0-.26a.17.17,0,0,1,0-.05h0s.24,0,.24,0a0,0,0,0,1,0,0s0,.07,0,.23l.78,0Zm-1,.54a.17.17,0,0,0-.18-.18.21.21,0,0,0-.19.23c0,.11.05.2.18.2S51.17,53.59,51.17,53.54Z"/><path class="cls-5" d="M52.56,54.18a.36.36,0,1,1,.36.36A.36.36,0,0,1,52.56,54.18Zm.6,0a.25.25,0,1,0-.25.25A.25.25,0,0,0,53.16,54.18Z"/><path class="cls-5" d="M6.27,58a.37.37,0,0,0,0-.11H5.62v.13H5.45c0-.33,0-.85,0-1.22v-.42h.29v-.27H5.36V56a5.24,5.24,0,0,0,.57,0,5.33,5.33,0,0,0,.57,0v.18H6.15v.27h.29v.22c0,.34,0,1,0,1.4ZM6,56.57H5.89v.08a1.08,1.08,0,0,1-.18.71.36.36,0,0,0-.09-.12.83.83,0,0,0,.13-.59v-.08H5.61v.27c0,.16,0,.37,0,.58h.66c0-.06,0-.12,0-.18H6.23c-.2,0-.22-.05-.22-.15Zm-.39,1v.21h.66v-.21ZM6,56.15H5.89v.27H6Zm.28,1c0-.3,0-.53,0-.53H6.15v.48s0,.05.1.05ZM7.21,57a.91.91,0,0,0,0-.17H6.8v.82c0,.12,0,.14.26.14h.19c.11,0,.14-.17.16-.51a.68.68,0,0,0,.18.1c0,.37-.11.57-.3.58H7.07c-.25,0-.45,0-.45-.28v-1h.6v-.54H6.56V56h.83v.13c0,.19,0,.58,0,.91Z"/><path class="cls-5" d="M8.19,57H7.87v-.2h.51v.81c.14.2.33.2.83.2.29,0,.6,0,.86,0A1.66,1.66,0,0,0,10,58H8.82a.66.66,0,0,1-.52-.24L8.05,58A.17.17,0,0,0,8,58l0,0s0,0,0,0a1.46,1.46,0,0,1-.09-.18l0,0a1.31,1.31,0,0,0,.32-.22Zm.14-.52a2.11,2.11,0,0,0-.39-.4l.12-.12a2.4,2.4,0,0,1,.41.38ZM10,57,9.4,57a1,1,0,0,0,.62.53,1.77,1.77,0,0,0-.1.17,1.18,1.18,0,0,1-.67-.63,1.08,1.08,0,0,1-.68.62.46.46,0,0,0-.1-.17A.88.88,0,0,0,9.08,57H8.53v-.2l.59,0a1.42,1.42,0,0,0,0-.3H8.63v-.19l.62,0,.65,0v.19H9.32c0,.1,0,.2,0,.3.23,0,.46,0,.68,0Zm-1-.66A1.47,1.47,0,0,0,8.7,56l.16-.09a2.4,2.4,0,0,1,.3.37Zm.6-.46.18,0a0,0,0,0,1,0,0l0,0s0,0-.05.06a1.61,1.61,0,0,1-.21.29.65.65,0,0,0-.18-.09.74.74,0,0,0,.23-.32s0,0,0,0Z"/><path class="cls-5" d="M10.72,58.06c0-.27,0-.59,0-.91a3.39,3.39,0,0,1-.33.66.47.47,0,0,0-.1-.19,2.51,2.51,0,0,0,.41-.82h-.36v-.18l.38,0c0-.36,0-.64,0-.69a.18.18,0,0,1,0-.06h0c.21,0,.22,0,.22,0l0,0s0,.09,0,.67l.38,0v.18h-.36a1.83,1.83,0,0,0,.34.47.75.75,0,0,0-.1.16A2.94,2.94,0,0,1,10.9,57c0,.33,0,.7,0,1Zm-.21-1.49a2.63,2.63,0,0,0-.14-.52l.13,0a3,3,0,0,1,.16.53Zm.6-.52s0-.06,0-.06.16,0,.16.08a.15.15,0,0,1,0,.06l0,0c0,.09-.08.24-.14.4a.54.54,0,0,0-.14-.07A1.87,1.87,0,0,0,11.11,56.05Zm.91,2c0-.21,0-.45,0-.69-.25.06-.51.12-.78.2l0-.19c.29-.05.56-.11.82-.18,0-.18,0-.35,0-.51,0-.38,0-.68,0-.73l0-.06h0c.23,0,.24,0,.24,0l0,0s0,.07,0,.71c0,.14,0,.29,0,.45l.28-.08.05.19-.33.07c0,.25,0,.51,0,.74Zm-.32-1a2.08,2.08,0,0,0-.35-.38l.12-.11a2.09,2.09,0,0,1,.37.36Zm.11-.53a2.17,2.17,0,0,0-.35-.39l.12-.11a2.16,2.16,0,0,1,.37.37Z"/><path class="cls-5" d="M13.19,57.88a1.86,1.86,0,0,1-.15-.77,8.91,8.91,0,0,1,.1-1h0v0s0,0,0,0l.24.08,0,0s0,0,0,0a2.07,2.07,0,0,0-.19.93,1,1,0,0,0,.06.39l.2-.41.1.08a1.23,1.23,0,0,0-.17.65Zm1.59-.08a1.56,1.56,0,0,0-.27-.2v0c0,.19-.2.29-.4.29s-.46-.11-.46-.31h0c0-.17.15-.3.4-.3a.82.82,0,0,1,.26,0c0-.23,0-.52,0-.72H13.7v-.19a1.6,1.6,0,0,0,.36,0h.23c0-.12,0-.24,0-.36a.43.43,0,0,0,0-.05h0c.24,0,.25,0,.25,0a.1.1,0,0,0,0,0,.91.91,0,0,0,0,.34,1.52,1.52,0,0,0,.38-.09v.2h-.06l-.33.05c0,.22,0,.54,0,.79a2.13,2.13,0,0,1,.43.24Zm-.46-.24v-.05a.83.83,0,0,0-.27-.06c-.14,0-.22.06-.22.13h0c0,.09.13.14.25.14s.24,0,.24-.17Z"/><path class="cls-5" d="M17.44,57.47l-1.05,0-1,0v-.18h.32v-.45H15.3v-.18l.37,0v-.26a1.29,1.29,0,0,1-.21.19.65.65,0,0,0-.11-.15,1.1,1.1,0,0,0,.43-.51s0-.07,0-.07h0c.13,0,.2.06.2.08s0,0,0,0,0,0-.05,0l0,.07h1.49v.17h-.26v.4h.37v.18h-.37v.45h.32Zm-1.8.05c.14,0,.19,0,.19.07l0,0s-.05.05-.05.06a1.2,1.2,0,0,1-.29.38.47.47,0,0,0-.15-.11.74.74,0,0,0,.28-.38s0,0,0,0Zm.46-1.25h-.27v.42h.27Zm0,.57h-.27v.46h.27Zm0,1.21a.62.62,0,0,0,0-.13,2.07,2.07,0,0,0,0-.35h.18c0,.16,0,.3,0,.48Zm.47-1.78h-.28v.42h.28Zm0,.57h-.28v.47h.28Zm.11,1.2a1.73,1.73,0,0,0-.12-.46l.18,0a2.23,2.23,0,0,1,.13.46ZM17,56.28h-.28v.42H17Zm0,.56h-.28v.46H17Zm.35,1.22a2.51,2.51,0,0,0-.3-.47l.16-.07a2.26,2.26,0,0,1,.31.45Z"/><path class="cls-5" d="M18.16,58.06c0-.27,0-.59,0-.91a2.55,2.55,0,0,1-.33.66.47.47,0,0,0-.1-.19,2.52,2.52,0,0,0,.42-.82H17.8v-.18l.38,0a4.87,4.87,0,0,0,0-.69.35.35,0,0,0,0-.06h0c.21,0,.21,0,.21,0l0,0s0,.09,0,.67l.38,0v.18h-.36a2.13,2.13,0,0,0,.35.47.46.46,0,0,0-.1.16,2.2,2.2,0,0,1-.26-.39c0,.33,0,.7,0,1ZM18,56.57a2.63,2.63,0,0,0-.14-.52l.13,0a3,3,0,0,1,.17.53Zm.61-.52s0-.06,0-.06.16,0,.16.08l0,.06,0,0a2.44,2.44,0,0,1-.14.4.54.54,0,0,0-.14-.07A2,2,0,0,0,18.56,56.05Zm.9,2c0-.21,0-.45,0-.69-.26.06-.52.12-.78.2l-.05-.19c.29-.05.56-.11.83-.18v-.51c0-.38,0-.68,0-.73l0-.06h0c.23,0,.24,0,.24,0l0,0s0,.07,0,.71v.45l.29-.08,0,.19-.33.07c0,.25,0,.51,0,.74Zm-.32-1a2.08,2.08,0,0,0-.35-.38l.13-.11a2.5,2.5,0,0,1,.37.36Zm.11-.53a2.17,2.17,0,0,0-.35-.39l.13-.11a2.12,2.12,0,0,1,.36.37Z"/><path class="cls-5" d="M21.88,57.91c-.58,0-.94-.31-.94-.74a1,1,0,0,1,.5-.8,4,4,0,0,0-1,.19h0s0,0,0,0,0-.22,0-.24h.1a11.67,11.67,0,0,0,1.5-.19l.14,0s0,0,.1.19h0s0,0-.13,0a1,1,0,0,0-.93.85c0,.45.46.54.72.54H22c0,.07,0,.17-.05.22Zm.25-1.11a1.5,1.5,0,0,0-.19-.25l.12-.07a2.23,2.23,0,0,1,.19.24Zm.19-.11a2,2,0,0,0-.18-.25l.11-.07a1.5,1.5,0,0,1,.2.24Z"/><path class="cls-5" d="M24.58,56.76H23.09V57c0,.26,0,.71,0,1.09h-.22c0-.34,0-.8,0-1.12v-.35h.81v-.2c0-.18,0-.37,0-.43l0-.06h0c.23,0,.23,0,.23,0a.11.11,0,0,1,0,0,.13.13,0,0,0,0,.09c0,.1,0,.34,0,.52h.86v1.14c0,.26-.07.34-.45.34h-.11a.63.63,0,0,0-.06-.19h.2c.19,0,.23,0,.23-.15Zm-1.26-.2a2,2,0,0,0-.36-.49l.16-.09a4,4,0,0,1,.38.48Zm.76,1.18v-.11h-.54c0,.06,0,.12,0,.17h-.2c0-.23,0-.56,0-.73V57h.91v.1c0,.16,0,.48,0,.68Zm0-.62h-.55v.35h.55ZM24.45,56s0,0,0,0,.19.08.19.12,0,0,0,0l-.06.06a2.92,2.92,0,0,1-.31.4,1.18,1.18,0,0,0-.16-.13A1.12,1.12,0,0,0,24.45,56Z"/><path class="cls-5" d="M27.44,58H25.2v-.2h.42V56H27v1.79h.46Zm-.65-1.8h-1v.4h1Zm0,.57h-1v.42h1Zm0,.59h-1v.45h1Z"/><path class="cls-5" d="M28.44,57.55c.67,0,1.22-.25,1.22-.64,0-.18-.09-.43-.59-.43a3,3,0,0,0-1.14.27l-.05,0s0,0-.12-.25h0s0,0,.12,0a5.57,5.57,0,0,1,1.2-.2c.36,0,.66.1.75.43a.57.57,0,0,1,0,.18c0,.45-.51.81-1.39.87a1.2,1.2,0,0,0-.11-.23Z"/><path class="cls-5" d="M30.76,58a4.69,4.69,0,0,0-.54-.55l.13-.12c.19.15.41.34.58.5Z"/><path class="cls-5" d="M33.06,57v-.2h.15c.27,0,.43-.12.43-.28s-.15-.29-.36-.29a.34.34,0,0,0-.36.26h-.21a.54.54,0,0,1,.57-.45c.35,0,.57.17.57.45a.39.39,0,0,1-.27.4.48.48,0,0,1,.34.46c0,.32-.22.54-.63.54a.6.6,0,0,1-.65-.52h.21a.42.42,0,0,0,.44.32c.23,0,.41-.12.41-.35s-.16-.34-.45-.34Z"/><path class="cls-5" d="M34.17,57c0-.53.21-.92.65-.92s.66.39.66.92-.21.93-.66.93S34.17,57.56,34.17,57Zm1.09,0c0-.43-.15-.72-.44-.72s-.43.28-.43.72.15.73.43.73S35.26,57.45,35.26,57Z"/><path class="cls-5" d="M37.22,56.91a1.58,1.58,0,0,1-.76,1.15.63.63,0,0,0-.12-.17,1.29,1.29,0,0,0,.66-.83,4,4,0,0,0,.08-.78h-.69v-.2l1.13,0,1,0v.2l-1,0h-.22a3.71,3.71,0,0,1,0,.47h1a6.87,6.87,0,0,1-.11,1c-.05.25-.13.31-.42.31h-.24a.83.83,0,0,0,0-.2l.29,0c.17,0,.21,0,.23-.15a5,5,0,0,0,.1-.81Z"/><path class="cls-5" d="M40.64,57.09H39.26c0,.35,0,.74,0,1h-.22c0-.29,0-.89,0-1.36V56h1.76v1.7c0,.25-.06.34-.48.34h-.11a.6.6,0,0,0-.07-.2h.22c.22,0,.25,0,.25-.15Zm-.8-.88h-.58v.7h.58Zm.8,0H40v.7h.62Z"/><path class="cls-5" d="M43.08,57.91a1.39,1.39,0,0,0-.47-.3.06.06,0,0,0,0,0v0c0,.2-.22.29-.44.29s-.49-.11-.49-.32h0c0-.19.16-.32.44-.32l.27,0c0-.13,0-.27,0-.42H41.8v-.2a1.7,1.7,0,0,0,.37,0h.22v-.28h-.17l-.45,0v-.2a2.19,2.19,0,0,0,.49,0h.13c0-.12,0-.21,0-.26a.11.11,0,0,1,0,0h0c.22,0,.24,0,.24,0a0,0,0,0,1,0,0,.87.87,0,0,0,0,.25,3.14,3.14,0,0,0,.51-.07v.19a3.41,3.41,0,0,1-.51.06v.28a2,2,0,0,0,.48-.08v.2l-.47,0,0,.49a3.48,3.48,0,0,1,.59.28Zm-.66-.3v-.07a1.57,1.57,0,0,0-.32,0c-.15,0-.23,0-.23.14v0c0,.09.14.14.28.14s.27,0,.27-.17Z"/><path class="cls-5" d="M45.43,57.91c-.58,0-1-.31-1-.74a1,1,0,0,1,.5-.8,4.39,4.39,0,0,0-1,.19h0s0,0,0,0a2.07,2.07,0,0,1-.06-.24H44a11.56,11.56,0,0,0,1.49-.19l.15,0s0,0,.09.19h0s0,0-.13,0a1,1,0,0,0-.92.85c0,.45.46.54.72.54h.11c0,.07,0,.17,0,.22Zm.24-1.11a2.27,2.27,0,0,0-.18-.25l.11-.07a2.31,2.31,0,0,1,.2.24Zm.2-.11c0-.08-.12-.17-.18-.25l.11-.07.2.24Z"/><path class="cls-5" d="M47.42,57.68a.7.7,0,0,0,.77-.69.68.68,0,0,0-.64-.68c-.09.7-.41,1.54-.74,1.54s-.41-.29-.41-.68a1,1,0,0,1,1-1,.88.88,0,0,1,1,.86.9.9,0,0,1-.87.9.81.81,0,0,0-.12-.22Zm-.83-.52c0,.26.11.46.22.46a.17.17,0,0,0,.14-.1,3,3,0,0,0,.41-1.22A.83.83,0,0,0,46.59,57.16Z"/><path class="cls-5" d="M49.67,58v-.11H49v.13h-.18c0-.33,0-.85,0-1.22v-.42h.3v-.27h-.39V56a5.15,5.15,0,0,0,.56,0,5.52,5.52,0,0,0,.58,0v.18h-.36v.27h.3v.22c0,.34,0,1,0,1.4Zm-.27-1.47h-.11v.08a1.08,1.08,0,0,1-.18.71.66.66,0,0,0-.09-.12.88.88,0,0,0,.13-.59v-.08H49v.85h.67v-.18h-.06c-.2,0-.22-.05-.22-.15Zm-.39,1v.21h.66a1.48,1.48,0,0,0,0-.21Zm.39-1.42h-.11v.27h.11Zm.28,1v-.53h-.14v.48s0,.05.11.05Zm.93-.06s0-.11,0-.17H50.2v.82c0,.12,0,.14.26.14h.18c.11,0,.14-.17.17-.51a.72.72,0,0,0,.17.1c0,.37-.1.57-.29.58h-.23c-.24,0-.44,0-.44-.28v-1h.6v-.54H50V56h.83v.13c0,.19,0,.58,0,.91Z"/><path class="cls-5" d="M51.58,57h-.31v-.2h.5v.81c.15.2.33.2.83.2.3,0,.61,0,.86,0a1.06,1.06,0,0,0-.07.22H52.21a.68.68,0,0,1-.52-.24l-.25.22a.34.34,0,0,0-.06.06s0,0,0,0l0,0-.08-.18,0,0a1.28,1.28,0,0,0,.31-.22Zm.15-.52a3,3,0,0,0-.39-.4l.12-.12a3.48,3.48,0,0,1,.41.38Zm1.66.56-.6,0a1,1,0,0,0,.63.53.72.72,0,0,0-.1.17,1.17,1.17,0,0,1-.68-.63,1,1,0,0,1-.67.62.46.46,0,0,0-.1-.17.9.9,0,0,0,.61-.52h-.55v-.2l.59,0a2.66,2.66,0,0,0,0-.3H52v-.19l.62,0,.65,0v.19h-.58a1.51,1.51,0,0,1,0,.3c.23,0,.47,0,.69,0Zm-1-.66A1.77,1.77,0,0,0,52.1,56l.16-.09a2.38,2.38,0,0,1,.29.37Zm.59-.46.18,0s0,0,0,0l0,0s0,0,0,.06a1.52,1.52,0,0,1-.2.29.89.89,0,0,0-.18-.09.71.71,0,0,0,.22-.32s0,0,0,0Z"/><path class="cls-5" d="M54,58.06c0-.28,0-.7,0-1l-.24.26a.68.68,0,0,0-.08-.17,2,2,0,0,0,.53-.75h-.49v-.18H54V56.2A1.35,1.35,0,0,0,54,56l0-.07h0c.21,0,.21,0,.21,0l0,0a.58.58,0,0,0,0,.17v.14h.06a.09.09,0,0,0,.07,0h0s.14.08.14.11,0,.05-.06.08a3.11,3.11,0,0,1-.22.4.44.44,0,0,0,.08.11.72.72,0,0,0,.11-.15c0-.05,0-.07,0-.07s.15.08.15.1l0,0-.06.06a.57.57,0,0,1-.1.13l.17.15a.51.51,0,0,0-.11.14,3.15,3.15,0,0,1-.25-.28c0,.29,0,.73,0,1Zm1.62-.64h-.36c0,.2,0,.39,0,.56H55.1c0-.16,0-.36,0-.56h-.34c0,.25,0,.5,0,.64h-.2c0-.36,0-1.56,0-1.56h.51v-.18h-.6v-.18h.59c0-.1,0-.17,0-.2a.35.35,0,0,0,0-.06h0l.17,0s0,0,0,0l0,0a.68.68,0,0,0,0,.18h.37A1.09,1.09,0,0,0,55.4,56l.1-.11a1.54,1.54,0,0,1,.26.17l-.09.1H56v.18h-.68v.18h.54v1.29c0,.21-.07.27-.28.27h-.1a.67.67,0,0,0,0-.17h.14c.11,0,.12,0,.12-.11Zm-.53-.77h-.34v.22h.34Zm-.34.37v.25h.34V57Zm.87-.37h-.37v.22h.37Zm0,.37h-.37a2.09,2.09,0,0,1,0,.25h.36Z"/><path class="cls-5" d="M56.43,58.06c0-.3,0-.65,0-.94v-.33a1.57,1.57,0,0,1-.18.31.5.5,0,0,0-.08-.18,2.39,2.39,0,0,0,.38-1h0s0,0,0,0h0c.2,0,.2,0,.2.06l0,0a.26.26,0,0,0-.05.09c0,.14-.09.29-.14.43h.06s0,0,0,0l0,.05s0,.09,0,.51c0,.27,0,.62,0,1Zm.25-.15a1.38,1.38,0,0,0,.56-.17s0,0,0,0,.19.06.19.1,0,0,0,0a.13.13,0,0,0-.08,0,2.67,2.67,0,0,1-.58.18Zm1.52-1.33a2,2,0,0,0,0-.23v0H56.93v0a1,1,0,0,0,0,.23h-.2c0-.12,0-.28,0-.35v0h.35A.78.78,0,0,0,57,56l.15-.07a2.1,2.1,0,0,1,.2.27h.16a1.48,1.48,0,0,0,0-.21l0-.07h0c.21,0,.21,0,.21,0l0,0a.15.15,0,0,0,0,.08v.12h.16a.69.69,0,0,0,.15-.21s0-.06,0-.06a0,0,0,0,1,0,0,.53.53,0,0,1,.15,0s0,0,0,0,0,0,0,0a.17.17,0,0,0-.06.06.71.71,0,0,0-.07.09h.39v0c0,.08,0,.24,0,.35ZM56.91,57.7v-.83h1.3v.83Zm.14-.92V56.4h1v.38Zm1,.22h-1v.1h1Zm0,.22h-1v.11h1Zm0,.23h-1v.12h1Zm-.13-.92h-.71v.12h.71Zm-.11,1.19a3.48,3.48,0,0,0,.62.2.75.75,0,0,0-.11.14,2.51,2.51,0,0,1-.65-.25Z"/><path class="cls-5" d="M59.88,57.57v-.33c-.21.09-.39.21-.39.35s.08.2.45.2a1.93,1.93,0,0,0,.6-.1.88.88,0,0,0,0,.16s0,.06,0,.08A4.92,4.92,0,0,1,60,58c-.25,0-.67,0-.67-.39s.27-.39.58-.52c0-.1,0-.22-.19-.22s-.43.25-.61.6l-.21-.14a3.27,3.27,0,0,0,.56-.85l-.43,0,0-.22a1.19,1.19,0,0,0,.29,0h.24a1.29,1.29,0,0,0,.06-.25v0s0,0,0,0,0,0,0,0h0c.24,0,.25.05.25.06l0,0a.15.15,0,0,0,0,.08l-.06.15a2.27,2.27,0,0,0,.58-.12v.22a6,6,0,0,1-.65.08,2.26,2.26,0,0,1-.17.35.48.48,0,0,1,.29-.1.31.31,0,0,1,.3.3,3.71,3.71,0,0,0,.49-.24l.06,0h0a2.25,2.25,0,0,1,.12.21h0s0,0,0,0a2.38,2.38,0,0,0-.64.21c0,.1,0,.24,0,.39Z"/><path class="cls-5" d="M6.78,60.44a1.18,1.18,0,0,0-.48.14c0,.19,0,.38,0,.57a.22.22,0,0,1-.24.22c-.14,0-.44-.11-.44-.31s.39-.5.51-.57,0-.29,0-.44l-.42,0,0-.2h.17l.28,0v-.1c0-.09,0-.16,0-.23a.35.35,0,0,0,0-.06,0,0,0,0,1,0,0h0l.22,0s0,0,0,0l0,0a1,1,0,0,0-.05.3,1.45,1.45,0,0,0,.36-.09V60L6.31,60c0,.13,0,.25,0,.36a1.26,1.26,0,0,1,.49-.11h0a.56.56,0,0,1,.58.56.52.52,0,0,1-.53.54A.37.37,0,0,1,6.47,61s0-.06,0-.1l.2,0a.25.25,0,0,0,0,.12.19.19,0,0,0,.21.21.35.35,0,0,0,.35-.37.39.39,0,0,0-.4-.38ZM5.8,61v0c0,.11.22.13.23.13s.07,0,.08-.07,0-.26,0-.41A.94.94,0,0,0,5.8,61Zm1.55-.75a1.62,1.62,0,0,0-.46-.4L7,59.75a2.24,2.24,0,0,1,.47.37Z"/><path class="cls-5" d="M8,60.72s0-.06,0-.06H8c.06,0,.17,0,.17.05a.08.08,0,0,1,0,0,.2.2,0,0,0,0,.08,4,4,0,0,1-.16.58.54.54,0,0,0-.16-.09A2.24,2.24,0,0,0,8,60.72Zm.31.82c0-.23,0-.54,0-.78v-.24c-.29,0-.31,0-.35,0l0,0s0,0-.06-.18H8l.27-.26a3.19,3.19,0,0,0-.38-.36L8,59.65l.1.08a1.24,1.24,0,0,0,.17-.31c0-.05,0-.06,0-.06h0l.17,0s0,0,0,0a0,0,0,0,1,0,0,.17.17,0,0,0-.06.07,2.58,2.58,0,0,1-.2.3l.16.16a1.53,1.53,0,0,0,.22-.32s0-.05,0-.05h0c.2,0,.21.08.21.08l0,0a.15.15,0,0,0-.07.07,4.09,4.09,0,0,1-.54.58l.46,0a1.55,1.55,0,0,0-.11-.19l.14-.07a2.83,2.83,0,0,1,.24.46l-.16.07,0-.14-.24,0v.24c0,.23,0,.55,0,.79Zm.45-.26a3.65,3.65,0,0,0-.16-.59l.16,0a4.74,4.74,0,0,1,.17.57Zm1-1.38H9.17a2,2,0,0,1-.24.45.55.55,0,0,0-.11-.17,1.69,1.69,0,0,0,.29-.75v0s0,0,0,0h0c.19,0,.21,0,.21,0a.08.08,0,0,1,0,0,.13.13,0,0,0,0,.07,2.25,2.25,0,0,1,0,.22H10a14.33,14.33,0,0,1-.06,1.49c0,.24-.13.31-.39.31H9.37a.43.43,0,0,0-.06-.2l.21,0c.14,0,.18,0,.2-.14A11.63,11.63,0,0,0,9.78,60Zm-.47,1A2.34,2.34,0,0,0,9,60.3l.16-.08a2.75,2.75,0,0,1,.28.57Z"/><path class="cls-5" d="M11.31,61.54c0-.2,0-.55,0-.9a2.33,2.33,0,0,1-.88.74.6.6,0,0,0-.12-.18,2,2,0,0,0,.82-.6h-.51V60h.69v-.21h-.93v-.2l.92,0v-.14a.41.41,0,0,1,0-.07h0c.22,0,.23,0,.23,0s0,0,0,0a.37.37,0,0,0,0,.11v0l1,0v.2h-1V60h.73v.64h-.54a1.87,1.87,0,0,0,.86.59.46.46,0,0,0-.13.19,2.5,2.5,0,0,1-.92-.75c0,.35,0,.69,0,.91Zm0-1.42h-.51v.32h.51Zm.73,0H11.5v.32h.55Z"/><path class="cls-5" d="M13.85,60.87a14.25,14.25,0,0,1,0-1.46H14c0,.49,0,1,0,1.46Zm0,.48v-.28H14v.28Z"/><path class="cls-5" d="M16.33,60.87c0-.49,0-1,0-1.46h.23c0,.49,0,1-.05,1.46Zm0,.48v-.28h.21v.28Z"/><path class="cls-5" d="M19,60.72a.6.6,0,0,1-.21.45,2.48,2.48,0,0,0,1,.14H20a.92.92,0,0,0-.07.19,2.43,2.43,0,0,1-1.29-.22,2,2,0,0,1-.76.25.41.41,0,0,0-.11-.19,2.05,2.05,0,0,0,.71-.17,2,2,0,0,1-.34-.32l.13-.11a2.07,2.07,0,0,0,.34.33.43.43,0,0,0,.19-.35h-.71v-.89h.73v-.18l-.94,0v-.2l1,0,1,0v.2l-1,0v.18h.73v.89ZM18.81,60h-.55v.2h.55Zm0,.35h-.55v.23h.55Zm.73-.35H19v.2h.55Zm0,.35H19v.23h.55Z"/><path class="cls-5" d="M20.62,61.38a1.72,1.72,0,0,1-.13-.71,8.7,8.7,0,0,1,.12-1v0s0,0,0,0l0,0h0c.23.09.25.09.25.11s0,0,0,0a2.11,2.11,0,0,0-.21,1,1,1,0,0,0,0,.32l.21-.41.1.09a1.23,1.23,0,0,0-.18.64Zm1.65-.14a2.37,2.37,0,0,1-.45,0c-.28,0-.66,0-.66-.37a1,1,0,0,1,0-.16l.17,0a.52.52,0,0,0,0,.11c0,.19.21.2.4.2a1.67,1.67,0,0,0,.55-.08,1.41,1.41,0,0,0,0,.2ZM22.19,60a1.75,1.75,0,0,0-.35,0,2.55,2.55,0,0,0-.59.06v-.2a5.71,5.71,0,0,1,.73,0h.2Z"/><path class="cls-5" d="M24.87,59.72H22.8v-.19l.92,0a.37.37,0,0,0,0-.11.56.56,0,0,0,0-.07h0c.19,0,.22,0,.22,0l0,.05a.28.28,0,0,0,0,.1l.95,0Zm-.28.91h-1.5v.07c0,.17,0,.57,0,.84h-.22c0-.35,0-1.08,0-1.08h1.87v.77c0,.25-.1.31-.38.31h-.09a.56.56,0,0,0-.06-.19h.15c.17,0,.19,0,.19-.14Zm-1.41-.32v-.47h1.33v.47ZM24.33,60h-1v.17h1Zm-.23,1.33v-.06h-.55v.11h-.18c0-.15,0-.33,0-.45v-.14h.9v.54Zm0-.39h-.55v.18h.55Z"/><path class="cls-5" d="M26.23,60.76a3.47,3.47,0,0,0-.37-.3,1.64,1.64,0,0,1-.59.32.5.5,0,0,0-.07-.15,1.46,1.46,0,0,0,.52-.25l-.23-.13c-.06.07-.12.12-.16.16a.62.62,0,0,0-.1-.14.87.87,0,0,0,.34-.44s0-.06,0-.06h0c.16,0,.18,0,.18.06s0,0,0,0l-.05,0H26l.06,0h0s.15.09.15.13,0,0-.05.06a1.58,1.58,0,0,1-.17.29l.38.26ZM26.18,60a1.48,1.48,0,0,0,0-.21v0h-.8v0a1.62,1.62,0,0,0,0,.21h-.18a2.62,2.62,0,0,0,0-.28v-.13h.47a.57.57,0,0,0,0-.14.41.41,0,0,1,0-.07h0c.12,0,.21,0,.21,0l0,.05s0,0,0,.13h.48V60ZM26,61.51v-.12h-.41v.13h-.17c0-.19,0-.47,0-.64v-.14h.73v.14c0,.16,0,.44,0,.63Zm-.37-1.46a.27.27,0,0,1-.06.1l.25.13a1,1,0,0,0,.14-.23Zm.38.84h-.43v.35H26v-.35Zm.17.5a.92.92,0,0,0,.43-.28s0,0,0,0h0c.13,0,.16.07.16.08a.05.05,0,0,1,0,0,.12.12,0,0,0-.07,0,1.81,1.81,0,0,1-.43.3A.48.48,0,0,0,26.18,61.39Zm.25-.35V59.8h.27c0-.06,0-.12.05-.18h-.39v-.18h1.05v.18h-.5a1.16,1.16,0,0,1,0,.18h.4V61ZM27.1,60h-.51v.2h.51Zm0,.35h-.51v.21h.51Zm0,.36h-.51v.22h.51Zm-.05.42a2.15,2.15,0,0,0,.39.32.45.45,0,0,0-.12.14,3,3,0,0,1-.41-.38Z"/><path class="cls-5" d="M27.86,61a3.51,3.51,0,0,0,.51-1l-.29,0H28l0-.2a1.06,1.06,0,0,0,.26,0h.23a2,2,0,0,0,.06-.3v0s0,0,0,0h0c.22,0,.24,0,.24.07l0,0s0,0-.1.23a1.6,1.6,0,0,0,.33-.07l0,.2-.37.06a8.34,8.34,0,0,1-.49,1.18Zm1.78.34a1.26,1.26,0,0,0-.33-.22h0c0,.22-.22.33-.45.33s-.48-.12-.48-.33c0-.05,0-.32.42-.32l.28,0a2.35,2.35,0,0,1,0-.37c0-.29.17-.4.33-.4h0L29,59.94l.11-.14a3.61,3.61,0,0,1,.66.28l-.11.18a.43.43,0,0,0-.23-.07.25.25,0,0,0-.25.28,2.5,2.5,0,0,0,.07.44,3.25,3.25,0,0,1,.49.25ZM29.1,61a1,1,0,0,0-.31-.06c-.13,0-.21.05-.22.12v0c0,.1.15.17.29.17s.25-.06.25-.18Z"/><path class="cls-5" d="M30.47,61.54c0-.29,0-.71,0-1a3,3,0,0,1-.23.27.7.7,0,0,0-.09-.17,2.17,2.17,0,0,0,.53-.76H30.2v-.18h.27v-.08a1.49,1.49,0,0,0,0-.24.23.23,0,0,1,0-.07h0c.21,0,.22,0,.22,0s0,0,0,.05a.37.37,0,0,0,0,.18v.13h.06l.07,0h0s.15.09.15.12-.05,0-.07.07a2.56,2.56,0,0,1-.22.4l.09.12.1-.16s0-.06,0-.06a.75.75,0,0,1,.15.09s0,0,0,0a.1.1,0,0,0-.05.06l-.11.13.17.14a.65.65,0,0,0-.11.15l-.25-.29c0,.29,0,.73,0,1Zm1.62-.65h-.36c0,.2,0,.39,0,.57h-.19c0-.17,0-.36,0-.57h-.34c0,.26,0,.5,0,.65H31c0-.36,0-1.57,0-1.57h.51v-.18H31v-.18l.59,0v-.2a.25.25,0,0,1,0-.07h0l.18,0,0,0,0,.05a.71.71,0,0,0,0,.19h.37a1.09,1.09,0,0,0-.24-.16l.11-.11a1.74,1.74,0,0,1,.25.17l-.09.1h.28v.18h-.68V60h.54v1.29c0,.22-.07.28-.28.28h-.1a.42.42,0,0,0-.05-.17H32c.11,0,.12,0,.12-.11Zm-.53-.77h-.34v.23h.34Zm-.34.37v.26h.34v-.26Zm.87-.37h-.37v.23h.37Zm0,.37h-.36v.26h.36Z"/><path class="cls-5" d="M32.89,61.54c0-.3,0-.66,0-.95v-.33a1.57,1.57,0,0,1-.18.31.5.5,0,0,0-.08-.18,2.32,2.32,0,0,0,.38-1v0s0,0,0,0h0c.2,0,.21,0,.21.06s0,0,0,0a.41.41,0,0,0,0,.09A3.09,3.09,0,0,1,33,60h.06s0,0,0,0a.17.17,0,0,1,0,.05s0,.09,0,.51,0,.63,0,1Zm.24-.16a1.56,1.56,0,0,0,.57-.17l0,0s.19.06.19.1a0,0,0,0,1,0,0,.24.24,0,0,0-.09,0,2.46,2.46,0,0,1-.58.19A1.11,1.11,0,0,0,33.13,61.38Zm1.52-1.33a2,2,0,0,0,0-.23v0H33.39v0a1.93,1.93,0,0,0,0,.23h-.19c0-.12,0-.27,0-.35v-.05h.34a.58.58,0,0,0-.16-.19l.15-.07a1.37,1.37,0,0,1,.2.26h.16a1.48,1.48,0,0,0,0-.21s0-.06,0-.07h0c.21,0,.21,0,.21,0l0,.05a.15.15,0,0,0,0,.08v.12h.17a.69.69,0,0,0,.14-.21s0,0,0,0h0a.94.94,0,0,1,.15.06,0,0,0,0,1,0,0s0,0,0,0l-.06.07-.07.08h.39v.05c0,.08,0,.24,0,.35Zm-1.29,1.12v-.83h1.3v.83Zm.14-.91v-.39h1v.39Zm1,.21h-1v.11h1Zm0,.22h-1v.11h1Zm0,.23h-1V61h1ZM34.37,60h-.7v.13h.7Zm-.11,1.2a3.53,3.53,0,0,0,.62.19.65.65,0,0,0-.11.15,3.52,3.52,0,0,1-.65-.25Z"/><path class="cls-5" d="M36.48,60.8h-.16l-.3,0c0,.11,0,.15,0,.16a.36.36,0,0,0,.36.37.41.41,0,0,0,.43-.42.63.63,0,0,0-.25-.47.62.62,0,0,0,.19-.07.83.83,0,0,1,.25.56.58.58,0,0,1-.62.58.51.51,0,0,1-.54-.54.28.28,0,0,1,0-.09s0-.08,0-.12c-.29-.08-.33-.24-.33-.33a.39.39,0,0,1,.13-.27l.12.1a.2.2,0,0,0-.09.15c0,.07.06.13.2.16,0-.16.05-.34.08-.51a1.06,1.06,0,0,1-.28-.15l0-.2a.72.72,0,0,0,.25.17c0-.15,0-.27,0-.37v-.07h0l.22.07s0,0,0,0,0,0,0,0,0,.12-.11.4a1.26,1.26,0,0,0,.27,0h0l0,.2-.32-.07c0,.16,0,.33-.07.49l.23,0a.85.85,0,0,0,.23,0Z"/><path class="cls-5" d="M39.24,61.05h-.86c0,.19,0,.37,0,.49h-.21c0-.26,0-.91,0-1.26a2.33,2.33,0,0,1-.49.51.65.65,0,0,0-.09-.19,2,2,0,0,0,.66-.77h-.59v-.2h.66a1.5,1.5,0,0,0,.06-.22s0-.08,0-.08h0a1.42,1.42,0,0,1,.2,0s0,0,0,0a.08.08,0,0,1,0,0,.83.83,0,0,0-.1.2h.2l1.06,0v.2H38.47a2.53,2.53,0,0,1-.13.22h1.08v1.21c0,.2-.07.28-.36.28H38.9a.63.63,0,0,0-.06-.19H39c.17,0,.21,0,.21-.13Zm0-.82h-.86s0,.09,0,.24h.87Zm0,.4h-.87a2.17,2.17,0,0,1,0,.26h.86Z"/><path class="cls-5" d="M40.65,60.87a1.69,1.69,0,0,1-.08-.58,6,6,0,0,1,0-.71h0s0,0,0,0h0c.24,0,.25.07.25.08l0,0a.23.23,0,0,0,0,.1,2.66,2.66,0,0,0-.06.52.68.68,0,0,0,0,.21l.18-.33.1.07a1.46,1.46,0,0,0-.19.63Zm1-.33v-.16a5.2,5.2,0,0,0,0-.77s0-.06,0-.08h0c.28,0,.28,0,.28,0a0,0,0,0,1,0,0,.45.45,0,0,0,0,.2c0,.17,0,.38,0,.58A1.11,1.11,0,0,1,41,61.55a.79.79,0,0,0-.17-.2A.87.87,0,0,0,41.61,60.54Z"/><path class="cls-5" d="M44.34,61.38a1.41,1.41,0,0,0-.46-.3v.08c0,.19-.21.29-.44.29s-.48-.11-.48-.32h0c0-.19.16-.32.44-.32a.93.93,0,0,1,.27,0c0-.13,0-.28,0-.43h-.58v-.2a1.66,1.66,0,0,0,.36,0h.23c0-.1,0-.19,0-.28h-.17a3.17,3.17,0,0,1-.44,0v-.2a2,2,0,0,0,.48,0h.14c0-.11,0-.21,0-.25a.35.35,0,0,0,0-.06h0c.21,0,.24,0,.24,0a0,0,0,0,1,0,0,1.05,1.05,0,0,0,0,.25,2.14,2.14,0,0,0,.5-.07v.2l-.51.05v.28a2.89,2.89,0,0,0,.48-.07v.19l-.47,0a3.91,3.91,0,0,0,0,.49,3.92,3.92,0,0,1,.58.29Zm-.65-.29a.15.15,0,0,0,0-.07,1,1,0,0,0-.32-.05c-.14,0-.23,0-.23.14h0c0,.09.15.14.29.14s.27,0,.27-.16Z"/><path class="cls-5" d="M47.17,60a3.6,3.6,0,0,0-.56,0h-.23v.17a1.77,1.77,0,0,0,0,.24.59.59,0,0,1,.09.33,1,1,0,0,1-.57.88.85.85,0,0,0-.2-.17.75.75,0,0,0,.56-.59.34.34,0,0,1-.6-.24.35.35,0,0,1,.36-.4.37.37,0,0,1,.18,0v-.26c-.36,0-.77,0-.89,0l-.11,0a0,0,0,0,1,0,0,1.6,1.6,0,0,1,0-.23h.17l.86,0c0-.1,0-.2,0-.25s0,0,0,0h0s.24,0,.24,0v0s0,.07,0,.23l.78,0Zm-1,.54a.16.16,0,0,0-.17-.18.21.21,0,0,0-.19.23c0,.1,0,.2.17.2S46.2,60.54,46.2,60.49Z"/><path class="cls-5" d="M48.69,61.16a.71.71,0,0,0,.77-.7.69.69,0,0,0-.64-.68c-.1.7-.41,1.54-.74,1.54s-.42-.28-.42-.68a1,1,0,0,1,1-1,.87.87,0,0,1,1,.87.92.92,0,0,1-.86.9.8.8,0,0,0-.12-.22Zm-.84-.53c0,.26.12.47.23.47s.09,0,.14-.1a3.36,3.36,0,0,0,.41-1.23A.84.84,0,0,0,47.85,60.63Z"/><path class="cls-5" d="M51.66,61.39c-.58,0-.95-.31-.95-.74a1,1,0,0,1,.5-.81,5.3,5.3,0,0,0-1,.19h0s0,0,0,0a2,2,0,0,1-.06-.23h.1a13.51,13.51,0,0,0,1.5-.19l.15,0s0,0,.09.19h0s0,0-.13,0a1,1,0,0,0-.92.85c0,.45.46.55.72.55h.11c0,.07,0,.17-.05.23Zm.24-1.11a2.4,2.4,0,0,0-.18-.26l.11-.07a1.69,1.69,0,0,1,.2.25Zm.2-.11a1.6,1.6,0,0,0-.18-.25l.11-.07a1.18,1.18,0,0,1,.19.24Z"/><path class="cls-5" d="M54.55,60.34c-.65,0-1,.3-1,.6v0c0,.17.2.29.46.29a.53.53,0,0,0,.21,0l0,.16a.22.22,0,0,1,0,.08h-.13c-.45,0-.67-.2-.68-.49v0a.64.64,0,0,1,.44-.59,5.07,5.07,0,0,0-1,.26l0,0a1,1,0,0,1-.1-.24h.09l.3,0a3.51,3.51,0,0,0,.73-.65l-.52.06-.11,0h0s0-.08-.08-.23h.18a5.75,5.75,0,0,0,.65,0l.09,0a1,1,0,0,1,.16.22l-.07,0c-.13.08-.37.33-.66.54l1.12-.16Z"/><path class="cls-5" d="M56.14,61.16a.7.7,0,0,0,.76-.7.68.68,0,0,0-.64-.68c-.09.7-.41,1.54-.74,1.54s-.41-.28-.41-.68a1,1,0,0,1,1-1,.88.88,0,0,1,1,.87.92.92,0,0,1-.87.9.6.6,0,0,0-.12-.22Zm-.84-.53c0,.26.11.47.22.47a.17.17,0,0,0,.14-.1,3,3,0,0,0,.41-1.23A.84.84,0,0,0,55.3,60.63Z"/><path class="cls-5" d="M57.55,61.54c0-.52,0-1.27,0-1.71v-.36H58l.06,0h0s.12.07.12.09,0,0,0,.08c-.07.2-.15.4-.22.56a1.09,1.09,0,0,1,.23.57c0,.19-.12.29-.34.29h0a.39.39,0,0,0,0-.17h.08c.13,0,.19,0,.19-.15a1.17,1.17,0,0,0-.24-.53,4.25,4.25,0,0,0,.21-.56h-.25V60c0,.39,0,1.07,0,1.59Zm1.76-1.07h-.79v-.14a1.6,1.6,0,0,1-.34.26.5.5,0,0,0-.08-.17.78.78,0,0,0,.28-.17A1.24,1.24,0,0,0,58.2,60l-.07.08a1,1,0,0,0-.08-.16,1.11,1.11,0,0,0,.33-.53s0-.07,0-.07h0c.17,0,.18,0,.18.06a0,0,0,0,1,0,0c-.05,0-.05.07-.07.1h.19s0,0,0,0h0s0,0,.14.07,0,0,0,0,0,.07,0,.1a1.37,1.37,0,0,1-.32.57l.35,0,.35,0a1.28,1.28,0,0,1-.36-.89l.15,0a1.54,1.54,0,0,0,.14.57,1.37,1.37,0,0,0,.25-.3h-.31V59.5h.31l.07,0s0,0,0,0a.41.41,0,0,1,.14.12s0,0-.07.07a2,2,0,0,1-.31.41,1.38,1.38,0,0,0,.4.33.68.68,0,0,0-.09.17,3.74,3.74,0,0,1-.29-.25Zm-1.14,1a.48.48,0,0,0-.12-.13,1,1,0,0,0,.38-.32s0-.06,0-.06.18.06.18.1,0,0,0,0l-.06.06A1.35,1.35,0,0,1,58.17,61.42Zm1.42-.58H59v.43c0,.2,0,.28-.31.28h-.15a.44.44,0,0,0,0-.18h.19c.11,0,.14,0,.14-.09v-.44h-.55v-.18h1.32Zm-1.23-1a.75.75,0,0,1-.07.12,1.84,1.84,0,0,1,.19.2l.1-.14A1.92,1.92,0,0,0,58.36,59.83Zm.09-.13s0,0,0,0l.22.17a.89.89,0,0,0,.07-.19Zm.82,1.2a1.77,1.77,0,0,0,.41.41.49.49,0,0,0-.13.12,2.12,2.12,0,0,1-.41-.44Z"/><path class="cls-5" d="M60.33,61.36a1.91,1.91,0,0,1-.14-.77,8.62,8.62,0,0,1,.1-1h0a.43.43,0,0,0,0,0h0l.23.08s0,0,0,0a0,0,0,0,1,0,0c-.13.1-.19.68-.19.93a1.12,1.12,0,0,0,0,.39l.2-.42.11.08a1.25,1.25,0,0,0-.17.65Zm1.6-.09a2.07,2.07,0,0,0-.27-.2v0c0,.2-.2.29-.41.29s-.46-.11-.46-.31h0c0-.18.15-.31.41-.31a.87.87,0,0,1,.26,0c0-.23,0-.51,0-.72h-.59V59.9a1.66,1.66,0,0,0,.36,0h.24l0-.35a.35.35,0,0,0,0-.06h0l.24,0a.08.08,0,0,1,0,0,1.87,1.87,0,0,0,0,.33,1.06,1.06,0,0,0,.38-.09V60h-.06l-.33,0c0,.22,0,.54,0,.79a2.09,2.09,0,0,1,.42.24ZM61.47,61s0,0,0-.05a.74.74,0,0,0-.27-.06c-.13,0-.21.06-.22.14h0c0,.09.13.14.26.14s.24-.05.24-.16Z"/><path class="cls-5" d="M5.91,64.12a1.62,1.62,0,0,1-.43.89.87.87,0,0,0-.13-.17,1.41,1.41,0,0,0,.42-1.15H5.54v-.75h1v.75H6c0,.08,0,.19,0,.26h.61a4.29,4.29,0,0,1-.07.73c0,.24-.12.31-.39.31H6a.41.41,0,0,0-.06-.19h.19c.14,0,.18,0,.2-.13a3.6,3.6,0,0,0,.07-.55Zm.46-1H5.72v.41h.65Zm.4,1.38c0-.24,0-.57,0-.84s0-.5,0-.54a.35.35,0,0,0,0-.06s0,0,0,0h0c.21,0,.21,0,.21,0a.17.17,0,0,1,0,.05.25.25,0,0,0,0,.09v.47c0,.24,0,.54,0,.8Zm.66.23c0,.23-.11.29-.39.29H6.93a.58.58,0,0,0-.06-.2h.19c.16,0,.17,0,.18-.15v-1a7.06,7.06,0,0,0,0-.81.35.35,0,0,0,0-.06s0,0,0,0h0c.24,0,.24,0,.24.05a.06.06,0,0,1,0,0,4.89,4.89,0,0,0,0,1.11c0,.25,0,.49,0,.66Z"/><path class="cls-5" d="M8.27,63.92H8v-.2h.49v.8c.15.21.36.21.84.21.3,0,.61,0,.87,0a1.87,1.87,0,0,0-.08.21H8.9a.68.68,0,0,1-.52-.24,1.41,1.41,0,0,1-.23.21L8.09,65s0,0,0,0l0,0s-.09-.18-.09-.18,0,0,0,0a1.09,1.09,0,0,0,.3-.22Zm.14-.52A2.52,2.52,0,0,0,8,63l.12-.11a2.4,2.4,0,0,1,.41.38Zm1.63.51H9.46v.49c0,.16,0,.27-.3.27H9a.41.41,0,0,0,0-.18h.16c.11,0,.13,0,.13-.1V63.9H8.64v-.18l.64,0v-.22H8.91v-.15l-.26.14a.47.47,0,0,0-.11-.16,1.57,1.57,0,0,0,.71-.48s0-.06,0-.06h0l.16,0,0,0,0,0,0,0a1.48,1.48,0,0,0,.73.39.68.68,0,0,0-.08.18l-.27-.12v.15H9.46v.22l.58,0ZM8.89,64s0-.06,0-.06.19.05.19.09a.05.05,0,0,1,0,0L9,64.13a1.93,1.93,0,0,1-.33.44.44.44,0,0,0-.14-.13A1.17,1.17,0,0,0,8.89,64Zm.44-.94a1.77,1.77,0,0,1-.39.31l.42,0,.4,0A2.24,2.24,0,0,1,9.33,63.06Zm.42.89a2.07,2.07,0,0,0,.37.47.69.69,0,0,0-.16.13A4.3,4.3,0,0,1,9.6,64Z"/><path class="cls-5" d="M12.44,64.71a5.46,5.46,0,0,1-.84.07l-.31,0c-.31,0-.48-.19-.48-.4A.55.55,0,0,1,11,64l.15.09a.45.45,0,0,0-.12.27c0,.21.29.23.62.23a2.84,2.84,0,0,0,.81-.11Zm-1-1.16.28-.19a4.54,4.54,0,0,1-.49,0H11l0-.22a1.66,1.66,0,0,0,.43,0,3.59,3.59,0,0,0,.53,0l.07,0a1.22,1.22,0,0,1,.12.19s0,0-.08,0a2.41,2.41,0,0,0-.47.3Zm.74.28a1.57,1.57,0,0,0-.19-.26l.12-.07a1.64,1.64,0,0,1,.19.25Zm.19-.11a1.14,1.14,0,0,0-.18-.25l.11-.07a1.5,1.5,0,0,1,.2.24Z"/><path class="cls-5" d="M13.55,65c0-.36,0-.83,0-1.22a3.59,3.59,0,0,1-.38.7.55.55,0,0,0-.1-.2,2.6,2.6,0,0,0,.45-.83h-.39v-.18h.42c0-.21,0-.35,0-.39l0-.06a0,0,0,0,1,0,0h0c.21,0,.22,0,.22.05l0,0s0,.06,0,.37h.37v.18h-.37a2.27,2.27,0,0,0,.36.52.58.58,0,0,0-.11.17,3,3,0,0,1-.25-.41c0,.38,0,.87,0,1.27ZM15,65v-.18h-.61a1,1,0,0,0,0,.18h-.21c0-.33,0-1,0-1.48V63h1v.31c0,.46,0,1.33,0,1.73Zm0-1.86h-.62v.36H15Zm0,.53h-.62v.38H15Zm-.62.55v.42H15c0-.13,0-.27,0-.42Z"/><path class="cls-5" d="M16.53,63.4l-.43,0-.43,0v-.18l.43,0,.43,0Zm-.07.28h-.68v-.17l.33,0,.35,0Zm0,.31h-.68v-.17l.33,0,.35,0Zm0-.89h-.65v-.17l.32,0,.33,0Zm-.18,1.84v-.12H16A1.09,1.09,0,0,0,16,65h-.2c0-.19,0-.5,0-.68v-.16h.64v.16c0,.18,0,.48,0,.62Zm0-.62H16v.35h.29Zm.81-.55c.22,0,.22,0,.22.06s0,0,0,0a.68.68,0,0,0,0,.2.85.85,0,0,0,.64.77.37.37,0,0,0-.09.17,1.13,1.13,0,0,1-.62-.57.89.89,0,0,1-.65.57.5.5,0,0,0-.08-.17.76.76,0,0,0,.63-.83.57.57,0,0,0,0-.16.18.18,0,0,1,0-.06s0,0,0,0Zm0-.93c.21,0,.22,0,.22,0l0,0a.41.41,0,0,0,0,.15.77.77,0,0,0,.58.68.43.43,0,0,0-.08.17,1.12,1.12,0,0,1-.57-.52.82.82,0,0,1-.59.53.37.37,0,0,0-.09-.17.66.66,0,0,0,.57-.73.57.57,0,0,0,0-.14.13.13,0,0,1,0-.06ZM16.76,64c.18.05.19.06.19.07s0,0,0,0a.21.21,0,0,0-.06.08,1.06,1.06,0,0,1-.21.41.48.48,0,0,0-.13-.13.78.78,0,0,0,.2-.41s0-.06,0-.06Zm0-1h0c.11,0,.18.05.18.08s0,0,0,0a.2.2,0,0,0-.05.09,1.16,1.16,0,0,1-.18.35.52.52,0,0,0-.13-.12.68.68,0,0,0,.19-.39Zm.87,0s0,0,0,0a0,0,0,0,1,0,0s.17.06.17.09,0,0,0,0l-.06.06a.91.91,0,0,1-.21.3.36.36,0,0,0-.12-.13A.62.62,0,0,0,17.62,63Zm0,1s0,0,0,0h0s.16.07.16.09,0,0,0,0l0,0a0,0,0,0,0,0,0,1.71,1.71,0,0,1-.2.33.85.85,0,0,0-.13-.12A.8.8,0,0,0,17.63,64Z"/><path class="cls-5" d="M20,63.75c-.22,0-1.12.23-1.12.67,0,0,0,0,0,0s.23.22.52.22a2.24,2.24,0,0,0,.71-.13,2.35,2.35,0,0,0,0,.26,5.73,5.73,0,0,1-.66.05c-.36,0-.76-.07-.76-.46,0-.23.18-.44.5-.61-.11,0-.15-.15-.17-.33s0-.36,0-.49l0-.06s0,0,0,0h0c.14,0,.25,0,.25,0v0s0,.09,0,.38.07.35.12.38l.51-.18.1,0s0,0,.08.2v0h0Z"/><path class="cls-5" d="M21,64.48a3.79,3.79,0,0,0,.51-1H21.1v-.2l.25,0,.23,0a2.15,2.15,0,0,0,.06-.29v0s0,0,0,0h0c.22.05.24.05.24.07l0,0s0,.05-.09.23l.32-.08,0,.2-.37.07a7.75,7.75,0,0,1-.49,1.17Zm1.79.33a1.5,1.5,0,0,0-.34-.22v0c0,.22-.22.32-.45.32s-.48-.11-.48-.33c0,0,0-.32.42-.32a1,1,0,0,1,.28,0,2.32,2.32,0,0,1-.05-.38c0-.28.17-.4.33-.4h0a1.91,1.91,0,0,0-.36-.13l.11-.14a3.61,3.61,0,0,1,.66.28l-.11.17a.43.43,0,0,0-.22-.07.25.25,0,0,0-.26.28,2.76,2.76,0,0,0,.07.45,2.45,2.45,0,0,1,.49.24Zm-.54-.31a1.58,1.58,0,0,0-.32-.06c-.13,0-.21,0-.22.13v0c0,.1.14.16.28.16s.25,0,.26-.18Z"/><path class="cls-5" d="M24,64.34a1.45,1.45,0,0,1-.08-.58c0-.27,0-.55,0-.7V63h0c.24.06.24.07.24.08a0,0,0,0,1,0,0,.11.11,0,0,0-.05.09,2.76,2.76,0,0,0-.06.53,1.27,1.27,0,0,0,0,.2l.19-.33.1.08a1.39,1.39,0,0,0-.19.62Zm.95-.33a.66.66,0,0,0,0-.15,5.16,5.16,0,0,0-.06-.78.31.31,0,0,0,0-.07h0c.27,0,.28,0,.28,0s0,0,0,0a.48.48,0,0,0,0,.2c0,.17,0,.38,0,.58A1.13,1.13,0,0,1,24.33,65a.67.67,0,0,0-.17-.2A.87.87,0,0,0,24.93,64Z"/><path class="cls-5" d="M27.77,64.85a1.79,1.79,0,0,0-.47-.3.09.09,0,0,0,0,0v0c0,.19-.22.29-.44.29s-.49-.11-.49-.32h0c0-.18.16-.31.44-.31l.28,0c0-.13,0-.28,0-.42H26.5l0-.2a1.7,1.7,0,0,0,.37,0h.22v-.29H26.9a3.39,3.39,0,0,1-.45,0v-.2a1.67,1.67,0,0,0,.49,0h.13c0-.12,0-.21,0-.26a.35.35,0,0,0,0-.06h0c.22,0,.24,0,.24,0v0a.87.87,0,0,0,0,.25,2.27,2.27,0,0,0,.51-.08v.2l-.51.05v.28a2,2,0,0,0,.48-.07v.2l-.47.05,0,.49a2.85,2.85,0,0,1,.59.28Zm-.66-.29v-.07a1.57,1.57,0,0,0-.32,0c-.15,0-.23,0-.23.14h0c0,.1.15.15.28.15s.27,0,.27-.17Z"/><path class="cls-5" d="M30.69,63.42a3.51,3.51,0,0,0-.56,0h-.22c0,.05,0,.11,0,.17s0,.16,0,.23a.54.54,0,0,1,.09.33,1,1,0,0,1-.57.88.6.6,0,0,0-.19-.16.76.76,0,0,0,.55-.6.3.3,0,0,1-.27.14.33.33,0,0,1-.33-.37.36.36,0,0,1,.36-.4.41.41,0,0,1,.19,0s0-.15,0-.26a7.06,7.06,0,0,0-.89.06l-.11,0h0c0-.06,0-.16,0-.22h0a.33.33,0,0,0,.11,0h.05l.86,0c0-.11,0-.21,0-.26s0,0,0,0h0s.24,0,.24,0a0,0,0,0,1,0,0s0,.07,0,.23l.78,0Zm-1,.54a.17.17,0,0,0-.18-.18.21.21,0,0,0-.19.23c0,.11.05.2.18.2S29.73,64,29.73,64Z"/><path class="cls-5" d="M32.31,64.63a.7.7,0,0,0,.77-.69.67.67,0,0,0-.64-.68c-.09.7-.41,1.54-.74,1.54-.18,0-.41-.29-.41-.69a1,1,0,0,1,1-1,.88.88,0,0,1,1,.87.91.91,0,0,1-.87.9.6.6,0,0,0-.12-.22Zm-.84-.53c0,.26.12.47.23.47a.17.17,0,0,0,.14-.1,3.19,3.19,0,0,0,.41-1.22A.83.83,0,0,0,31.47,64.1Z"/><path class="cls-5" d="M35.38,64.86c-.58,0-1-.31-1-.74a1,1,0,0,1,.5-.81,5.3,5.3,0,0,0-1,.19l0,0s0,0,0,0a1.58,1.58,0,0,1-.06-.23H34a11.35,11.35,0,0,0,1.49-.19l.15,0s0,0,.09.2h0s0,0-.13,0a1,1,0,0,0-.92.85c0,.46.46.55.72.55h.11c0,.07,0,.17-.05.23Zm.24-1.11-.18-.26.12-.06a2.51,2.51,0,0,1,.19.24Zm.2-.11c0-.08-.12-.17-.18-.25l.11-.07.2.24Z"/><path class="cls-5" d="M37.75,63.92a1.16,1.16,0,0,0-.49.13v.58a.22.22,0,0,1-.25.21c-.14,0-.44-.1-.44-.31s.39-.5.51-.57,0-.29,0-.43l-.42,0,0-.2h.45v-.1a1.77,1.77,0,0,0,0-.24.35.35,0,0,0,0-.06h0l.22,0s0,0,0,0a.06.06,0,0,1,0,0,.77.77,0,0,0,0,.3,1.84,1.84,0,0,0,.35-.08v.19l-.36.07c0,.12,0,.24,0,.36a1.26,1.26,0,0,1,.49-.12h0a.57.57,0,0,1,.58.56.52.52,0,0,1-.54.54.37.37,0,0,1-.4-.38.28.28,0,0,1,0-.09l.19,0a.74.74,0,0,0,0,.12.2.2,0,0,0,.22.22.36.36,0,0,0,.35-.37.39.39,0,0,0-.41-.38Zm-1,.57v0c0,.11.23.14.23.14a.07.07,0,0,0,.08-.08c0-.12,0-.26,0-.41A1.16,1.16,0,0,0,36.76,64.49Zm1.56-.75a1.78,1.78,0,0,0-.47-.39l.13-.13a2.06,2.06,0,0,1,.48.37Z"/><path class="cls-5" d="M41,63.17H39.43a2.46,2.46,0,0,1-.42.57.83.83,0,0,0-.12-.16,1.47,1.47,0,0,0,.44-.66s0-.08,0-.08h0c.17,0,.19.05.19.07l0,0,0,.06H40l1,0Zm-.8,1.8c-.13-.14-.29-.29-.45-.44a2.75,2.75,0,0,1-.65.45.35.35,0,0,0-.11-.16,2.34,2.34,0,0,0,.64-.41l-.48-.4.12-.1a3.92,3.92,0,0,1,.48.39,1.33,1.33,0,0,0,.28-.4s0,0,0,0h0s.2.06.2.1l0,0s0,0-.06.05-.19.25-.3.37c.16.14.32.29.45.43Zm.25-1.15h-1.3v-.18h1.48v.21c0,.8.2.94.23.94s.12-.47.12-.51a.68.68,0,0,0,.16.13c-.06.57-.2.58-.27.58s-.42-.31-.42-1.12Zm.33-.34H39.4v-.17l.68,0,.69,0Z"/><path class="cls-5" d="M41.94,65c0-.13,0-.27,0-.42h-.48v-.17H42v-.16H41.6v-.91H42v-.15h-.44v-.17H42a1.47,1.47,0,0,1,0-.16l0-.06s0,0,0,0h0c.2,0,.2,0,.2.05l0,0a.36.36,0,0,0,0,.11v0h.42v-.13h1a1.49,1.49,0,0,1-.32.68,1.29,1.29,0,0,0,.49.2.49.49,0,0,0-.11.17,1.73,1.73,0,0,1-.51-.25,1.71,1.71,0,0,1-.52.28.68.68,0,0,0-.1-.18,1.23,1.23,0,0,0,.49-.21,1.35,1.35,0,0,1-.32-.52h-.08v.12h-.45v.15h.35v.91h-.35v.16h.46v.17h-.46c0,.14,0,.29,0,.42Zm0-1.49h-.19v.21H42Zm0,.35h-.19v.26H42Zm.36-.35h-.2v.21h.2Zm0,.35h-.2v.26h.2Zm1.4,1.06-.63,0-.63,0v-.2l.53,0v-.36H42.6v-.18H43A1.49,1.49,0,0,0,43,64a.41.41,0,0,1,0-.07h0c.22,0,.22,0,.22,0a.08.08,0,0,1,0,0,.68.68,0,0,0,0,.24h.42v.18h-.42v.36l.56,0Zm-.63-1.42a1,1,0,0,0,.23-.41h-.49A1,1,0,0,0,43.08,63.51Z"/><path class="cls-5" d="M44.44,64.85a1.71,1.71,0,0,1-.13-.7,8.94,8.94,0,0,1,.12-1v0s0,0,0,0h0c.23.09.25.1.25.11s0,0,0,0a2.11,2.11,0,0,0-.21,1,1,1,0,0,0,0,.32l.21-.4.1.08a1.26,1.26,0,0,0-.18.65Zm1.65-.13-.45,0c-.28,0-.66,0-.66-.37a1,1,0,0,1,0-.16l.17,0a.43.43,0,0,0,0,.11c0,.18.21.2.4.2a2,2,0,0,0,.55-.08,1.34,1.34,0,0,0,0,.2ZM46,63.47a1.75,1.75,0,0,0-.35,0,2.4,2.4,0,0,0-.58.06v-.2a5.74,5.74,0,0,1,.73,0H46Z"/><path class="cls-5" d="M48.07,63.92a1.2,1.2,0,0,0-.49.13v.58a.21.21,0,0,1-.24.21c-.15,0-.45-.1-.45-.31s.4-.5.52-.57v-.43c-.12,0-.27,0-.42,0l0-.2h.44V63a.18.18,0,0,1,0-.06h0l.22,0s0,0,0,0l0,0a1,1,0,0,0,0,.3,1.84,1.84,0,0,0,.35-.08v.19l-.36.07v.36a1.22,1.22,0,0,1,.49-.12h0a.57.57,0,0,1,.58.56.52.52,0,0,1-.53.54.37.37,0,0,1-.41-.38.28.28,0,0,1,0-.09l.19,0a.74.74,0,0,0,0,.12.21.21,0,0,0,.22.22.35.35,0,0,0,.35-.37.38.38,0,0,0-.41-.38Zm-1,.57v0c0,.11.23.14.23.14a.07.07,0,0,0,.08-.08c0-.12,0-.26,0-.41A1,1,0,0,0,47.09,64.49Zm1.55-.75a1.63,1.63,0,0,0-.47-.39l.13-.13a2.06,2.06,0,0,1,.48.37Z"/><path class="cls-5" d="M49.37,65c0-.48,0-1.24,0-1.69v-.38h.83v.83h-.64c0,.4,0,.88,0,1.24ZM50,63.09h-.47v.19H50Zm0,.33h-.47v.2H50Zm.5,1.31v-.12h-.45c0,.06,0,.11,0,.17h-.19c0-.23,0-.55,0-.72V64h.8v.09c0,.15,0,.45,0,.68Zm0-.61h-.46v.33h.46v-.33Zm.21.89a.49.49,0,0,0-.07-.2h.21c.16,0,.2,0,.2-.15v-.9h-.68v-.83h.87v1.77c0,.27-.2.3-.49.3Zm.34-1.92h-.5v.19h.5Zm0,.33h-.5v.2h.5Z"/><path class="cls-5" d="M52.42,64.79c-.27,0-.37-.44-.37-.89a6.22,6.22,0,0,1,.05-.68v0s0,0,0,0,0,0,0,0h0s.23.05.23.08a0,0,0,0,1,0,0,1.67,1.67,0,0,0-.11.65c0,.13,0,.67.18.67s.13,0,.39-.38c0,.06.08.13.11.18C52.68,64.69,52.56,64.79,52.42,64.79Zm1.28-.36h0a1.66,1.66,0,0,0-.31-1l.19,0a2,2,0,0,1,.34,1Z"/><path class="cls-5" d="M55.4,62.84c.22,0,.22.07.22.08a.05.05,0,0,1,0,0h0a2.8,2.8,0,0,0,1.06.63.5.5,0,0,0-.12.18,3.17,3.17,0,0,1-1-.66,2.35,2.35,0,0,1-1,.68.5.5,0,0,0-.12-.17,1.66,1.66,0,0,0,1-.74s0,0,0,0ZM56,65a.76.76,0,0,1,0-.15H55A.76.76,0,0,0,55,65h-.21c0-.22,0-.62,0-.84V64h1.45v.14c0,.21,0,.61,0,.84Zm0-.8H55v.46H56v-.46Zm0-.45H55v-.2l.52,0,.53,0Z"/><path class="cls-5" d="M57.58,65c0-.23,0-.48,0-.73-.09.11-.18.23-.28.38s0,.1-.05.1a.71.71,0,0,1-.15-.22s0,0,.07-.06a2.89,2.89,0,0,0,.43-.65c0-.07,0-.15,0-.23a1.29,1.29,0,0,0-.36.13h0s-.07-.21-.07-.25,0,0,0,0h.06a2.5,2.5,0,0,0,.39-.07c0-.14,0-.27,0-.35v0a.35.35,0,0,0,0-.07s0,0,0,0h.24s0,0,0,0,0,0,0,0l0,0a1.26,1.26,0,0,0-.06.32l0,0h0l.13.13-.05,0a2.06,2.06,0,0,0-.18.25.34.34,0,0,0,0,.1,1.18,1.18,0,0,1,.76-.33.56.56,0,0,1,.6.6.81.81,0,0,1-.88.78.69.69,0,0,0-.12-.22h.09c.53,0,.71-.3.71-.56a.39.39,0,0,0-.4-.42,1.2,1.2,0,0,0-.77.37v.21a5.22,5.22,0,0,0,0,.69Z"/><path class="cls-5" d="M61.41,64.77l-.55,0c-.52,0-.73,0-.73-.41v0c0-.14,0-.36,0-.59a4,4,0,0,0-.46.07h0s0-.19,0-.22h.12l.43,0c0-.16,0-.31,0-.4s0-.06,0-.07l0,0h0c.23,0,.26,0,.26,0v0s0,.07-.06.4l.67,0a3.31,3.31,0,0,0,0-.44A.2.2,0,0,1,61,63s0,0,0,0h0c.21,0,.27,0,.27,0s0,0,0,0,0,.06,0,.43l.53-.06v.22h-.07l-.47,0V64c0,.21-.06.34-.45.35a1.2,1.2,0,0,0,0-.23l.15,0c.13,0,.16,0,.16-.21V63.7l-.67.06c0,.2,0,.41,0,.6s.09.24.46.24a2.34,2.34,0,0,0,.66-.08,2.15,2.15,0,0,0,0,.23Z"/><path class="cls-5" d="M6.83,68.5A3.57,3.57,0,0,0,6,67.65a.31.31,0,0,1-.15-.25A.34.34,0,0,1,6,67.14a2.88,2.88,0,0,0,.68-.7s0-.07,0-.07h0s.21.18.21.22h0s0,0,0,0a.14.14,0,0,0-.09,0c-.27.26-.47.4-.7.61A.19.19,0,0,0,6,67.4s0,.07.07.1a7.36,7.36,0,0,1,.91.81Z"/><path class="cls-5" d="M8,68.3A6.08,6.08,0,0,0,8.44,67H8.09l0-.2h.41a1.61,1.61,0,0,0,.06-.39.43.43,0,0,1,0,0h0l.21,0s0,0,0,0l0,0s0,0-.1.36a2.16,2.16,0,0,0,.47-.11v.21C9,67,8.8,67,8.64,67c-.13.48-.27,1-.41,1.38Zm1.89,0a3.74,3.74,0,0,1-.53,0c-.39,0-.58-.11-.58-.33a.5.5,0,0,1,0-.16l.16,0A.34.34,0,0,0,9,68c0,.16.16.19.33.19a1.79,1.79,0,0,0,.58-.09Zm-.16-.9-.27,0a2.54,2.54,0,0,0-.49,0l0-.2c.25,0,.53,0,.77,0Zm-.12-.51a2.18,2.18,0,0,0-.22-.21l.1-.09a2.05,2.05,0,0,1,.23.2Zm.18-.14a2.29,2.29,0,0,0-.23-.21l.1-.09a1.43,1.43,0,0,1,.23.2Z"/><path class="cls-5" d="M12.08,67.78a1.34,1.34,0,0,0-.61-.15c-.29,0-.53.1-.53.29h0c0,.17.25.24.53.24a2.24,2.24,0,0,0,.57-.08.62.62,0,0,0,0,.2v0a3,3,0,0,1-.5,0c-.42,0-.75-.1-.77-.44v0c0-.3.32-.43.68-.43a1.55,1.55,0,0,1,.37,0,2.38,2.38,0,0,1-.34-.47,4.65,4.65,0,0,1-.75.08h0l0-.2h.19a3.74,3.74,0,0,0,.55-.05c0-.12-.11-.23-.15-.33s0,0,0,0,0,0,0,0l.22-.06h0s0,0,0,0v0h0a1.44,1.44,0,0,0,.13.36,2.17,2.17,0,0,0,.55-.19l0,.2-.5.16a2.06,2.06,0,0,0,.55.61Z"/><path class="cls-5" d="M13.41,68.26c-.27,0-.36-.44-.36-.88a6,6,0,0,1,0-.68v-.07h0a.76.76,0,0,1,.23.08l0,0a1.67,1.67,0,0,0-.11.65c0,.13,0,.68.18.68s.14,0,.39-.39a1.4,1.4,0,0,0,.12.18C13.68,68.16,13.55,68.26,13.41,68.26Zm1.29-.35v0a1.64,1.64,0,0,0-.32-.94l.19,0a1.88,1.88,0,0,1,.34,1Z"/><path class="cls-5" d="M15.34,68.08a.36.36,0,0,1,.71,0,.36.36,0,0,1-.71,0Zm.6,0a.25.25,0,1,0-.49,0,.25.25,0,0,0,.49,0Z"/><path class="cls-5" d="M5.49,72.38l-.82.81-.1-.1.82-.81-.82-.82.1-.11.82.82.82-.82.1.11-.82.81.82.82-.1.1Zm-.69.05A.18.18,0,1,1,5,72.25.18.18,0,0,1,4.8,72.43Zm.69-.65a.18.18,0,1,1,.18-.18A.19.19,0,0,1,5.49,71.78Zm0,1.35A.18.18,0,1,1,5.67,73,.18.18,0,0,1,5.49,73.13Zm.69-.7a.18.18,0,0,1,0-.36.18.18,0,0,1,0,.36Z"/><path class="cls-5" d="M7.76,73.36a3,3,0,0,0,0-.31l-.69.13-.07,0H7S6.89,73,6.89,73s0,0,0,0h0l.2,0v-.79H6.89V72l1.08,0,1.09,0v.18H7.94c0,.22,0,.81,0,1.15Zm-.55-1.42v-.67H8.76v.67Zm.57.27H7.31v.14h.47Zm0,.28H7.31v.16h.47Zm0,.29H7.31V73l.46-.08Zm.82-1.36H7.38v.12H8.59Zm0,.24H7.38v.13H8.59Zm.34.69a1.32,1.32,0,0,1-.29.62,1.27,1.27,0,0,0,.42.21.66.66,0,0,0-.09.18,1.28,1.28,0,0,1-.45-.28,1.44,1.44,0,0,1-.45.28.46.46,0,0,0-.1-.17A1.23,1.23,0,0,0,8.4,73a1.51,1.51,0,0,1-.26-.46H8v-.17h.92Zm-.41.5a.86.86,0,0,0,.19-.35H8.32A.87.87,0,0,0,8.52,72.85Z"/><path class="cls-5" d="M11.51,72l-.89,0a1.67,1.67,0,0,0,1,1.17.91.91,0,0,0-.13.2,1.94,1.94,0,0,1-1-1.29,1.86,1.86,0,0,1-1,1.29.6.6,0,0,0-.13-.19A1.54,1.54,0,0,0,10.28,72L9.4,72V71.8l.91,0c0-.12,0-.23,0-.31s0-.21,0-.26a.11.11,0,0,1,0,0s0,0,0,0h0c.2,0,.24,0,.24,0l0,0a.19.19,0,0,0,0,.09,4.43,4.43,0,0,1,0,.45l1,0Z"/><path class="cls-5" d="M12.77,71.59l-.07.54a.52.52,0,0,1,.41-.16.57.57,0,0,1,.61.6.6.6,0,0,1-.64.64.57.57,0,0,1-.61-.5h.21a.37.37,0,0,0,.4.3.4.4,0,0,0,.42-.43.39.39,0,0,0-.42-.41.43.43,0,0,0-.41.23l-.19-.06.11-.94h1v.19Z"/><path class="cls-5" d="M14.1,73.37a.21.21,0,0,0,.12-.2H14.1v-.3h.26v.27a.4.4,0,0,1-.16.34Z"/><path class="cls-5" d="M14.73,72.29c0-.54.21-.93.65-.93s.66.39.66.93-.21.92-.66.92S14.73,72.85,14.73,72.29Zm1.09,0c0-.44-.15-.73-.44-.73s-.43.28-.43.73.15.72.43.72S15.82,72.74,15.82,72.29Z"/><path class="cls-5" d="M16.27,72.29c0-.54.2-.93.65-.93s.66.39.66.93-.21.92-.66.92S16.27,72.85,16.27,72.29Zm1.09,0c0-.44-.15-.73-.44-.73s-.43.28-.43.73.15.72.43.72S17.36,72.74,17.36,72.29Z"/><path class="cls-5" d="M17.81,72.29c0-.54.2-.93.65-.93s.65.39.65.93-.2.92-.65.92S17.81,72.85,17.81,72.29Zm1.09,0c0-.44-.16-.73-.44-.73s-.43.28-.43.73.15.72.43.72S18.9,72.74,18.9,72.29Z"/><path class="cls-5" d="M20.85,72.21a1.57,1.57,0,0,1-.75,1.15.63.63,0,0,0-.12-.17,1.35,1.35,0,0,0,.65-.84,2.87,2.87,0,0,0,.08-.78H20v-.2l1.12,0c.36,0,.72,0,1,0v.2H20.91c0,.15,0,.31,0,.46h1c0,.41-.07.8-.11,1s-.13.31-.43.31h-.23a.64.64,0,0,0-.06-.2l.29,0c.18,0,.22,0,.24-.14a5.15,5.15,0,0,0,.09-.81Z"/><path class="cls-5" d="M24.28,72.38H22.89c0,.36,0,.75,0,1h-.22c0-.3,0-.89,0-1.36v-.67h1.76V73c0,.24-.06.33-.48.33h-.11a.61.61,0,0,0-.07-.21H24c.23,0,.26,0,.26-.14Zm-.81-.87h-.58v.69h.58Zm.81,0h-.62v.69h.62Z"/><path class="cls-5" d="M26.71,73.2a1.41,1.41,0,0,0-.46-.3V73c0,.19-.21.29-.44.29s-.48-.11-.48-.32h0c0-.19.16-.32.44-.32a1.47,1.47,0,0,1,.27,0c0-.13,0-.28,0-.43h-.58V72a1.66,1.66,0,0,0,.36,0H26c0-.1,0-.19,0-.28h-.17a3.17,3.17,0,0,1-.44,0v-.2a2,2,0,0,0,.48,0H26c0-.11,0-.21,0-.25a.35.35,0,0,0,0-.06s0,0,0,0c.21,0,.24,0,.24,0s0,0,0,0a1.46,1.46,0,0,0,0,.26,2.74,2.74,0,0,0,.51-.08v.2l-.51,0v.28a2.89,2.89,0,0,0,.48-.07v.2l-.48,0c0,.17,0,.33,0,.49a3.92,3.92,0,0,1,.58.29Zm-.65-.29a.15.15,0,0,0,0-.07,1,1,0,0,0-.32,0c-.14,0-.23,0-.23.14h0c0,.09.15.15.29.15s.27-.06.27-.17Z"/><path class="cls-5" d="M29.07,73.21c-.59,0-.95-.31-.95-.74a1,1,0,0,1,.5-.81,4.8,4.8,0,0,0-1,.19h0s0,0,0,0,0-.22,0-.23h.1a13.51,13.51,0,0,0,1.5-.19l.15,0s0,0,.09.19h0s0,0-.13,0a1,1,0,0,0-.92.85c0,.45.45.55.71.55h.12a.68.68,0,0,0,0,.23Zm.24-1.11a2.4,2.4,0,0,0-.18-.26l.11-.07a1.64,1.64,0,0,1,.19.25Zm.2-.11a1.64,1.64,0,0,0-.19-.25l.11-.07a1,1,0,0,1,.2.24Z"/><path class="cls-5" d="M31.06,73a.7.7,0,0,0,.76-.7.68.68,0,0,0-.63-.68c-.1.7-.42,1.54-.74,1.54s-.42-.28-.42-.68a1,1,0,0,1,1-1,.88.88,0,0,1,1,.87.91.91,0,0,1-.86.9A.85.85,0,0,0,31,73Zm-.84-.53c0,.26.12.47.23.47s.09,0,.14-.1A3.36,3.36,0,0,0,31,71.59.85.85,0,0,0,30.22,72.45Z"/><path class="cls-5" d="M32.65,73.36c0-.4,0-.75,0-1V72.1c-.07.11-.14.22-.21.31a.61.61,0,0,0-.08-.2,2.59,2.59,0,0,0,.45-.95s0-.08,0-.08h0c.21,0,.21.07.21.08l0,0a.22.22,0,0,0,0,.08,3.29,3.29,0,0,1-.18.42h.06a0,0,0,0,1,0,0,.17.17,0,0,1,0,0,1.46,1.46,0,0,0,0,.49c0,.23,0,.57,0,1Zm1,0c0-.28,0-.6,0-.89a1.68,1.68,0,0,1-.62.69.76.76,0,0,0-.13-.15,1.38,1.38,0,0,0,.6-.57H33v-.19l.69,0V72h-.49v-.75h1.16V72h-.49v.25l.7,0v.19H34a1.21,1.21,0,0,0,.61.55.68.68,0,0,0-.13.16,1.45,1.45,0,0,1-.63-.68c0,.29,0,.61,0,.89Zm.5-1.91h-.8v.41h.8Z"/><path class="cls-5" d="M35,73.36c0-.52,0-1.27,0-1.71v-.37h.46a.07.07,0,0,0,.06,0h0s.13.07.13.09,0,0,0,.08c-.07.2-.16.4-.23.56a1,1,0,0,1,.25.57c0,.18-.14.29-.36.29h-.07a.41.41,0,0,0,0-.18h.12c.13,0,.19,0,.19-.15a1.08,1.08,0,0,0-.26-.53,3.88,3.88,0,0,0,.23-.56h-.29v.32c0,.39,0,1.07,0,1.59Zm1.48-.65a1,1,0,0,0,.64.48.34.34,0,0,0-.1.17,1.16,1.16,0,0,1-.69-.58,1.09,1.09,0,0,1-.73.58.34.34,0,0,0-.1-.17,1,1,0,0,0,.68-.48h-.45v-.65h.51v-.17H36v-.12a2.23,2.23,0,0,1-.32.2.52.52,0,0,0-.12-.16,1.19,1.19,0,0,0,.68-.57s0-.06,0-.06h0c.18,0,.21,0,.21.06s0,0,0,0l0,0a1.63,1.63,0,0,0,.71.48A.33.33,0,0,0,37,72a2.21,2.21,0,0,1-.34-.18v.12h-.27v.18h.51v.65Zm-.59-.5v.35h.32a1.27,1.27,0,0,0,0-.35Zm.42-.76a1.18,1.18,0,0,1-.27.28h.59A2.07,2.07,0,0,1,36.29,71.45Zm.45.76h-.35a1.9,1.9,0,0,1,0,.35h.38Z"/><path class="cls-5" d="M38.7,72.62h-.16l-.3,0c0,.11,0,.15,0,.16a.36.36,0,0,0,.36.37.41.41,0,0,0,.43-.42.63.63,0,0,0-.25-.47.62.62,0,0,0,.19-.07.83.83,0,0,1,.25.56.58.58,0,0,1-.62.58.51.51,0,0,1-.54-.54.28.28,0,0,1,0-.09s0-.08,0-.12c-.29-.08-.33-.24-.33-.33a.39.39,0,0,1,.13-.27l.12.1a.2.2,0,0,0-.09.15c0,.07.06.13.2.16,0-.16,0-.33.08-.51a1.06,1.06,0,0,1-.28-.15l0-.2a.72.72,0,0,0,.25.17c0-.14,0-.27,0-.37v-.07s0,0,0,0h0l.22.07s0,0,0,0,0,0,0,0,0,.12-.11.4a1.26,1.26,0,0,0,.27,0h0l0,.2-.32-.07c0,.16-.05.33-.07.49l.23,0a.85.85,0,0,0,.23,0Z"/><path class="cls-5" d="M41.76,73.05a5.58,5.58,0,0,1-.85.07H40.6c-.31,0-.48-.2-.48-.4a.56.56,0,0,1,.17-.38l.14.1a.46.46,0,0,0-.12.26c0,.22.3.24.63.24a2.88,2.88,0,0,0,.81-.11Zm-1-1.15.28-.19-.5,0h-.21l0-.21a1.79,1.79,0,0,0,.43,0,4,4,0,0,0,.53,0l.06,0a.76.76,0,0,1,.12.19l-.07,0a2.35,2.35,0,0,0-.48.29Zm.73.28a1.7,1.7,0,0,0-.18-.26l.11-.07a2.31,2.31,0,0,1,.2.24Zm.2-.12a2.07,2.07,0,0,0-.19-.25l.12-.07a2.23,2.23,0,0,1,.19.24Z"/><path class="cls-5" d="M43.85,73.36a.52.52,0,0,0-.07-.19H44c.17,0,.21,0,.21-.15v-.46h-.65c0,.24,0,.49,0,.69h-.2c0-.2,0-.45,0-.69h-.61a1.56,1.56,0,0,1-.3.79.56.56,0,0,0-.14-.17,1.53,1.53,0,0,0,.28-1.08v-.82h1.78v1.76c0,.28-.13.31-.41.31ZM42.76,72s0,.31,0,.41h.6V72Zm.59-.53h-.59v.37h.59Zm.83,0h-.65v.37h.65Zm0,.53h-.65v.41h.65Z"/><path class="cls-5" d="M45,72.74s0-.06,0-.06h0s.17.06.17.09,0,0,0,0a.14.14,0,0,0-.06.08,2,2,0,0,1-.23.37,1,1,0,0,0-.15-.12A1.44,1.44,0,0,0,45,72.74Zm1.9-.87H44.87v-.18h.65l-.08-.18h-.39v-.18l.74,0a.37.37,0,0,0,0-.11.23.23,0,0,1,0-.07h0c.22,0,.24,0,.24,0s0,0,0,0,0,0,0,.1l.76,0v.18h-.42a1,1,0,0,1-.08.18h.69Zm-1.75.8V72h1.42v.71Zm.19.39v-.27l0-.06a0,0,0,0,1,0,0h0c.18,0,.21,0,.21.05s0,0,0,0a.08.08,0,0,0,0,0,.31.31,0,0,0,0,.11V73c0,.07,0,.08.36.08h.27c.12,0,.14,0,.17-.26a1,1,0,0,0,.17.1c-.06.26-.1.33-.27.34H46c-.42,0-.57,0-.57-.21Zm1-1H45.37v.13h1.06Zm0,.27H45.37v.14h1.06Zm-.81-.86c0,.06.05.12.08.19h.36a1.07,1.07,0,0,0,.09-.19ZM46.07,73a1.79,1.79,0,0,0-.34-.22l.09-.12a1.88,1.88,0,0,1,.36.2Zm.8.18a2.59,2.59,0,0,0-.32-.44l.14-.1a2.27,2.27,0,0,1,.33.42Z"/><path class="cls-5" d="M47.42,73.11a3.58,3.58,0,0,0,.45-1,1,1,0,0,0-.33.08h0a.62.62,0,0,1-.08-.23s0,0,0,0h.07l.41,0a2.25,2.25,0,0,0,.06-.49v0h0c.24,0,.27,0,.27,0l0,0s0,0,0,.07l-.1.38.26,0c.32,0,.33.23.33.43a2.42,2.42,0,0,1-.07.58c-.05.23-.15.3-.51.3a.75.75,0,0,0-.07-.23l.17,0a.19.19,0,0,0,.21-.13,2.62,2.62,0,0,0,.08-.58c0-.19,0-.23-.16-.23H48.3a2,2,0,0,0-.24,0,5.49,5.49,0,0,1-.43,1.13Zm1.87-.65a1.8,1.8,0,0,0-.44-.62l.16-.1a2.06,2.06,0,0,1,.48.61Zm0-.6a2.29,2.29,0,0,0-.21-.23l.1-.08a1.15,1.15,0,0,1,.22.22Zm.18-.13a1.1,1.1,0,0,0-.21-.22l.1-.09.23.21Z"/><path class="cls-5" d="M51.68,73.05a5.46,5.46,0,0,1-.84.07h-.31c-.31,0-.48-.2-.48-.4a.59.59,0,0,1,.16-.38l.15.1a.46.46,0,0,0-.12.26c0,.22.29.24.62.24a2.84,2.84,0,0,0,.81-.11Zm-1-1.15.28-.19-.49,0h-.22l0-.21a1.85,1.85,0,0,0,.43,0,3.79,3.79,0,0,0,.53,0l.07,0a1.22,1.22,0,0,1,.12.19l-.08,0a2.31,2.31,0,0,0-.47.29Zm.74.28a1.24,1.24,0,0,0-.19-.26l.12-.07a2.23,2.23,0,0,1,.19.24Zm.2-.12-.19-.25.11-.07a1.5,1.5,0,0,1,.2.24Z"/><path class="cls-5" d="M53.93,72.7a1.21,1.21,0,0,0-.61-.16c-.29,0-.53.1-.53.29v0c0,.17.25.24.53.24a1.84,1.84,0,0,0,.57-.09,1.36,1.36,0,0,0,0,.2v0a4.38,4.38,0,0,1-.5,0c-.42,0-.74-.11-.77-.44v0c0-.3.32-.43.69-.43a2.46,2.46,0,0,1,.37,0,1.9,1.9,0,0,1-.34-.46,4.65,4.65,0,0,1-.75.07h0l0-.2h.19a4,4,0,0,0,.56,0,3,3,0,0,1-.15-.32s0,0,0-.06h0l.22-.07h0a0,0,0,0,1,0,0v.05a1.6,1.6,0,0,0,.13.35,1.61,1.61,0,0,0,.47-.15l0,.2-.42.12a2.1,2.1,0,0,0,.56.61Zm.12-1a1.52,1.52,0,0,0-.22-.22l.1-.09.23.2Zm.18-.15A2.29,2.29,0,0,0,54,71.3l.1-.09a2.12,2.12,0,0,1,.24.2Z"/><path class="cls-5" d="M55.33,73.14c-.27,0-.36-.45-.36-.89a6.22,6.22,0,0,1,.05-.68V71.5a0,0,0,0,1,0,0h0a.76.76,0,0,1,.23.08.08.08,0,0,1,0,0,1.59,1.59,0,0,0-.11.64c0,.13,0,.68.18.68s.14,0,.39-.39a.93.93,0,0,0,.12.18C55.59,73,55.47,73.14,55.33,73.14Zm1.29-.36v0a1.66,1.66,0,0,0-.32-.94l.19,0a1.92,1.92,0,0,1,.34,1Z"/><path class="cls-5" d="M59,73.2a1.57,1.57,0,0,0-.47-.3.09.09,0,0,1,0,0v0c0,.19-.21.29-.44.29s-.48-.11-.48-.32h0c0-.19.16-.32.43-.32a1.57,1.57,0,0,1,.28,0c0-.13,0-.28,0-.43H57.7V72a1.66,1.66,0,0,0,.36,0h.23a2.72,2.72,0,0,1,0-.28H58.1a3.17,3.17,0,0,1-.44,0l0-.2a2.17,2.17,0,0,0,.49,0h.13a1.56,1.56,0,0,0,0-.25.35.35,0,0,0,0-.06s0,0,0,0c.22,0,.25,0,.25,0s0,0,0,0a.59.59,0,0,0,0,.26,2.88,2.88,0,0,0,.51-.08v.2l-.51,0s0,.09,0,.14,0,.09,0,.14a2.61,2.61,0,0,0,.47-.07v.2l-.48,0c0,.17,0,.33,0,.49a3.92,3.92,0,0,1,.58.29Zm-.65-.29a.2.2,0,0,1,0-.07,1,1,0,0,0-.32,0c-.14,0-.23,0-.23.14h0c0,.09.15.15.29.15s.27-.06.27-.17Z"/><path class="cls-5" d="M61.79,71.77a3.43,3.43,0,0,0-.56,0H61v.41a.52.52,0,0,1,.09.33,1,1,0,0,1-.57.88.64.64,0,0,0-.19-.17.75.75,0,0,0,.56-.59.34.34,0,0,1-.61-.24.36.36,0,0,1,.37-.4.41.41,0,0,1,.18.05c0-.05,0-.15,0-.26-.35,0-.76,0-.88,0l-.12,0h0c0-.06,0-.16,0-.23H60l.86,0c0-.1,0-.2,0-.25s0,0,0,0,0,0,0,0h0s.24,0,.24,0a0,0,0,0,0,0,0s0,.07,0,.23l.77,0Zm-1,.54a.16.16,0,0,0-.17-.18.21.21,0,0,0-.19.23c0,.1.05.2.17.2S60.83,72.36,60.83,72.31Z"/><path class="cls-5" d="M62.23,73a.35.35,0,1,1,.35.35A.35.35,0,0,1,62.23,73Zm.59,0a.25.25,0,0,0-.49,0,.25.25,0,1,0,.49,0Z"/><path class="cls-5" d="M9,75H6.94v-.19l.92,0s0-.07,0-.11a.39.39,0,0,1,0-.06,0,0,0,0,1,0,0h0c.2,0,.23,0,.23,0l0,0a.2.2,0,0,0,0,.09l.95,0Zm-.28.91H7.23V76c0,.16,0,.56,0,.83H7c0-.35,0-1.08,0-1.08H8.91v.77c0,.25-.09.31-.37.31h-.1a.81.81,0,0,0,0-.19h.15c.16,0,.18,0,.18-.15Zm-1.41-.31v-.48H8.64v.48Zm1.15-.32h-1v.16h1Zm-.23,1.33v-.07H7.68s0,.07,0,.11H7.51v-.59h.9v.12c0,.11,0,.28,0,.43Zm0-.4H7.68v.18h.56Z"/><path class="cls-5" d="M9.63,76.83c0-.4,0-.76,0-1v-.26a2.84,2.84,0,0,1-.22.34.78.78,0,0,0-.09-.21,2.3,2.3,0,0,0,.46-.94s0-.08,0-.08h0c.15,0,.21,0,.21.07a.05.05,0,0,1,0,0,.25.25,0,0,0-.05.08c0,.13-.1.27-.17.43q.09,0,.09,0a.08.08,0,0,1,0,0,1.5,1.5,0,0,0,0,.5c0,.23,0,.56,0,1Zm1.66,0v-.17h-1v.17H10c0-.29,0-.93,0-1.27v-.22h.41V75H10v-.19l.77,0,.78,0V75H11v.38h.44v.22c0,.34,0,1,0,1.27Zm-.83-1.33h-.23v.34c0,.19,0,.44,0,.66h.22Zm.41-.54h-.24v.38h.24Zm0,.54h-.24v1h.24Zm.42,1c0-.26,0-.57,0-.77V75.5H11v1Z"/><path class="cls-5" d="M12,76.3a3.52,3.52,0,0,0,.51-1h-.42v-.2l.25,0,.24,0a1.18,1.18,0,0,0,0-.29v0s0,0,0,0h0c.22,0,.24,0,.24.07l0,0s0,0-.09.23l.32-.08,0,.2-.36.07a9,9,0,0,1-.5,1.17Zm1.79.33a1.31,1.31,0,0,0-.34-.22v0c0,.22-.21.32-.44.32s-.49-.11-.49-.33c0,0,0-.32.42-.32a1,1,0,0,1,.28,0,2.32,2.32,0,0,1-.05-.38c0-.28.17-.4.34-.4h0a1.91,1.91,0,0,0-.36-.13l.11-.14a4,4,0,0,1,.67.28l-.12.17a.4.4,0,0,0-.22-.07.25.25,0,0,0-.26.28,2,2,0,0,0,.08.45,2.39,2.39,0,0,1,.48.24Zm-.54-.31a1.58,1.58,0,0,0-.32-.06c-.13,0-.21,0-.22.13v0c0,.1.14.16.29.16s.24,0,.25-.18Z"/><path class="cls-5" d="M15.73,75.74a1.2,1.2,0,0,0-.49.13v.58a.22.22,0,0,1-.25.21c-.14,0-.44-.1-.44-.31s.39-.5.51-.57,0-.29,0-.43c-.12,0-.28,0-.42,0l0-.2h.45v-.1a1.77,1.77,0,0,0,0-.24.35.35,0,0,0,0-.06s0,0,0,0h0l.22,0s0,0,0,0a.06.06,0,0,1,0,0,.77.77,0,0,0-.05.3,1.84,1.84,0,0,0,.35-.08v.19l-.36.07c0,.12,0,.24,0,.36a1.26,1.26,0,0,1,.49-.12h0a.57.57,0,0,1,.58.56.52.52,0,0,1-.54.54.36.36,0,0,1-.4-.37.31.31,0,0,1,0-.1l.19,0a.74.74,0,0,0,0,.12.2.2,0,0,0,.22.22.36.36,0,0,0,.35-.37.39.39,0,0,0-.41-.38Zm-1,.57v0c0,.11.23.14.23.14a.07.07,0,0,0,.08-.08c0-.12,0-.26,0-.41A1.16,1.16,0,0,0,14.74,76.31Zm1.56-.75a1.78,1.78,0,0,0-.47-.39L16,75a2.06,2.06,0,0,1,.48.37Z"/><path class="cls-5" d="M17.57,76.81v-.13h-.45a.76.76,0,0,1,0,.15h-.2c0-.26,0-.71,0-.94v-.16h.81v.15c0,.23,0,.67,0,.93Zm0-.92h-.46v.63h.46v-.63Zm-.38-.36v-.76h1.38v.76Zm1.2-.6h-1v.44h1Zm.27,1.9v-.15h-.49v.15H18c0-.26,0-.71,0-.94v-.16h.85v.16c0,.23,0,.68,0,.94Zm0-.94h-.51v.63h.51v-.63Z"/><path class="cls-5" d="M19.65,76.83s0-.47,0-.81l-.19.07a.2.2,0,0,0-.09.06s0,0-.05,0a0,0,0,0,1,0,0c0-.08-.06-.19-.06-.19s0,0,0,0a2.44,2.44,0,0,0,.37-.11V75.3H19.5a2.52,2.52,0,0,1-.12.39,1.17,1.17,0,0,0-.12-.15,2.09,2.09,0,0,0,.13-.61v-.05s0,0,0,0h0c.18,0,.18.05.18.06a.06.06,0,0,1,0,0,.14.14,0,0,0,0,.09s0,.07,0,.11h.14a2.86,2.86,0,0,0,0-.42.39.39,0,0,1,0-.06s0,0,0,0h0c.21,0,.22,0,.22,0l0,0a.2.2,0,0,0,0,.11v.29h.29v.15a1.36,1.36,0,0,0,.18-.55s0-.08,0-.08h0c.18,0,.2,0,.2.06s0,0,0,0a.22.22,0,0,0-.05.08,1.21,1.21,0,0,1,0,.18h1a14,14,0,0,1-.06,1.48c0,.25-.14.32-.37.32h-.12a.43.43,0,0,0-.06-.2l.19,0c.14,0,.18,0,.19-.15a10.57,10.57,0,0,0,.05-1.19v-.12h-.14a2.13,2.13,0,0,1-.77,1.58.59.59,0,0,0-.13-.14,1.9,1.9,0,0,0,.73-1.44h-.19a1.64,1.64,0,0,1-.49,1,.46.46,0,0,0-.13-.13,1.4,1.4,0,0,0,.46-.87h-.19a2,2,0,0,1-.2.38.72.72,0,0,0-.12-.15.44.44,0,0,0,.08-.11h-.28v.45l.31-.14v.18l-.31.14c0,.3,0,.61,0,.89Z"/><path class="cls-5" d="M23.09,76.09h-.15l-.3,0a1,1,0,0,0,0,.17.36.36,0,0,0,.35.36.4.4,0,0,0,.43-.41.6.6,0,0,0-.24-.47l.18-.07a.75.75,0,0,1,.25.55.58.58,0,0,1-.61.59.52.52,0,0,1-.54-.55v-.09s0-.08,0-.12c-.29-.08-.34-.23-.34-.33a.34.34,0,0,1,.14-.26l.12.09a.22.22,0,0,0-.09.16c0,.07.05.12.19.16,0-.16.05-.34.08-.51a.92.92,0,0,1-.27-.16l0-.2a1,1,0,0,0,.25.17c0-.14,0-.27.05-.37h0a.2.2,0,0,0,0,0s0,0,0,0h0l.22.06,0,0s0,0,0,0-.06.12-.11.39a.85.85,0,0,0,.26,0h0l0,.2-.31-.06c0,.16-.06.33-.08.48l.23,0,.23,0Z"/><path class="cls-5" d="M26.21,76.83a5.7,5.7,0,0,0-.72-.39,2.16,2.16,0,0,1-1.19.39.37.37,0,0,0-.07-.18,2.36,2.36,0,0,0,1.07-.29,3.82,3.82,0,0,0-.51-.18l-.11.17-.16-.11a4.38,4.38,0,0,0,.35-.57h-.65v-.2H25a1.74,1.74,0,0,0,.11-.32s0,0,0,0h0c.2,0,.2,0,.2.07a.09.09,0,0,1,0,0s0,0-.12.26l1.31,0v.2H26a1.71,1.71,0,0,1-.33.63c.23.1.47.23.72.37Zm-.06-1.47c0-.1,0-.2,0-.25v0H24.52v0s0,.14,0,.25h-.22c0-.09,0-.23,0-.33v-.12h.9v0a.49.49,0,0,0,0-.13s0-.06,0-.07,0,0,0,0h0c.24,0,.24,0,.24,0s0,0,0,0a.5.5,0,0,0,0,.16h.94V75c0,.1,0,.28,0,.39Zm-.73.31h-.35q-.08.17-.18.36a4.74,4.74,0,0,1,.56.2,1.37,1.37,0,0,0,.3-.56Z"/><path class="cls-5" d="M27,75.36c.19,0,.22.06.22.07l0,0a.18.18,0,0,0-.05.08,3.88,3.88,0,0,1-.28.81.61.61,0,0,0-.18-.12,2.42,2.42,0,0,0,.28-.81s0-.07,0-.07Zm.35,1.12v-.67c0-.26,0-.51,0-.54a.25.25,0,0,1,0-.07,0,0,0,0,1,0,0h0c.21,0,.24,0,.24,0a.11.11,0,0,1,0,0,.17.17,0,0,0,0,.1v1.08a.09.09,0,0,0,.09.1h.44c.13,0,.16-.1.19-.55a.69.69,0,0,0,.19.11c-.07.63-.11.64-.58.64-.3,0-.53,0-.53-.29Zm.7-1.18a3.34,3.34,0,0,0-.59-.49l.13-.13a4.62,4.62,0,0,1,.59.45Zm.67.94a3.07,3.07,0,0,0-.36-.87l.17-.08a4.45,4.45,0,0,1,.39.86Z"/><path class="cls-5" d="M29.75,76.31c0-.27,0-.75,0-1.12v-.33s0,0,0,0H30s0,0,0,0a0,0,0,0,0,0,0A.13.13,0,0,0,30,75c0,.48-.05,1-.05,1.34a.25.25,0,0,0,.28.27,1.09,1.09,0,0,0,.85-.55.54.54,0,0,0,.11.24,1.35,1.35,0,0,1-1,.51.41.41,0,0,1-.46-.44Z"/><path class="cls-5" d="M33.37,76.68c-.58,0-.94-.31-.94-.74a1,1,0,0,1,.5-.81,4.8,4.8,0,0,0-1,.19l-.05,0s0,0,0,0-.05-.23-.05-.24h.1a11.67,11.67,0,0,0,1.5-.19l.14,0s0,0,.09.2h0s0,0-.12,0a1,1,0,0,0-.93.85c0,.46.46.55.72.55h.11c0,.07,0,.17-.05.23Z"/><path class="cls-5" d="M35.57,75.74a1.15,1.15,0,0,0-.48.13v.58a.22.22,0,0,1-.25.21c-.14,0-.44-.1-.44-.31s.39-.5.51-.57,0-.29,0-.43c-.12,0-.28,0-.42,0l0-.2h.45v-.1a1.77,1.77,0,0,0,0-.24.35.35,0,0,0,0-.06s0,0,0,0h0l.22,0s0,0,0,0a.06.06,0,0,1,0,0,.77.77,0,0,0,0,.3,1.84,1.84,0,0,0,.35-.08v.19l-.36.07c0,.12,0,.24,0,.36a1.26,1.26,0,0,1,.49-.12h.05a.57.57,0,0,1,.58.56.52.52,0,0,1-.54.54.36.36,0,0,1-.4-.37.31.31,0,0,1,0-.1l.19,0a.74.74,0,0,0,0,.12.2.2,0,0,0,.22.22.35.35,0,0,0,.34-.37.38.38,0,0,0-.4-.38Zm-1,.57v0c0,.11.23.14.23.14a.07.07,0,0,0,.08-.08c0-.12,0-.26,0-.41A1,1,0,0,0,34.59,76.31Zm1.56-.75a1.78,1.78,0,0,0-.47-.39l.13-.13a2.06,2.06,0,0,1,.48.37Z"/><path class="cls-5" d="M37,75.74h-.32v-.2h.51v.8c.14.2.33.21.83.21.3,0,.61,0,.86,0a1.08,1.08,0,0,0-.07.21H37.61a.66.66,0,0,1-.52-.24,2,2,0,0,1-.25.21l-.06.07s0,0,0,0l0,0s-.09-.18-.09-.18l0,0a1.31,1.31,0,0,0,.32-.22Zm.14-.52a3,3,0,0,0-.38-.41l.12-.11a2.8,2.8,0,0,1,.4.38Zm1.67.55h-.6a1.09,1.09,0,0,0,.62.53,1.77,1.77,0,0,0-.1.17,1.18,1.18,0,0,1-.67-.63,1.09,1.09,0,0,1-.67.62.46.46,0,0,0-.1-.17.92.92,0,0,0,.61-.52h-.55v-.19l.59,0c0-.1,0-.19,0-.3h-.51v-.19h1.26v.19h-.57c0,.1,0,.2,0,.3l.69,0Zm-1-.65a2.21,2.21,0,0,0-.27-.37l.16-.09A4.1,4.1,0,0,1,38,75Zm.59-.47.18,0s0,0,0,0,0,0,0,0a.18.18,0,0,0,0,.07,2.12,2.12,0,0,1-.2.28,1.23,1.23,0,0,0-.18-.08.83.83,0,0,0,.22-.32s0-.06,0-.06Z"/><path class="cls-5" d="M39.67,76.16a1.66,1.66,0,0,1-.08-.58c0-.27,0-.55,0-.7v0s0,0,0,0h0c.24.06.25.07.25.08l0,0a.15.15,0,0,0-.05.09,2.76,2.76,0,0,0-.06.53.75.75,0,0,0,0,.21l.18-.34.1.08a1.39,1.39,0,0,0-.19.62Zm1-.33v-.15a7.28,7.28,0,0,0-.05-.78s0-.06,0-.07,0,0,0,0c.28,0,.28,0,.28,0a.08.08,0,0,1,0,0s0,.07,0,.19,0,.38,0,.58A1.13,1.13,0,0,1,40,76.85a.55.55,0,0,0-.17-.2A.88.88,0,0,0,40.63,75.83Z"/><path class="cls-5" d="M43.07,76.84a3.71,3.71,0,0,0-.84-.84.29.29,0,0,1,0-.52,3.07,3.07,0,0,0,.68-.69s0-.07,0-.07h0s.2.18.2.21v0h0s0,0-.09,0c-.28.27-.47.41-.71.62-.05.05-.07.08-.07.12s0,.07.07.1a6.14,6.14,0,0,1,.92.81Z"/><path class="cls-5" d="M44.25,76.65a6,6,0,0,0,.43-1.29h-.35l0-.2.3,0h.11a2.49,2.49,0,0,0,.06-.39.43.43,0,0,0,0,0s0,0,0,0h0l.21,0s0,0,0,0a0,0,0,0,1,0,0s0,0-.1.35a1.7,1.7,0,0,0,.47-.1v.2a3.17,3.17,0,0,1-.51.08c-.12.49-.26,1-.4,1.39Zm1.89,0a3.74,3.74,0,0,1-.54,0c-.38,0-.57-.11-.57-.34a.89.89,0,0,1,0-.15l.17,0a.28.28,0,0,0,0,.09c0,.16.16.19.33.19a2.1,2.1,0,0,0,.58-.09Zm-.17-.9-.26,0a3.9,3.9,0,0,0-.5,0v-.19c.24,0,.53,0,.77,0Zm-.11-.51a2.39,2.39,0,0,0-.23-.22l.1-.09a2.41,2.41,0,0,1,.24.21Zm.18-.15a2.29,2.29,0,0,0-.23-.21l.1-.09a2.2,2.2,0,0,1,.23.2Z"/><path class="cls-5" d="M48.32,76.13a1.37,1.37,0,0,0-.61-.15c-.29,0-.53.1-.53.28v0c0,.17.24.24.53.24a2.1,2.1,0,0,0,.56-.08,1.11,1.11,0,0,0,0,.19v.05a2.85,2.85,0,0,1-.49,0c-.42,0-.75-.11-.77-.44v0c0-.31.31-.44.68-.44a1.57,1.57,0,0,1,.37,0,2.28,2.28,0,0,1-.34-.47,4.65,4.65,0,0,1-.75.07h0l0-.2.19,0a2.81,2.81,0,0,0,.56-.06,3,3,0,0,1-.15-.32s0-.05,0-.06h0l.22-.06h0s0,0,0,0v0a1.6,1.6,0,0,0,.13.36,1.93,1.93,0,0,0,.55-.2l0,.21a3.27,3.27,0,0,1-.5.15,2.12,2.12,0,0,0,.56.61Z"/><path class="cls-5" d="M49.65,76.61c-.27,0-.36-.44-.36-.89a4.44,4.44,0,0,1,.05-.68v0s0,0,0,0a0,0,0,0,1,0,0,0,0,0,0,1,0,0c.06,0,.24,0,.24.08s0,0,0,0a1.67,1.67,0,0,0-.11.65c0,.13,0,.67.18.67s.13,0,.39-.38c0,.06.08.13.12.18C49.91,76.51,49.79,76.61,49.65,76.61Zm1.29-.36h0a1.67,1.67,0,0,0-.32-.95l.19-.05a2,2,0,0,1,.34,1Z"/><path class="cls-5" d="M51.58,76.42a.36.36,0,0,1,.71,0,.36.36,0,1,1-.71,0Zm.6,0a.25.25,0,1,0-.25.25A.25.25,0,0,0,52.18,76.42Z"/><rect class="cls-3" x="4.2" y="3.7" width="16.17" height="4.08" rx="2.04"/><path class="cls-6" d="M6.6,5.44s0,0,0,0h0c.32.1.34.11.34.13a.05.05,0,0,1,0,0,.11.11,0,0,0-.07.08,4.67,4.67,0,0,1-.46.7,1,1,0,0,0-.33-.15,1.58,1.58,0,0,0,.53-.77Zm.84.93c0,.25-.13.33-.46.33h-.1a1,1,0,0,0-.11-.35l.26,0c.1,0,.1,0,.11-.13V5.31c-.29,0-.71,0-.85,0V5h.84c0-.14,0-.27,0-.37a.11.11,0,0,1,0,0s0,0,0,0h0c.35,0,.36,0,.36,0s0,0,0,0,0,.08,0,.36l.79,0v.3H7.43v.14c0,.31,0,.65,0,.9Zm.69,0a4.61,4.61,0,0,0-.47-.78l.26-.14a6.67,6.67,0,0,1,.5.76ZM8.05,5a.26.26,0,1,1,0-.52.26.26,0,0,1,0,.52Zm0-.38a.12.12,0,0,0-.13.12.13.13,0,0,0,.13.13.12.12,0,0,0,.12-.13A.12.12,0,0,0,8.05,4.57Z"/><path class="cls-6" d="M10,6.69a9.4,9.4,0,0,0,0-1.05V5.48A7.94,7.94,0,0,1,9.16,6a1.09,1.09,0,0,0-.23-.25,4.46,4.46,0,0,0,1.66-1.18s0-.09.05-.09h0l.26.21s0,0,0,0,0,0,0,0a.29.29,0,0,0-.14.08c-.14.14-.3.26-.45.39s0,.32,0,.51c0,.37,0,.77,0,.92Z"/><path class="cls-6" d="M12.05,6.57a.34.34,0,0,0-.14.08l-.05,0a1.77,1.77,0,0,1-.24-.33v0s0,0,.11,0a3.74,3.74,0,0,0,1.78-1.13,2,2,0,0,0,.17.26A4.91,4.91,0,0,1,12.05,6.57Zm.17-1.21a2.52,2.52,0,0,0-.58-.48l.23-.2a2.05,2.05,0,0,1,.56.42Z"/><path class="cls-6" d="M14.45,6.71c0-.27.05-.88.05-1.38a6,6,0,0,0,0-.75.43.43,0,0,1,0,0s0,0,0,0h0l.33,0,0,0s0,0,0,0,0,.12-.06.79l.13-.15.7.36-.18.29a2.9,2.9,0,0,0-.65-.38v.16c0,.41,0,.83,0,1Z"/><path class="cls-6" d="M17.29,6.9a1.3,1.3,0,1,1,1.3-1.29A1.3,1.3,0,0,1,17.29,6.9Zm.21-2.11h-.26a.36.36,0,0,1-.38.2v.25h.29V6.43h.35Z"/></g></g></svg>