<svg xmlns="http://www.w3.org/2000/svg" viewBox="0 0 99.7 8.46"><defs><style>.cls-1{fill:#ad0005;}.cls-2{fill:none;stroke:#ad0005;stroke-miterlimit:10;stroke-width:0.3px;}.cls-3{fill:#fff;}</style></defs><g id="Layer_2" data-name="Layer 2"><g id="レイアウト"><path class="cls-1" d="M1.57.15A1.49,1.49,0,0,0,.15,1.7V6.76A1.48,1.48,0,0,0,1.57,8.31H17V.15Z"/><path class="cls-2" d="M1.57.15A1.49,1.49,0,0,0,.15,1.7V6.76A1.48,1.48,0,0,0,1.57,8.31H17V.15Z"/><path class="cls-3" d="M98.13.15H17V8.31H98.13a1.49,1.49,0,0,0,1.42-1.55V1.7A1.5,1.5,0,0,0,98.13.15Z"/><path class="cls-2" d="M98.13.15H17V8.31H98.13a1.49,1.49,0,0,0,1.42-1.55V1.7A1.5,1.5,0,0,0,98.13.15Z"/><path class="cls-3" d="M4,3.5a.46.46,0,0,0-.52-.38c-.28,0-.44.16-.44.33s.09.26.36.34l.37.1c.49.15.71.4.71.79s-.34.73-1,.73a.92.92,0,0,1-1-.83h.44A.55.55,0,0,0,3.5,5c.32,0,.5-.13.5-.33s-.14-.33-.43-.42l-.38-.12c-.46-.13-.61-.34-.61-.69s.35-.7.88-.7a.83.83,0,0,1,.93.74Z"/><path class="cls-3" d="M5.38,5.35V3.19H4.66V2.82H6.52v.37H5.8V5.35Z"/><path class="cls-3" d="M6.87,5.35V2.82H8.53v.37H7.28v.66h1v.36h-1V5H8.6v.37Z"/><path class="cls-3" d="M9,5.35V2.82h1a.8.8,0,0,1,.88.8.79.79,0,0,1-.88.81H9.4v.92Zm.92-1.29a.43.43,0,0,0,.49-.43.44.44,0,0,0-.5-.45H9.4v.88Z"/><path class="cls-3" d="M12.72,5.79a1.71,1.71,0,1,1,1.71-1.71A1.71,1.71,0,0,1,12.72,5.79Zm-.84-1.31a.8.8,0,0,0,.85.74c.53,0,.81-.28.81-.69A.59.59,0,0,0,13.23,4a.49.49,0,0,0,.24-.45c0-.36-.3-.59-.75-.59A.71.71,0,0,0,12,3.6h.42a.3.3,0,0,1,.32-.26c.19,0,.3.09.3.23s-.11.23-.37.23h-.26v.41h.3c.27,0,.41.14.41.31s-.14.3-.37.3a.4.4,0,0,1-.4-.34Z"/><path class="cls-1" d="M30.22,5.48H27.79V5.22h.42V4.18L28,4.27A.68.68,0,0,0,27.83,4a1.53,1.53,0,0,0,.78-.35l-.71,0V3.42h1a.47.47,0,0,0,0-.16.35.35,0,0,0,0-.06s0,0,0,0h0c.29,0,.31,0,.31.06l0,0a.29.29,0,0,0,0,.1v0h1v.26l-.73,0a1.56,1.56,0,0,0,.81.34.9.9,0,0,0-.14.27l-.26-.09V5.23h.43ZM28.85,4.1c0-.07,0-.33,0-.42a1.46,1.46,0,0,1-.6.48h1.49a1.63,1.63,0,0,1-.63-.48c0,.11,0,.29,0,.42Zm.67.28h-1v.14h1Zm0,.34h-1v.15h1Zm0,.35h-1v.16h1Z"/><path class="cls-1" d="M32.53,4.76h-.65v.44h.41c.21,0,.43,0,.63,0a1.45,1.45,0,0,0-.08.32h-.48c-.58,0-1,0-1.3-.43a1.51,1.51,0,0,1-.38.49.85.85,0,0,0-.19-.24A1.29,1.29,0,0,0,31,4.42v0s0,0,0,0h0l.27.06s0,0,0,0a.06.06,0,0,1,0,0,.12.12,0,0,0-.05.07.6.6,0,0,1-.06.22.91.91,0,0,0,.43.34V4.19h-.65V3.92l.78,0,.76,0V4.2h-.6V4.5l.65,0Zm0-.76a2.27,2.27,0,0,0,0-.24V3.7H30.88v0a2.45,2.45,0,0,0,0,.25h-.31c0-.12,0-.3,0-.42V3.44h.95a.44.44,0,0,0,0-.17.18.18,0,0,1,0-.06s0,0,0,0h0c.33,0,.34,0,.34.06l0,0a.09.09,0,0,0,0,.08v.06h1v.08c0,.11,0,.33,0,.48Z"/><path class="cls-1" d="M34,5.51s0-.06,0-.1h-.4a.53.53,0,0,0,0,.13H33.4c0-.25,0-.72,0-.84l-.12,0a.88.88,0,0,0-.1-.23,1.18,1.18,0,0,0,.54-.21l-.22-.11a1.35,1.35,0,0,1-.15.13.68.68,0,0,0-.15-.2.71.71,0,0,0,.37-.43s0,0,0,0h0c.17,0,.23,0,.23.08l0,0,0,0H34l.07,0h0l.1,0V3.62h-.73v.25h-.24c0-.1,0-.28,0-.38V3.4h.47a.49.49,0,0,0,0-.13.39.39,0,0,1,0-.06s0,0,0,0h0c.25,0,.28,0,.28.05l0,0a.11.11,0,0,0,0,.08v0h.48v.46h-.13l0,0s-.06.05-.08.08a.92.92,0,0,1-.17.29l.4.23-.13.2c-.07,0-.24-.17-.41-.27a1.26,1.26,0,0,1-.44.24h.78v.2c0,.19,0,.46,0,.64ZM33.69,4l0,.07.24.12A.85.85,0,0,0,34,4Zm.36.91h-.4v.3h.4Zm.38.66a.74.74,0,0,0-.14-.22.81.81,0,0,0,.42-.25s0,0,0,0,.23.09.23.13a0,0,0,0,1,0,0s0,0-.06,0A1.6,1.6,0,0,1,34.43,5.55ZM34.51,5V3.68h.29c0-.06,0-.11,0-.16h-.37V3.27l.55,0,.57,0v.26h-.5l0,.16h.42V5Zm.72-1.14h-.48v.16h.48Zm0,.36h-.48v.17h.48Zm0,.37h-.48v.19h.48Zm0,.41a1.55,1.55,0,0,0,.4.3,1.25,1.25,0,0,0-.15.21A2.8,2.8,0,0,1,35,5.16Z"/><path class="cls-1" d="M36.3,5.41a2,2,0,0,1-.15-.79,9.85,9.85,0,0,1,.14-1.16v0s0,0,0,0h0a1.3,1.3,0,0,1,.33.14l0,0a2.34,2.34,0,0,0-.23,1.08,1.48,1.48,0,0,0,0,.22l.21-.38.16.14a1.27,1.27,0,0,0-.2.7v0Zm.88-.73a.37.37,0,0,0,0,.15c0,.14.16.17.36.17a2.3,2.3,0,0,0,.67-.1,1.55,1.55,0,0,0,0,.29v.06a3.2,3.2,0,0,1-.52,0c-.28,0-.74,0-.74-.43a.7.7,0,0,1,0-.23Zm.87-.75-.39,0A2.77,2.77,0,0,0,37,4v-.3a7,7,0,0,1,.83-.06H38Z"/><path class="cls-1" d="M40.72,5.24a5,5,0,0,1-.92.08l-.37,0c-.35,0-.54-.23-.54-.46a.66.66,0,0,1,.22-.45l.23.15a.39.39,0,0,0-.16.27c0,.2.3.22.6.22a2.81,2.81,0,0,0,.92-.14ZM39.52,4l.24-.15h-.63l0-.32a2,2,0,0,0,.51,0,3.06,3.06,0,0,0,.56,0l.08,0h0a1.64,1.64,0,0,1,.16.26s-.06,0-.11.06a2.08,2.08,0,0,0-.54.33Zm.91.39a2,2,0,0,0-.23-.28L40.36,4a2.85,2.85,0,0,1,.23.26Zm.24-.15A2.46,2.46,0,0,0,40.45,4l.15-.09.23.24Z"/><path class="cls-1" d="M41.41,4.66v0s0,0,0,0h0c.18,0,.22,0,.22.07s0,0,0,0a.11.11,0,0,0,0,.07,5.58,5.58,0,0,1-.11.63,1.39,1.39,0,0,0-.21-.1,2.87,2.87,0,0,0,.12-.64Zm.28.89c0-.34,0-.84,0-1.07l-.18,0a.16.16,0,0,0-.09,0,.09.09,0,0,1-.06,0s-.07-.23-.07-.24v0h.15A2.51,2.51,0,0,0,41.64,4a2.12,2.12,0,0,0-.33-.39l.14-.17.08.08a1.44,1.44,0,0,0,.13-.31s0-.06,0-.06h0c.24.05.26.06.26.09s0,0,0,0a.21.21,0,0,0,0,.06l-.21.34.1.13A1.23,1.23,0,0,0,42,3.53s0-.06,0-.06.27.06.27.11,0,0,0,0l0,.06c-.09.13-.27.37-.45.58l.3,0L42,4l.18,0a2.67,2.67,0,0,1,.15.56l-.21,0s0-.08,0-.12H42v.26c0,.25,0,.59,0,.84Zm.37-.27A4.76,4.76,0,0,0,42,4.62l.19,0a4.43,4.43,0,0,1,.09.65Zm1.32-1.49H43.1a2.16,2.16,0,0,1,0,.35,6.47,6.47,0,0,1,.3.77l-.22.16A4.1,4.1,0,0,0,43,4.54a1.71,1.71,0,0,1-.24.59,1.85,1.85,0,0,0-.17-.23,1.89,1.89,0,0,0,.26-1.11h-.27V4c0,.38,0,1.28,0,1.58h-.29c0-.28,0-1.08,0-1.59V3.53h.52a1.91,1.91,0,0,0,0-.28.43.43,0,0,0,0,0s0,0,0,0h0c.29,0,.31,0,.31.06l0,0a.16.16,0,0,0,0,.09v.15h.52v1.7c0,.24-.08.32-.36.32h-.15A.75.75,0,0,0,43,5.28h.2c.13,0,.14,0,.14-.08Z"/><path class="cls-1" d="M44.3,5.55c0-.28,0-.73,0-1a.76.76,0,0,1-.23.24.77.77,0,0,0-.1-.29,1.42,1.42,0,0,0,.51-.64v0c0-.05,0-.06,0-.06h0c.23,0,.27.06.27.09s0,0,0,0a.1.1,0,0,0,0,.06,2,2,0,0,1-.16.28v.51c0,.28,0,.6,0,.8Zm.14-2.3s0-.06,0-.06h0l.23.06s0,0,0,0,0,0,0,0l0,.06a1.6,1.6,0,0,1-.56.68A.86.86,0,0,0,44,3.79,1,1,0,0,0,44.44,3.25Zm2,1.64h-.37v.33c0,.26,0,.34-.41.34h-.13a.83.83,0,0,0-.08-.28h.2c.13,0,.15,0,.15-.12V4.87h-.26l-.82,0V4.63h1.08V4.49h-1V4.25l.79,0,.77,0V4.5h-.3v.15h.37ZM44.9,4.15V3.29h1.34v.86Zm.44,1.21A2.07,2.07,0,0,0,45,5.05l.17-.17a3.72,3.72,0,0,1,.4.28ZM46,3.49h-.83v.13H46Zm0,.31h-.83V4H46Z"/><path class="cls-1" d="M46.85,5.5a.92.92,0,0,0-.08-.29H47c.14,0,.15,0,.15-.14V3.59h-.39V3.31h.95V3.6h-.27V5.11c0,.32-.07.39-.45.39Zm.61-.18A1.05,1.05,0,0,0,48,5.08l0,0s.26.1.26.14,0,0,0,0l-.08,0a1.6,1.6,0,0,1-.6.28A.72.72,0,0,0,47.46,5.32Zm.31-.27V3.68h.36a.88.88,0,0,0,0-.15h-.47V3.28h1.36v.26h-.62c0,.05,0,.1-.05.15h.54V5.05Zm.91-1.14H48v.15h.65Zm0,.36H48v.16h.65Zm0,.37H48v.18h.65Zm-.1.42a2.56,2.56,0,0,0,.55.27.69.69,0,0,0-.16.22,3,3,0,0,1-.6-.36Z"/><path class="cls-1" d="M49.86,5.37a2.08,2.08,0,0,1-.19-.92c0-.42.09-.82.09-1V3.38s0,0,0,0l.35.1s0,0,0,0a0,0,0,0,1,0,0,2.08,2.08,0,0,0-.19,1,1.61,1.61,0,0,0,0,.33l.19-.39.18.14a1.38,1.38,0,0,0-.18.75ZM51.71,4a3.65,3.65,0,0,1-.4.07v.2a2.81,2.81,0,0,1,0,.29,1.07,1.07,0,0,1-.6.9,1.33,1.33,0,0,0-.31-.24A.76.76,0,0,0,51,4.57V4.13h-.58l-.06-.3a2.06,2.06,0,0,0,.39,0H51a4.39,4.39,0,0,0,0-.45l0,0h0c.35,0,.37,0,.37.05v0a.19.19,0,0,0,0,.07c0,.13,0,.24,0,.34a1.1,1.1,0,0,0,.42-.12Z"/><path class="cls-1" d="M52.25,5.36A5.29,5.29,0,0,0,52.74,4h-.37l0-.32a2.29,2.29,0,0,0,.39,0h.08a3.75,3.75,0,0,0,.07-.41h0a.43.43,0,0,1,0,0s0,0,0,0h0c.33,0,.34.06.34.08a0,0,0,0,1,0,0,.14.14,0,0,0,0,.08,2.61,2.61,0,0,1-.06.27,2.23,2.23,0,0,0,.51-.13l0,.33A3.45,3.45,0,0,1,53,4c-.14.54-.29,1.06-.46,1.53Zm2.17,0a3.5,3.5,0,0,1-.62.06c-.53,0-.67-.17-.67-.39a.75.75,0,0,1,0-.24l.28,0a.3.3,0,0,0,0,.14c0,.15.19.16.3.16A1.84,1.84,0,0,0,54.39,5Zm-.18-1a2.17,2.17,0,0,0-.38,0,1.86,1.86,0,0,0-.54.07l0-.31a5.8,5.8,0,0,1,.85,0h.09Z"/><path class="cls-1" d="M55.17,4.85a4.88,4.88,0,0,0,.11-1v0a.41.41,0,0,1,0-.07h0c.31,0,.34,0,.34.07v0c0,.05,0,.1-.1.72a1.45,1.45,0,0,1,.81-.3A.59.59,0,0,1,57,4.8c0,.43-.46.68-1.09.68h-.1a1.46,1.46,0,0,0-.12-.37,1.26,1.26,0,0,0,.37,0c.38,0,.62-.18.62-.38s0-.26-.34-.26a1.2,1.2,0,0,0-.86.43Zm1-1a3.65,3.65,0,0,0-.75-.34l.14-.25a4,4,0,0,1,.76.31Z"/><path class="cls-1" d="M58.1,5.56a5.78,5.78,0,0,0-.62-.67l.2-.19c.2.17.47.41.67.62Z"/><path class="cls-1" d="M61.14,4.88a6.69,6.69,0,0,1-.72.3l-.07,0s0,0-.06,0S60.2,5,60.2,5s0,0,0,0a1.51,1.51,0,0,0,.3-.08V4.27h-.27V4a1.23,1.23,0,0,0,.27,0V3.6h-.3V3.33l.44,0,.44,0v.28h-.31V4a1.32,1.32,0,0,0,.27,0v.28h-.27v.49l.33-.15Zm1-.18v.51s0,.06.12.06.15,0,.17-.33a1,1,0,0,0,.23.12c-.05.44-.12.46-.41.46s-.37,0-.37-.28V4.7H61.7c-.05.39-.16.68-.78.85a.6.6,0,0,0-.13-.25c.53-.11.63-.32.65-.6h-.25V3.29h1.23V4.7Zm0-1.18h-.71v.16h.71Zm0,.37h-.71v.17h.71Zm0,.39h-.71v.19h.71Z"/><path class="cls-1" d="M65.28,5.48H62.94V5.19h1V4.63h-.8V4.37l.8,0V4.15H63.5V4c-.13.06-.28.13-.45.19a.67.67,0,0,0-.16-.28A1.64,1.64,0,0,0,64,3.25s0-.06,0-.06h0l.3.08s0,0,0,0l0,0h0a2.35,2.35,0,0,0,1.06.53.84.84,0,0,0-.16.28A2.28,2.28,0,0,1,64.66,4v.19h-.43v.25l.84,0v.27h-.84v.58l1,0Zm-1.74-.29a1.76,1.76,0,0,0-.26-.44l.25-.08a1.75,1.75,0,0,1,.26.43Zm.54-1.62a1.9,1.9,0,0,1-.4.33h.85A3.72,3.72,0,0,1,64.08,3.57Zm.51,1.15s0-.06,0-.06h0c.27,0,.29.07.29.09l0,0a.18.18,0,0,0,0,.07,2.9,2.9,0,0,1-.21.34,1.55,1.55,0,0,0-.26-.09A1,1,0,0,0,64.59,4.72Z"/><path class="cls-1" d="M67.39,5.42c-.9,0-1.06-.6-1.06-.85a1,1,0,0,1,.39-.75,3.3,3.3,0,0,0-.86.17h0s0,0,0,0l-.07-.31v0s0,0,.05,0h0a11.9,11.9,0,0,0,1.67-.21l.16,0s0,0,.14.3h0s0,0-.15,0a1,1,0,0,0-1,.86c0,.4.39.54.72.54l.18,0a1.86,1.86,0,0,0-.07.34Zm.22-1-.23-.28L67.54,4a3.23,3.23,0,0,1,.23.27Zm.21-.17A1.27,1.27,0,0,0,67.6,4l.16-.09a2.8,2.8,0,0,1,.22.25Z"/><path class="cls-1" d="M69.85,4.41a1.19,1.19,0,0,0-.47.11c0,.22,0,.42,0,.62a.28.28,0,0,1-.32.27c-.14,0-.52-.11-.52-.38V5c0-.21.3-.46.57-.62,0-.13,0-.26,0-.38l-.34,0h-.11l0-.29h.17l.32,0c0-.14,0-.26,0-.36a.35.35,0,0,0,0-.06s0,0,0,0h0l.32,0s0,0,0,0l0,0a.69.69,0,0,0,0,.3,1.74,1.74,0,0,0,.38-.1l0,.31L69.39,4a2.44,2.44,0,0,0,0,.27,1.39,1.39,0,0,1,.46-.09h.06a.63.63,0,0,1,.66.62.59.59,0,0,1-.6.62A.42.42,0,0,1,69.5,5a.71.71,0,0,1,0-.14,1.33,1.33,0,0,0,.3-.06.41.41,0,0,0,0,.17.16.16,0,0,0,.18.17.32.32,0,0,0,.31-.35.35.35,0,0,0-.37-.35Zm-1,.59c0,.07.15.12.19.12s.06,0,.06-.08,0-.22,0-.34C69,4.79,68.83,4.93,68.83,5Zm1.62-.76a2.63,2.63,0,0,0-.55-.48l.19-.19a2.9,2.9,0,0,1,.57.45Z"/><path class="cls-1" d="M73.37,3.82h-1v.32h.42a.16.16,0,0,0,.09,0h0a1,1,0,0,1,.25.14l0,0s-.08.06-.09.08a2.8,2.8,0,0,1-.55.66,3,3,0,0,0,.92.26.77.77,0,0,0-.14.29,3.24,3.24,0,0,1-1-.36,3.06,3.06,0,0,1-1.13.37A.77.77,0,0,0,71,5.27,3,3,0,0,0,72,5a2.91,2.91,0,0,1-.51-.62h-.27V4.12h.84V3.81h-1V3.53l1,0a1.43,1.43,0,0,0,0-.28.18.18,0,0,1,0-.06s0,0,0,0h0l.31,0a0,0,0,0,1,0,0l0,0a.19.19,0,0,0,0,.1v.15l1,0Zm-1,.55h-.62a2,2,0,0,0,.45.46,1.54,1.54,0,0,0,.45-.47Z"/><path class="cls-1" d="M74.41,5.2c0,.28-.1.35-.42.35h-.15a1.16,1.16,0,0,0-.09-.3H74c.16,0,.17,0,.17-.13V4.65a.82.82,0,0,1-.19.06.21.21,0,0,0-.08.06l0,0s0,0,0,0a2.48,2.48,0,0,1-.07-.3s0,0,0,0a2.6,2.6,0,0,0,.38-.08V3.94h-.38V3.66h.37a3.37,3.37,0,0,0,0-.41.25.25,0,0,1,0-.07s0,0,0,0h0c.32,0,.33,0,.33.06l0,0a.2.2,0,0,0,0,.11v.27l.37,0V4h-.37v.34l.35-.15v.29l-.35.14v.63Zm1.43.33a2.45,2.45,0,0,0-.08-.29c-.39.09-.75.15-1,.19a.13.13,0,0,0-.08,0l-.06,0s0,0,0,0a2.48,2.48,0,0,1-.09-.31s0,0,0,0h.19a9,9,0,0,0,.38-1.82V3.26a.11.11,0,0,1,0,0l0,0h0c.35,0,.38.05.38.09a.06.06,0,0,1,0,.05.16.16,0,0,0-.06.09A15.24,15.24,0,0,1,75,5.1c.21,0,.41-.07.64-.11a2.55,2.55,0,0,0-.25-.59l.28-.1a6.91,6.91,0,0,1,.42,1.13Z"/><path class="cls-1" d="M76.71,3.52s0,0,0,0h0l.32.09s0,0,0,0,0,0,0,0a.17.17,0,0,0-.06.1,2.16,2.16,0,0,0-.09.62c0,.25.07.63.17.63s.35-.36.4-.44a1.34,1.34,0,0,0,.18.28,2,2,0,0,1-.31.36.48.48,0,0,1-.29.12c-.36,0-.43-.6-.43-1a6,6,0,0,1,.06-.78V3.52ZM78.39,5V4.85a1.59,1.59,0,0,0-.36-1l.3-.08a2.1,2.1,0,0,1,.39,1.11Z"/><path class="cls-1" d="M80,4.93c0,.19.09.28.25.28a1.16,1.16,0,0,0,.91-.64,1,1,0,0,0,.16.35,1.5,1.5,0,0,1-1.08.59A.48.48,0,0,1,79.7,5h0c0-.28,0-.76,0-1.15,0-.17,0-.33,0-.44a.35.35,0,0,0,0-.06,0,0,0,0,1,0,0h0l.34,0s0,0,0,0a.06.06,0,0,1,0,0A9.68,9.68,0,0,0,80,4.92Z"/><path class="cls-1" d="M83.72,5.43a1.63,1.63,0,0,0-.45-.31v0c0,.21-.26.33-.52.33s-.53-.12-.55-.36v0c0-.24.21-.38.51-.38a1,1,0,0,1,.24,0c0-.11,0-.23,0-.35h-.62V4.07a1.72,1.72,0,0,0,.45,0h.17V3.9h-.17a3.7,3.7,0,0,1-.47,0l0-.3a2.75,2.75,0,0,0,.56,0h.1c0-.13,0-.23,0-.28l0-.06s0,0,0,0h0c.32,0,.35,0,.35,0s0,0,0,0a.59.59,0,0,0,0,.26,2.28,2.28,0,0,0,.53-.08v.3l-.54.06V4.1A2.5,2.5,0,0,0,83.71,4v.3l-.5.06c0,.15,0,.29,0,.44a3.39,3.39,0,0,1,.63.32ZM83,5.06V5a1.24,1.24,0,0,0-.3,0c-.13,0-.2,0-.2.11h0c0,.07.13.11.26.11s.24,0,.24-.12Z"/><path class="cls-1" d="M86.81,3.89a2.88,2.88,0,0,0-.59,0H86c0,.11,0,.23,0,.34a.59.59,0,0,1,.1.36,1.15,1.15,0,0,1-.67,1,1,1,0,0,0-.29-.24.82.82,0,0,0,.62-.5.34.34,0,0,1-.22.07.38.38,0,0,1-.39-.43A.42.42,0,0,1,85.56,4l.15,0V3.86a6,6,0,0,0-.91.07,1.11,1.11,0,0,0-.13,0s0-.16-.07-.33h0s0,0,0,0h.2l.88,0a1.76,1.76,0,0,0,0-.27.43.43,0,0,0,0-.05h0c.31,0,.35,0,.35,0s0,0,0,0,0,.14,0,.24l.83,0Zm-1.25.75c.09,0,.14-.13.14-.23a.13.13,0,0,0-.13-.14c-.1,0-.16.09-.16.2s0,.17.14.17Z"/><path class="cls-1" d="M87.61,5.52a.41.41,0,0,1-.41-.42.41.41,0,0,1,.41-.41A.41.41,0,0,1,88,5.1.42.42,0,0,1,87.61,5.52Zm0-.67a.25.25,0,0,0-.25.25.26.26,0,0,0,.25.26.26.26,0,0,0,.26-.26A.26.26,0,0,0,87.61,4.85Z"/></g></g></svg>