<svg xmlns="http://www.w3.org/2000/svg" viewBox="0 0 67.75 13.38"><defs><style>.cls-1{fill:#b20005;}.cls-2{fill:none;}.cls-2,.cls-3{stroke:#b20005;stroke-miterlimit:10;stroke-width:0.26px;}.cls-3,.cls-4{fill:#fff;}</style></defs><g id="Layer_2" data-name="Layer 2"><g id="レイアウト"><path class="cls-1" d="M67.62,2A1.86,1.86,0,0,0,65.72.13H2A1.86,1.86,0,0,0,.13,2V4.53H67.62Z"/><path class="cls-2" d="M67.62,2A1.86,1.86,0,0,0,65.72.13H2A1.86,1.86,0,0,0,.13,2V4.53H67.62Z"/><path class="cls-3" d="M.13,4.53v6.89A1.87,1.87,0,0,0,2,13.25H65.72a1.87,1.87,0,0,0,1.9-1.83V4.53Z"/><path class="cls-1" d="M8.7,9.82c-.59.1-1.16.17-1.61.21a.2.2,0,0,0-.15.05.09.09,0,0,1-.07,0s0,0-.06-.08a2.45,2.45,0,0,1-.09-.46s0,0,0,0h.11l.61,0V9.19l-.61,0V8.73h.6c0-.13,0-.22,0-.25a.45.45,0,0,1,0-.08s0,0,0,0h0c.49,0,.53,0,.53.08a.13.13,0,0,1,0,.08s0,.06,0,.11v.08l.62,0v.48L8,9.19v.28l.75-.11Zm-.45-1.3a1.55,1.55,0,0,0-.07-.23c-.41.06-.79.11-1,.13A.17.17,0,0,0,7,8.48a.13.13,0,0,1-.07,0s0,0-.06-.06A3.78,3.78,0,0,1,6.78,8a0,0,0,0,1,0,0H7a2.94,2.94,0,0,0,.26-.54H6.82V7l.91,0,.92,0v.49H7.76A4,4,0,0,1,7.52,8l.5,0-.19-.33.42-.11a5,5,0,0,1,.45.9Zm.5.87c0-.45,0-1,0-1.47a5.24,5.24,0,0,0,0-.72.45.45,0,0,1,0-.08s0,0,0,0h0l.47,0s.05,0,.05.05a.13.13,0,0,1,0,.07s0,0,0,.63c0,.42,0,1,0,1.5Zm1.2.24c0,.41-.22.52-.77.52H9a1.35,1.35,0,0,0-.14-.51l.37,0c.22,0,.25-.05.26-.18,0-.33,0-.87,0-1.36S9.44,7,9.42,7l0-.08s0,0,0,0h0c.47,0,.57,0,.57.08A.1.1,0,0,1,10,7a.17.17,0,0,0,0,.11c0,.12,0,1,0,1.8Z"/><path class="cls-1" d="M12.94,10.15v-.1H11.72v.1h-.53c0-.2,0-.5,0-.78a2.5,2.5,0,0,1-.39.47,1.88,1.88,0,0,0-.31-.41,1.52,1.52,0,0,0,.63-1h-.56V8l1.35,0V8H11V7.59l1,0v-.1l-1.2,0V7.14l.73,0a1.7,1.7,0,0,0-.23-.24l.5-.07a2.17,2.17,0,0,1,.28.31h.31a.62.62,0,0,0,.22-.25s0-.06,0-.06h0l.46.05a0,0,0,0,1,0,0,.05.05,0,0,1,0,0,.13.13,0,0,0-.08.06l-.09.11.76,0v.39l-1.22,0v.1l1,0V8h-1v.1l1.37,0v.4H11.59s0,.06,0,.1h1.88V8.7c0,.32,0,1,0,1.45Zm0-1.31H11.7V9H13Zm0,.39H11.7v.11H13Zm0,.39H11.71v.12H13Z"/><path class="cls-1" d="M15,9.37c0-.38,0-1,0-1.54,0-.28,0-.53,0-.71A.51.51,0,0,1,15,7s0,0,0,0h0c.62,0,.62,0,.62.07a.08.08,0,0,1,0,.06,16.33,16.33,0,0,0-.11,2c0,.26.07.39.29.39a1.56,1.56,0,0,0,1.25-.92,2.24,2.24,0,0,0,.3.62,2.2,2.2,0,0,1-1.58.84A.7.7,0,0,1,15,9.39Z"/><path class="cls-1" d="M18.24,9.85A6.74,6.74,0,0,0,18.9,8h-.47l-.07-.55a2.92,2.92,0,0,0,.54,0H19A3.47,3.47,0,0,0,19.09,7h0s0,0,0-.07,0,0,0,0h0l.53.08s.05,0,.05,0l0,0s-.05.07-.06.12l-.07.29a2.71,2.71,0,0,0,.64-.17l0,.55a4.85,4.85,0,0,1-.75.13c-.19.74-.4,1.46-.61,2.09Zm3,0a4.92,4.92,0,0,1-.91.09c-.82,0-.94-.38-.94-.6A1.08,1.08,0,0,1,19.5,9l.49.07a.53.53,0,0,0-.07.23c0,.11.11.16.36.16a2.57,2.57,0,0,0,.95-.18ZM21,8.61a3,3,0,0,0-.55,0,3.33,3.33,0,0,0-.78.09l0-.52a10.14,10.14,0,0,1,1.23-.07H21Z"/><path class="cls-1" d="M22.86,10.15V10h-.41s0,.08,0,.13h-.52c0-.37,0-.85,0-1.21v-.5h1.41v.31c0,.36,0,1,0,1.4Zm-.58-1.91V7h2.45V8.24Zm.58,1.32c0-.3,0-.51,0-.66h-.42v.66Zm1.35-2.14H22.8v.37h1.41Zm.34,2.73c0-.05,0-.09,0-.13h-.49s0,.08,0,.13h-.52c0-.37,0-.85,0-1.21v-.5h1.49v.31c0,.36,0,1,0,1.4Zm0-1.25h-.49v.66h.49Z"/><path class="cls-1" d="M26.12,10.15c0-.3,0-.68,0-1.07a1.42,1.42,0,0,0-.37.15.1.1,0,0,1-.07,0h0a2.17,2.17,0,0,1-.09-.53s0,0,.07,0a1.91,1.91,0,0,0,.49-.12V7.94H26c0,.18,0,.38-.06.58a2.36,2.36,0,0,0-.38-.19,5.28,5.28,0,0,0,.09-1,.5.5,0,0,0,0-.15s0-.06,0-.08,0,0,0,0h0l.37.06a0,0,0,0,1,.05,0,.09.09,0,0,1,0,.06.14.14,0,0,0,0,.1s0,.09,0,.14h.1a3.62,3.62,0,0,0,0-.56l0-.07s0,0,.06,0h0c.48,0,.52.05.52.08a.1.1,0,0,1,0,.07.17.17,0,0,0,0,.11,3.89,3.89,0,0,0,0,.39h.22v.25a2,2,0,0,0,.28-.81v0s0-.05,0-.05h0c.44.07.47.1.47.13a.08.08,0,0,1,0,.07s-.07,0-.08.08l0,.11h1.38v.17c0,.85,0,1.63-.08,2.18,0,.39-.09.56-.75.56h-.15a1.89,1.89,0,0,0-.12-.48l.3,0c.22,0,.23,0,.24-.14.05-.47.07-1.1.07-1.71V7.7h0a3.33,3.33,0,0,1-1.11,2.41,1.39,1.39,0,0,0-.35-.39,2.83,2.83,0,0,0,1-2h-.1a2.71,2.71,0,0,1-.68,1.48,1.85,1.85,0,0,0-.33-.36l-.19.08c0,.43,0,.87,0,1.25Zm.81-1.5a1.82,1.82,0,0,0,.44-1h0a2.72,2.72,0,0,1-.36.61A1.21,1.21,0,0,0,26.7,8h-.11v.48l.34-.15Z"/><path class="cls-1" d="M31.1,9.48c0-.18,0-.32,0-.44-.23.12-.34.22-.34.33s0,.19.54.19a2.67,2.67,0,0,0,.95-.17c0,.11,0,.3,0,.46V10c-.21,0-.5.05-.79.05-.75,0-1.17-.18-1.17-.65s.41-.69.81-.87c0-.09-.05-.12-.09-.13l-.08,0c-.35,0-.67.52-.89.94L29.54,9a4.2,4.2,0,0,0,.81-1.14l-.56,0-.06-.53a2.51,2.51,0,0,0,.44,0h.38c0-.13.06-.26.08-.39v0s0,0,0-.06,0,0,0,0h0l.58.1s0,0,0,0l0,0a1,1,0,0,0-.12.27,2.9,2.9,0,0,0,.78-.18v.54a7.5,7.5,0,0,1-1,.14L30.84,8A.5.5,0,0,1,31,8a.52.52,0,0,1,.54.36A6.42,6.42,0,0,0,32.2,8s.06-.06.08-.06h0c.06.09.26.43.3.51v0s0,0-.06,0a3.27,3.27,0,0,0-.92.3c0,.17,0,.4,0,.63Z"/><path class="cls-1" d="M36.5,10.08c-.55,0-1.13,0-1.69,0s-1.13,0-1.68,0V9.63h.49V8.22l-.29.08a1.26,1.26,0,0,0-.22-.46,2.51,2.51,0,0,0,1-.31h-.83V7.1l1.28,0a.63.63,0,0,0,0-.17.45.45,0,0,1,0-.08s0,0,.05,0h0c.5,0,.54.05.54.08a.09.09,0,0,1,0,.07.16.16,0,0,0-.05.09v0l1.32,0v.44H35.5a2.56,2.56,0,0,0,1,.31,1.15,1.15,0,0,0-.21.46L36,8.23V9.64h.49Zm-2-2a3.15,3.15,0,0,0,0-.38,2.47,2.47,0,0,1-.73.44h1.94A2.58,2.58,0,0,1,35,7.71a3.24,3.24,0,0,0,0,.38Zm1,.43H34.14v.15h1.35Zm0,.48H34.14v.15h1.35Zm0,.48H34.14v.17h1.35Z"/><path class="cls-1" d="M39.81,9.05h-.92v.52h.42l1,0a2.08,2.08,0,0,0-.12.52h-.63c-1,0-1.46-.06-1.84-.47a1.51,1.51,0,0,1-.45.56,2,2,0,0,0-.35-.44,1.65,1.65,0,0,0,.6-1.16V8.48s0,0,0,0h0c.47.1.53.12.53.17s0,0,0,.07a.12.12,0,0,0-.06.08c0,.1,0,.22-.09.35a1.22,1.22,0,0,0,.48.35V8.29h-1V8H37c0-.21,0-.49,0-.68V7.15h1.27a1.09,1.09,0,0,0,0-.2.27.27,0,0,1,0-.08s0,0,0,0h0c.51,0,.6,0,.6.09s0,0,0,.06,0,0,0,.09,0,0,0,.06h1.34v.12c0,.17,0,.52,0,.77h-.31V8.3h-1v.3l.92,0Zm-.15-1.44H37.52v.22h2.14Z"/><path class="cls-1" d="M41.09,7.28s0,0,0,0h0a4.44,4.44,0,0,1,.54.15s0,0,0,0a.05.05,0,0,1,0,0,.27.27,0,0,0-.08.14,3.17,3.17,0,0,0-.12.85,2.28,2.28,0,0,0,.1.71c0,.05,0,.08.09.08a1.49,1.49,0,0,0,.53-.59,5,5,0,0,0,.31.49,4.54,4.54,0,0,1-.47.54.64.64,0,0,1-.41.17.52.52,0,0,1-.47-.34A2.89,2.89,0,0,1,41,8.46a7.59,7.59,0,0,1,.09-1.09.09.09,0,0,0,0,0Zm2.29,2.11a1.09,1.09,0,0,0,0-.18,2.3,2.3,0,0,0-.53-1.43l.52-.13a2.75,2.75,0,0,1,.56,1.61Z"/><path class="cls-1" d="M44.64,9.85A6.74,6.74,0,0,0,45.3,8h-.47l-.06-.55a2.73,2.73,0,0,0,.53,0h.11A3.47,3.47,0,0,0,45.49,7h0s0,0,0-.07,0,0,0,0h0l.53.08s.05,0,.05,0l0,0s0,.07-.06.12L46,7.48a2.71,2.71,0,0,0,.64-.17l0,.55a4.85,4.85,0,0,1-.75.13c-.19.74-.4,1.46-.61,2.09Zm3,0a4.92,4.92,0,0,1-.91.09c-.82,0-.94-.38-.94-.6A1.08,1.08,0,0,1,45.9,9l.49.07a.53.53,0,0,0-.07.23c0,.11.11.16.36.16a2.57,2.57,0,0,0,1-.18Zm-.24-1.27a3,3,0,0,0-.55,0,3.33,3.33,0,0,0-.78.09l0-.52a10.14,10.14,0,0,1,1.23-.07h.12Z"/><path class="cls-1" d="M49,9.37c0-.38,0-1,0-1.54,0-.28,0-.53,0-.71A.64.64,0,0,0,49,7s0,0,0,0h0c.62,0,.63,0,.63.07s0,0,0,.06a14.54,14.54,0,0,0-.11,2c0,.26.07.39.28.39A1.56,1.56,0,0,0,51,8.65a2.56,2.56,0,0,0,.3.62,2.2,2.2,0,0,1-1.57.84A.7.7,0,0,1,49,9.39Z"/><path class="cls-1" d="M54.7,10a2.61,2.61,0,0,0-.61-.47v0c0,.33-.35.48-.73.48s-.91-.19-.94-.55v0c0-.38.33-.57.81-.57l.31,0c0-.11,0-.24,0-.37h-.89l0-.51a3.56,3.56,0,0,0,.72.05h.17V7.87h-.11c-.28,0-.55,0-.83,0l0-.5a3.58,3.58,0,0,0,.87.08h.08a3.11,3.11,0,0,0,0-.39.56.56,0,0,0,0-.07s0,0,0,0h0L54,7s.06,0,.06,0,0,0,0,0a.25.25,0,0,0,0,.17s0,.11,0,.18a4.72,4.72,0,0,0,.77-.13v.5L54,7.85v.21a3.16,3.16,0,0,0,.73-.12v.5a5.43,5.43,0,0,1-.71.08c0,.18,0,.35,0,.52A4.8,4.8,0,0,1,55,9.5Zm-1.79-.6c0,.1.2.17.37.17s.29,0,.29-.15V9.35a1.61,1.61,0,0,0-.39-.06c-.17,0-.27.05-.27.13Z"/><path class="cls-1" d="M59,7.84a6.4,6.4,0,0,0-.9,0h-.22c0,.18,0,.36,0,.51A.94.94,0,0,1,58,8.8a1.58,1.58,0,0,1-1,1.43,1.93,1.93,0,0,0-.49-.43,1.2,1.2,0,0,0,.82-.53.33.33,0,0,1-.15,0,.59.59,0,0,1-.61-.64A.65.65,0,0,1,57.27,8h.12V7.81c-.5,0-1,.05-1.24.09L56,8s0,0-.11-.55h0s0,0,0,0a1.3,1.3,0,0,0,.17,0h.1l1.22,0c0-.12,0-.24,0-.31a.56.56,0,0,0,0-.07s0,0,0,0h0l.54,0S58,7,58,7s0,0,0,0,0,.05,0,.27l1.13,0Zm-1.6.75c0-.11-.06-.19-.16-.19s-.19.18-.19.25a.16.16,0,0,0,.16.18h0A.22.22,0,0,0,57.4,8.59Z"/><path class="cls-1" d="M60.16,10.13a.63.63,0,1,1,.63-.63A.63.63,0,0,1,60.16,10.13Zm0-1a.34.34,0,1,0,.34.34A.34.34,0,0,0,60.16,9.16Z"/><path class="cls-1" d="M8.7,9.82c-.59.1-1.16.17-1.61.21a.2.2,0,0,0-.15.05.09.09,0,0,1-.07,0s0,0-.06-.08a2.45,2.45,0,0,1-.09-.46s0,0,0,0h.11l.61,0V9.19l-.61,0V8.73h.6c0-.13,0-.22,0-.25a.45.45,0,0,1,0-.08s0,0,0,0h0c.49,0,.53,0,.53.08a.13.13,0,0,1,0,.08s0,.06,0,.11v.08l.62,0v.48L8,9.19v.28l.75-.11Zm-.45-1.3a1.55,1.55,0,0,0-.07-.23c-.41.06-.79.11-1,.13A.17.17,0,0,0,7,8.48a.13.13,0,0,1-.07,0s0,0-.06-.06A3.78,3.78,0,0,1,6.78,8a0,0,0,0,1,0,0H7a2.94,2.94,0,0,0,.26-.54H6.82V7l.91,0,.92,0v.49H7.76A4,4,0,0,1,7.52,8l.5,0-.19-.33.42-.11a5,5,0,0,1,.45.9Zm.5.87c0-.45,0-1,0-1.47a5.24,5.24,0,0,0,0-.72.45.45,0,0,1,0-.08s0,0,0,0h0l.47,0s.05,0,.05.05a.13.13,0,0,1,0,.07s0,0,0,.63c0,.42,0,1,0,1.5Zm1.2.24c0,.41-.22.52-.77.52H9a1.35,1.35,0,0,0-.14-.51l.37,0c.22,0,.25-.05.26-.18,0-.33,0-.87,0-1.36S9.44,7,9.42,7l0-.08s0,0,0,0h0c.47,0,.57,0,.57.08A.1.1,0,0,1,10,7a.17.17,0,0,0,0,.11c0,.12,0,1,0,1.8Z"/><path class="cls-1" d="M12.94,10.15v-.1H11.72v.1h-.53c0-.2,0-.5,0-.78a2.5,2.5,0,0,1-.39.47,1.88,1.88,0,0,0-.31-.41,1.52,1.52,0,0,0,.63-1h-.56V8l1.35,0V8H11V7.59l1,0v-.1l-1.2,0V7.14l.73,0a1.7,1.7,0,0,0-.23-.24l.5-.07a2.17,2.17,0,0,1,.28.31h.31a.62.62,0,0,0,.22-.25s0-.06,0-.06h0l.46.05a0,0,0,0,1,0,0,.05.05,0,0,1,0,0,.13.13,0,0,0-.08.06l-.09.11.76,0v.39l-1.22,0v.1l1,0V8h-1v.1l1.37,0v.4H11.59s0,.06,0,.1h1.88V8.7c0,.32,0,1,0,1.45Zm0-1.31H11.7V9H13Zm0,.39H11.7v.11H13Zm0,.39H11.71v.12H13Z"/><path class="cls-1" d="M15,9.37c0-.38,0-1,0-1.54,0-.28,0-.53,0-.71A.51.51,0,0,1,15,7s0,0,0,0h0c.62,0,.62,0,.62.07a.08.08,0,0,1,0,.06,16.33,16.33,0,0,0-.11,2c0,.26.07.39.29.39a1.56,1.56,0,0,0,1.25-.92,2.24,2.24,0,0,0,.3.62,2.2,2.2,0,0,1-1.58.84A.7.7,0,0,1,15,9.39Z"/><path class="cls-1" d="M18.24,9.85A6.74,6.74,0,0,0,18.9,8h-.47l-.07-.55a2.92,2.92,0,0,0,.54,0H19A3.47,3.47,0,0,0,19.09,7h0s0,0,0-.07,0,0,0,0h0l.53.08s.05,0,.05,0l0,0s-.05.07-.06.12l-.07.29a2.71,2.71,0,0,0,.64-.17l0,.55a4.85,4.85,0,0,1-.75.13c-.19.74-.4,1.46-.61,2.09Zm3,0a4.92,4.92,0,0,1-.91.09c-.82,0-.94-.38-.94-.6A1.08,1.08,0,0,1,19.5,9l.49.07a.53.53,0,0,0-.07.23c0,.11.11.16.36.16a2.57,2.57,0,0,0,.95-.18ZM21,8.61a3,3,0,0,0-.55,0,3.33,3.33,0,0,0-.78.09l0-.52a10.14,10.14,0,0,1,1.23-.07H21Z"/><path class="cls-1" d="M22.86,10.15V10h-.41s0,.08,0,.13h-.52c0-.37,0-.85,0-1.21v-.5h1.41v.31c0,.36,0,1,0,1.4Zm-.58-1.91V7h2.45V8.24Zm.58,1.32c0-.3,0-.51,0-.66h-.42v.66Zm1.35-2.14H22.8v.37h1.41Zm.34,2.73c0-.05,0-.09,0-.13h-.49s0,.08,0,.13h-.52c0-.37,0-.85,0-1.21v-.5h1.49v.31c0,.36,0,1,0,1.4Zm0-1.25h-.49v.66h.49Z"/><path class="cls-1" d="M26.12,10.15c0-.3,0-.68,0-1.07a1.42,1.42,0,0,0-.37.15.1.1,0,0,1-.07,0h0a2.17,2.17,0,0,1-.09-.53s0,0,.07,0a1.91,1.91,0,0,0,.49-.12V7.94H26c0,.18,0,.38-.06.58a2.36,2.36,0,0,0-.38-.19,5.28,5.28,0,0,0,.09-1,.5.5,0,0,0,0-.15s0-.06,0-.08,0,0,0,0h0l.37.06a0,0,0,0,1,.05,0,.09.09,0,0,1,0,.06.14.14,0,0,0,0,.1s0,.09,0,.14h.1a3.62,3.62,0,0,0,0-.56l0-.07s0,0,.06,0h0c.48,0,.52.05.52.08a.1.1,0,0,1,0,.07.17.17,0,0,0,0,.11,3.89,3.89,0,0,0,0,.39h.22v.25a2,2,0,0,0,.28-.81v0s0-.05,0-.05h0c.44.07.47.1.47.13a.08.08,0,0,1,0,.07s-.07,0-.08.08l0,.11h1.38v.17c0,.85,0,1.63-.08,2.18,0,.39-.09.56-.75.56h-.15a1.89,1.89,0,0,0-.12-.48l.3,0c.22,0,.23,0,.24-.14.05-.47.07-1.1.07-1.71V7.7h0a3.33,3.33,0,0,1-1.11,2.41,1.39,1.39,0,0,0-.35-.39,2.83,2.83,0,0,0,1-2h-.1a2.71,2.71,0,0,1-.68,1.48,1.85,1.85,0,0,0-.33-.36l-.19.08c0,.43,0,.87,0,1.25Zm.81-1.5a1.82,1.82,0,0,0,.44-1h0a2.72,2.72,0,0,1-.36.61A1.21,1.21,0,0,0,26.7,8h-.11v.48l.34-.15Z"/><path class="cls-1" d="M31.1,9.48c0-.18,0-.32,0-.44-.23.12-.34.22-.34.33s0,.19.54.19a2.67,2.67,0,0,0,.95-.17c0,.11,0,.3,0,.46V10c-.21,0-.5.05-.79.05-.75,0-1.17-.18-1.17-.65s.41-.69.81-.87c0-.09-.05-.12-.09-.13l-.08,0c-.35,0-.67.52-.89.94L29.54,9a4.2,4.2,0,0,0,.81-1.14l-.56,0-.06-.53a2.51,2.51,0,0,0,.44,0h.38c0-.13.06-.26.08-.39v0s0,0,0-.06,0,0,0,0h0l.58.1s0,0,0,0l0,0a1,1,0,0,0-.12.27,2.9,2.9,0,0,0,.78-.18v.54a7.5,7.5,0,0,1-1,.14L30.84,8A.5.5,0,0,1,31,8a.52.52,0,0,1,.54.36A6.42,6.42,0,0,0,32.2,8s.06-.06.08-.06h0c.06.09.26.43.3.51v0s0,0-.06,0a3.27,3.27,0,0,0-.92.3c0,.17,0,.4,0,.63Z"/><path class="cls-1" d="M36.5,10.08c-.55,0-1.13,0-1.69,0s-1.13,0-1.68,0V9.63h.49V8.22l-.29.08a1.26,1.26,0,0,0-.22-.46,2.51,2.51,0,0,0,1-.31h-.83V7.1l1.28,0a.63.63,0,0,0,0-.17.45.45,0,0,1,0-.08s0,0,.05,0h0c.5,0,.54.05.54.08a.09.09,0,0,1,0,.07.16.16,0,0,0-.05.09v0l1.32,0v.44H35.5a2.56,2.56,0,0,0,1,.31,1.15,1.15,0,0,0-.21.46L36,8.23V9.64h.49Zm-2-2a3.15,3.15,0,0,0,0-.38,2.47,2.47,0,0,1-.73.44h1.94A2.58,2.58,0,0,1,35,7.71a3.24,3.24,0,0,0,0,.38Zm1,.43H34.14v.15h1.35Zm0,.48H34.14v.15h1.35Zm0,.48H34.14v.17h1.35Z"/><path class="cls-1" d="M39.81,9.05h-.92v.52h.42l1,0a2.08,2.08,0,0,0-.12.52h-.63c-1,0-1.46-.06-1.84-.47a1.51,1.51,0,0,1-.45.56,2,2,0,0,0-.35-.44,1.65,1.65,0,0,0,.6-1.16V8.48s0,0,0,0h0c.47.1.53.12.53.17s0,0,0,.07a.12.12,0,0,0-.06.08c0,.1,0,.22-.09.35a1.22,1.22,0,0,0,.48.35V8.29h-1V8H37c0-.21,0-.49,0-.68V7.15h1.27a1.09,1.09,0,0,0,0-.2.27.27,0,0,1,0-.08s0,0,0,0h0c.51,0,.6,0,.6.09s0,0,0,.06,0,0,0,.09,0,0,0,.06h1.34v.12c0,.17,0,.52,0,.77h-.31V8.3h-1v.3l.92,0Zm-.15-1.44H37.52v.22h2.14Z"/><path class="cls-1" d="M41.09,7.28s0,0,0,0h0a4.44,4.44,0,0,1,.54.15s0,0,0,0a.05.05,0,0,1,0,0,.27.27,0,0,0-.08.14,3.17,3.17,0,0,0-.12.85,2.28,2.28,0,0,0,.1.71c0,.05,0,.08.09.08a1.49,1.49,0,0,0,.53-.59,5,5,0,0,0,.31.49,4.54,4.54,0,0,1-.47.54.64.64,0,0,1-.41.17.52.52,0,0,1-.47-.34A2.89,2.89,0,0,1,41,8.46a7.59,7.59,0,0,1,.09-1.09.09.09,0,0,0,0,0Zm2.29,2.11a1.09,1.09,0,0,0,0-.18,2.3,2.3,0,0,0-.53-1.43l.52-.13a2.75,2.75,0,0,1,.56,1.61Z"/><path class="cls-1" d="M44.64,9.85A6.74,6.74,0,0,0,45.3,8h-.47l-.06-.55a2.73,2.73,0,0,0,.53,0h.11A3.47,3.47,0,0,0,45.49,7h0s0,0,0-.07,0,0,0,0h0l.53.08s.05,0,.05,0l0,0s0,.07-.06.12L46,7.48a2.71,2.71,0,0,0,.64-.17l0,.55a4.85,4.85,0,0,1-.75.13c-.19.74-.4,1.46-.61,2.09Zm3,0a4.92,4.92,0,0,1-.91.09c-.82,0-.94-.38-.94-.6A1.08,1.08,0,0,1,45.9,9l.49.07a.53.53,0,0,0-.07.23c0,.11.11.16.36.16a2.57,2.57,0,0,0,1-.18Zm-.24-1.27a3,3,0,0,0-.55,0,3.33,3.33,0,0,0-.78.09l0-.52a10.14,10.14,0,0,1,1.23-.07h.12Z"/><path class="cls-1" d="M49,9.37c0-.38,0-1,0-1.54,0-.28,0-.53,0-.71A.64.64,0,0,0,49,7s0,0,0,0h0c.62,0,.63,0,.63.07s0,0,0,.06a14.54,14.54,0,0,0-.11,2c0,.26.07.39.28.39A1.56,1.56,0,0,0,51,8.65a2.56,2.56,0,0,0,.3.62,2.2,2.2,0,0,1-1.57.84A.7.7,0,0,1,49,9.39Z"/><path class="cls-1" d="M54.7,10a2.61,2.61,0,0,0-.61-.47v0c0,.33-.35.48-.73.48s-.91-.19-.94-.55v0c0-.38.33-.57.81-.57l.31,0c0-.11,0-.24,0-.37h-.89l0-.51a3.56,3.56,0,0,0,.72.05h.17V7.87h-.11c-.28,0-.55,0-.83,0l0-.5a3.58,3.58,0,0,0,.87.08h.08a3.11,3.11,0,0,0,0-.39.56.56,0,0,0,0-.07s0,0,0,0h0L54,7s.06,0,.06,0,0,0,0,0a.25.25,0,0,0,0,.17s0,.11,0,.18a4.72,4.72,0,0,0,.77-.13v.5L54,7.85v.21a3.16,3.16,0,0,0,.73-.12v.5a5.43,5.43,0,0,1-.71.08c0,.18,0,.35,0,.52A4.8,4.8,0,0,1,55,9.5Zm-1.79-.6c0,.1.2.17.37.17s.29,0,.29-.15V9.35a1.61,1.61,0,0,0-.39-.06c-.17,0-.27.05-.27.13Z"/><path class="cls-1" d="M59,7.84a6.4,6.4,0,0,0-.9,0h-.22c0,.18,0,.36,0,.51A.94.94,0,0,1,58,8.8a1.58,1.58,0,0,1-1,1.43,1.93,1.93,0,0,0-.49-.43,1.2,1.2,0,0,0,.82-.53.33.33,0,0,1-.15,0,.59.59,0,0,1-.61-.64A.65.65,0,0,1,57.27,8h.12V7.81c-.5,0-1,.05-1.24.09L56,8s0,0-.11-.55h0s0,0,0,0a1.3,1.3,0,0,0,.17,0h.1l1.22,0c0-.12,0-.24,0-.31a.56.56,0,0,0,0-.07s0,0,0,0h0l.54,0S58,7,58,7s0,0,0,0,0,.05,0,.27l1.13,0Zm-1.6.75c0-.11-.06-.19-.16-.19s-.19.18-.19.25a.16.16,0,0,0,.16.18h0A.22.22,0,0,0,57.4,8.59Z"/><path class="cls-1" d="M60.16,10.13a.63.63,0,1,1,.63-.63A.63.63,0,0,1,60.16,10.13Zm0-1a.34.34,0,1,0,.34.34A.34.34,0,0,0,60.16,9.16Z"/><path class="cls-4" d="M30.69,1.74a.29.29,0,0,0-.33-.24c-.19,0-.29.1-.29.21s.06.16.23.21l.24.07c.32.1.45.25.45.51s-.21.47-.61.47a.59.59,0,0,1-.64-.54H30a.36.36,0,0,0,.36.29c.21,0,.33-.09.33-.22s-.1-.21-.28-.27l-.25-.07c-.29-.09-.39-.22-.39-.45s.23-.45.57-.45a.54.54,0,0,1,.6.48Z"/><path class="cls-4" d="M31.58,2.93V1.54h-.46V1.3h1.2v.24h-.47V2.93Z"/><path class="cls-4" d="M32.53,2.93V1.3H33.6v.24h-.8V2h.67V2.2H32.8v.49h.85v.24Z"/><path class="cls-4" d="M33.89,2.93V1.3h.63a.51.51,0,0,1,.56.51.51.51,0,0,1-.57.53h-.35v.59Zm.6-.83a.28.28,0,0,0,.31-.28c0-.19-.13-.28-.32-.28h-.32V2.1Z"/><path class="cls-4" d="M37,3.21a1.1,1.1,0,1,1,1.09-1.1A1.09,1.09,0,0,1,37,3.21Zm-.54-.84a.52.52,0,0,0,.54.48c.34,0,.52-.19.52-.45a.36.36,0,0,0-.2-.34.32.32,0,0,0,.16-.29c0-.24-.19-.39-.48-.39a.47.47,0,0,0-.49.43h.28a.18.18,0,0,1,.2-.17c.12,0,.2.05.2.15s-.08.15-.25.15h-.16V2.2H37c.18,0,.27.09.27.2s-.1.19-.24.19a.26.26,0,0,1-.26-.22Z"/></g></g></svg>