<svg xmlns="http://www.w3.org/2000/svg" viewBox="0 0 99.7 8.46"><defs><style>.cls-1{fill:#ad0005;}.cls-2{fill:none;stroke:#ad0005;stroke-miterlimit:10;stroke-width:0.3px;}.cls-3{fill:#fff;}</style></defs><g id="Layer_2" data-name="Layer 2"><g id="レイアウト"><path class="cls-1" d="M1.57.15A1.49,1.49,0,0,0,.15,1.7V6.76A1.48,1.48,0,0,0,1.57,8.31H17V.15Z"/><path class="cls-2" d="M1.57.15A1.49,1.49,0,0,0,.15,1.7V6.76A1.48,1.48,0,0,0,1.57,8.31H17V.15Z"/><path class="cls-3" d="M98.13.15H17V8.31H98.13a1.49,1.49,0,0,0,1.42-1.55V1.7A1.5,1.5,0,0,0,98.13.15Z"/><path class="cls-2" d="M98.13.15H17V8.31H98.13a1.49,1.49,0,0,0,1.42-1.55V1.7A1.5,1.5,0,0,0,98.13.15Z"/><path class="cls-1" d="M36.47,5.29A1.52,1.52,0,0,0,36,5V5c0,.22-.25.33-.51.33S35,5.2,35,5v0c0-.23.2-.37.51-.37l.24,0c0-.11,0-.22,0-.34h-.62l0-.31a2.43,2.43,0,0,0,.46,0h.17V3.75h-.18l-.47,0,0-.31a2.12,2.12,0,0,0,.56.06h.1c0-.14,0-.24,0-.29s0,0,0-.06h0c.32,0,.35,0,.35.05a0,0,0,0,1,0,0s0,0,0,.26a3,3,0,0,0,.52-.08v.3L36,3.74V4a2.48,2.48,0,0,0,.5-.08v.3l-.51,0,0,.44a3.38,3.38,0,0,1,.63.32Zm-.75-.37s0,0,0-.06a1.18,1.18,0,0,0-.29-.05c-.13,0-.2,0-.2.11v0c0,.07.13.11.25.11s.25,0,.25-.13Z"/><path class="cls-1" d="M39.56,3.76a3.89,3.89,0,0,0-.59,0h-.24c0,.11,0,.23,0,.34a.59.59,0,0,1,.1.36,1.15,1.15,0,0,1-.67,1,1,1,0,0,0-.29-.24.82.82,0,0,0,.62-.5.35.35,0,0,1-.23.07.38.38,0,0,1-.38-.43.42.42,0,0,1,.42-.48l.15,0V3.74a8.16,8.16,0,0,0-.91.06.68.68,0,0,0-.13,0s-.05-.16-.07-.33h0s0,0,0,0l.12,0h.07l.89,0c0-.11,0-.21,0-.27s0,0,0,0,0,0,0,0h0c.31,0,.34,0,.34,0a0,0,0,0,1,0,0,.52.52,0,0,0,0,.25l.83,0Zm-1.25.75c.09,0,.14-.13.14-.22a.13.13,0,0,0-.14-.15c-.09,0-.15.1-.15.21a.14.14,0,0,0,.14.16Zm.9-1.13A3,3,0,0,0,39,3.12l.15-.1a2.72,2.72,0,0,1,.24.24Zm.26-.14A1.75,1.75,0,0,0,39.23,3l.15-.1.24.22Z"/><path class="cls-1" d="M40.37,5.24a1.78,1.78,0,0,1-.18-.85,9.78,9.78,0,0,1,.12-1.1v0s0,0,0,0l.34.12a0,0,0,0,1,0,0s0,0,0,0a2.19,2.19,0,0,0-.22,1,1.36,1.36,0,0,0,0,.29l.19-.39.18.14a1.35,1.35,0,0,0-.19.68v.06Zm1.71-.07A2.25,2.25,0,0,0,41.84,5c0,.2-.26.29-.49.29s-.5-.11-.51-.34v0c0-.23.2-.36.49-.36l.21,0c0-.21,0-.46,0-.66h-.63l0-.3a1.39,1.39,0,0,0,.41,0h.22c0-.12,0-.24,0-.38a.43.43,0,0,0,0-.05h0c.36,0,.36,0,.36,0a.08.08,0,0,1,0,0s0,.08,0,.34a1.6,1.6,0,0,0,.39-.11l0,.31-.41.07c0,.23,0,.52,0,.77a2.08,2.08,0,0,1,.47.27Zm-.53-.35a.62.62,0,0,0-.25-.05c-.11,0-.18,0-.18.11h0c0,.06.11.1.22.1s.21,0,.21-.13Z"/><path class="cls-1" d="M43.25,5.42a5.89,5.89,0,0,0-.63-.68l.21-.18a6.31,6.31,0,0,1,.67.62Z"/><path class="cls-1" d="M46.89,4.27a1.18,1.18,0,0,0-.46.11c0,.21,0,.41,0,.62s-.14.26-.32.26-.52-.1-.52-.38h0c0-.21.3-.46.57-.63V3.86l-.33,0h-.11l0-.29h.17l.31,0V3.23a.56.56,0,0,0,0-.07s0,0,0,0h0l.32,0s0,0,0,0,0,0,0,0a.65.65,0,0,0,0,.3,2.58,2.58,0,0,0,.38-.1l0,.31-.38.07V4.1A1.39,1.39,0,0,1,46.89,4H47a.63.63,0,0,1,.66.62.59.59,0,0,1-.6.62.43.43,0,0,1-.46-.44.62.62,0,0,1,0-.13,1.63,1.63,0,0,0,.3-.07.45.45,0,0,0,0,.17A.16.16,0,0,0,47,5a.31.31,0,0,0,.31-.34.35.35,0,0,0-.38-.35Zm-1,.59c0,.07.15.11.19.11s.06,0,.06-.08,0-.21,0-.33C46,4.65,45.88,4.78,45.88,4.86ZM47.5,4.1A2.16,2.16,0,0,0,47,3.62l.19-.2a2.94,2.94,0,0,1,.57.46Z"/><path class="cls-1" d="M50.34,3.47H48.65a2.5,2.5,0,0,1-.46.61A.83.83,0,0,0,48,3.81a1.4,1.4,0,0,0,.45-.69c0-.05,0-.08,0-.08h0l.26.05a0,0,0,0,1,0,0,.05.05,0,0,1,0,0l0,.05h.38l1.21,0Zm-.89,1.9A5.63,5.63,0,0,0,49,5a2.17,2.17,0,0,1-.71.4.86.86,0,0,0-.16-.26,1.93,1.93,0,0,0,.66-.32,5.31,5.31,0,0,0-.53-.38l.19-.18a5.39,5.39,0,0,1,.54.38.88.88,0,0,0,.2-.36s0,0,0,0,.31.08.31.14,0,0,0,0-.06,0-.07,0a1.56,1.56,0,0,1-.23.34,5,5,0,0,1,.42.37Zm.22-1.22H48.35V3.9H50v.3c0,.53.06.71.14.82l.06,0c.08,0,.08-.4.08-.49a.86.86,0,0,0,.26.16c0,.41-.11.66-.33.66a.4.4,0,0,1-.3-.19,1.64,1.64,0,0,1-.19-1Zm.46-.35-.77,0-.73,0V3.55l.73,0,.77,0Z"/><path class="cls-1" d="M51.22,5.41V5h-.48V4.75l.49,0V4.63h-.36v-1h.36V3.5h-.45V3.26l.44,0a.54.54,0,0,0,0-.16.15.15,0,0,1,0-.06s0,0,0,0h0c.26,0,.28,0,.28.06l0,0a.16.16,0,0,0,0,.09v0h.41V3.14H53a1.55,1.55,0,0,1-.34.73,1.79,1.79,0,0,0,.48.17.68.68,0,0,0-.13.26,1.81,1.81,0,0,1-.54-.26,2.25,2.25,0,0,1-.56.28.75.75,0,0,0-.11-.24v.54h-.36v.14l.45,0V5h-.45c0,.14,0,.29,0,.42Zm0-1.57h-.16V4h.16Zm0,.38h-.16v.2h.16Zm.38-.38h-.16V4h.16Zm0,.38h-.16v.2h.16Zm.21-.17a1.53,1.53,0,0,0,.46-.17A1.76,1.76,0,0,1,52,3.39h-.08v.12h-.45v.13h.36Zm1.34,1.28H51.81V5.07h.54V4.75H52V4.5l.4,0a1.21,1.21,0,0,0,0-.25.18.18,0,0,1,0-.06h0c.29,0,.3,0,.3,0a.14.14,0,0,1,0,.06.29.29,0,0,0,0,.1v.11l.43,0v.26h-.43v.33h.56Zm-.69-1.61a.75.75,0,0,0,.21-.34h-.43A1.12,1.12,0,0,0,52.48,3.72Z"/><path class="cls-1" d="M53.85,5.26a2,2,0,0,1-.15-.79,10.14,10.14,0,0,1,.14-1.16v0s0,0,0,0h0a1.88,1.88,0,0,1,.33.13l0,0A2.31,2.31,0,0,0,54,4.51a1.55,1.55,0,0,0,0,.22l.21-.39.16.14a1.31,1.31,0,0,0-.2.71v0Zm.88-.72a.3.3,0,0,0,0,.15c0,.13.17.17.36.17a2.7,2.7,0,0,0,.67-.1,1.35,1.35,0,0,0,0,.29v.06a3.2,3.2,0,0,1-.52,0c-.27,0-.74,0-.74-.43a.66.66,0,0,1,0-.23Zm.87-.75a2.13,2.13,0,0,0-.39,0,3.34,3.34,0,0,0-.69.07V3.54a5.4,5.4,0,0,1,.83-.06h.25Z"/><path class="cls-1" d="M57.69,4.27a1.18,1.18,0,0,0-.46.11c0,.21,0,.41,0,.62s-.14.26-.32.26-.52-.1-.52-.38h0c0-.21.3-.46.57-.63V3.86l-.33,0h-.11l0-.29h.17l.31,0V3.23a.56.56,0,0,0,0-.07s0,0,0,0h0l.32,0s0,0,0,0,0,0,0,0a.65.65,0,0,0,0,.3,2.58,2.58,0,0,0,.38-.1l0,.31-.37.07a2.62,2.62,0,0,0,0,.27A1.39,1.39,0,0,1,57.69,4h.06a.63.63,0,0,1,.66.62.59.59,0,0,1-.6.62.43.43,0,0,1-.46-.44.62.62,0,0,1,0-.13,1.46,1.46,0,0,0,.3-.07.45.45,0,0,0,0,.17A.16.16,0,0,0,57.8,5a.31.31,0,0,0,.31-.34.35.35,0,0,0-.38-.35Zm-1,.59c0,.07.15.11.19.11s.06,0,.06-.08,0-.21,0-.33C56.83,4.65,56.68,4.78,56.68,4.86ZM58.3,4.1a2.16,2.16,0,0,0-.55-.48l.19-.2a2.94,2.94,0,0,1,.57.46Z"/><path class="cls-1" d="M59,5.41c0-.47,0-1.32,0-1.83V3.15h1v1h-.68c0,.43,0,.91,0,1.27Zm.71-2h-.42v.17h.42Zm0,.36h-.42v.19h.42Zm.14,1.32a.71.71,0,0,1,0,.15h-.29c0-.24,0-.61,0-.79V4.29h1v.76Zm.43-.53h-.43v.29h.43Zm.59-.38h-.73v-1h1V5c0,.28-.06.37-.45.37h-.18a1.09,1.09,0,0,0-.1-.29h.25c.18,0,.21,0,.21-.12Zm0-.77h-.47v.17h.47Zm0,.36h-.47v.19h.47Z"/><path class="cls-1" d="M61.86,3.38s0,0,0,0h0a1.41,1.41,0,0,1,.32.09,0,0,0,0,1,0,0s0,0,0,0a.21.21,0,0,0-.06.1,2.21,2.21,0,0,0-.09.62c0,.25.07.63.17.63s.35-.36.4-.44a1.27,1.27,0,0,0,.18.29,2.37,2.37,0,0,1-.31.36.48.48,0,0,1-.29.12c-.36,0-.43-.61-.43-1a6.14,6.14,0,0,1,.06-.78V3.38Zm1.68,1.45V4.71a1.6,1.6,0,0,0-.36-1l.3-.08a2,2,0,0,1,.38,1.1Z"/><path class="cls-1" d="M66.07,4.11H64.83v-.2l-.42.19a.77.77,0,0,0-.17-.28,1.64,1.64,0,0,0,1.05-.71s0-.06,0-.06h0l.3.08s0,0,0,0,0,0,0,0l0,0a2.29,2.29,0,0,0,1.09.57.84.84,0,0,0-.16.28,4.7,4.7,0,0,1-.45-.17ZM66,5.41V5.26H64.9a.81.81,0,0,1,0,.15H64.6c0-.26,0-.74,0-1V4.33h1.7v.15c0,.23,0,.67,0,.93ZM64.9,4.6V5H66V4.6Zm.52-1.16a1.66,1.66,0,0,1-.47.4h1A2.24,2.24,0,0,1,65.42,3.44Z"/><path class="cls-1" d="M68.31,5.29A.93.93,0,0,0,68.16,5l.23,0c.47,0,.65-.29.65-.55a.37.37,0,0,0-.4-.4,1.25,1.25,0,0,0-.76.36v.2a6.1,6.1,0,0,0,.05.77l-.34,0c0-.21,0-.44,0-.69a2.24,2.24,0,0,0-.23.34c0,.06-.06.11-.07.11a1.91,1.91,0,0,1-.22-.3s0,0,.08-.08a2.49,2.49,0,0,0,.46-.68,1.09,1.09,0,0,0,0-.18,2.32,2.32,0,0,0-.35.14h0s0,0-.1-.33h0s0,0,0,0h.07a1.91,1.91,0,0,0,.42-.06c0-.15,0-.29,0-.38v0a.54.54,0,0,0,0-.08s0,0,0,0h0c.37,0,.37,0,.37,0a0,0,0,0,1,0,0s0,0-.08.33c0,0,0,0,0,0,.17.15.19.18.19.19s0,0-.07.06A1.58,1.58,0,0,0,67.9,4v0a1.24,1.24,0,0,1,.76-.31.66.66,0,0,1,.69.69c0,.41-.3.86-1,.86Z"/><path class="cls-1" d="M71.69,5.16a4.63,4.63,0,0,1-.65,0c-.44,0-.78,0-.78-.46v0c0-.14,0-.36,0-.59a2,2,0,0,0-.46.07l0,0,0,0h0c0-.06,0-.22-.07-.3h0s0,0,0,0h.11l.46,0c0-.18,0-.34,0-.44a.54.54,0,0,0,0-.08s0,0,0,0h0l.34,0s0,0,0,0l0,0s0,0-.06.42l.61,0a3.77,3.77,0,0,0,0-.47s0-.06,0-.08,0,0,0,0h0c.37,0,.38,0,.38.06l0,0s0,.07,0,.44L72,3.68V4H72l-.5,0c0,.07,0,.14,0,.23s0,.43-.48.43H70.9a1.13,1.13,0,0,0-.09-.34l.24,0c.11,0,.11,0,.11-.18V4l-.62,0v.64c0,.11,0,.17.41.17a2.68,2.68,0,0,0,.78-.1,1.76,1.76,0,0,0,0,.34Z"/><path class="cls-1" d="M73.26,5.41c0-.75,0-1.62,0-2l-.89,0V3.16h2.35v.31l-1.16,0v.36c0,.43,0,1.06,0,1.6Zm1.11-.74a3.76,3.76,0,0,0-.77-.61l.2-.21a5.82,5.82,0,0,1,.81.58Z"/><path class="cls-1" d="M77,4.7a1.21,1.21,0,0,0-.65-.18c-.29,0-.52.1-.52.25s.39.24.54.24A1.73,1.73,0,0,0,77,4.89a1.48,1.48,0,0,0,0,.31v0a3.09,3.09,0,0,1-.58.06c-.37,0-.86-.09-.86-.54s.36-.51.76-.51l.27,0a3.59,3.59,0,0,1-.25-.38,4.89,4.89,0,0,1-.85.08l-.08-.31.23,0a4,4,0,0,0,.56,0L76,3.32s0-.06,0-.07h0l.33-.11s0,0,0,0v0a1.44,1.44,0,0,0,.13.39A1.76,1.76,0,0,0,77,3.36l.06.32a3.8,3.8,0,0,1-.51.16,2,2,0,0,0,.59.61Z"/><path class="cls-1" d="M78.06,3.38s0,0,0,0h0a1.41,1.41,0,0,1,.32.09,0,0,0,0,1,0,0s0,0,0,0a.21.21,0,0,0-.06.1,2.21,2.21,0,0,0-.09.62c0,.25.07.63.17.63s.35-.36.4-.44a1.75,1.75,0,0,0,.18.29,2.37,2.37,0,0,1-.31.36.48.48,0,0,1-.29.12c-.36,0-.43-.61-.43-1a6.14,6.14,0,0,1,.06-.78V3.38Zm1.68,1.45V4.71a1.6,1.6,0,0,0-.36-1l.3-.08a2.06,2.06,0,0,1,.39,1.1Z"/><path class="cls-1" d="M80.86,5.37A.41.41,0,0,1,80.45,5a.41.41,0,0,1,.41-.42.42.42,0,0,1,.42.42A.41.41,0,0,1,80.86,5.37Zm0-.67a.26.26,0,1,0,.26.26A.26.26,0,0,0,80.86,4.7Z"/><path class="cls-3" d="M4,3.35C3.92,3.09,3.74,3,3.45,3S3,3.13,3,3.3s.09.26.36.34l.37.11c.49.14.71.39.71.78s-.34.74-1,.74a.93.93,0,0,1-1-.84h.44a.56.56,0,0,0,.56.45c.32,0,.5-.14.5-.34s-.14-.33-.43-.42L3.19,4c-.46-.14-.61-.34-.61-.7s.35-.7.88-.7a.83.83,0,0,1,.93.74Z"/><path class="cls-3" d="M5.38,5.21V3.05H4.66V2.67H6.52v.38H5.8V5.21Z"/><path class="cls-3" d="M6.87,5.21V2.67H8.53V3H7.28V3.7h1v.37h-1v.76H8.6v.38Z"/><path class="cls-3" d="M9,5.21V2.67h1a.8.8,0,0,1,.88.8.79.79,0,0,1-.88.82H9.4v.92Zm.92-1.29a.43.43,0,0,0,.49-.44c0-.3-.21-.44-.5-.44H9.4v.88Z"/><path class="cls-3" d="M12.72,5.64a1.71,1.71,0,0,1,0-3.41,1.71,1.71,0,1,1,0,3.41ZM13,2.86h-.34a.5.5,0,0,1-.5.27v.33h.39V5H13Z"/></g></g></svg>