<svg xmlns="http://www.w3.org/2000/svg" viewBox="0 0 67.75 17.37"><defs><style>.cls-1{fill:#b20005;}.cls-2{fill:none;}.cls-2,.cls-3{stroke:#b20005;stroke-miterlimit:10;stroke-width:0.26px;}.cls-3,.cls-4{fill:#fff;}</style></defs><g id="Layer_2" data-name="Layer 2"><g id="レイアウト"><path class="cls-1" d="M67.62,2A1.86,1.86,0,0,0,65.72.13H2A1.86,1.86,0,0,0,.13,2V4.53H67.62Z"/><path class="cls-2" d="M67.62,2A1.86,1.86,0,0,0,65.72.13H2A1.86,1.86,0,0,0,.13,2V4.53H67.62Z"/><path class="cls-3" d="M.13,4.53V15.42A1.86,1.86,0,0,0,2,17.24H65.72a1.86,1.86,0,0,0,1.9-1.82V4.53Z"/><path class="cls-1" d="M21.7,10a2.61,2.61,0,0,0-.61-.47v0c0,.33-.35.48-.73.48s-.91-.19-.94-.55v0c0-.38.33-.57.81-.57l.31,0c0-.11,0-.24,0-.37h-.89l0-.51a3.73,3.73,0,0,0,.73.05h.17V7.87h-.12c-.27,0-.55,0-.82,0l0-.5a3.58,3.58,0,0,0,.87.08h.08a3.11,3.11,0,0,0,0-.39s0-.06,0-.08h0L21,7s.06,0,.06,0,0,0,0,0a.33.33,0,0,0,0,.16,1.28,1.28,0,0,1,0,.19,4.72,4.72,0,0,0,.77-.13v.49a7.89,7.89,0,0,1-.79.09v.21a4,4,0,0,0,.73-.12v.5a5.64,5.64,0,0,1-.71.08L21,9A4.16,4.16,0,0,1,22,9.5Zm-1.79-.61c0,.11.2.18.37.18s.29,0,.29-.15V9.35a1.61,1.61,0,0,0-.39-.06c-.18,0-.27.05-.27.13Z"/><path class="cls-1" d="M26,7.86a6.57,6.57,0,0,0-.91,0h-.21c0,.17,0,.35,0,.51a.89.89,0,0,1,.12.49,1.58,1.58,0,0,1-1,1.42,2.14,2.14,0,0,0-.49-.43,1.16,1.16,0,0,0,.82-.52l-.15,0a.58.58,0,0,1-.61-.63A.66.66,0,0,1,24.27,8h.12V7.83a10.94,10.94,0,0,0-1.24.08C23.06,7.93,23,8,23,8s0,0-.11-.56h0s0,0,0,0l.17,0h.1l1.22,0c0-.13,0-.25,0-.32s0,0,0-.07h0l.54,0S25,7,25,7a.08.08,0,0,1,0,0s0,0,0,.28l1.13,0Zm-1.61.74c0-.1-.05-.18-.15-.18s-.19.18-.19.24a.16.16,0,0,0,.16.18h0A.24.24,0,0,0,24.39,8.6Zm1.06-1.29a2.09,2.09,0,0,0-.36-.37l.25-.17a4,4,0,0,1,.36.35Zm.46-.14a3.06,3.06,0,0,0-.36-.36l.23-.17c.13.11.26.24.37.35Z"/><path class="cls-1" d="M27.11,9.94a2.74,2.74,0,0,1-.26-1.26A15.35,15.35,0,0,1,27,7.14v0s0,0,0,0l.58.2a.05.05,0,0,1,0,0,.05.05,0,0,1,0,0,2.94,2.94,0,0,0-.31,1.41c0,.08,0,.15,0,.21l.22-.43.25.2a1.84,1.84,0,0,0-.24.93,1.55,1.55,0,0,0,0,.22Zm2.39-.09a3.65,3.65,0,0,0-.3-.27c-.06.25-.38.37-.71.37s-.75-.16-.77-.5v0c0-.38.28-.61.71-.61l.25,0c0-.24,0-.51,0-.75l-.4,0-.46,0,0-.51a2.94,2.94,0,0,0,.59,0h.27l0-.52s0-.06,0-.08h0c.54,0,.61,0,.61.06s0,0,0,.05,0,.09-.06.46a1.64,1.64,0,0,0,.55-.16l0,.54a4.19,4.19,0,0,1-.57.1c0,.29,0,.64,0,.95a3,3,0,0,1,.67.42Zm-.8-.49a.22.22,0,0,0,0-.08.81.81,0,0,0-.32-.06c-.14,0-.23,0-.23.14s.15.15.3.15.26,0,.26-.15Z"/><path class="cls-1" d="M31.21,10.14a8.08,8.08,0,0,0-.92-1l.37-.32a11.91,11.91,0,0,1,1,.92Z"/><path class="cls-1" d="M35.62,9.57a.42.42,0,0,1-.45.48c-.14,0-.86-.11-.86-.65V9.35c0-.33.32-.6.84-.89V8.07l-.54,0h-.07l-.07-.49h.23l.45,0V7.1a.51.51,0,0,1,0-.09l0,0h0l.54,0s0,0,0,0a.14.14,0,0,1,0,.06s0,.09-.07.4a4.5,4.5,0,0,0,.5-.13l0,.51-.5.1a2.26,2.26,0,0,0,0,.26,2.18,2.18,0,0,1,.57-.08.94.94,0,0,1,1,.91.84.84,0,0,1-.82.88.61.61,0,0,1-.64-.64,1.65,1.65,0,0,1,0-.21A2.13,2.13,0,0,0,36.25,9a.85.85,0,0,0,0,.25c0,.15.08.21.17.21a.33.33,0,0,0,.32-.37c0-.24-.17-.44-.54-.44a1.55,1.55,0,0,0-.54.1Zm-.8-.23c0,.11.14.18.21.18s.09,0,.09-.12,0-.24,0-.4C35,9.07,34.82,9.25,34.82,9.34Zm2.27-1a3.88,3.88,0,0,0-.83-.72l.33-.33a4.14,4.14,0,0,1,.86.69Z"/><path class="cls-1" d="M39.77,10.12a4.52,4.52,0,0,0-.56-.51,2.77,2.77,0,0,1-1,.51A1,1,0,0,0,38,9.66a2.24,2.24,0,0,0,.82-.37,4,4,0,0,0-.69-.42l.32-.33a4.9,4.9,0,0,1,.73.42,1.2,1.2,0,0,0,.29-.41.07.07,0,0,1,0-.05c-.37,0-.81,0-1.17,0V8.13l-.21.21a1.58,1.58,0,0,0-.24-.47,1.53,1.53,0,0,0,.57-.93c0-.07,0-.09,0-.09h0c.53.05.53.09.53.12S39,7,39,7l-.05,0c.48,0,1.44,0,2.17,0V7.5c-.61,0-1.41,0-1.93,0h-.41a2.22,2.22,0,0,1-.38.58c.49,0,1.26,0,1.75,0h.48v.39a2.49,2.49,0,0,0,.11,1s0,.06.05.06.06-.3.06-.41V9a1.7,1.7,0,0,0,.46.24c0,.58-.11,1-.49,1a.57.57,0,0,1-.48-.31,2.45,2.45,0,0,1-.22-1.32v0h-.54c.46.17.49.2.49.24s0,0-.06.06a.11.11,0,0,0-.08,0,2.58,2.58,0,0,1-.33.41,6.59,6.59,0,0,1,.57.44Zm1-2.13H38.71V7.56l1,0,1.08,0Z"/><path class="cls-1" d="M45,10.06H43.12V9.63h-.45c0,.18,0,.36,0,.53h-.45V9.62l-.62,0V9.2l.31,0h.32V9.1h-.49V7.64h.49V7.52l-.59,0V7.12h.58a.64.64,0,0,0,0-.2.23.23,0,0,1,0-.07s0,0,0,0h0a3.11,3.11,0,0,1,.43,0s0,0,0,0a.12.12,0,0,1,0,.08.12.12,0,0,0,0,.11v0l.52,0V7h1.68a2.34,2.34,0,0,1-.46,1,2.73,2.73,0,0,0,.59.19,1.17,1.17,0,0,0-.21.48,3.15,3.15,0,0,1-.74-.34,2.88,2.88,0,0,1-.75.33,1.64,1.64,0,0,0-.14-.39V9.1h-.5v.13c.2,0,.38,0,.57,0v.39h.57V9.26h-.54V8.81l.54,0c0-.14,0-.24,0-.27a.31.31,0,0,1,0-.08s0,0,.05,0h0c.48,0,.53,0,.53.09a.13.13,0,0,1,0,.07.21.21,0,0,0,0,.11v.1l.57,0v.46h-.57V9.6H45ZM42.24,8h-.13v.19h.13Zm0,.53h-.13v.21h.13Zm.92-.39A2.36,2.36,0,0,0,43.69,8a2.15,2.15,0,0,1-.35-.56h-.13v.12l-.55,0v.12h.5ZM42.8,8h-.14v.19h.14Zm0,.53h-.14v.21h.14Zm1-1.13a1.2,1.2,0,0,0,.21.31,1,1,0,0,0,.22-.31Z"/><path class="cls-1" d="M45.93,10a2.9,2.9,0,0,1-.22-1.15,12.64,12.64,0,0,1,.2-1.65v0s0,0,0,0l0,0a2.75,2.75,0,0,1,.56.21s0,0,0,0a3.4,3.4,0,0,0-.33,1.5V9l.22-.42.26.2a2,2,0,0,0-.27,1.05v.09Zm1.34-1.1a.46.46,0,0,0-.07.22c0,.12.09.21.44.21a3.29,3.29,0,0,0,.92-.14,3.3,3.3,0,0,0,0,.47v.12a5.73,5.73,0,0,1-.81.06c-.33,0-1,0-1-.63a1.24,1.24,0,0,1,.07-.39ZM48.44,8a3,3,0,0,0-.54,0,4.71,4.71,0,0,0-1.06.1V7.5a10.93,10.93,0,0,1,1.31-.09h.29Z"/><path class="cls-1" d="M17.71,14.34a.42.42,0,0,1-.45.47c-.15,0-.86-.11-.86-.65v-.05c0-.32.32-.6.84-.88v-.4l-.54,0h-.07l-.08-.49.24,0,.45,0c0-.19,0-.37,0-.49s0-.08,0-.1,0,0,0,0h0l.54.05s.05,0,.05,0a.13.13,0,0,1,0,.07s0,.08-.07.39a4,4,0,0,0,.5-.13v.52c-.16,0-.33.07-.51.09a2.17,2.17,0,0,1,0,.26,2.18,2.18,0,0,1,.57-.08.94.94,0,0,1,1,.91.83.83,0,0,1-.82.88.6.6,0,0,1-.63-.64.82.82,0,0,1,0-.21,2.3,2.3,0,0,0,.45-.12.85.85,0,0,0,0,.24c0,.15.07.21.17.21a.33.33,0,0,0,.32-.37c0-.23-.17-.44-.54-.44a1.37,1.37,0,0,0-.54.11Zm-.81-.23c0,.1.15.18.22.18s.09,0,.09-.13,0-.23,0-.4C17.12,13.83,16.9,14,16.9,14.11Zm2.27-1a3.39,3.39,0,0,0-.83-.71l.33-.34a4.14,4.14,0,0,1,.86.69Z"/><path class="cls-1" d="M20.11,14.91c0-.6,0-1.81,0-2.55v-.63h1.39v1.43h-.89c0,.59,0,1.3,0,1.75ZM21,12.13h-.41v.13H21Zm0,.48h-.41v.15H21Zm1.57.55h-.93V11.73h1.43v2.6c0,.44-.12.58-.77.58h-.21a1.35,1.35,0,0,0-.12-.45h-.63v.13h-.5c0-.32,0-.84,0-1.11v-.17h1.43v.27c0,.24,0,.59,0,.83h0c.23,0,.26-.06.26-.14Zm-.77.55h-.47v.35h.47Zm.77-1.58h-.45v.13h.45Zm0,.48h-.45v.15h.45Z"/><path class="cls-1" d="M24.12,12s0,0,0,0h0c.13,0,.41.1.55.15a.05.05,0,0,1,0,.05,0,0,0,0,1,0,0,.2.2,0,0,0-.08.14,3.19,3.19,0,0,0-.12.86,2.33,2.33,0,0,0,.1.71s.05.07.08.07.39-.3.54-.59c.06.12.23.38.3.49a3.36,3.36,0,0,1-.46.54.59.59,0,0,1-.41.17.49.49,0,0,1-.47-.34A2.85,2.85,0,0,1,24,13.22a7.82,7.82,0,0,1,.09-1.09.08.08,0,0,0,0,0Zm2.29,2.11a.91.91,0,0,0,0-.17,2.26,2.26,0,0,0-.53-1.43l.51-.14A2.81,2.81,0,0,1,27,14Z"/><path class="cls-1" d="M30.07,13.15l-.93,0-.92,0v-.29l-.49.19a1.5,1.5,0,0,0-.28-.51,2.08,2.08,0,0,0,1.45-.85s0-.08,0-.08a4.74,4.74,0,0,1,.57.15.06.06,0,0,1,0,.06.06.06,0,0,1,0,.06l-.07,0a3.06,3.06,0,0,0,1.44.62,1.61,1.61,0,0,0-.28.51l-.53-.18Zm-.17,1.76c0-.05,0-.11,0-.16h-1.5a.86.86,0,0,1,0,.16h-.54c0-.37,0-1.05,0-1.37v-.17h2.52v.21c0,.34,0,1,0,1.33Zm0-1.07H28.41v.43h1.51Zm-.81-1.57a2.54,2.54,0,0,1-.55.41h1.13A3.22,3.22,0,0,1,29.11,12.27Z"/><path class="cls-1" d="M32.1,14.89c0-.27,0-.57,0-.87a2.91,2.91,0,0,0-.27.41c-.05.08-.07.15-.1.15a5.45,5.45,0,0,1-.37-.51s.05,0,.12-.1a5.3,5.3,0,0,0,.65-.86c0-.08,0-.16,0-.24s-.42.15-.47.18l-.05,0s0,0-.16-.58h0s0,0,0,0h.09a2.64,2.64,0,0,0,.59-.09c0-.2,0-.39,0-.51v-.07a.75.75,0,0,0,0-.11h0c.57,0,.61,0,.61.06a0,0,0,0,1,0,0,.29.29,0,0,0,0,.14c0,.09,0,.2-.06.32h0a1.94,1.94,0,0,1,.3.31s0,0-.1.08a1.7,1.7,0,0,0-.21.28,1.57,1.57,0,0,1,1-.37.93.93,0,0,1,1,1c0,.59-.42,1.24-1.47,1.26a2.83,2.83,0,0,0-.25-.6,1.5,1.5,0,0,0,.35,0,.75.75,0,0,0,.84-.73.44.44,0,0,0-.49-.47,1.6,1.6,0,0,0-1,.45v.28a7.73,7.73,0,0,0,.07,1.1Z"/><path class="cls-1" d="M37.92,14.6c-.34,0-.65,0-1,0-.59,0-1.15,0-1.15-.67v0c0-.18,0-.46,0-.76a2.7,2.7,0,0,0-.61.1l-.07,0s0,0,0,0h0c0-.09-.08-.42-.1-.53h0s0,0,0,0h.16l.62,0c0-.24,0-.45,0-.59a.75.75,0,0,0,0-.11,0,0,0,0,1,0,0h0l.59.05a0,0,0,0,1,.05,0,.05.05,0,0,1,0,0c0,.05-.05.07-.07.56l.72-.06a4.79,4.79,0,0,0,0-.64.89.89,0,0,1,0-.11s0,0,0,0h0l.58,0s0,0,0,0l0,0c0,.06,0,.12-.06.6l.76-.09V13h-.07l-.71,0v.31c0,.33-.1.61-.77.61h-.09a4.38,4.38,0,0,0-.12-.59,2.28,2.28,0,0,0,.34.05c.12,0,.14-.05.14-.16v-.18l-.74.06c0,.26,0,.52,0,.76s.07.25.51.25A4.1,4.1,0,0,0,38,14a4,4,0,0,0-.06.57Z"/><path class="cls-1" d="M41.59,14a5.85,5.85,0,0,0-1-.84c0,.54,0,1.15,0,1.74H40c0-1,0-2.07,0-2.6l-1.18,0v-.54l1.63,0,1.64,0v.54l-1.53,0V13l.26-.27a9,9,0,0,1,1.16.85Z"/><path class="cls-1" d="M45.2,14a1.86,1.86,0,0,0-1-.3c-.33,0-.57.11-.57.3s.06.3.64.3a3,3,0,0,0,1-.18,2.28,2.28,0,0,0,0,.48.76.76,0,0,0,0,.15,6.33,6.33,0,0,1-.83.07c-.52,0-1.25-.12-1.25-.79,0-.51.47-.76,1-.76a1.5,1.5,0,0,1,.37,0c-.07-.11-.17-.25-.27-.42a8.23,8.23,0,0,1-1.19.11l-.13-.54a1.89,1.89,0,0,0,.35,0,4.76,4.76,0,0,0,.72-.05l-.2-.42c0-.07-.07-.09-.07-.11h0l.56-.17s0,0,0,0v0a0,0,0,0,0,0,0,2.17,2.17,0,0,0,.18.52,2.12,2.12,0,0,0,.81-.33l.11.55a4.8,4.8,0,0,1-.67.23,2.76,2.76,0,0,0,.79.81Z"/><path class="cls-1" d="M46.74,12s0,0,0,0h0c.13,0,.41.1.55.15a.05.05,0,0,1,0,.05,0,0,0,0,1,0,0,.26.26,0,0,0-.09.14,3.62,3.62,0,0,0-.11.86,2.33,2.33,0,0,0,.1.71.08.08,0,0,0,.08.07c.09,0,.39-.3.54-.59a3.58,3.58,0,0,0,.3.49,3.36,3.36,0,0,1-.46.54.61.61,0,0,1-.42.17.49.49,0,0,1-.46-.34,2.66,2.66,0,0,1-.18-1.08,7.82,7.82,0,0,1,.09-1.09V12ZM49,14.15a.91.91,0,0,0,0-.17,2.32,2.32,0,0,0-.53-1.43l.51-.14A2.8,2.8,0,0,1,49.59,14Z"/><path class="cls-1" d="M50.73,14.89a.63.63,0,1,1,.63-.63A.63.63,0,0,1,50.73,14.89Zm0-1a.34.34,0,1,0,.34.34A.34.34,0,0,0,50.73,13.92Z"/><path class="cls-1" d="M21.7,10a2.61,2.61,0,0,0-.61-.47v0c0,.33-.35.48-.73.48s-.91-.19-.94-.55v0c0-.38.33-.57.81-.57l.31,0c0-.11,0-.24,0-.37h-.89l0-.51a3.73,3.73,0,0,0,.73.05h.17V7.87h-.12c-.27,0-.55,0-.82,0l0-.5a3.58,3.58,0,0,0,.87.08h.08a3.11,3.11,0,0,0,0-.39s0-.06,0-.08h0L21,7s.06,0,.06,0,0,0,0,0a.33.33,0,0,0,0,.16,1.28,1.28,0,0,1,0,.19,4.72,4.72,0,0,0,.77-.13v.49a7.89,7.89,0,0,1-.79.09v.21a4,4,0,0,0,.73-.12v.5a5.64,5.64,0,0,1-.71.08L21,9A4.16,4.16,0,0,1,22,9.5Zm-1.79-.61c0,.11.2.18.37.18s.29,0,.29-.15V9.35a1.61,1.61,0,0,0-.39-.06c-.18,0-.27.05-.27.13Z"/><path class="cls-1" d="M26,7.86a6.57,6.57,0,0,0-.91,0h-.21c0,.17,0,.35,0,.51a.89.89,0,0,1,.12.49,1.58,1.58,0,0,1-1,1.42,2.14,2.14,0,0,0-.49-.43,1.16,1.16,0,0,0,.82-.52l-.15,0a.58.58,0,0,1-.61-.63A.66.66,0,0,1,24.27,8h.12V7.83a10.94,10.94,0,0,0-1.24.08C23.06,7.93,23,8,23,8s0,0-.11-.56h0s0,0,0,0l.17,0h.1l1.22,0c0-.13,0-.25,0-.32s0,0,0-.07h0l.54,0S25,7,25,7a.08.08,0,0,1,0,0s0,0,0,.28l1.13,0Zm-1.61.74c0-.1-.05-.18-.15-.18s-.19.18-.19.24a.16.16,0,0,0,.16.18h0A.24.24,0,0,0,24.39,8.6Zm1.06-1.29a2.09,2.09,0,0,0-.36-.37l.25-.17a4,4,0,0,1,.36.35Zm.46-.14a3.06,3.06,0,0,0-.36-.36l.23-.17c.13.11.26.24.37.35Z"/><path class="cls-1" d="M27.11,9.94a2.74,2.74,0,0,1-.26-1.26A15.35,15.35,0,0,1,27,7.14v0s0,0,0,0l.58.2a.05.05,0,0,1,0,0,.05.05,0,0,1,0,0,2.94,2.94,0,0,0-.31,1.41c0,.08,0,.15,0,.21l.22-.43.25.2a1.84,1.84,0,0,0-.24.93,1.55,1.55,0,0,0,0,.22Zm2.39-.09a3.65,3.65,0,0,0-.3-.27c-.06.25-.38.37-.71.37s-.75-.16-.77-.5v0c0-.38.28-.61.71-.61l.25,0c0-.24,0-.51,0-.75l-.4,0-.46,0,0-.51a2.94,2.94,0,0,0,.59,0h.27l0-.52s0-.06,0-.08h0c.54,0,.61,0,.61.06s0,0,0,.05,0,.09-.06.46a1.64,1.64,0,0,0,.55-.16l0,.54a4.19,4.19,0,0,1-.57.1c0,.29,0,.64,0,.95a3,3,0,0,1,.67.42Zm-.8-.49a.22.22,0,0,0,0-.08.81.81,0,0,0-.32-.06c-.14,0-.23,0-.23.14s.15.15.3.15.26,0,.26-.15Z"/><path class="cls-1" d="M31.21,10.14a8.08,8.08,0,0,0-.92-1l.37-.32a11.91,11.91,0,0,1,1,.92Z"/><path class="cls-1" d="M35.62,9.57a.42.42,0,0,1-.45.48c-.14,0-.86-.11-.86-.65V9.35c0-.33.32-.6.84-.89V8.07l-.54,0h-.07l-.07-.49h.23l.45,0V7.1a.51.51,0,0,1,0-.09l0,0h0l.54,0s0,0,0,0a.14.14,0,0,1,0,.06s0,.09-.07.4a4.5,4.5,0,0,0,.5-.13l0,.51-.5.1a2.26,2.26,0,0,0,0,.26,2.18,2.18,0,0,1,.57-.08.94.94,0,0,1,1,.91.84.84,0,0,1-.82.88.61.61,0,0,1-.64-.64,1.65,1.65,0,0,1,0-.21A2.13,2.13,0,0,0,36.25,9a.85.85,0,0,0,0,.25c0,.15.08.21.17.21a.33.33,0,0,0,.32-.37c0-.24-.17-.44-.54-.44a1.55,1.55,0,0,0-.54.1Zm-.8-.23c0,.11.14.18.21.18s.09,0,.09-.12,0-.24,0-.4C35,9.07,34.82,9.25,34.82,9.34Zm2.27-1a3.88,3.88,0,0,0-.83-.72l.33-.33a4.14,4.14,0,0,1,.86.69Z"/><path class="cls-1" d="M39.77,10.12a4.52,4.52,0,0,0-.56-.51,2.77,2.77,0,0,1-1,.51A1,1,0,0,0,38,9.66a2.24,2.24,0,0,0,.82-.37,4,4,0,0,0-.69-.42l.32-.33a4.9,4.9,0,0,1,.73.42,1.2,1.2,0,0,0,.29-.41.07.07,0,0,1,0-.05c-.37,0-.81,0-1.17,0V8.13l-.21.21a1.58,1.58,0,0,0-.24-.47,1.53,1.53,0,0,0,.57-.93c0-.07,0-.09,0-.09h0c.53.05.53.09.53.12S39,7,39,7l-.05,0c.48,0,1.44,0,2.17,0V7.5c-.61,0-1.41,0-1.93,0h-.41a2.22,2.22,0,0,1-.38.58c.49,0,1.26,0,1.75,0h.48v.39a2.49,2.49,0,0,0,.11,1s0,.06.05.06.06-.3.06-.41V9a1.7,1.7,0,0,0,.46.24c0,.58-.11,1-.49,1a.57.57,0,0,1-.48-.31,2.45,2.45,0,0,1-.22-1.32v0h-.54c.46.17.49.2.49.24s0,0-.06.06a.11.11,0,0,0-.08,0,2.58,2.58,0,0,1-.33.41,6.59,6.59,0,0,1,.57.44Zm1-2.13H38.71V7.56l1,0,1.08,0Z"/><path class="cls-1" d="M45,10.06H43.12V9.63h-.45c0,.18,0,.36,0,.53h-.45V9.62l-.62,0V9.2l.31,0h.32V9.1h-.49V7.64h.49V7.52l-.59,0V7.12h.58a.64.64,0,0,0,0-.2.23.23,0,0,1,0-.07s0,0,0,0h0a3.11,3.11,0,0,1,.43,0s0,0,0,0a.12.12,0,0,1,0,.08.12.12,0,0,0,0,.11v0l.52,0V7h1.68a2.34,2.34,0,0,1-.46,1,2.73,2.73,0,0,0,.59.19,1.17,1.17,0,0,0-.21.48,3.15,3.15,0,0,1-.74-.34,2.88,2.88,0,0,1-.75.33,1.64,1.64,0,0,0-.14-.39V9.1h-.5v.13c.2,0,.38,0,.57,0v.39h.57V9.26h-.54V8.81l.54,0c0-.14,0-.24,0-.27a.31.31,0,0,1,0-.08s0,0,.05,0h0c.48,0,.53,0,.53.09a.13.13,0,0,1,0,.07.21.21,0,0,0,0,.11v.1l.57,0v.46h-.57V9.6H45ZM42.24,8h-.13v.19h.13Zm0,.53h-.13v.21h.13Zm.92-.39A2.36,2.36,0,0,0,43.69,8a2.15,2.15,0,0,1-.35-.56h-.13v.12l-.55,0v.12h.5ZM42.8,8h-.14v.19h.14Zm0,.53h-.14v.21h.14Zm1-1.13a1.2,1.2,0,0,0,.21.31,1,1,0,0,0,.22-.31Z"/><path class="cls-1" d="M45.93,10a2.9,2.9,0,0,1-.22-1.15,12.64,12.64,0,0,1,.2-1.65v0s0,0,0,0l0,0a2.75,2.75,0,0,1,.56.21s0,0,0,0a3.4,3.4,0,0,0-.33,1.5V9l.22-.42.26.2a2,2,0,0,0-.27,1.05v.09Zm1.34-1.1a.46.46,0,0,0-.07.22c0,.12.09.21.44.21a3.29,3.29,0,0,0,.92-.14,3.3,3.3,0,0,0,0,.47v.12a5.73,5.73,0,0,1-.81.06c-.33,0-1,0-1-.63a1.24,1.24,0,0,1,.07-.39ZM48.44,8a3,3,0,0,0-.54,0,4.71,4.71,0,0,0-1.06.1V7.5a10.93,10.93,0,0,1,1.31-.09h.29Z"/><path class="cls-1" d="M17.71,14.34a.42.42,0,0,1-.45.47c-.15,0-.86-.11-.86-.65v-.05c0-.32.32-.6.84-.88v-.4l-.54,0h-.07l-.08-.49.24,0,.45,0c0-.19,0-.37,0-.49s0-.08,0-.1,0,0,0,0h0l.54.05s.05,0,.05,0a.13.13,0,0,1,0,.07s0,.08-.07.39a4,4,0,0,0,.5-.13v.52c-.16,0-.33.07-.51.09a2.17,2.17,0,0,1,0,.26,2.18,2.18,0,0,1,.57-.08.94.94,0,0,1,1,.91.83.83,0,0,1-.82.88.6.6,0,0,1-.63-.64.82.82,0,0,1,0-.21,2.3,2.3,0,0,0,.45-.12.85.85,0,0,0,0,.24c0,.15.07.21.17.21a.33.33,0,0,0,.32-.37c0-.23-.17-.44-.54-.44a1.37,1.37,0,0,0-.54.11Zm-.81-.23c0,.1.15.18.22.18s.09,0,.09-.13,0-.23,0-.4C17.12,13.83,16.9,14,16.9,14.11Zm2.27-1a3.39,3.39,0,0,0-.83-.71l.33-.34a4.14,4.14,0,0,1,.86.69Z"/><path class="cls-1" d="M20.11,14.91c0-.6,0-1.81,0-2.55v-.63h1.39v1.43h-.89c0,.59,0,1.3,0,1.75ZM21,12.13h-.41v.13H21Zm0,.48h-.41v.15H21Zm1.57.55h-.93V11.73h1.43v2.6c0,.44-.12.58-.77.58h-.21a1.35,1.35,0,0,0-.12-.45h-.63v.13h-.5c0-.32,0-.84,0-1.11v-.17h1.43v.27c0,.24,0,.59,0,.83h0c.23,0,.26-.06.26-.14Zm-.77.55h-.47v.35h.47Zm.77-1.58h-.45v.13h.45Zm0,.48h-.45v.15h.45Z"/><path class="cls-1" d="M24.12,12s0,0,0,0h0c.13,0,.41.1.55.15a.05.05,0,0,1,0,.05,0,0,0,0,1,0,0,.2.2,0,0,0-.08.14,3.19,3.19,0,0,0-.12.86,2.33,2.33,0,0,0,.1.71s.05.07.08.07.39-.3.54-.59c.06.12.23.38.3.49a3.36,3.36,0,0,1-.46.54.59.59,0,0,1-.41.17.49.49,0,0,1-.47-.34A2.85,2.85,0,0,1,24,13.22a7.82,7.82,0,0,1,.09-1.09.08.08,0,0,0,0,0Zm2.29,2.11a.91.91,0,0,0,0-.17,2.26,2.26,0,0,0-.53-1.43l.51-.14A2.81,2.81,0,0,1,27,14Z"/><path class="cls-1" d="M30.07,13.15l-.93,0-.92,0v-.29l-.49.19a1.5,1.5,0,0,0-.28-.51,2.08,2.08,0,0,0,1.45-.85s0-.08,0-.08a4.74,4.74,0,0,1,.57.15.06.06,0,0,1,0,.06.06.06,0,0,1,0,.06l-.07,0a3.06,3.06,0,0,0,1.44.62,1.61,1.61,0,0,0-.28.51l-.53-.18Zm-.17,1.76c0-.05,0-.11,0-.16h-1.5a.86.86,0,0,1,0,.16h-.54c0-.37,0-1.05,0-1.37v-.17h2.52v.21c0,.34,0,1,0,1.33Zm0-1.07H28.41v.43h1.51Zm-.81-1.57a2.54,2.54,0,0,1-.55.41h1.13A3.22,3.22,0,0,1,29.11,12.27Z"/><path class="cls-1" d="M32.1,14.89c0-.27,0-.57,0-.87a2.91,2.91,0,0,0-.27.41c-.05.08-.07.15-.1.15a5.45,5.45,0,0,1-.37-.51s.05,0,.12-.1a5.3,5.3,0,0,0,.65-.86c0-.08,0-.16,0-.24s-.42.15-.47.18l-.05,0s0,0-.16-.58h0s0,0,0,0h.09a2.64,2.64,0,0,0,.59-.09c0-.2,0-.39,0-.51v-.07a.75.75,0,0,0,0-.11h0c.57,0,.61,0,.61.06a0,0,0,0,1,0,0,.29.29,0,0,0,0,.14c0,.09,0,.2-.06.32h0a1.94,1.94,0,0,1,.3.31s0,0-.1.08a1.7,1.7,0,0,0-.21.28,1.57,1.57,0,0,1,1-.37.93.93,0,0,1,1,1c0,.59-.42,1.24-1.47,1.26a2.83,2.83,0,0,0-.25-.6,1.5,1.5,0,0,0,.35,0,.75.75,0,0,0,.84-.73.44.44,0,0,0-.49-.47,1.6,1.6,0,0,0-1,.45v.28a7.73,7.73,0,0,0,.07,1.1Z"/><path class="cls-1" d="M37.92,14.6c-.34,0-.65,0-1,0-.59,0-1.15,0-1.15-.67v0c0-.18,0-.46,0-.76a2.7,2.7,0,0,0-.61.1l-.07,0s0,0,0,0h0c0-.09-.08-.42-.1-.53h0s0,0,0,0h.16l.62,0c0-.24,0-.45,0-.59a.75.75,0,0,0,0-.11,0,0,0,0,1,0,0h0l.59.05a0,0,0,0,1,.05,0,.05.05,0,0,1,0,0c0,.05-.05.07-.07.56l.72-.06a4.79,4.79,0,0,0,0-.64.89.89,0,0,1,0-.11s0,0,0,0h0l.58,0s0,0,0,0l0,0c0,.06,0,.12-.06.6l.76-.09V13h-.07l-.71,0v.31c0,.33-.1.61-.77.61h-.09a4.38,4.38,0,0,0-.12-.59,2.28,2.28,0,0,0,.34.05c.12,0,.14-.05.14-.16v-.18l-.74.06c0,.26,0,.52,0,.76s.07.25.51.25A4.1,4.1,0,0,0,38,14a4,4,0,0,0-.06.57Z"/><path class="cls-1" d="M41.59,14a5.85,5.85,0,0,0-1-.84c0,.54,0,1.15,0,1.74H40c0-1,0-2.07,0-2.6l-1.18,0v-.54l1.63,0,1.64,0v.54l-1.53,0V13l.26-.27a9,9,0,0,1,1.16.85Z"/><path class="cls-1" d="M45.2,14a1.86,1.86,0,0,0-1-.3c-.33,0-.57.11-.57.3s.06.3.64.3a3,3,0,0,0,1-.18,2.28,2.28,0,0,0,0,.48.76.76,0,0,0,0,.15,6.33,6.33,0,0,1-.83.07c-.52,0-1.25-.12-1.25-.79,0-.51.47-.76,1-.76a1.5,1.5,0,0,1,.37,0c-.07-.11-.17-.25-.27-.42a8.23,8.23,0,0,1-1.19.11l-.13-.54a1.89,1.89,0,0,0,.35,0,4.76,4.76,0,0,0,.72-.05l-.2-.42c0-.07-.07-.09-.07-.11h0l.56-.17s0,0,0,0v0a0,0,0,0,0,0,0,2.17,2.17,0,0,0,.18.52,2.12,2.12,0,0,0,.81-.33l.11.55a4.8,4.8,0,0,1-.67.23,2.76,2.76,0,0,0,.79.81Z"/><path class="cls-1" d="M46.74,12s0,0,0,0h0c.13,0,.41.1.55.15a.05.05,0,0,1,0,.05,0,0,0,0,1,0,0,.26.26,0,0,0-.09.14,3.62,3.62,0,0,0-.11.86,2.33,2.33,0,0,0,.1.71.08.08,0,0,0,.08.07c.09,0,.39-.3.54-.59a3.58,3.58,0,0,0,.3.49,3.36,3.36,0,0,1-.46.54.61.61,0,0,1-.42.17.49.49,0,0,1-.46-.34,2.66,2.66,0,0,1-.18-1.08,7.82,7.82,0,0,1,.09-1.09V12ZM49,14.15a.91.91,0,0,0,0-.17,2.32,2.32,0,0,0-.53-1.43l.51-.14A2.8,2.8,0,0,1,49.59,14Z"/><path class="cls-1" d="M50.73,14.89a.63.63,0,1,1,.63-.63A.63.63,0,0,1,50.73,14.89Zm0-1a.34.34,0,1,0,.34.34A.34.34,0,0,0,50.73,13.92Z"/><path class="cls-4" d="M30.69,1.74a.29.29,0,0,0-.33-.24c-.19,0-.29.1-.29.21s.06.16.23.21l.24.07c.32.1.45.25.45.51s-.21.47-.61.47a.59.59,0,0,1-.64-.54H30a.36.36,0,0,0,.36.29c.21,0,.33-.09.33-.22s-.1-.21-.28-.27l-.25-.07c-.29-.09-.39-.22-.39-.45s.23-.45.57-.45a.54.54,0,0,1,.6.48Z"/><path class="cls-4" d="M31.58,2.93V1.54h-.46V1.3h1.2v.24h-.47V2.93Z"/><path class="cls-4" d="M32.53,2.93V1.3H33.6v.24h-.8V2h.67V2.2H32.8v.49h.85v.24Z"/><path class="cls-4" d="M33.89,2.93V1.3h.63a.51.51,0,0,1,.56.51.51.51,0,0,1-.57.53h-.35v.59Zm.6-.83a.28.28,0,0,0,.31-.28c0-.19-.13-.28-.32-.28h-.32V2.1Z"/><path class="cls-4" d="M37,3.21a1.1,1.1,0,1,1,1.09-1.09A1.09,1.09,0,0,1,37,3.21Zm.17-1.79h-.21a.33.33,0,0,1-.32.18v.21h.24v1h.29Z"/></g></g></svg>