<svg xmlns="http://www.w3.org/2000/svg" viewBox="0 0 67.75 17.37"><defs><style>.cls-1{fill:#b20005;}.cls-2{fill:none;}.cls-2,.cls-3{stroke:#b20005;stroke-miterlimit:10;stroke-width:0.26px;}.cls-3,.cls-4{fill:#fff;}</style></defs><g id="Layer_2" data-name="Layer 2"><g id="レイアウト"><path class="cls-1" d="M67.62,2A1.86,1.86,0,0,0,65.72.13H2A1.86,1.86,0,0,0,.13,2V4.53H67.62Z"/><path class="cls-2" d="M67.62,2A1.86,1.86,0,0,0,65.72.13H2A1.86,1.86,0,0,0,.13,2V4.53H67.62Z"/><path class="cls-3" d="M.13,4.53V15.42A1.86,1.86,0,0,0,2,17.24H65.72a1.86,1.86,0,0,0,1.9-1.82V4.53Z"/><path class="cls-1" d="M16.7,9.59a7.59,7.59,0,0,0,1,.14,1.53,1.53,0,0,0-.19.42,7.11,7.11,0,0,1-1.41-.33l.27-.23h-.77c.22.13.28.18.28.22a.07.07,0,0,1-.07,0,.18.18,0,0,0-.11,0,5.09,5.09,0,0,1-1.21.27,1.36,1.36,0,0,0-.18-.42,5.39,5.39,0,0,0,1-.14H14.7V8h2.51v1.6Zm-2.23-1.7V7h3v.92Zm.87-.55H15v.18h.37Zm1.35,1H15.22v.1h1.47Zm0,.4H15.22v.11h1.47Zm0,.4H15.22v.12h1.47Zm-.56-1.79h-.36v.18h.36Zm.83,0h-.4v.18H17Z"/><path class="cls-1" d="M19.17,10.15c0-.19,0-.42,0-.66l-.83.2a.11.11,0,0,0-.09.07.09.09,0,0,1-.08.06s0,0-.05-.06c-.05-.2-.1-.51-.1-.52s0,0,0,0h0l.19,0V7.44h-.21V7l.84,0,.89,0v.26h1.49a5.08,5.08,0,0,1-.43,2,3,3,0,0,0,.55.49,2.09,2.09,0,0,0-.32.49,4.52,4.52,0,0,1-.54-.53,3.17,3.17,0,0,1-.64.53,1.58,1.58,0,0,0-.25-.41c0,.15,0,.29,0,.41Zm0-2.72h-.41v.23h.41Zm0,.65h-.41v.27h.41Zm0,.69h-.41V9.1L19.19,9Zm.56-1.33h-.08c0,.47,0,1.44,0,2.19a2.2,2.2,0,0,0,.59-.46,3.66,3.66,0,0,1-.4-1.47h-.12Zm.59.25a2.88,2.88,0,0,0,.23,1,3.74,3.74,0,0,0,.21-1Z"/><path class="cls-1" d="M23.37,10.15c0-.25,0-.65,0-1h-.47v.09c0,.14,0,.41,0,.64h-.51c0-.22,0-.49,0-.71a3,3,0,0,1-.41.28A1.92,1.92,0,0,0,21.8,9a1.89,1.89,0,0,0,.75-.56h-.66V8l.94,0a.65.65,0,0,0,0-.13,5.3,5.3,0,0,1-.63.09,1.29,1.29,0,0,0-.17-.42A5.27,5.27,0,0,0,23,7.41l-.75-.15.21-.36c.46.08.86.18,1.26.29a1.37,1.37,0,0,0,.49-.3s0,0,0,0h0c.4.17.44.21.44.25s0,0-.07,0l-.11,0-.28.19c.18,0,.36.12.54.19l-.21.4q-.47-.19-.9-.33a5,5,0,0,1-.6.17c.29,0,.34,0,.34.1s0,0,0,0-.06,0-.07,0c.58,0,1.18,0,1.76,0v.48h-2a2.68,2.68,0,0,1-.23.3h.48a.9.9,0,0,0,0-.16.2.2,0,0,1,0-.08s0,0,.06,0h0c.55,0,.56,0,.56.08a.13.13,0,0,1,0,.07.22.22,0,0,0-.05.11h1v.71c0,.3-.11.44-.6.44h-.23a1.09,1.09,0,0,0-.13-.44l.3,0c.17,0,.18,0,.18-.1v-.2h-.52c0,.31,0,.7,0,1Z"/><path class="cls-1" d="M29,10.07l-1.71,0-1.68,0V9.61l1.42,0V9.49l-1,0V9.1l1,0V9L25.76,9V8.58h3V9L27.52,9v.12l1,0v.41l-1,0v.14l1.45,0Zm-1.31-2a1.34,1.34,0,0,1-.36.5,2,2,0,0,0-.29-.3v.15a4.36,4.36,0,0,1-.51,0c-.45,0-.66-.06-.66-.41V7.62h-.22V7.17l.58,0a.74.74,0,0,0,0-.24.45.45,0,0,1,0-.08s0,0,.05,0h0c.46,0,.54,0,.54.08a.09.09,0,0,1,0,.07.18.18,0,0,0-.05.11v.08l.52,0v.46c-.25,0-.5,0-.75,0h-.14v.32c0,.08,0,.09.08.1h.15A1.72,1.72,0,0,0,27,8v.18a1.09,1.09,0,0,0,.29-.48A3.65,3.65,0,0,0,27.38,7h1.49a8.4,8.4,0,0,1-.14,1.18c-.06.27-.17.41-.56.41H28a.81.81,0,0,0-.13-.38h.23c.14,0,.17,0,.19-.09Zm.13-.39s0,.07,0,.1h.54s0-.07,0-.1Zm.07-.39,0,.1h.51a.38.38,0,0,0,0-.1Z"/><path class="cls-1" d="M31,9.41h.09a.92.92,0,0,0,1-.89.88.88,0,0,0-.7-.87,4.72,4.72,0,0,1-.69,1.92.6.6,0,0,1-.49.3c-.38,0-.71-.51-.71-1.11a1.57,1.57,0,0,1,1.6-1.61,1.39,1.39,0,0,1,1.52,1.38A1.43,1.43,0,0,1,31.3,10,3.93,3.93,0,0,0,31,9.41Zm-1-.65c0,.34.15.54.21.54a3.12,3.12,0,0,0,.66-1.65A1.09,1.09,0,0,0,30,8.76Z"/><path class="cls-1" d="M34.17,10.15V10h-.4v.13h-.52c0-.37,0-.85,0-1.21v-.5h1.41v.31c0,.36,0,1,0,1.4Zm-.58-1.91V7h2.46V8.24Zm.59,1.32V8.9h-.42v.66Zm1.35-2.14H34.11v.37h1.42Zm.34,2.73V10h-.48v.13h-.51c0-.37,0-.85,0-1.21v-.5h1.48v.31c0,.36,0,1,0,1.4Zm0-1.25h-.5v.66h.5Z"/><path class="cls-1" d="M37.43,10.15c0-.3,0-.68,0-1.07-.31.11-.34.13-.36.15a.15.15,0,0,1-.08,0h0a2.17,2.17,0,0,1-.1-.53s0,0,.08,0a2,2,0,0,0,.49-.12V7.94h-.13c0,.18,0,.38,0,.58a1.64,1.64,0,0,0-.39-.19,4.53,4.53,0,0,0,.09-1V7.21a.45.45,0,0,1,0-.08s0,0,0,0h0l.37.06a0,0,0,0,1,0,0,.09.09,0,0,1,0,.06.14.14,0,0,0,0,.1v.14h.09a4.51,4.51,0,0,0,0-.56.17.17,0,0,1,0-.07s0,0,.06,0h0c.47,0,.51,0,.51.08A.08.08,0,0,1,38,7a.17.17,0,0,0,0,.11c0,.08,0,.21,0,.39h.22v.25a2,2,0,0,0,.29-.81v0s0-.05,0-.05h0c.43.07.47.1.47.13s0,0-.05.07-.07,0-.08.08a.43.43,0,0,1,0,.11h1.37v.17c0,.85,0,1.63-.07,2.18,0,.39-.1.56-.75.56H39.2a1.7,1.7,0,0,0-.13-.48l.31,0c.21,0,.22,0,.23-.14,0-.47.08-1.1.08-1.71V7.7h0a3.36,3.36,0,0,1-1.1,2.41,1.53,1.53,0,0,0-.36-.39,2.8,2.8,0,0,0,1-2h-.09a2.72,2.72,0,0,1-.69,1.48,1.65,1.65,0,0,0-.32-.36l-.2.08c0,.43,0,.87,0,1.25Zm.82-1.5a1.81,1.81,0,0,0,.43-1h0a2.39,2.39,0,0,1-.36.61A1.3,1.3,0,0,0,38,8H37.9v.48c.12,0,.23-.1.35-.15Z"/><path class="cls-1" d="M42.41,9.48c0-.18,0-.32,0-.44-.23.12-.33.22-.33.33s0,.19.53.19a2.73,2.73,0,0,0,1-.17,3,3,0,0,0,0,.46.66.66,0,0,0,0,.15c-.21,0-.51.05-.8.05-.74,0-1.17-.18-1.17-.65s.42-.69.82-.87a.18.18,0,0,0-.1-.14h-.08c-.35,0-.67.52-.89.94L40.85,9a4.2,4.2,0,0,0,.81-1.14l-.55,0L41,7.33a2.59,2.59,0,0,0,.44,0h.38A1.8,1.8,0,0,0,41.94,7V6.88s0,0,0,0h0l.57.1s0,0,0,0l0,0a.73.73,0,0,0-.12.27,3.11,3.11,0,0,0,.78-.18v.54a8,8,0,0,1-1,.14L42.15,8a.52.52,0,0,1,.18,0,.52.52,0,0,1,.54.36c.22-.11.45-.21.64-.33l.08-.06h0c0,.09.26.43.3.51v0s0,0-.06,0a3.29,3.29,0,0,0-.91.3c0,.17,0,.4,0,.63Z"/><path class="cls-1" d="M44.8,10.15c0-.33,0-.75,0-1.19a3.69,3.69,0,0,1-.17.5,2.74,2.74,0,0,0-.22-.53,4.16,4.16,0,0,0,.39-1.06h-.34V7.42l.34,0a2.89,2.89,0,0,0,0-.5.25.25,0,0,1,0-.07s0,0,.05,0h0c.42,0,.49,0,.49.08a.09.09,0,0,1,0,.07.15.15,0,0,0,0,.11c0,.07,0,.18,0,.32h.29v.46h-.29a4.48,4.48,0,0,0,.35.6,2.11,2.11,0,0,0-.19.46c-.06-.12-.11-.24-.16-.35,0,.53,0,1.11,0,1.57Zm2.41,0a1.16,1.16,0,0,1,0-.17H46.06v.17h-.48c0-.37,0-2,0-2.75V7h2.08v.54c0,.81,0,2.28,0,2.64Zm0-.59c0-.46,0-1.1,0-1.56V7.39H46.05V9.56Zm-.81-.07c0-.11,0-.44,0-.62a3.62,3.62,0,0,1-.19.4,1.91,1.91,0,0,0-.17-.41,2.44,2.44,0,0,0,.35-.68h-.3V7.77l.32,0a1,1,0,0,0,0-.24.51.51,0,0,1,0-.09s0,0,.05,0h0a2.23,2.23,0,0,1,.39,0s.06,0,.06,0a.07.07,0,0,1,0,0s-.05.08-.05.22l.33,0v.42h-.3a2.78,2.78,0,0,0,.36.68,1.6,1.6,0,0,0-.17.41c-.08-.14-.15-.28-.22-.42,0,.24,0,.47,0,.64Z"/><path class="cls-1" d="M50,8.28h-.2c-.19,0-.46,0-.71,0V8a4.57,4.57,0,0,1-.56.69,1.65,1.65,0,0,0-.29-.51A2.7,2.7,0,0,0,49,6.93c0-.07,0-.08,0-.08l.51.09a.06.06,0,0,1,0,.06s0,0,0,.06a.16.16,0,0,0-.07.08,0,0,0,0,0,0,0h2a6,6,0,0,1-.17,1.9,1.12,1.12,0,0,0,.38.15c-.08.72-.24.82-.54.83H49.19c-.33,0-.44-.19-.44-.49v-1H50Zm.53.6c.22,0,.26-.05.28-.16a6,6,0,0,0,.09-1v0H49.25a.64.64,0,0,1-.11.2h1.34v1Zm-.26.46A1,1,0,0,0,50.18,9h-.92v.42c0,.07,0,.12.13.12l.81,0c.24,0,.48,0,.67,0s.17,0,.2-.29a.93.93,0,0,1-.47.09,2.43,2.43,0,0,1-.36,0Z"/><path class="cls-1" d="M52.89,10.14a8,8,0,0,0-.91-1l.37-.31a10.19,10.19,0,0,1,1,.91Z"/><path class="cls-1" d="M23.12,14h-.85v.31c0,.09.05.1.24.1h.16c.09,0,.14,0,.15-.34a1.78,1.78,0,0,0,.45.2c-.05.49-.18.58-.46.6h-.59a.43.43,0,0,1-.46-.5v-.37h-.41c-.12.5-.43.76-1.16,1a1.2,1.2,0,0,0-.26-.45c.55-.13.79-.25.9-.51h-.72v-.48l.8,0c0-.08,0-.16,0-.24h-.21v-.14a3.34,3.34,0,0,1-.58.23,1.34,1.34,0,0,0-.21-.46,2.84,2.84,0,0,0,.66-.23,1.83,1.83,0,0,0-.39-.31l.34-.2h-.39v-.45c.37,0,.87,0,1.1,0h.12a.13.13,0,0,0,.1,0h0s.42.2.42.25,0,.06-.08.09l.06.06a1.22,1.22,0,0,0,.32-.42s0-.05,0-.05h0c.05,0,.43.17.43.23s0,.05-.07.06a.18.18,0,0,0-.09.06,3,3,0,0,1-.36.4l.14.11a1.81,1.81,0,0,0,.44-.53s0-.06,0-.06.45.18.45.26,0,0-.06,0a.2.2,0,0,0-.09.07,3.35,3.35,0,0,1-.38.43,3.59,3.59,0,0,0,.58.19,1.54,1.54,0,0,0-.2.46,3.94,3.94,0,0,1-.66-.26v.17h-.18v.24l.85,0Zm-2.51-1.82a2.79,2.79,0,0,1,.34.28,1.42,1.42,0,0,0,.27-.28Zm1,.26a3.09,3.09,0,0,1-.4.41H22A4.22,4.22,0,0,1,21.59,12.4Zm.17.85h-.35v.25h.35Z"/><path class="cls-1" d="M24.14,13.35h-.08a1.83,1.83,0,0,0-.32,0v-.54c.21,0,.56,0,.76,0h.14V14.1c.22.24.4.25,1.15.25.39,0,.83,0,1.3,0a2,2,0,0,0-.14.52H25.16a1.06,1.06,0,0,1-.76-.32,2.23,2.23,0,0,1-.36.27.21.21,0,0,0-.07.1s0,.05-.06.05a.07.07,0,0,1-.06-.06,3.65,3.65,0,0,1-.16-.49l.06,0a1,1,0,0,0,.39-.21Zm.24-.76a4,4,0,0,0-.61-.62l.35-.32a3.52,3.52,0,0,1,.65.58Zm2.64.82h-.7a1.24,1.24,0,0,0,.75.43,1.36,1.36,0,0,0-.25.47,1.75,1.75,0,0,1-.94-.74,1.56,1.56,0,0,1-.95.73,1.48,1.48,0,0,0-.25-.47,1.14,1.14,0,0,0,.73-.42h-.67v-.47l.83,0a1.79,1.79,0,0,0,0-.24h-.73v-.47h.48a3.18,3.18,0,0,0-.48-.4l.39-.26a4.12,4.12,0,0,1,.57.45l-.29.22h.66a3.28,3.28,0,0,0-.31-.21,1.05,1.05,0,0,0,.4-.4c0-.05,0-.06,0-.06a3.37,3.37,0,0,1,.44.2.05.05,0,0,1,0,0,.07.07,0,0,1-.06.06.1.1,0,0,0-.08.06,2.61,2.61,0,0,1-.29.29h.49v.46h-.75c0,.08,0,.17,0,.24l.94,0Z"/><path class="cls-1" d="M28.24,14.13c0-.37,0-1,0-1.54,0-.28,0-.53,0-.7a.51.51,0,0,1,0-.09s0,0,0,0h0c.61,0,.62.05.62.07a.07.07,0,0,1,0,.06,16.33,16.33,0,0,0-.11,2c0,.27.07.4.29.4a1.58,1.58,0,0,0,1.25-.92,2.38,2.38,0,0,0,.3.62,2.24,2.24,0,0,1-1.58.84.7.7,0,0,1-.77-.73Z"/><path class="cls-1" d="M31.55,12.17a18.45,18.45,0,0,0,2.39-.29l.24-.06s0,0,0,0,.13.38.17.49h0s-.06,0-.2,0c-.79.1-1.36.58-1.36,1.13s.67.69.92.69l.32,0a2.32,2.32,0,0,0-.12.57h-.19a1.28,1.28,0,0,1-1.45-1.19,1.45,1.45,0,0,1,.46-1,4.5,4.5,0,0,0-1.1.24l-.07,0s0,0,0-.05l-.14-.54v0s0,0,.07,0Z"/><path class="cls-1" d="M37.82,14a5.85,5.85,0,0,0-1-.84c0,.54,0,1.15,0,1.74h-.62c0-1,0-2.07,0-2.6l-1.18,0v-.54l1.64,0,1.64,0v.54l-1.53,0V13l.26-.27a9.8,9.8,0,0,1,1.16.85Z"/><path class="cls-1" d="M41.43,14a1.86,1.86,0,0,0-1-.3c-.33,0-.57.11-.57.3s.06.3.64.3a3,3,0,0,0,1-.18,1.77,1.77,0,0,0-.05.48v.15a6.19,6.19,0,0,1-.82.07c-.53,0-1.25-.12-1.25-.79,0-.5.47-.76,1-.76a1.55,1.55,0,0,1,.37,0q-.12-.16-.27-.42a8.23,8.23,0,0,1-1.19.11l-.13-.54a1.83,1.83,0,0,0,.35,0,4.86,4.86,0,0,0,.72-.06c-.07-.14-.14-.28-.2-.42S40,11.9,40,11.88h0l.56-.17a0,0,0,0,1,0,0v0a0,0,0,0,0,0,0,1.68,1.68,0,0,0,.18.52,2.12,2.12,0,0,0,.81-.33l.1.55a4,4,0,0,1-.67.23,2.93,2.93,0,0,0,.8.81Z"/><path class="cls-1" d="M43,12s0,0,0,0h0l.55.15a.05.05,0,0,1,0,.05.08.08,0,0,1,0,0,.26.26,0,0,0-.09.14,3.17,3.17,0,0,0-.11.86,2.06,2.06,0,0,0,.1.71.08.08,0,0,0,.08.07c.09,0,.39-.3.54-.59a3.58,3.58,0,0,0,.3.49,3.36,3.36,0,0,1-.46.54.61.61,0,0,1-.42.17.49.49,0,0,1-.46-.34,2.66,2.66,0,0,1-.18-1.08A7.82,7.82,0,0,1,43,12.13V12Zm2.3,2.11a.91.91,0,0,0,0-.17,2.32,2.32,0,0,0-.53-1.43l.51-.14A2.8,2.8,0,0,1,45.82,14Z"/><path class="cls-1" d="M47,14.89a.63.63,0,1,1,.63-.63A.63.63,0,0,1,47,14.89Zm0-1a.34.34,0,1,0,.34.34A.34.34,0,0,0,47,13.92Z"/><path class="cls-1" d="M16.7,9.59a7.59,7.59,0,0,0,1,.14,1.53,1.53,0,0,0-.19.42,7.11,7.11,0,0,1-1.41-.33l.27-.23h-.77c.22.13.28.18.28.22a.07.07,0,0,1-.07,0,.18.18,0,0,0-.11,0,5.09,5.09,0,0,1-1.21.27,1.36,1.36,0,0,0-.18-.42,5.39,5.39,0,0,0,1-.14H14.7V8h2.51v1.6Zm-2.23-1.7V7h3v.92Zm.87-.55H15v.18h.37Zm1.35,1H15.22v.1h1.47Zm0,.4H15.22v.11h1.47Zm0,.4H15.22v.12h1.47Zm-.56-1.79h-.36v.18h.36Zm.83,0h-.4v.18H17Z"/><path class="cls-1" d="M19.17,10.15c0-.19,0-.42,0-.66l-.83.2a.11.11,0,0,0-.09.07.09.09,0,0,1-.08.06s0,0-.05-.06c-.05-.2-.1-.51-.1-.52s0,0,0,0h0l.19,0V7.44h-.21V7l.84,0,.89,0v.26h1.49a5.08,5.08,0,0,1-.43,2,3,3,0,0,0,.55.49,2.09,2.09,0,0,0-.32.49,4.52,4.52,0,0,1-.54-.53,3.17,3.17,0,0,1-.64.53,1.58,1.58,0,0,0-.25-.41c0,.15,0,.29,0,.41Zm0-2.72h-.41v.23h.41Zm0,.65h-.41v.27h.41Zm0,.69h-.41V9.1L19.19,9Zm.56-1.33h-.08c0,.47,0,1.44,0,2.19a2.2,2.2,0,0,0,.59-.46,3.66,3.66,0,0,1-.4-1.47h-.12Zm.59.25a2.88,2.88,0,0,0,.23,1,3.74,3.74,0,0,0,.21-1Z"/><path class="cls-1" d="M23.37,10.15c0-.25,0-.65,0-1h-.47v.09c0,.14,0,.41,0,.64h-.51c0-.22,0-.49,0-.71a3,3,0,0,1-.41.28A1.92,1.92,0,0,0,21.8,9a1.89,1.89,0,0,0,.75-.56h-.66V8l.94,0a.65.65,0,0,0,0-.13,5.3,5.3,0,0,1-.63.09,1.29,1.29,0,0,0-.17-.42A5.27,5.27,0,0,0,23,7.41l-.75-.15.21-.36c.46.08.86.18,1.26.29a1.37,1.37,0,0,0,.49-.3s0,0,0,0h0c.4.17.44.21.44.25s0,0-.07,0l-.11,0-.28.19c.18,0,.36.12.54.19l-.21.4q-.47-.19-.9-.33a5,5,0,0,1-.6.17c.29,0,.34,0,.34.1s0,0,0,0-.06,0-.07,0c.58,0,1.18,0,1.76,0v.48h-2a2.68,2.68,0,0,1-.23.3h.48a.9.9,0,0,0,0-.16.2.2,0,0,1,0-.08s0,0,.06,0h0c.55,0,.56,0,.56.08a.13.13,0,0,1,0,.07.22.22,0,0,0-.05.11h1v.71c0,.3-.11.44-.6.44h-.23a1.09,1.09,0,0,0-.13-.44l.3,0c.17,0,.18,0,.18-.1v-.2h-.52c0,.31,0,.7,0,1Z"/><path class="cls-1" d="M29,10.07l-1.71,0-1.68,0V9.61l1.42,0V9.49l-1,0V9.1l1,0V9L25.76,9V8.58h3V9L27.52,9v.12l1,0v.41l-1,0v.14l1.45,0Zm-1.31-2a1.34,1.34,0,0,1-.36.5,2,2,0,0,0-.29-.3v.15a4.36,4.36,0,0,1-.51,0c-.45,0-.66-.06-.66-.41V7.62h-.22V7.17l.58,0a.74.74,0,0,0,0-.24.45.45,0,0,1,0-.08s0,0,.05,0h0c.46,0,.54,0,.54.08a.09.09,0,0,1,0,.07.18.18,0,0,0-.05.11v.08l.52,0v.46c-.25,0-.5,0-.75,0h-.14v.32c0,.08,0,.09.08.1h.15A1.72,1.72,0,0,0,27,8v.18a1.09,1.09,0,0,0,.29-.48A3.65,3.65,0,0,0,27.38,7h1.49a8.4,8.4,0,0,1-.14,1.18c-.06.27-.17.41-.56.41H28a.81.81,0,0,0-.13-.38h.23c.14,0,.17,0,.19-.09Zm.13-.39s0,.07,0,.1h.54s0-.07,0-.1Zm.07-.39,0,.1h.51a.38.38,0,0,0,0-.1Z"/><path class="cls-1" d="M31,9.41h.09a.92.92,0,0,0,1-.89.88.88,0,0,0-.7-.87,4.72,4.72,0,0,1-.69,1.92.6.6,0,0,1-.49.3c-.38,0-.71-.51-.71-1.11a1.57,1.57,0,0,1,1.6-1.61,1.39,1.39,0,0,1,1.52,1.38A1.43,1.43,0,0,1,31.3,10,3.93,3.93,0,0,0,31,9.41Zm-1-.65c0,.34.15.54.21.54a3.12,3.12,0,0,0,.66-1.65A1.09,1.09,0,0,0,30,8.76Z"/><path class="cls-1" d="M34.17,10.15V10h-.4v.13h-.52c0-.37,0-.85,0-1.21v-.5h1.41v.31c0,.36,0,1,0,1.4Zm-.58-1.91V7h2.46V8.24Zm.59,1.32V8.9h-.42v.66Zm1.35-2.14H34.11v.37h1.42Zm.34,2.73V10h-.48v.13h-.51c0-.37,0-.85,0-1.21v-.5h1.48v.31c0,.36,0,1,0,1.4Zm0-1.25h-.5v.66h.5Z"/><path class="cls-1" d="M37.43,10.15c0-.3,0-.68,0-1.07-.31.11-.34.13-.36.15a.15.15,0,0,1-.08,0h0a2.17,2.17,0,0,1-.1-.53s0,0,.08,0a2,2,0,0,0,.49-.12V7.94h-.13c0,.18,0,.38,0,.58a1.64,1.64,0,0,0-.39-.19,4.53,4.53,0,0,0,.09-1V7.21a.45.45,0,0,1,0-.08s0,0,0,0h0l.37.06a0,0,0,0,1,0,0,.09.09,0,0,1,0,.06.14.14,0,0,0,0,.1v.14h.09a4.51,4.51,0,0,0,0-.56.17.17,0,0,1,0-.07s0,0,.06,0h0c.47,0,.51,0,.51.08A.08.08,0,0,1,38,7a.17.17,0,0,0,0,.11c0,.08,0,.21,0,.39h.22v.25a2,2,0,0,0,.29-.81v0s0-.05,0-.05h0c.43.07.47.1.47.13s0,0-.05.07-.07,0-.08.08a.43.43,0,0,1,0,.11h1.37v.17c0,.85,0,1.63-.07,2.18,0,.39-.1.56-.75.56H39.2a1.7,1.7,0,0,0-.13-.48l.31,0c.21,0,.22,0,.23-.14,0-.47.08-1.1.08-1.71V7.7h0a3.36,3.36,0,0,1-1.1,2.41,1.53,1.53,0,0,0-.36-.39,2.8,2.8,0,0,0,1-2h-.09a2.72,2.72,0,0,1-.69,1.48,1.65,1.65,0,0,0-.32-.36l-.2.08c0,.43,0,.87,0,1.25Zm.82-1.5a1.81,1.81,0,0,0,.43-1h0a2.39,2.39,0,0,1-.36.61A1.3,1.3,0,0,0,38,8H37.9v.48c.12,0,.23-.1.35-.15Z"/><path class="cls-1" d="M42.41,9.48c0-.18,0-.32,0-.44-.23.12-.33.22-.33.33s0,.19.53.19a2.73,2.73,0,0,0,1-.17,3,3,0,0,0,0,.46.66.66,0,0,0,0,.15c-.21,0-.51.05-.8.05-.74,0-1.17-.18-1.17-.65s.42-.69.82-.87a.18.18,0,0,0-.1-.14h-.08c-.35,0-.67.52-.89.94L40.85,9a4.2,4.2,0,0,0,.81-1.14l-.55,0L41,7.33a2.59,2.59,0,0,0,.44,0h.38A1.8,1.8,0,0,0,41.94,7V6.88s0,0,0,0h0l.57.1s0,0,0,0l0,0a.73.73,0,0,0-.12.27,3.11,3.11,0,0,0,.78-.18v.54a8,8,0,0,1-1,.14L42.15,8a.52.52,0,0,1,.18,0,.52.52,0,0,1,.54.36c.22-.11.45-.21.64-.33l.08-.06h0c0,.09.26.43.3.51v0s0,0-.06,0a3.29,3.29,0,0,0-.91.3c0,.17,0,.4,0,.63Z"/><path class="cls-1" d="M44.8,10.15c0-.33,0-.75,0-1.19a3.69,3.69,0,0,1-.17.5,2.74,2.74,0,0,0-.22-.53,4.16,4.16,0,0,0,.39-1.06h-.34V7.42l.34,0a2.89,2.89,0,0,0,0-.5.25.25,0,0,1,0-.07s0,0,.05,0h0c.42,0,.49,0,.49.08a.09.09,0,0,1,0,.07.15.15,0,0,0,0,.11c0,.07,0,.18,0,.32h.29v.46h-.29a4.48,4.48,0,0,0,.35.6,2.11,2.11,0,0,0-.19.46c-.06-.12-.11-.24-.16-.35,0,.53,0,1.11,0,1.57Zm2.41,0a1.16,1.16,0,0,1,0-.17H46.06v.17h-.48c0-.37,0-2,0-2.75V7h2.08v.54c0,.81,0,2.28,0,2.64Zm0-.59c0-.46,0-1.1,0-1.56V7.39H46.05V9.56Zm-.81-.07c0-.11,0-.44,0-.62a3.62,3.62,0,0,1-.19.4,1.91,1.91,0,0,0-.17-.41,2.44,2.44,0,0,0,.35-.68h-.3V7.77l.32,0a1,1,0,0,0,0-.24.51.51,0,0,1,0-.09s0,0,.05,0h0a2.23,2.23,0,0,1,.39,0s.06,0,.06,0a.07.07,0,0,1,0,0s-.05.08-.05.22l.33,0v.42h-.3a2.78,2.78,0,0,0,.36.68,1.6,1.6,0,0,0-.17.41c-.08-.14-.15-.28-.22-.42,0,.24,0,.47,0,.64Z"/><path class="cls-1" d="M50,8.28h-.2c-.19,0-.46,0-.71,0V8a4.57,4.57,0,0,1-.56.69,1.65,1.65,0,0,0-.29-.51A2.7,2.7,0,0,0,49,6.93c0-.07,0-.08,0-.08l.51.09a.06.06,0,0,1,0,.06s0,0,0,.06a.16.16,0,0,0-.07.08,0,0,0,0,0,0,0h2a6,6,0,0,1-.17,1.9,1.12,1.12,0,0,0,.38.15c-.08.72-.24.82-.54.83H49.19c-.33,0-.44-.19-.44-.49v-1H50Zm.53.6c.22,0,.26-.05.28-.16a6,6,0,0,0,.09-1v0H49.25a.64.64,0,0,1-.11.2h1.34v1Zm-.26.46A1,1,0,0,0,50.18,9h-.92v.42c0,.07,0,.12.13.12l.81,0c.24,0,.48,0,.67,0s.17,0,.2-.29a.93.93,0,0,1-.47.09,2.43,2.43,0,0,1-.36,0Z"/><path class="cls-1" d="M52.89,10.14a8,8,0,0,0-.91-1l.37-.31a10.19,10.19,0,0,1,1,.91Z"/><path class="cls-1" d="M23.12,14h-.85v.31c0,.09.05.1.24.1h.16c.09,0,.14,0,.15-.34a1.78,1.78,0,0,0,.45.2c-.05.49-.18.58-.46.6h-.59a.43.43,0,0,1-.46-.5v-.37h-.41c-.12.5-.43.76-1.16,1a1.2,1.2,0,0,0-.26-.45c.55-.13.79-.25.9-.51h-.72v-.48l.8,0c0-.08,0-.16,0-.24h-.21v-.14a3.34,3.34,0,0,1-.58.23,1.34,1.34,0,0,0-.21-.46,2.84,2.84,0,0,0,.66-.23,1.83,1.83,0,0,0-.39-.31l.34-.2h-.39v-.45c.37,0,.87,0,1.1,0h.12a.13.13,0,0,0,.1,0h0s.42.2.42.25,0,.06-.08.09l.06.06a1.22,1.22,0,0,0,.32-.42s0-.05,0-.05h0c.05,0,.43.17.43.23s0,.05-.07.06a.18.18,0,0,0-.09.06,3,3,0,0,1-.36.4l.14.11a1.81,1.81,0,0,0,.44-.53s0-.06,0-.06.45.18.45.26,0,0-.06,0a.2.2,0,0,0-.09.07,3.35,3.35,0,0,1-.38.43,3.59,3.59,0,0,0,.58.19,1.54,1.54,0,0,0-.2.46,3.94,3.94,0,0,1-.66-.26v.17h-.18v.24l.85,0Zm-2.51-1.82a2.79,2.79,0,0,1,.34.28,1.42,1.42,0,0,0,.27-.28Zm1,.26a3.09,3.09,0,0,1-.4.41H22A4.22,4.22,0,0,1,21.59,12.4Zm.17.85h-.35v.25h.35Z"/><path class="cls-1" d="M24.14,13.35h-.08a1.83,1.83,0,0,0-.32,0v-.54c.21,0,.56,0,.76,0h.14V14.1c.22.24.4.25,1.15.25.39,0,.83,0,1.3,0a2,2,0,0,0-.14.52H25.16a1.06,1.06,0,0,1-.76-.32,2.23,2.23,0,0,1-.36.27.21.21,0,0,0-.07.1s0,.05-.06.05a.07.07,0,0,1-.06-.06,3.65,3.65,0,0,1-.16-.49l.06,0a1,1,0,0,0,.39-.21Zm.24-.76a4,4,0,0,0-.61-.62l.35-.32a3.52,3.52,0,0,1,.65.58Zm2.64.82h-.7a1.24,1.24,0,0,0,.75.43,1.36,1.36,0,0,0-.25.47,1.75,1.75,0,0,1-.94-.74,1.56,1.56,0,0,1-.95.73,1.48,1.48,0,0,0-.25-.47,1.14,1.14,0,0,0,.73-.42h-.67v-.47l.83,0a1.79,1.79,0,0,0,0-.24h-.73v-.47h.48a3.18,3.18,0,0,0-.48-.4l.39-.26a4.12,4.12,0,0,1,.57.45l-.29.22h.66a3.28,3.28,0,0,0-.31-.21,1.05,1.05,0,0,0,.4-.4c0-.05,0-.06,0-.06a3.37,3.37,0,0,1,.44.2.05.05,0,0,1,0,0,.07.07,0,0,1-.06.06.1.1,0,0,0-.08.06,2.61,2.61,0,0,1-.29.29h.49v.46h-.75c0,.08,0,.17,0,.24l.94,0Z"/><path class="cls-1" d="M28.24,14.13c0-.37,0-1,0-1.54,0-.28,0-.53,0-.7a.51.51,0,0,1,0-.09s0,0,0,0h0c.61,0,.62.05.62.07a.07.07,0,0,1,0,.06,16.33,16.33,0,0,0-.11,2c0,.27.07.4.29.4a1.58,1.58,0,0,0,1.25-.92,2.38,2.38,0,0,0,.3.62,2.24,2.24,0,0,1-1.58.84.7.7,0,0,1-.77-.73Z"/><path class="cls-1" d="M31.55,12.17a18.45,18.45,0,0,0,2.39-.29l.24-.06s0,0,0,0,.13.38.17.49h0s-.06,0-.2,0c-.79.1-1.36.58-1.36,1.13s.67.69.92.69l.32,0a2.32,2.32,0,0,0-.12.57h-.19a1.28,1.28,0,0,1-1.45-1.19,1.45,1.45,0,0,1,.46-1,4.5,4.5,0,0,0-1.1.24l-.07,0s0,0,0-.05l-.14-.54v0s0,0,.07,0Z"/><path class="cls-1" d="M37.82,14a5.85,5.85,0,0,0-1-.84c0,.54,0,1.15,0,1.74h-.62c0-1,0-2.07,0-2.6l-1.18,0v-.54l1.64,0,1.64,0v.54l-1.53,0V13l.26-.27a9.8,9.8,0,0,1,1.16.85Z"/><path class="cls-1" d="M41.43,14a1.86,1.86,0,0,0-1-.3c-.33,0-.57.11-.57.3s.06.3.64.3a3,3,0,0,0,1-.18,1.77,1.77,0,0,0-.05.48v.15a6.19,6.19,0,0,1-.82.07c-.53,0-1.25-.12-1.25-.79,0-.5.47-.76,1-.76a1.55,1.55,0,0,1,.37,0q-.12-.16-.27-.42a8.23,8.23,0,0,1-1.19.11l-.13-.54a1.83,1.83,0,0,0,.35,0,4.86,4.86,0,0,0,.72-.06c-.07-.14-.14-.28-.2-.42S40,11.9,40,11.88h0l.56-.17a0,0,0,0,1,0,0v0a0,0,0,0,0,0,0,1.68,1.68,0,0,0,.18.52,2.12,2.12,0,0,0,.81-.33l.1.55a4,4,0,0,1-.67.23,2.93,2.93,0,0,0,.8.81Z"/><path class="cls-1" d="M43,12s0,0,0,0h0l.55.15a.05.05,0,0,1,0,.05.08.08,0,0,1,0,0,.26.26,0,0,0-.09.14,3.17,3.17,0,0,0-.11.86,2.06,2.06,0,0,0,.1.71.08.08,0,0,0,.08.07c.09,0,.39-.3.54-.59a3.58,3.58,0,0,0,.3.49,3.36,3.36,0,0,1-.46.54.61.61,0,0,1-.42.17.49.49,0,0,1-.46-.34,2.66,2.66,0,0,1-.18-1.08A7.82,7.82,0,0,1,43,12.13V12Zm2.3,2.11a.91.91,0,0,0,0-.17,2.32,2.32,0,0,0-.53-1.43l.51-.14A2.8,2.8,0,0,1,45.82,14Z"/><path class="cls-1" d="M47,14.89a.63.63,0,1,1,.63-.63A.63.63,0,0,1,47,14.89Zm0-1a.34.34,0,1,0,.34.34A.34.34,0,0,0,47,13.92Z"/><path class="cls-4" d="M30.69,1.74a.29.29,0,0,0-.33-.24c-.19,0-.29.1-.29.21s.06.16.23.21l.24.07c.32.1.45.25.45.51s-.21.47-.61.47a.59.59,0,0,1-.64-.54H30a.36.36,0,0,0,.36.29c.21,0,.33-.09.33-.22s-.1-.21-.28-.27l-.25-.07c-.29-.09-.39-.22-.39-.45s.23-.45.57-.45a.54.54,0,0,1,.6.48Z"/><path class="cls-4" d="M31.58,2.93V1.54h-.46V1.3h1.2v.24h-.47V2.93Z"/><path class="cls-4" d="M32.53,2.93V1.3H33.6v.24h-.8V2h.67V2.2H32.8v.49h.85v.24Z"/><path class="cls-4" d="M33.89,2.93V1.3h.63a.51.51,0,0,1,.56.51.51.51,0,0,1-.57.53h-.35v.59Zm.6-.83a.28.28,0,0,0,.31-.28c0-.19-.13-.28-.32-.28h-.32V2.1Z"/><path class="cls-4" d="M37,3.21a1.1,1.1,0,1,1,1.09-1.1A1.09,1.09,0,0,1,37,3.21Zm.5-.66H36.8a.47.47,0,0,1,.26-.26c.26-.12.42-.27.42-.48A.43.43,0,0,0,37,1.39a.49.49,0,0,0-.51.53h.28c0-.18.1-.27.22-.27s.2.07.2.17-.07.17-.25.25a.68.68,0,0,0-.45.59v.15h1Z"/></g></g></svg>