<svg xmlns="http://www.w3.org/2000/svg" viewBox="0 0 99.7 8.46"><defs><style>.cls-1{fill:#ad0005;}.cls-2{fill:none;stroke:#ad0005;stroke-miterlimit:10;stroke-width:0.3px;}.cls-3{fill:#fff;}</style></defs><g id="Layer_2" data-name="Layer 2"><g id="レイアウト"><path class="cls-1" d="M1.57.15A1.49,1.49,0,0,0,.15,1.7V6.76A1.48,1.48,0,0,0,1.57,8.31H17V.15Z"/><path class="cls-2" d="M1.57.15A1.49,1.49,0,0,0,.15,1.7V6.76A1.48,1.48,0,0,0,1.57,8.31H17V.15Z"/><path class="cls-3" d="M98.13.15H17V8.31H98.13a1.49,1.49,0,0,0,1.42-1.55V1.7A1.5,1.5,0,0,0,98.13.15Z"/><path class="cls-2" d="M98.13.15H17V8.31H98.13a1.49,1.49,0,0,0,1.42-1.55V1.7A1.5,1.5,0,0,0,98.13.15Z"/><path class="cls-3" d="M4,3.75c-.05-.26-.23-.37-.52-.37S3,3.54,3,3.71,3.1,4,3.37,4l.37.11c.49.15.71.39.71.79s-.34.73-1,.73a.92.92,0,0,1-1-.83h.44a.55.55,0,0,0,.56.44c.32,0,.5-.13.5-.34s-.14-.33-.43-.41l-.38-.12c-.46-.13-.61-.34-.61-.69S2.93,3,3.46,3a.83.83,0,0,1,.93.74Z"/><path class="cls-3" d="M5.38,5.61V3.45H4.66V3.07H6.52v.38H5.8V5.61Z"/><path class="cls-3" d="M6.87,5.61V3.07H8.53v.37H7.28V4.1h1v.37h-1v.77H8.6v.37Z"/><path class="cls-3" d="M9,5.61V3.07h1a.81.81,0,0,1,.88.8.79.79,0,0,1-.88.82H9.4v.92Zm.92-1.29a.43.43,0,0,0,.49-.44c0-.3-.21-.44-.5-.44H9.4v.88Z"/><path class="cls-3" d="M12.72,6.05a1.71,1.71,0,1,1,1.71-1.71A1.71,1.71,0,0,1,12.72,6.05Zm.79-1H12.44a.71.71,0,0,1,.4-.4c.42-.19.66-.42.66-.75a.67.67,0,0,0-.76-.66A.76.76,0,0,0,12,4h.43c0-.27.17-.41.34-.41s.31.11.31.26-.1.27-.39.4A1,1,0,0,0,12,5.2v.23h1.57Z"/><path class="cls-1" d="M34.78,5.39a6.79,6.79,0,0,0,.82.18.79.79,0,0,0-.13.25,5.8,5.8,0,0,1-.95-.28l.19-.15h-.62c.2.11.21.13.21.15s0,0,0,0l-.09,0a3.27,3.27,0,0,1-.83.22.75.75,0,0,0-.12-.25A2.46,2.46,0,0,0,34,5.39h-.45V4.25h1.72V5.39ZM33.35,4.15v-.6h2.11v.6ZM34,3.76h-.36v.18H34Zm1,.7H33.82v.11H35Zm0,.29H33.82v.13H35Zm0,.3H33.82v.13H35Zm-.4-1.29h-.36v.18h.36Zm.61,0h-.36v.18h.36Z"/><path class="cls-1" d="M36.76,5.81c0-.16,0-.35,0-.55-.24.07-.49.13-.65.16l-.07,0s0,0,0,0,0,0,0,0a2.38,2.38,0,0,1-.07-.29s0,0,0,0h0l.16,0V3.8h-.18V3.53l.61,0,.63,0v.15h1a3.22,3.22,0,0,1-.33,1.39,1.94,1.94,0,0,0,.44.47,1,1,0,0,0-.17.27,2.29,2.29,0,0,1-.43-.52,2.34,2.34,0,0,1-.48.52.8.8,0,0,0-.18-.26,1.83,1.83,0,0,0,.5-.5A3.1,3.1,0,0,1,37.24,4h-.1V3.81H37V4.2c0,.47,0,1.15,0,1.61Zm0-2h-.4V4h.4Zm0,.46h-.4v.26h.4Zm-.4.49v.33L36.77,5a1.93,1.93,0,0,1,0-.24Zm1.34,0A2.66,2.66,0,0,0,37.91,4h-.4A3.22,3.22,0,0,0,37.72,4.79Z"/><path class="cls-1" d="M39.75,5.81c0-.18,0-.42,0-.64V5h-.41v.11c0,.12,0,.31,0,.47h-.3c0-.17,0-.4,0-.57a1.51,1.51,0,0,1-.36.24A.61.61,0,0,0,38.59,5a1.67,1.67,0,0,0,.63-.48h-.56V4.27h.72a.65.65,0,0,0,0-.15l-.52.09a.58.58,0,0,0-.1-.25,5.5,5.5,0,0,0,.79-.12c-.19-.05-.41-.1-.65-.14l.14-.21c.29.06.57.14.86.23a1.25,1.25,0,0,0,.44-.26l0,0h0s.25.11.25.16a0,0,0,0,1,0,0l-.08,0a1.2,1.2,0,0,1-.32.17,4.25,4.25,0,0,1,.53.19l-.15.23A6.5,6.5,0,0,0,40,4a3.35,3.35,0,0,1-.44.13c.23,0,.25.06.25.08s0,0,0,0a.08.08,0,0,0,0,.06l1.29,0v.28H39.54a.73.73,0,0,1-.21.25h.43c0-.06,0-.11,0-.13a.39.39,0,0,1,0-.06s0,0,0,0h0c.31,0,.32,0,.32.06a.17.17,0,0,1,0,.05.38.38,0,0,0,0,.1h.72V5.3c0,.21-.06.3-.39.3h-.15a.66.66,0,0,0-.08-.25h.2c.14,0,.15,0,.15-.11V5H40c0,.22,0,.52,0,.78Z"/><path class="cls-1" d="M43.72,5.73H41.29V5.47h1.06V5.33h-.72V5.09l.72,0V5h-.9V4.72l1,0,1.06,0V5h-.92v.14l.75,0v.25h-.75v.15h1.08Zm-.76-1a.82.82,0,0,0-.08-.22h.18c.14,0,.17,0,.19-.13h-.53a.82.82,0,0,1-.24.38,1.07,1.07,0,0,0-.14-.18,2.17,2.17,0,0,1-.36,0c-.35,0-.46-.06-.46-.28V4h-.16V3.7l.43,0a1,1,0,0,0,0-.19l0-.06s0,0,0,0h0l.27,0a0,0,0,0,1,0,0l0,0a.19.19,0,0,0,0,.08v.09l.43,0V4L41.9,4h-.12v.27c0,.08,0,.11.23.11a1.37,1.37,0,0,0,.34,0v.18c.12-.12.23-.31.25-.93h1a6.11,6.11,0,0,1-.11.91c0,.16-.08.24-.45.24Zm-.15-.64,0,.12h.5l0-.12Zm0-.3s0,.08,0,.11h.48a.45.45,0,0,1,0-.11Z"/><path class="cls-1" d="M45.25,5.34a.71.71,0,0,0,.76-.7A.67.67,0,0,0,45.44,4c-.07.44-.38,1.62-.83,1.62-.26,0-.49-.39-.49-.77A1.11,1.11,0,0,1,45.25,3.7a1,1,0,0,1,1.07,1,1,1,0,0,1-1,1,1.24,1.24,0,0,0-.17-.32Zm-.84-.52c0,.23.1.44.2.44s.07,0,.11-.08A3.38,3.38,0,0,0,45.14,4,.82.82,0,0,0,44.41,4.82Z"/><path class="cls-1" d="M47.5,5.81a.66.66,0,0,0,0-.14h-.4s0,.09,0,.14h-.29c0-.31,0-.79,0-1V4.62h.95v.21c0,.26,0,.7,0,1Zm-.4-1.4V3.55h1.62v.86Zm.41.46h-.4v.55h.4Zm.92-1.07h-1v.36h1Zm.28,2V5.67h-.42v.14H48c0-.31,0-.79,0-1V4.62h1v.16c0,.25,0,.73,0,1Zm0-.94h-.43v.55h.43Z"/><path class="cls-1" d="M49.8,5.81c0-.23,0-.52,0-.81l-.2.07a.14.14,0,0,0-.08,0,.09.09,0,0,1-.06,0s0,0,0,0-.06-.26-.06-.28,0,0,0,0a1.63,1.63,0,0,0,.38-.1V4.19h-.14c0,.14,0,.28-.08.42a1.28,1.28,0,0,0-.21-.15,3.13,3.13,0,0,0,.11-.73.35.35,0,0,0,0-.06,0,0,0,0,1,0,0h0l.22,0s0,0,0,0l0,0c0,.05,0,.05,0,.2h.11c0-.24,0-.4,0-.43l0-.06s0,0,0,0h0c.29,0,.31,0,.31,0a.05.05,0,0,1,0,0,.2.2,0,0,0,0,.11s0,.15,0,.29h.22v.23a1.56,1.56,0,0,0,.21-.65s0-.07,0-.07h0c.26,0,.29.06.29.09l0,0a.16.16,0,0,0-.06.08l0,.13h1a12.65,12.65,0,0,1-.07,1.65c0,.28-.1.38-.47.38H51A.63.63,0,0,0,51,5.53h.23c.16,0,.19,0,.2-.12,0-.39.07-.87.07-1.32V4h-.1a2.11,2.11,0,0,1-.79,1.72.52.52,0,0,0-.2-.21A1.79,1.79,0,0,0,51.1,4H51a1.63,1.63,0,0,1-.52,1.08.67.67,0,0,0-.18-.21A1.11,1.11,0,0,0,50.72,4h-.09a1.22,1.22,0,0,1-.26.44.77.77,0,0,0-.16-.22l0-.06h-.19v.44l.27-.12v.27l-.27.12c0,.31,0,.63,0,.91Z"/><path class="cls-1" d="M53.36,5.31V5c-.2.1-.32.2-.32.3s.32.16.45.16a1.69,1.69,0,0,0,.66-.12,1.85,1.85,0,0,0,0,.24v.13c-.17,0-.39,0-.59,0-.73,0-.79-.26-.79-.43s.31-.47.6-.6c0-.14-.07-.16-.15-.16-.31,0-.55.48-.64.66L52.28,5a3.1,3.1,0,0,0,.58-.86h-.43l0-.31a1.28,1.28,0,0,0,.31,0H53L53,3.55h0s0,0,0,0a0,0,0,0,1,0,0h0l.34.06s0,0,0,0v0a.24.24,0,0,0,0,.09s0,.09-.05.13a2.6,2.6,0,0,0,.59-.13V4c-.19,0-.44.07-.7.09a1.89,1.89,0,0,1-.09.21l.19,0a.35.35,0,0,1,.35.29,3.85,3.85,0,0,0,.5-.24l0,0h0l.18.3s0,0,0,0,0,0,0,0a5.46,5.46,0,0,0-.68.23c0,.12,0,.28,0,.44Z"/><path class="cls-1" d="M55.11,5.81c0-.31,0-.76,0-1.14a2.3,2.3,0,0,1-.21.59A1.25,1.25,0,0,0,54.79,5a3.51,3.51,0,0,0,.32-.82h-.28V3.9h.29a2.09,2.09,0,0,0,0-.38l0-.06s0,0,0,0h0c.22,0,.31,0,.31,0a.09.09,0,0,1,0,0,.22.22,0,0,0,0,.1v.26h.23v.26h-.24a2.39,2.39,0,0,0,.28.49,1.19,1.19,0,0,0-.12.24,2.32,2.32,0,0,1-.16-.36c0,.4,0,.92,0,1.29Zm1.74,0a.53.53,0,0,0,0-.13h-.93v.13h-.29c0-.38,0-1.19,0-1.73V3.55h1.47v.27c0,.49,0,1.54,0,2Zm0-.37V3.79h-.95V5.44Zm-.6-.06c0-.19,0-.46,0-.69a1.9,1.9,0,0,1-.22.5A1,1,0,0,0,56,5a2,2,0,0,0,.31-.62H56V4.11l.3,0a.67.67,0,0,0,0-.21.2.2,0,0,1,0-.07s0,0,0,0h0c.25,0,.26,0,.26.06s0,0,0,0a.29.29,0,0,0,0,.1v.09l.3,0v.24h-.29a2.38,2.38,0,0,0,.33.59,1,1,0,0,0-.12.23,1.94,1.94,0,0,1-.22-.49c0,.22,0,.5,0,.71Z"/><path class="cls-1" d="M58.21,4.93v.41c0,.07,0,.1.12.11h1.12c.12,0,.16,0,.19-.36a1.06,1.06,0,0,0,.29.15c-.07.44-.17.48-.39.49H58.22c-.23,0-.3-.14-.3-.33V4.68h.86V4.39h-.13c-.14,0-.37,0-.56,0V4.19a2.74,2.74,0,0,1-.44.54,1.08,1.08,0,0,0-.16-.3,1.86,1.86,0,0,0,.6-.9s0-.08,0-.08h0c.29,0,.32.07.32.09a.05.05,0,0,1,0,0s-.05,0-.08.12h1.38a7.72,7.72,0,0,1-.07,1.17c0,.29-.12.38-.48.38H59A1,1,0,0,0,58.9,5h.25c.17,0,.19,0,.21-.12A6.38,6.38,0,0,0,59.43,4H58.22a.51.51,0,0,1-.09.16h.94v.79Z"/><path class="cls-1" d="M60.8,5.82a5.78,5.78,0,0,0-.62-.67l.2-.19c.2.17.47.41.67.62Z"/><path class="cls-1" d="M65.18,5.11l-.68,0v.29c0,.08,0,.09.23.09h.14c.11,0,.13,0,.13-.29a1.5,1.5,0,0,0,.27.12c-.06.43-.12.44-.55.44s-.5,0-.5-.32V5.09h-.33c-.07.35-.27.56-.81.72a.83.83,0,0,0-.15-.26c.41-.11.61-.23.68-.46l-.57,0V4.84h.61c0-.08,0-.16,0-.25h-.19V4.47a2,2,0,0,1-.44.21.8.8,0,0,0-.14-.26,1.71,1.71,0,0,0,.55-.22,1.52,1.52,0,0,0-.32-.26l.2-.14a2.12,2.12,0,0,1,.31.25.67.67,0,0,0,.24-.26h-.8V3.55h.86a.09.09,0,0,0,.07,0h0a.65.65,0,0,1,.24.15s0,0,0,.06l.07.09a.88.88,0,0,0,.26-.31s0,0,0,0,.27.11.27.15,0,0,0,0a.13.13,0,0,0-.07.06,3.54,3.54,0,0,1-.28.29l.15.11a1.39,1.39,0,0,0,.33-.38s0,0,0,0h0c.06,0,.25.12.25.16s0,0,0,0a.17.17,0,0,0-.08.06,2.61,2.61,0,0,1-.29.31,1.73,1.73,0,0,0,.5.15.76.76,0,0,0-.13.28,2.09,2.09,0,0,1-.5-.21v.15h-.2v.25h.68ZM64.07,3.94a1,1,0,0,1-.42.41h.87A1.48,1.48,0,0,1,64.07,3.94Zm.15.65h-.3v.26h.3Z"/><path class="cls-1" d="M67.7,5.74H66.64a.73.73,0,0,1-.54-.23,2.64,2.64,0,0,1-.26.2s0,0-.06.07,0,0,0,0,0,0,0,0-.11-.25-.11-.27,0,0,0,0a1,1,0,0,0,.3-.18V4.66h-.31v-.3l.48,0h.11v.87a.57.57,0,0,0,.43.2h.45c.3,0,.62,0,.93,0a1.18,1.18,0,0,0-.09.31ZM66.07,4.12a2.57,2.57,0,0,0-.39-.47l.22-.17a2.52,2.52,0,0,1,.4.45Zm1.84.58h-.54a.93.93,0,0,0,.6.44.9.9,0,0,0-.14.28,1.36,1.36,0,0,1-.71-.67,1.19,1.19,0,0,1-.68.66.94.94,0,0,0-.15-.28.86.86,0,0,0,.58-.43h-.52V4.42l.3,0H67a2.44,2.44,0,0,0,0-.28h-.53V3.9h.38a3.31,3.31,0,0,0-.33-.32l.22-.14c.12.1.22.19.36.33l-.2.13h.5l-.21-.12a.78.78,0,0,0,.26-.29s0,0,0,0,.28.09.28.13,0,0,0,0,0,0-.06,0a1.7,1.7,0,0,1-.23.24h.4v.27h-.56a2.62,2.62,0,0,1,0,.28c.24,0,.44,0,.68,0Z"/><path class="cls-1" d="M69.19,5.19c0,.18.09.28.25.28a1.15,1.15,0,0,0,.9-.64,1.43,1.43,0,0,0,.17.35,1.49,1.49,0,0,1-1.08.58.48.48,0,0,1-.54-.49v0c0-.27,0-.75,0-1.14,0-.17,0-.33,0-.44s0,0,0-.07,0,0,0,0h0l.34,0s0,0,0,0a0,0,0,0,1,0,0,12.33,12.33,0,0,0-.07,1.51Z"/><path class="cls-1" d="M72.85,5.67c-.91,0-1.06-.6-1.06-.85a1,1,0,0,1,.38-.76,3.68,3.68,0,0,0-.86.18h0s0,0,0,0-.06-.22-.07-.31v0s0,0,0,0h.05a11.68,11.68,0,0,0,1.66-.2l.17,0s0,0,.13.3h0s0,0-.14,0a1,1,0,0,0-1,.86c0,.4.38.53.71.53H73a1.21,1.21,0,0,0-.08.34Z"/><path class="cls-1" d="M74.61,5.81c0-.74,0-1.62,0-2l-.89,0V3.56l1.16,0,1.19,0v.31l-1.16,0v.37c0,.42,0,1,0,1.59Zm1.11-.74A3.76,3.76,0,0,0,75,4.46l.2-.21a6.79,6.79,0,0,1,.81.58Z"/><path class="cls-1" d="M78.3,5.1a1.3,1.3,0,0,0-.65-.18c-.29,0-.52.1-.52.26s.39.23.54.23a2,2,0,0,0,.64-.11,1.39,1.39,0,0,0,0,.3v.06a4,4,0,0,1-.58,0c-.37,0-.86-.09-.86-.54s.36-.51.77-.51l.26,0a3.36,3.36,0,0,1-.25-.37,4.88,4.88,0,0,1-.85.07l-.08-.3h.23a2.9,2.9,0,0,0,.56,0l-.15-.32s0-.06,0-.07h0l.33-.1s0,0,0,0h0v0a1.44,1.44,0,0,0,.13.39,1.42,1.42,0,0,0,.59-.23l.06.32a3.81,3.81,0,0,1-.51.17,2.09,2.09,0,0,0,.59.6Z"/><path class="cls-1" d="M79.41,3.78s0,0,0,0h0a2.23,2.23,0,0,1,.32.09s0,0,0,0a.05.05,0,0,1,0,0,.15.15,0,0,0-.06.09,2.23,2.23,0,0,0-.09.63c0,.24.07.62.17.62s.35-.35.4-.44a1.41,1.41,0,0,0,.18.29,2,2,0,0,1-.31.36.48.48,0,0,1-.29.12c-.36,0-.43-.6-.43-1a6,6,0,0,1,.06-.78V3.78Zm1.68,1.45V5.11a1.57,1.57,0,0,0-.36-1l.3-.08a2.09,2.09,0,0,1,.39,1.1Z"/><path class="cls-1" d="M82.21,5.78a.41.41,0,0,1-.41-.42A.41.41,0,0,1,82.21,5a.41.41,0,0,1,.42.41A.42.42,0,0,1,82.21,5.78Zm0-.67a.26.26,0,0,0-.26.25.26.26,0,0,0,.52,0A.26.26,0,0,0,82.21,5.11Z"/></g></g></svg>