<svg xmlns="http://www.w3.org/2000/svg" viewBox="0 0 67.75 17.37"><defs><style>.cls-1{fill:#b20005;}.cls-2{fill:none;}.cls-2,.cls-3{stroke:#b20005;stroke-miterlimit:10;stroke-width:0.26px;}.cls-3,.cls-4{fill:#fff;}</style></defs><g id="Layer_2" data-name="Layer 2"><g id="レイアウト"><path class="cls-1" d="M67.62,2A1.86,1.86,0,0,0,65.72.13H2A1.86,1.86,0,0,0,.13,2V4.53H67.62Z"/><path class="cls-2" d="M67.62,2A1.86,1.86,0,0,0,65.72.13H2A1.86,1.86,0,0,0,.13,2V4.53H67.62Z"/><path class="cls-3" d="M.13,4.53V15.42A1.86,1.86,0,0,0,2,17.24H65.72a1.86,1.86,0,0,0,1.9-1.82V4.53Z"/><path class="cls-1" d="M15.76,10.08l-1.7,0-1.67,0V9.63h.49V8.22l-.3.08a1.15,1.15,0,0,0-.21-.46,2.51,2.51,0,0,0,1-.31h-.83V7.1l1.27,0a.45.45,0,0,0,0-.17.15.15,0,0,1,0-.08s0,0,.05,0h0c.5,0,.54.05.54.08a.08.08,0,0,1,0,.07.23.23,0,0,0,0,.09v0l1.31,0v.44h-.86a2.62,2.62,0,0,0,1,.31,1.26,1.26,0,0,0-.22.46l-.29-.07V9.64h.49Zm-2-2a3.15,3.15,0,0,0,0-.38,2.47,2.47,0,0,1-.73.44H15a2.58,2.58,0,0,1-.73-.44s0,.27,0,.38Zm.95.43H13.39v.15h1.36Zm0,.48H13.39v.15h1.36Zm0,.48H13.39v.17h1.36Z"/><path class="cls-1" d="M19.07,9.05h-.93v.52h.43l1,0a2.08,2.08,0,0,0-.12.52h-.64c-1,0-1.45-.07-1.83-.48a1.54,1.54,0,0,1-.46.56,2.13,2.13,0,0,0-.34-.44,1.65,1.65,0,0,0,.6-1.16.56.56,0,0,0,0-.07s0,0,0,0h0c.47.1.53.12.53.17s0,0,0,.07,0,.05-.05.08-.05.22-.09.35a1.16,1.16,0,0,0,.48.35V8.29h-1V8h-.37c0-.21,0-.49,0-.68v-.2h1.28a1,1,0,0,0,0-.21l0-.08s0,0,.05,0h0c.52,0,.61,0,.61.09s0,0,0,.06a.12.12,0,0,0-.05.09.2.2,0,0,1,0,.07h1.35v.11c0,.18,0,.52,0,.77h-.3V8.3h-1v.3l.93,0Zm-.16-1.43H16.78v.21h2.13Z"/><path class="cls-1" d="M22.82,9.47a2,2,0,0,0,.5.31,1.67,1.67,0,0,0-.25.37,3.26,3.26,0,0,1-.63-.51l.24-.17h-.52c.19.09.26.13.26.17s0,0,0,0l-.09.07a2.14,2.14,0,0,1-.61.4,1.17,1.17,0,0,0-.17-.33,2.53,2.53,0,0,0,0,.29h-.45a.37.37,0,0,0,0-.11h-.45v.15h-.44c0-.22,0-.6,0-.89V9l-.15,0a1.42,1.42,0,0,0-.13-.41,1.61,1.61,0,0,0,.65-.17l-.21-.1a1.39,1.39,0,0,1-.19.15,1.42,1.42,0,0,0-.25-.35,1.28,1.28,0,0,0,.42-.35h-.4c0-.19,0-.7,0-.7h.64a.61.61,0,0,0,0-.14.17.17,0,0,1,0-.08s0,0,0,0h0l.43,0s.05,0,.05,0a.21.21,0,0,1,0,.06.21.21,0,0,0,0,.1h.61V7l.79,0,.82,0V7.4h-.64l0,.15h.57V9.47Zm-2.46-2c0,.08,0,.19,0,.27a.93.93,0,0,0,.08-.2s0-.06,0-.06h0c.39.08.4.1.4.12a.07.07,0,0,1-.06.06h.26a.17.17,0,0,0,.1,0h.07l0,0V7.47Zm1,1.42A3,3,0,0,0,21,8.66a1.41,1.41,0,0,1-.46.23ZM20.65,8l0,.06a1.94,1.94,0,0,1,.3.13A1.25,1.25,0,0,0,21.06,8Zm.44,1.27h-.47v.34h.47Zm.65.2V7.54h.39a.88.88,0,0,0,.05-.15h-.49c0,.12,0,.26,0,.35h-.22l.11.06s0,0,0,.05-.1.1-.11.13a2.9,2.9,0,0,1-.24.38,3.84,3.84,0,0,1,.39.22l-.23.3h.07v.37c0,.16,0,.33,0,.49A1.13,1.13,0,0,0,22,9.47Zm1-1.54h-.56v.15h.56Zm0,.48h-.56v.16h.56Zm0,.5h-.56v.17h.56Z"/><path class="cls-1" d="M24.24,10A2.89,2.89,0,0,1,24,8.83a15,15,0,0,1,.19-1.64V7.13s0,0,0,0l0,0a2.25,2.25,0,0,1,.56.22.05.05,0,0,1,0,0,3.4,3.4,0,0,0-.33,1.5.53.53,0,0,0,0,.13l.21-.42.26.2a2,2,0,0,0-.26,1.05v.09Zm1.34-1.1a.61.61,0,0,0-.07.22c0,.12.09.21.45.21a3.35,3.35,0,0,0,.92-.14,2.34,2.34,0,0,0-.05.47.45.45,0,0,0,0,.12,5.84,5.84,0,0,1-.81.06c-.33,0-1,0-1-.63a1.24,1.24,0,0,1,.07-.39ZM26.75,8a3,3,0,0,0-.54,0,4.71,4.71,0,0,0-1.06.1V7.51a9,9,0,0,1,1.3-.09h.3Z"/><path class="cls-1" d="M30.47,9.74a8.06,8.06,0,0,1-1.31.12,4.5,4.5,0,0,1-.54,0c-.48-.06-.78-.34-.78-.7a1,1,0,0,1,.35-.69l.42.27c-.17.16-.25.29-.25.39s.24.25.76.25a4.12,4.12,0,0,0,1.33-.22ZM28.69,8a2,2,0,0,0,.23-.17h-.74l-.05-.55a3,3,0,0,0,.71.06,4.79,4.79,0,0,0,.83-.06.77.77,0,0,0,.12,0l0,0a5.06,5.06,0,0,1,.26.44s-.09,0-.16.07a3.77,3.77,0,0,0-.8.5ZM30,8.52a2.51,2.51,0,0,0-.33-.4L29.93,8a3,3,0,0,1,.34.38Zm.39-.2a2.85,2.85,0,0,0-.33-.39l.26-.14c.11.11.23.25.33.37Z"/><path class="cls-1" d="M31.73,10.15c0-.36,0-.84,0-1.19l0,0a.13.13,0,0,0,0,.1,6.71,6.71,0,0,1-.1.89,3.12,3.12,0,0,0-.34-.17A4.62,4.62,0,0,0,31.35,9a.15.15,0,0,0,0-.07s0,0,0-.06a0,0,0,0,1,0,0h0a1.54,1.54,0,0,1,.35.07v-.2c-.27,0-.28,0-.32.06a.13.13,0,0,1-.07,0s0,0,0,0a2.7,2.7,0,0,1-.07-.35s0,0,0,0,0,0,0,0h.17l.21-.29a3.93,3.93,0,0,0-.41-.55l.23-.31.08.09a1.3,1.3,0,0,0,.14-.35c0-.07,0-.08,0-.08s.48.07.48.15,0,0-.06.06-.06.05-.08.08a4.32,4.32,0,0,1-.25.45l.08.12a3.59,3.59,0,0,0,.22-.38c0-.07,0-.09,0-.09s.44.11.44.18,0,0,0,.06a.2.2,0,0,0-.07.09L32.14,8l.31-.08a3.38,3.38,0,0,1,.19.76l-.33.06s0-.09,0-.14l-.1,0c0,.31,0,1,0,1.51ZM32.14,8l-.21.27.28,0C32.19,8.19,32.16,8.11,32.14,8Zm1.94,1.26-.31.22c-.05-.21-.11-.41-.17-.6a2.06,2.06,0,0,1-.29.67,1.72,1.72,0,0,0-.21-.33c0,.36,0,.69,0,.9h-.49c0-.11,0-.25,0-.42l-.32.08a7.19,7.19,0,0,0-.12-1l.31-.07c.06.25.1.47.14.75V7.28h.71a1.81,1.81,0,0,0,0-.33.45.45,0,0,1,0-.08s0,0,.05,0h0c.46,0,.51,0,.51.08a.1.1,0,0,1,0,.07.17.17,0,0,0,0,.11v.17h.72V9.66c0,.36-.12.48-.56.48h-.22a1.45,1.45,0,0,0-.13-.49l.33,0c.13,0,.14,0,.14-.07Zm-1-1.55c0,.23,0,.75,0,1.26a2.87,2.87,0,0,0,.26-1.26Zm1,0h-.3a3.77,3.77,0,0,1,0,.45c.12.3.23.55.33.84Z"/><path class="cls-1" d="M35.58,6.93c0-.07,0-.09,0-.09l.46.09s.07,0,.07.05,0,0,0,.06a.18.18,0,0,0-.07.09,3,3,0,0,1-.83,1A1.34,1.34,0,0,0,35,7.66,1.43,1.43,0,0,0,35.58,6.93Zm-.17,3.22c0-.36,0-.87,0-1.25l-.26.22A1.45,1.45,0,0,0,35,8.61a1.6,1.6,0,0,0,.65-.82c0-.07,0-.09,0-.09s.43.09.45.09.06,0,.06,0a.09.09,0,0,1,0,.07.2.2,0,0,0-.08.08,2.21,2.21,0,0,1-.18.34v.8c0,.38,0,.77,0,1ZM38,9.63c0,.35-.1.51-.65.51h-.17a2.71,2.71,0,0,0-.1-.44l-.25.24a5.62,5.62,0,0,0-.64-.48l.22-.19H36V8.83l1.23,0h.26V8.72h-.32l-1,0V8.31l1.06,0,1.08,0v.43H38v.11h.41v.45H38ZM36.24,8.21V7h1.94V8.21Zm1.25,1.06h-.82a4.93,4.93,0,0,1,.49.34l0,.05h.2c.16,0,.18-.05.18-.16Zm.22-1.95h-1v.1h1Zm0,.42h-1v.12h1Z"/><path class="cls-1" d="M39.3,7.48h-.52V7l.66,0,.66,0v.52h-.3v2c0,.51-.13.64-.59.64H39a1.86,1.86,0,0,0-.11-.53h.23c.18,0,.19-.05.19-.18Zm2.25,2a2.88,2.88,0,0,0,.63.28,1.26,1.26,0,0,0-.27.39,4.15,4.15,0,0,1-.83-.5l.25-.17h-.5c.23.11.24.12.24.16a0,0,0,0,1,0,0,.23.23,0,0,0-.11.07,2.47,2.47,0,0,1-.83.4,1.06,1.06,0,0,0-.23-.41,1.54,1.54,0,0,0,.72-.26h-.36V7.54h.52l0-.14-.62,0V7l1,0,1,0v.47c-.29,0-.57,0-.84,0a1.21,1.21,0,0,0-.05.14H42V9.48ZM41.5,8h-.82v.13h.82Zm0,.48h-.82v.14h.82Zm0,.49h-.82v.16h.82Z"/><path class="cls-1" d="M43.19,9.93a2.88,2.88,0,0,1-.28-1.32c0-.63.12-1.2.13-1.48V7.07s0,0,0,0h0l.55.18s0,0,0,0a.06.06,0,0,1,0,0,3.08,3.08,0,0,0-.29,1.35,2,2,0,0,0,0,.35l.23-.48.31.23a2,2,0,0,0-.26,1.09Zm2.63-1.87a3.85,3.85,0,0,1-.52.11c0,.21,0,.41,0,.63a1.48,1.48,0,0,1-.87,1.29,2.46,2.46,0,0,0-.52-.4,1.06,1.06,0,0,0,.88-.92c0-.11,0-.25,0-.39V8.22H44l-.11-.51a3.06,3.06,0,0,0,.56,0h.36c0-.22,0-.45-.07-.62l0-.07h0l.57,0s0,0,0,0a0,0,0,0,1,0,0,.22.22,0,0,0,0,.11c0,.16,0,.31,0,.45a2.08,2.08,0,0,0,.53-.16Z"/><path class="cls-1" d="M46.53,9.85A7.09,7.09,0,0,0,47.19,8h-.48l-.06-.55a2.89,2.89,0,0,0,.53,0h.12c.05-.27.07-.5.08-.54h0s0,0,0-.07,0,0,0,0h0a3.89,3.89,0,0,1,.53.09S48,7,48,7l0,0a.2.2,0,0,0-.06.12l-.07.29a2.37,2.37,0,0,0,.65-.17l0,.55a5.07,5.07,0,0,1-.75.13c-.19.74-.41,1.46-.62,2.09Zm3,0a5.09,5.09,0,0,1-.91.09c-.83,0-.94-.38-.94-.6A1.08,1.08,0,0,1,47.79,9l.49.07a.53.53,0,0,0-.07.23c0,.11.11.16.36.16a2.57,2.57,0,0,0,1-.18Zm-.24-1.27a3.16,3.16,0,0,0-.55,0,3.47,3.47,0,0,0-.79.08l0-.52a10,10,0,0,1,1.23-.07h.12Z"/><path class="cls-1" d="M50.56,9.19a7,7,0,0,0,.19-1.5v0s0-.08,0-.1,0,0,0,0h0l.51.08s.05,0,.05,0l0,0c0,.06-.06.14-.15,1a1.84,1.84,0,0,1,1.07-.41.85.85,0,0,1,1,.85c0,.58-.58,1-1.51,1h-.22a4.67,4.67,0,0,0-.18-.64,1.92,1.92,0,0,0,.59.1c.47,0,.79-.21.79-.46s-.14-.36-.46-.36a1.33,1.33,0,0,0-1.09.66ZM52,7.83a3.85,3.85,0,0,0-1.13-.51l.25-.45a5.94,5.94,0,0,1,1.15.49Z"/><path class="cls-1" d="M54.78,10.14a8.9,8.9,0,0,0-.91-1l.36-.31a10.27,10.27,0,0,1,1,.91Z"/><path class="cls-1" d="M15.58,14.07a10.06,10.06,0,0,1-1,.39.18.18,0,0,0-.1.07.07.07,0,0,1-.06,0s0,0-.05-.06-.09-.43-.09-.5,0,0,.06,0a2.06,2.06,0,0,0,.35-.07V13.2h-.32v-.48l.32,0v-.5h-.37v-.48h1.24v.48h-.39v.5l.3,0v.48h-.3v.56l.42-.18Zm.34-.24a.2.2,0,0,0,0-.05s0,0,0,0l.47.05a0,0,0,0,1,.05,0,.09.09,0,0,1,0,.06.18.18,0,0,0-.07.1c-.06.28-.24.75-1.07.9a1.3,1.3,0,0,0-.21-.44c.26,0,.84-.12.84-.63ZM17,13.72v.66s0,.06.1.06.15,0,.17-.49a1.25,1.25,0,0,0,.39.18c0,.73-.18.74-.59.74s-.53-.06-.53-.45v-.7h-.9v-2h1.77v2ZM17,12.14h-.84v.13H17Zm0,.49h-.84v.15H17Zm0,.51h-.84v.17H17Z"/><path class="cls-1" d="M21.36,14.82l-1.64,0-1.62,0v-.5h.72a2,2,0,0,0-.3-.51L19,13.7a3.17,3.17,0,0,1,.34.54l-.26.09h.38v-.65c-.33,0-.67,0-1.06,0v-.49h1.06V13h-.56v-.2c-.17.08-.37.16-.59.24a1.38,1.38,0,0,0-.27-.51,2,2,0,0,0,1.44-.86s0-.08,0-.08a4.3,4.3,0,0,1,.57.15s.05,0,.05.05,0,.06-.11.1a2.88,2.88,0,0,0,1.43.62,1.61,1.61,0,0,0-.28.51,5.49,5.49,0,0,1-.65-.23V13L20,13v.24l1.1,0v.49c-.4,0-.76,0-1.1,0v.65h.47l-.35-.09a1.11,1.11,0,0,0,.24-.46h0c0-.06,0-.07,0-.07h0c.46,0,.52.07.52.11a.05.05,0,0,1,0,0,.2.2,0,0,0-.08.08,2.08,2.08,0,0,1-.18.38h.73Zm-1.68-2.55a2.89,2.89,0,0,1-.37.31h.77A2.87,2.87,0,0,1,19.68,12.27Z"/><path class="cls-1" d="M22.05,12.18a18.45,18.45,0,0,0,2.39-.29c.13,0,.19-.06.23-.06l0,0c0,.1.12.38.17.49h0s-.07,0-.2,0c-.79.1-1.36.59-1.36,1.13s.66.69.92.69l.32,0a2.42,2.42,0,0,0-.12.57h-.19a1.27,1.27,0,0,1-1.45-1.18,1.46,1.46,0,0,1,.46-1,5.18,5.18,0,0,0-1.1.24l-.07,0s0,0,0-.05l-.14-.54v0s0,0,.07,0Zm2.55,1.11a3,3,0,0,0-.33-.39l.25-.16a3.88,3.88,0,0,1,.34.38Zm.35-.23a2,2,0,0,0-.33-.39l.25-.15a3.07,3.07,0,0,1,.34.38Z"/><path class="cls-1" d="M27.14,14.34a.42.42,0,0,1-.46.47c-.14,0-.86-.11-.86-.65v-.05c0-.32.33-.6.85-.88v-.4c-.19,0-.38,0-.54,0h-.07l-.08-.5.24,0,.45,0c0-.19,0-.37,0-.49s0-.08,0-.1,0,0,0,0h0l.54.05s0,0,0,0a.1.1,0,0,1,0,.06s0,.08-.07.39a4,4,0,0,0,.5-.13v.52c-.16,0-.33.07-.51.09a2.17,2.17,0,0,1,0,.26,2.69,2.69,0,0,1,.57-.07.94.94,0,0,1,1,.9.83.83,0,0,1-.82.88.61.61,0,0,1-.64-.63.89.89,0,0,1,0-.22,2.3,2.3,0,0,0,.45-.12.93.93,0,0,0-.05.24c0,.16.08.22.18.22a.35.35,0,0,0,.32-.38c0-.23-.18-.44-.54-.44a1.53,1.53,0,0,0-.54.11Zm-.81-.23c0,.1.15.18.22.18s.08,0,.09-.12,0-.24,0-.4C26.54,13.83,26.33,14,26.33,14.11Zm2.27-1a3.84,3.84,0,0,0-.83-.71l.33-.34a4.91,4.91,0,0,1,.86.69Z"/><path class="cls-1" d="M32.69,12.56c-.48,0-.94,0-1.39,0,0,.11,0,.23,0,.36h.48a.19.19,0,0,0,.14-.05h0c.05,0,.5.21.5.27s-.12.11-.14.14a3.77,3.77,0,0,1-.74.86,4.32,4.32,0,0,0,1.15.27,1.5,1.5,0,0,0-.2.53,4.4,4.4,0,0,1-1.46-.46,4.79,4.79,0,0,1-1.52.46,1.74,1.74,0,0,0-.21-.52,4.2,4.2,0,0,0,1.24-.28,3.45,3.45,0,0,1-.67-.74h-.33v-.5l.54,0h.6c0-.12,0-.24,0-.36-.44,0-.88,0-1.34,0V12l1.34,0c0-.17,0-.29,0-.34a.15.15,0,0,1,0-.08s0,0,0,0h0c.56,0,.64.05.64.09s0,.05,0,.08a.24.24,0,0,0-.05.14v.13l1.39,0Zm-2.16.8a2.39,2.39,0,0,0,.55.5,2,2,0,0,0,.55-.5Z"/><path class="cls-1" d="M34.15,14.37c0,.42-.15.54-.61.54h-.25a1.64,1.64,0,0,0-.15-.52,1.52,1.52,0,0,0,.28,0c.21,0,.22-.05.22-.16s0-.29,0-.48c-.21.07-.27.09-.3.13a.15.15,0,0,1-.08,0s0,0-.05-.06-.1-.43-.1-.52,0,0,.09,0a2,2,0,0,0,.44-.09v-.51h-.44v-.51l.22,0h.22a3.54,3.54,0,0,0,0-.53.45.45,0,0,1,0-.08s0,0,0,0h0c.55,0,.57.05.57.09s0,0,0,.07a.17.17,0,0,0,0,.13,2.57,2.57,0,0,0,0,.34l.45,0v.51h-.45v.36l.42-.15v.5l-.42.16v.78Zm1.86.52-.09-.35c-.54.1-1,.19-1.32.22a.15.15,0,0,0-.1.07.1.1,0,0,1-.08.05s0,0-.05,0a3.85,3.85,0,0,1-.17-.58s0,0,0,0h.23A11.43,11.43,0,0,0,35,11.8v-.07a.32.32,0,0,1,0-.08s0,0,0,0h0a4.85,4.85,0,0,1,.63.07.06.06,0,0,1,.06.06.15.15,0,0,1,0,.08c-.06,0-.09.07-.09.11a22,22,0,0,1-.5,2.25l.72-.12a7.67,7.67,0,0,0-.33-.81l.46-.14a10.67,10.67,0,0,1,.61,1.6Z"/><path class="cls-1" d="M37.32,12s0,0,0,0h0c.13,0,.41.1.55.15a.07.07,0,0,1,0,.05.05.05,0,0,1,0,0,.25.25,0,0,0-.08.14,3.19,3.19,0,0,0-.12.86,2.33,2.33,0,0,0,.1.71s0,.07.08.07.39-.3.54-.58c.06.11.23.37.3.48a3.36,3.36,0,0,1-.46.54.59.59,0,0,1-.41.17.49.49,0,0,1-.47-.34,2.85,2.85,0,0,1-.18-1.08,7.82,7.82,0,0,1,.09-1.09.06.06,0,0,0,0,0Zm2.29,2.11a.91.91,0,0,0,0-.17,2.26,2.26,0,0,0-.53-1.43l.51-.14A2.81,2.81,0,0,1,40.17,14Z"/><path class="cls-1" d="M41.44,14.13c0-.37,0-1,0-1.54,0-.28,0-.53,0-.7a.51.51,0,0,1,0-.09s0,0,0,0h0c.61,0,.62.05.62.07a.07.07,0,0,1,0,.06,16.33,16.33,0,0,0-.11,2c0,.27.07.4.29.4a1.58,1.58,0,0,0,1.25-.92,2.38,2.38,0,0,0,.3.62,2.24,2.24,0,0,1-1.58.84.7.7,0,0,1-.77-.73Z"/><path class="cls-1" d="M47.16,14.81a2.64,2.64,0,0,0-.61-.48v0c0,.32-.35.48-.73.48s-.91-.2-.94-.56v0c0-.37.33-.57.8-.57l.32,0c0-.12,0-.25,0-.38l-.46,0-.43,0,0-.51a3.62,3.62,0,0,0,.73.06H46v-.22h-.12a7.5,7.5,0,0,1-.82,0l0-.5a3.58,3.58,0,0,0,.87.08h.08c0-.17,0-.31,0-.38l0-.08s0,0,0,0h0l.53,0s.06,0,.06,0a.08.08,0,0,1,0,0,.41.41,0,0,0-.05.17c0,.06,0,.12,0,.18a6.61,6.61,0,0,0,.77-.12v.49c-.23,0-.49.07-.78.09v.21a4.65,4.65,0,0,0,.72-.12v.5c-.19,0-.44.06-.72.08,0,.17,0,.35,0,.52a3.56,3.56,0,0,1,.94.46Zm-1.8-.61c0,.11.2.17.38.17s.29,0,.29-.15a.45.45,0,0,0,0-.11,2.09,2.09,0,0,0-.38,0c-.18,0-.28,0-.28.13Z"/><path class="cls-1" d="M51.46,12.61a6.57,6.57,0,0,0-.91,0h-.21c0,.17,0,.35,0,.51a1,1,0,0,1,.12.49,1.6,1.6,0,0,1-1,1.42,2.14,2.14,0,0,0-.49-.43,1.16,1.16,0,0,0,.82-.52l-.16,0a.58.58,0,0,1-.61-.63.66.66,0,0,1,.66-.72h.13v-.14a10.77,10.77,0,0,0-1.24.08c-.1,0-.15.06-.18.06s0,0-.11-.56h0s0,0,0,0l.17,0h.1l1.21,0a2.45,2.45,0,0,0,0-.32s0,0,0-.07h0l.54,0s0,0,0,0l0,0s0,0,0,.28l1.13,0Zm-1.61.74c0-.1-.05-.18-.16-.18s-.18.18-.18.24a.16.16,0,0,0,.16.18h0A.23.23,0,0,0,49.85,13.35Z"/><path class="cls-1" d="M52.62,14.89a.63.63,0,1,1,.63-.63A.63.63,0,0,1,52.62,14.89Zm0-1a.34.34,0,0,0-.33.34.34.34,0,0,0,.67,0A.34.34,0,0,0,52.62,13.92Z"/><path class="cls-1" d="M15.76,10.08l-1.7,0-1.67,0V9.63h.49V8.22l-.3.08a1.15,1.15,0,0,0-.21-.46,2.51,2.51,0,0,0,1-.31h-.83V7.1l1.27,0a.45.45,0,0,0,0-.17.15.15,0,0,1,0-.08s0,0,.05,0h0c.5,0,.54.05.54.08a.08.08,0,0,1,0,.07.23.23,0,0,0,0,.09v0l1.31,0v.44h-.86a2.62,2.62,0,0,0,1,.31,1.26,1.26,0,0,0-.22.46l-.29-.07V9.64h.49Zm-2-2a3.15,3.15,0,0,0,0-.38,2.47,2.47,0,0,1-.73.44H15a2.58,2.58,0,0,1-.73-.44s0,.27,0,.38Zm.95.43H13.39v.15h1.36Zm0,.48H13.39v.15h1.36Zm0,.48H13.39v.17h1.36Z"/><path class="cls-1" d="M19.07,9.05h-.93v.52h.43l1,0a2.08,2.08,0,0,0-.12.52h-.64c-1,0-1.45-.07-1.83-.48a1.54,1.54,0,0,1-.46.56,2.13,2.13,0,0,0-.34-.44,1.65,1.65,0,0,0,.6-1.16.56.56,0,0,0,0-.07s0,0,0,0h0c.47.1.53.12.53.17s0,0,0,.07,0,.05-.05.08-.05.22-.09.35a1.16,1.16,0,0,0,.48.35V8.29h-1V8h-.37c0-.21,0-.49,0-.68v-.2h1.28a1,1,0,0,0,0-.21l0-.08s0,0,.05,0h0c.52,0,.61,0,.61.09s0,0,0,.06a.12.12,0,0,0-.05.09.2.2,0,0,1,0,.07h1.35v.11c0,.18,0,.52,0,.77h-.3V8.3h-1v.3l.93,0Zm-.16-1.43H16.78v.21h2.13Z"/><path class="cls-1" d="M22.82,9.47a2,2,0,0,0,.5.31,1.67,1.67,0,0,0-.25.37,3.26,3.26,0,0,1-.63-.51l.24-.17h-.52c.19.09.26.13.26.17s0,0,0,0l-.09.07a2.14,2.14,0,0,1-.61.4,1.17,1.17,0,0,0-.17-.33,2.53,2.53,0,0,0,0,.29h-.45a.37.37,0,0,0,0-.11h-.45v.15h-.44c0-.22,0-.6,0-.89V9l-.15,0a1.42,1.42,0,0,0-.13-.41,1.61,1.61,0,0,0,.65-.17l-.21-.1a1.39,1.39,0,0,1-.19.15,1.42,1.42,0,0,0-.25-.35,1.28,1.28,0,0,0,.42-.35h-.4c0-.19,0-.7,0-.7h.64a.61.61,0,0,0,0-.14.17.17,0,0,1,0-.08s0,0,0,0h0l.43,0s.05,0,.05,0a.21.21,0,0,1,0,.06.21.21,0,0,0,0,.1h.61V7l.79,0,.82,0V7.4h-.64l0,.15h.57V9.47Zm-2.46-2c0,.08,0,.19,0,.27a.93.93,0,0,0,.08-.2s0-.06,0-.06h0c.39.08.4.1.4.12a.07.07,0,0,1-.06.06h.26a.17.17,0,0,0,.1,0h.07l0,0V7.47Zm1,1.42A3,3,0,0,0,21,8.66a1.41,1.41,0,0,1-.46.23ZM20.65,8l0,.06a1.94,1.94,0,0,1,.3.13A1.25,1.25,0,0,0,21.06,8Zm.44,1.27h-.47v.34h.47Zm.65.2V7.54h.39a.88.88,0,0,0,.05-.15h-.49c0,.12,0,.26,0,.35h-.22l.11.06s0,0,0,.05-.1.1-.11.13a2.9,2.9,0,0,1-.24.38,3.84,3.84,0,0,1,.39.22l-.23.3h.07v.37c0,.16,0,.33,0,.49A1.13,1.13,0,0,0,22,9.47Zm1-1.54h-.56v.15h.56Zm0,.48h-.56v.16h.56Zm0,.5h-.56v.17h.56Z"/><path class="cls-1" d="M24.24,10A2.89,2.89,0,0,1,24,8.83a15,15,0,0,1,.19-1.64V7.13s0,0,0,0l0,0a2.25,2.25,0,0,1,.56.22.05.05,0,0,1,0,0,3.4,3.4,0,0,0-.33,1.5.53.53,0,0,0,0,.13l.21-.42.26.2a2,2,0,0,0-.26,1.05v.09Zm1.34-1.1a.61.61,0,0,0-.07.22c0,.12.09.21.45.21a3.35,3.35,0,0,0,.92-.14,2.34,2.34,0,0,0-.05.47.45.45,0,0,0,0,.12,5.84,5.84,0,0,1-.81.06c-.33,0-1,0-1-.63a1.24,1.24,0,0,1,.07-.39ZM26.75,8a3,3,0,0,0-.54,0,4.71,4.71,0,0,0-1.06.1V7.51a9,9,0,0,1,1.3-.09h.3Z"/><path class="cls-1" d="M30.47,9.74a8.06,8.06,0,0,1-1.31.12,4.5,4.5,0,0,1-.54,0c-.48-.06-.78-.34-.78-.7a1,1,0,0,1,.35-.69l.42.27c-.17.16-.25.29-.25.39s.24.25.76.25a4.12,4.12,0,0,0,1.33-.22ZM28.69,8a2,2,0,0,0,.23-.17h-.74l-.05-.55a3,3,0,0,0,.71.06,4.79,4.79,0,0,0,.83-.06.77.77,0,0,0,.12,0l0,0a5.06,5.06,0,0,1,.26.44s-.09,0-.16.07a3.77,3.77,0,0,0-.8.5ZM30,8.52a2.51,2.51,0,0,0-.33-.4L29.93,8a3,3,0,0,1,.34.38Zm.39-.2a2.85,2.85,0,0,0-.33-.39l.26-.14c.11.11.23.25.33.37Z"/><path class="cls-1" d="M31.73,10.15c0-.36,0-.84,0-1.19l0,0a.13.13,0,0,0,0,.1,6.71,6.71,0,0,1-.1.89,3.12,3.12,0,0,0-.34-.17A4.62,4.62,0,0,0,31.35,9a.15.15,0,0,0,0-.07s0,0,0-.06a0,0,0,0,1,0,0h0a1.54,1.54,0,0,1,.35.07v-.2c-.27,0-.28,0-.32.06a.13.13,0,0,1-.07,0s0,0,0,0a2.7,2.7,0,0,1-.07-.35s0,0,0,0,0,0,0,0h.17l.21-.29a3.93,3.93,0,0,0-.41-.55l.23-.31.08.09a1.3,1.3,0,0,0,.14-.35c0-.07,0-.08,0-.08s.48.07.48.15,0,0-.06.06-.06.05-.08.08a4.32,4.32,0,0,1-.25.45l.08.12a3.59,3.59,0,0,0,.22-.38c0-.07,0-.09,0-.09s.44.11.44.18,0,0,0,.06a.2.2,0,0,0-.07.09L32.14,8l.31-.08a3.38,3.38,0,0,1,.19.76l-.33.06s0-.09,0-.14l-.1,0c0,.31,0,1,0,1.51ZM32.14,8l-.21.27.28,0C32.19,8.19,32.16,8.11,32.14,8Zm1.94,1.26-.31.22c-.05-.21-.11-.41-.17-.6a2.06,2.06,0,0,1-.29.67,1.72,1.72,0,0,0-.21-.33c0,.36,0,.69,0,.9h-.49c0-.11,0-.25,0-.42l-.32.08a7.19,7.19,0,0,0-.12-1l.31-.07c.06.25.1.47.14.75V7.28h.71a1.81,1.81,0,0,0,0-.33.45.45,0,0,1,0-.08s0,0,.05,0h0c.46,0,.51,0,.51.08a.1.1,0,0,1,0,.07.17.17,0,0,0,0,.11v.17h.72V9.66c0,.36-.12.48-.56.48h-.22a1.45,1.45,0,0,0-.13-.49l.33,0c.13,0,.14,0,.14-.07Zm-1-1.55c0,.23,0,.75,0,1.26a2.87,2.87,0,0,0,.26-1.26Zm1,0h-.3a3.77,3.77,0,0,1,0,.45c.12.3.23.55.33.84Z"/><path class="cls-1" d="M35.58,6.93c0-.07,0-.09,0-.09l.46.09s.07,0,.07.05,0,0,0,.06a.18.18,0,0,0-.07.09,3,3,0,0,1-.83,1A1.34,1.34,0,0,0,35,7.66,1.43,1.43,0,0,0,35.58,6.93Zm-.17,3.22c0-.36,0-.87,0-1.25l-.26.22A1.45,1.45,0,0,0,35,8.61a1.6,1.6,0,0,0,.65-.82c0-.07,0-.09,0-.09s.43.09.45.09.06,0,.06,0a.09.09,0,0,1,0,.07.2.2,0,0,0-.08.08,2.21,2.21,0,0,1-.18.34v.8c0,.38,0,.77,0,1ZM38,9.63c0,.35-.1.51-.65.51h-.17a2.71,2.71,0,0,0-.1-.44l-.25.24a5.62,5.62,0,0,0-.64-.48l.22-.19H36V8.83l1.23,0h.26V8.72h-.32l-1,0V8.31l1.06,0,1.08,0v.43H38v.11h.41v.45H38ZM36.24,8.21V7h1.94V8.21Zm1.25,1.06h-.82a4.93,4.93,0,0,1,.49.34l0,.05h.2c.16,0,.18-.05.18-.16Zm.22-1.95h-1v.1h1Zm0,.42h-1v.12h1Z"/><path class="cls-1" d="M39.3,7.48h-.52V7l.66,0,.66,0v.52h-.3v2c0,.51-.13.64-.59.64H39a1.86,1.86,0,0,0-.11-.53h.23c.18,0,.19-.05.19-.18Zm2.25,2a2.88,2.88,0,0,0,.63.28,1.26,1.26,0,0,0-.27.39,4.15,4.15,0,0,1-.83-.5l.25-.17h-.5c.23.11.24.12.24.16a0,0,0,0,1,0,0,.23.23,0,0,0-.11.07,2.47,2.47,0,0,1-.83.4,1.06,1.06,0,0,0-.23-.41,1.54,1.54,0,0,0,.72-.26h-.36V7.54h.52l0-.14-.62,0V7l1,0,1,0v.47c-.29,0-.57,0-.84,0a1.21,1.21,0,0,0-.05.14H42V9.48ZM41.5,8h-.82v.13h.82Zm0,.48h-.82v.14h.82Zm0,.49h-.82v.16h.82Z"/><path class="cls-1" d="M43.19,9.93a2.88,2.88,0,0,1-.28-1.32c0-.63.12-1.2.13-1.48V7.07s0,0,0,0h0l.55.18s0,0,0,0a.06.06,0,0,1,0,0,3.08,3.08,0,0,0-.29,1.35,2,2,0,0,0,0,.35l.23-.48.31.23a2,2,0,0,0-.26,1.09Zm2.63-1.87a3.85,3.85,0,0,1-.52.11c0,.21,0,.41,0,.63a1.48,1.48,0,0,1-.87,1.29,2.46,2.46,0,0,0-.52-.4,1.06,1.06,0,0,0,.88-.92c0-.11,0-.25,0-.39V8.22H44l-.11-.51a3.06,3.06,0,0,0,.56,0h.36c0-.22,0-.45-.07-.62l0-.07h0l.57,0s0,0,0,0a0,0,0,0,1,0,0,.22.22,0,0,0,0,.11c0,.16,0,.31,0,.45a2.08,2.08,0,0,0,.53-.16Z"/><path class="cls-1" d="M46.53,9.85A7.09,7.09,0,0,0,47.19,8h-.48l-.06-.55a2.89,2.89,0,0,0,.53,0h.12c.05-.27.07-.5.08-.54h0s0,0,0-.07,0,0,0,0h0a3.89,3.89,0,0,1,.53.09S48,7,48,7l0,0a.2.2,0,0,0-.06.12l-.07.29a2.37,2.37,0,0,0,.65-.17l0,.55a5.07,5.07,0,0,1-.75.13c-.19.74-.41,1.46-.62,2.09Zm3,0a5.09,5.09,0,0,1-.91.09c-.83,0-.94-.38-.94-.6A1.08,1.08,0,0,1,47.79,9l.49.07a.53.53,0,0,0-.07.23c0,.11.11.16.36.16a2.57,2.57,0,0,0,1-.18Zm-.24-1.27a3.16,3.16,0,0,0-.55,0,3.47,3.47,0,0,0-.79.08l0-.52a10,10,0,0,1,1.23-.07h.12Z"/><path class="cls-1" d="M50.56,9.19a7,7,0,0,0,.19-1.5v0s0-.08,0-.1,0,0,0,0h0l.51.08s.05,0,.05,0l0,0c0,.06-.06.14-.15,1a1.84,1.84,0,0,1,1.07-.41.85.85,0,0,1,1,.85c0,.58-.58,1-1.51,1h-.22a4.67,4.67,0,0,0-.18-.64,1.92,1.92,0,0,0,.59.1c.47,0,.79-.21.79-.46s-.14-.36-.46-.36a1.33,1.33,0,0,0-1.09.66ZM52,7.83a3.85,3.85,0,0,0-1.13-.51l.25-.45a5.94,5.94,0,0,1,1.15.49Z"/><path class="cls-1" d="M54.78,10.14a8.9,8.9,0,0,0-.91-1l.36-.31a10.27,10.27,0,0,1,1,.91Z"/><path class="cls-1" d="M15.58,14.07a10.06,10.06,0,0,1-1,.39.18.18,0,0,0-.1.07.07.07,0,0,1-.06,0s0,0-.05-.06-.09-.43-.09-.5,0,0,.06,0a2.06,2.06,0,0,0,.35-.07V13.2h-.32v-.48l.32,0v-.5h-.37v-.48h1.24v.48h-.39v.5l.3,0v.48h-.3v.56l.42-.18Zm.34-.24a.2.2,0,0,0,0-.05s0,0,0,0l.47.05a0,0,0,0,1,.05,0,.09.09,0,0,1,0,.06.18.18,0,0,0-.07.1c-.06.28-.24.75-1.07.9a1.3,1.3,0,0,0-.21-.44c.26,0,.84-.12.84-.63ZM17,13.72v.66s0,.06.1.06.15,0,.17-.49a1.25,1.25,0,0,0,.39.18c0,.73-.18.74-.59.74s-.53-.06-.53-.45v-.7h-.9v-2h1.77v2ZM17,12.14h-.84v.13H17Zm0,.49h-.84v.15H17Zm0,.51h-.84v.17H17Z"/><path class="cls-1" d="M21.36,14.82l-1.64,0-1.62,0v-.5h.72a2,2,0,0,0-.3-.51L19,13.7a3.17,3.17,0,0,1,.34.54l-.26.09h.38v-.65c-.33,0-.67,0-1.06,0v-.49h1.06V13h-.56v-.2c-.17.08-.37.16-.59.24a1.38,1.38,0,0,0-.27-.51,2,2,0,0,0,1.44-.86s0-.08,0-.08a4.3,4.3,0,0,1,.57.15s.05,0,.05.05,0,.06-.11.1a2.88,2.88,0,0,0,1.43.62,1.61,1.61,0,0,0-.28.51,5.49,5.49,0,0,1-.65-.23V13L20,13v.24l1.1,0v.49c-.4,0-.76,0-1.1,0v.65h.47l-.35-.09a1.11,1.11,0,0,0,.24-.46h0c0-.06,0-.07,0-.07h0c.46,0,.52.07.52.11a.05.05,0,0,1,0,0,.2.2,0,0,0-.08.08,2.08,2.08,0,0,1-.18.38h.73Zm-1.68-2.55a2.89,2.89,0,0,1-.37.31h.77A2.87,2.87,0,0,1,19.68,12.27Z"/><path class="cls-1" d="M22.05,12.18a18.45,18.45,0,0,0,2.39-.29c.13,0,.19-.06.23-.06l0,0c0,.1.12.38.17.49h0s-.07,0-.2,0c-.79.1-1.36.59-1.36,1.13s.66.69.92.69l.32,0a2.42,2.42,0,0,0-.12.57h-.19a1.27,1.27,0,0,1-1.45-1.18,1.46,1.46,0,0,1,.46-1,5.18,5.18,0,0,0-1.1.24l-.07,0s0,0,0-.05l-.14-.54v0s0,0,.07,0Zm2.55,1.11a3,3,0,0,0-.33-.39l.25-.16a3.88,3.88,0,0,1,.34.38Zm.35-.23a2,2,0,0,0-.33-.39l.25-.15a3.07,3.07,0,0,1,.34.38Z"/><path class="cls-1" d="M27.14,14.34a.42.42,0,0,1-.46.47c-.14,0-.86-.11-.86-.65v-.05c0-.32.33-.6.85-.88v-.4c-.19,0-.38,0-.54,0h-.07l-.08-.5.24,0,.45,0c0-.19,0-.37,0-.49s0-.08,0-.1,0,0,0,0h0l.54.05s0,0,0,0a.1.1,0,0,1,0,.06s0,.08-.07.39a4,4,0,0,0,.5-.13v.52c-.16,0-.33.07-.51.09a2.17,2.17,0,0,1,0,.26,2.69,2.69,0,0,1,.57-.07.94.94,0,0,1,1,.9.83.83,0,0,1-.82.88.61.61,0,0,1-.64-.63.89.89,0,0,1,0-.22,2.3,2.3,0,0,0,.45-.12.93.93,0,0,0-.05.24c0,.16.08.22.18.22a.35.35,0,0,0,.32-.38c0-.23-.18-.44-.54-.44a1.53,1.53,0,0,0-.54.11Zm-.81-.23c0,.1.15.18.22.18s.08,0,.09-.12,0-.24,0-.4C26.54,13.83,26.33,14,26.33,14.11Zm2.27-1a3.84,3.84,0,0,0-.83-.71l.33-.34a4.91,4.91,0,0,1,.86.69Z"/><path class="cls-1" d="M32.69,12.56c-.48,0-.94,0-1.39,0,0,.11,0,.23,0,.36h.48a.19.19,0,0,0,.14-.05h0c.05,0,.5.21.5.27s-.12.11-.14.14a3.77,3.77,0,0,1-.74.86,4.32,4.32,0,0,0,1.15.27,1.5,1.5,0,0,0-.2.53,4.4,4.4,0,0,1-1.46-.46,4.79,4.79,0,0,1-1.52.46,1.74,1.74,0,0,0-.21-.52,4.2,4.2,0,0,0,1.24-.28,3.45,3.45,0,0,1-.67-.74h-.33v-.5l.54,0h.6c0-.12,0-.24,0-.36-.44,0-.88,0-1.34,0V12l1.34,0c0-.17,0-.29,0-.34a.15.15,0,0,1,0-.08s0,0,0,0h0c.56,0,.64.05.64.09s0,.05,0,.08a.24.24,0,0,0-.05.14v.13l1.39,0Zm-2.16.8a2.39,2.39,0,0,0,.55.5,2,2,0,0,0,.55-.5Z"/><path class="cls-1" d="M34.15,14.37c0,.42-.15.54-.61.54h-.25a1.64,1.64,0,0,0-.15-.52,1.52,1.52,0,0,0,.28,0c.21,0,.22-.05.22-.16s0-.29,0-.48c-.21.07-.27.09-.3.13a.15.15,0,0,1-.08,0s0,0-.05-.06-.1-.43-.1-.52,0,0,.09,0a2,2,0,0,0,.44-.09v-.51h-.44v-.51l.22,0h.22a3.54,3.54,0,0,0,0-.53.45.45,0,0,1,0-.08s0,0,0,0h0c.55,0,.57.05.57.09s0,0,0,.07a.17.17,0,0,0,0,.13,2.57,2.57,0,0,0,0,.34l.45,0v.51h-.45v.36l.42-.15v.5l-.42.16v.78Zm1.86.52-.09-.35c-.54.1-1,.19-1.32.22a.15.15,0,0,0-.1.07.1.1,0,0,1-.08.05s0,0-.05,0a3.85,3.85,0,0,1-.17-.58s0,0,0,0h.23A11.43,11.43,0,0,0,35,11.8v-.07a.32.32,0,0,1,0-.08s0,0,0,0h0a4.85,4.85,0,0,1,.63.07.06.06,0,0,1,.06.06.15.15,0,0,1,0,.08c-.06,0-.09.07-.09.11a22,22,0,0,1-.5,2.25l.72-.12a7.67,7.67,0,0,0-.33-.81l.46-.14a10.67,10.67,0,0,1,.61,1.6Z"/><path class="cls-1" d="M37.32,12s0,0,0,0h0c.13,0,.41.1.55.15a.07.07,0,0,1,0,.05.05.05,0,0,1,0,0,.25.25,0,0,0-.08.14,3.19,3.19,0,0,0-.12.86,2.33,2.33,0,0,0,.1.71s0,.07.08.07.39-.3.54-.58c.06.11.23.37.3.48a3.36,3.36,0,0,1-.46.54.59.59,0,0,1-.41.17.49.49,0,0,1-.47-.34,2.85,2.85,0,0,1-.18-1.08,7.82,7.82,0,0,1,.09-1.09.06.06,0,0,0,0,0Zm2.29,2.11a.91.91,0,0,0,0-.17,2.26,2.26,0,0,0-.53-1.43l.51-.14A2.81,2.81,0,0,1,40.17,14Z"/><path class="cls-1" d="M41.44,14.13c0-.37,0-1,0-1.54,0-.28,0-.53,0-.7a.51.51,0,0,1,0-.09s0,0,0,0h0c.61,0,.62.05.62.07a.07.07,0,0,1,0,.06,16.33,16.33,0,0,0-.11,2c0,.27.07.4.29.4a1.58,1.58,0,0,0,1.25-.92,2.38,2.38,0,0,0,.3.62,2.24,2.24,0,0,1-1.58.84.7.7,0,0,1-.77-.73Z"/><path class="cls-1" d="M47.16,14.81a2.64,2.64,0,0,0-.61-.48v0c0,.32-.35.48-.73.48s-.91-.2-.94-.56v0c0-.37.33-.57.8-.57l.32,0c0-.12,0-.25,0-.38l-.46,0-.43,0,0-.51a3.62,3.62,0,0,0,.73.06H46v-.22h-.12a7.5,7.5,0,0,1-.82,0l0-.5a3.58,3.58,0,0,0,.87.08h.08c0-.17,0-.31,0-.38l0-.08s0,0,0,0h0l.53,0s.06,0,.06,0a.08.08,0,0,1,0,0,.41.41,0,0,0-.05.17c0,.06,0,.12,0,.18a6.61,6.61,0,0,0,.77-.12v.49c-.23,0-.49.07-.78.09v.21a4.65,4.65,0,0,0,.72-.12v.5c-.19,0-.44.06-.72.08,0,.17,0,.35,0,.52a3.56,3.56,0,0,1,.94.46Zm-1.8-.61c0,.11.2.17.38.17s.29,0,.29-.15a.45.45,0,0,0,0-.11,2.09,2.09,0,0,0-.38,0c-.18,0-.28,0-.28.13Z"/><path class="cls-1" d="M51.46,12.61a6.57,6.57,0,0,0-.91,0h-.21c0,.17,0,.35,0,.51a1,1,0,0,1,.12.49,1.6,1.6,0,0,1-1,1.42,2.14,2.14,0,0,0-.49-.43,1.16,1.16,0,0,0,.82-.52l-.16,0a.58.58,0,0,1-.61-.63.66.66,0,0,1,.66-.72h.13v-.14a10.77,10.77,0,0,0-1.24.08c-.1,0-.15.06-.18.06s0,0-.11-.56h0s0,0,0,0l.17,0h.1l1.21,0a2.45,2.45,0,0,0,0-.32s0,0,0-.07h0l.54,0s0,0,0,0l0,0s0,0,0,.28l1.13,0Zm-1.61.74c0-.1-.05-.18-.16-.18s-.18.18-.18.24a.16.16,0,0,0,.16.18h0A.23.23,0,0,0,49.85,13.35Z"/><path class="cls-1" d="M52.62,14.89a.63.63,0,1,1,.63-.63A.63.63,0,0,1,52.62,14.89Zm0-1a.34.34,0,0,0-.33.34.34.34,0,0,0,.67,0A.34.34,0,0,0,52.62,13.92Z"/><path class="cls-4" d="M30.69,1.74a.29.29,0,0,0-.33-.24c-.19,0-.29.1-.29.21s.06.16.23.21l.24.07c.32.1.45.26.45.51s-.21.47-.61.47a.59.59,0,0,1-.64-.54H30a.36.36,0,0,0,.36.29c.21,0,.33-.09.33-.22s-.1-.21-.28-.27l-.25-.07c-.29-.09-.39-.22-.39-.45s.23-.45.57-.45a.54.54,0,0,1,.6.48Z"/><path class="cls-4" d="M31.58,2.93V1.54h-.46V1.3h1.2v.24h-.47V2.93Z"/><path class="cls-4" d="M32.53,2.93V1.3H33.6v.24h-.8V2h.67V2.2H32.8v.49h.85v.24Z"/><path class="cls-4" d="M33.89,2.93V1.3h.63a.51.51,0,0,1,.56.51.51.51,0,0,1-.57.53h-.35v.59Zm.6-.83a.28.28,0,0,0,.31-.28c0-.19-.13-.28-.32-.28h-.32V2.1Z"/><path class="cls-4" d="M37,3.21a1.1,1.1,0,1,1,1.09-1.09A1.09,1.09,0,0,1,37,3.21Zm.31-.69h.22V2.26h-.22V1.42H37l-.66.88v.22H37v.29h.28Zm-.57-.26.29-.4v.4Z"/></g></g></svg>