<svg xmlns="http://www.w3.org/2000/svg" viewBox="0 0 75 9.39"><defs><style>.cls-1{fill:#b00005;}.cls-2{fill:#b50005;}</style></defs><g id="Layer_2" data-name="Layer 2"><g id="レイアウト"><path class="cls-1" d="M31.86,5.52c0-.63,0-1.92,0-2.71V2.15h1.51V3.47h-1c0,.68,0,1.53,0,2Zm1-3h-.48v.13h.48Zm0,.43h-.48v.15h.48Zm1.46,2.56a1.93,1.93,0,0,0-.09-.37.9.9,0,0,0-.08.19,1.41,1.41,0,0,1-.65-.47,1.51,1.51,0,0,1-.88.51A1.57,1.57,0,0,0,32.44,5a1.18,1.18,0,0,0,.66-.26h-.6V4.3l.73,0c0-.06,0-.09,0-.15h-.62V3.79h.28a1.18,1.18,0,0,0-.18-.21l.48-.11a2.13,2.13,0,0,1,.23.33h.15a.58.58,0,0,0,.11-.25c0-.07,0-.08,0-.08h0c.48.06.5.09.5.13s0,0-.06.06a.09.09,0,0,0-.06.07l0,.06h.26v.39h-.64a.76.76,0,0,0,0,.15l.77,0v.4h-.58a.94.94,0,0,0,.49.25L34.35,5h.1c.13,0,.14,0,.14-.12V3.47h-1V2.15h1.56V5c0,.45-.12.57-.69.57Zm.24-3h-.52v.13h.52Zm0,.43h-.52v.15h.52Z"/><path class="cls-1" d="M42.52,5.52a1.09,1.09,0,0,0,0-.19H40.46a1.09,1.09,0,0,0,0,.19h-.55c0-.34,0-1.24,0-1.86v-.6h.92V2.71H39.73V2.17l1.7,0,1.84,0v.55H42v.35h1v.6c0,.6,0,1.51,0,1.86Zm-1-2h-.18a1.46,1.46,0,0,1-.63,1.2,2.43,2.43,0,0,0-.27-.43v.51h2.09V4.31c0,.23-.13.29-.51.29s-.5,0-.5-.35Zm-1.08,0v.72a.88.88,0,0,0,.4-.72Zm1.08-.84h-.18v.35h.18Zm1,.84H42v.56s0,0,.07,0h0s.08,0,.08-.39V3.71a1.18,1.18,0,0,0,.35.17Z"/><rect class="cls-2" y="6.82" width="75" height="0.82"/><rect class="cls-2" width="75" height="0.82"/><polygon class="cls-2" points="37.47 9.39 35.65 7.19 39.35 7.19 37.47 9.39"/></g></g></svg>