<svg xmlns="http://www.w3.org/2000/svg" viewBox="0 0 40.16 7.6"><defs><style>.cls-1{fill:#040000;}.cls-2{fill:#b60005;}.cls-3{fill:#fff;}</style></defs><g id="Layer_2" data-name="Layer 2"><g id="レイアウト"><path class="cls-1" d="M6.76,1.82C6.76.91,7.11,0,8.06,0S9.34.9,9.34,1.82,9,3.64,8.06,3.64,6.76,2.82,6.76,1.82Zm1.86,0c0-.69-.19-1.17-.56-1.17s-.57.47-.57,1.17S7.69,3,8.06,3,8.62,2.56,8.62,1.82Z"/><path class="cls-1" d="M10.75,3.56V1h-.6V.55a.85.85,0,0,0,.76-.46h.56V3.56Z"/><path class="cls-1" d="M12.77,3.56v-.3A1.89,1.89,0,0,1,13.83,1.7c.4-.21.56-.43.56-.66a.42.42,0,0,0-.46-.41.52.52,0,0,0-.5.56h-.68A1.14,1.14,0,0,1,14,0a1,1,0,0,1,1.14,1c0,.48-.29.84-1,1.2a1,1,0,0,0-.6.7h1.56v.64Z"/><path class="cls-1" d="M15.6,1.82C15.6.91,15.94,0,16.89,0s1.29.9,1.29,1.82-.34,1.82-1.29,1.82S15.6,2.82,15.6,1.82Zm1.85,0c0-.69-.19-1.17-.56-1.17s-.56.47-.56,1.17S16.52,3,16.89,3,17.45,2.56,17.45,1.82Z"/><path class="cls-1" d="M18.61,2.62V2H20.3v.67Z"/><path class="cls-1" d="M20.83,3.56v-.3A1.89,1.89,0,0,1,21.89,1.7c.4-.21.56-.43.56-.66A.42.42,0,0,0,22,.63a.51.51,0,0,0-.5.56h-.69A1.15,1.15,0,0,1,22.05,0,1,1,0,0,1,23.2,1c0,.48-.3.84-1,1.2a1,1,0,0,0-.59.7h1.55v.64Z"/><path class="cls-1" d="M23.66,1.82C23.66.91,24,0,25,0s1.29.9,1.29,1.82S25.91,3.64,25,3.64,23.66,2.82,23.66,1.82Zm1.86,0c0-.69-.19-1.17-.57-1.17s-.56.47-.56,1.17S24.59,3,25,3,25.52,2.56,25.52,1.82Z"/><path class="cls-1" d="M26.61,1.82C26.61.91,27,0,27.9,0s1.29.9,1.29,1.82-.34,1.82-1.29,1.82S26.61,2.82,26.61,1.82Zm1.85,0c0-.69-.19-1.17-.56-1.17s-.56.47-.56,1.17S27.53,3,27.9,3,28.46,2.56,28.46,1.82Z"/><path class="cls-1" d="M29.62,2.62V2h1.69v.67Z"/><path class="cls-1" d="M32.47,2.67A.49.49,0,0,0,33,3c.29,0,.64-.27.64-1a.87.87,0,0,1-.74.36,1.06,1.06,0,0,1-1.1-1.14A1.16,1.16,0,0,1,33,0c.72,0,1.3.49,1.3,1.72S33.72,3.64,33,3.64a1.11,1.11,0,0,1-1.15-1Zm.52-2a.53.53,0,0,0-.53.59.52.52,0,0,0,.53.56.62.62,0,0,0,.56-.48C33.53.83,33.27.63,33,.63Z"/><path class="cls-1" d="M35.42,2.67a.48.48,0,0,0,.5.37c.28,0,.63-.27.63-1a.84.84,0,0,1-.74.36,1.06,1.06,0,0,1-1.1-1.14A1.16,1.16,0,0,1,35.92,0c.73,0,1.3.49,1.3,1.72s-.55,1.92-1.31,1.92a1.12,1.12,0,0,1-1.15-1Zm.52-2a.53.53,0,0,0-.54.59.52.52,0,0,0,.53.56.63.63,0,0,0,.57-.48C36.47.83,36.22.63,35.94.63Z"/><path class="cls-1" d="M38.36,2.67a.49.49,0,0,0,.5.37c.29,0,.63-.27.63-1a.84.84,0,0,1-.73.36,1.06,1.06,0,0,1-1.1-1.14A1.16,1.16,0,0,1,38.87,0c.72,0,1.29.49,1.29,1.72s-.55,1.92-1.3,1.92a1.13,1.13,0,0,1-1.16-1Zm.52-2a.53.53,0,0,0-.53.59.52.52,0,0,0,.53.56.62.62,0,0,0,.56-.48C39.42.83,39.16.63,38.88.63Z"/><path class="cls-1" d="M8.38,7.6a2.07,2.07,0,0,1-.52-1.4,2.07,2.07,0,0,1,.52-1.41l.16.07A2.05,2.05,0,0,0,8.08,6.2a2,2,0,0,0,.46,1.33Z"/><path class="cls-1" d="M11.65,5.78c0-.13,0-.34,0-.34h-.87c0,.17,0,.39,0,.56h-.21c0-.17,0-.39,0-.56H9.75v0c0,.07,0,.2,0,.29H9.54c0-.08,0-.25,0-.36V5.28h1V5.16l-.92,0V5l1,0,1,0v.19l-.94,0v.12h1.06v.08a2.88,2.88,0,0,0,0,.42Zm-.87,1.16V7c0,.1,0,.11.44.11h.33c.16,0,.18,0,.24-.46a.51.51,0,0,0,.18.12c-.07.41-.15.51-.35.53h-.4c-.45,0-.63,0-.63-.29V6.94H10v.17H9.79c0-.18,0-.44,0-.65V6.07h1.81v.87ZM10.47,5.7H9.89V5.55h.58Zm0,.25H9.89V5.79l.28,0,.3,0Zm.12.29H10v.18h.6Zm0,.33H10v.21h.6Zm.83-.33h-.64v.18h.64Zm0,.33h-.64v.21h.64Zm.1-.87h-.59V5.55h.59Zm0,.25h-.59V5.79l.29,0,.3,0Z"/><path class="cls-1" d="M13.34,5.54l-.54,0-.55,0v-.2l.55,0,.54,0Zm-.08.32h-.88V5.67h.88Zm0,.35h-.88V6l.43,0,.45,0ZM13,7.3V7.16h-.42v.18h-.22c0-.23,0-.61,0-.81V6.4h.84v.17c0,.21,0,.55,0,.73Zm.19-2.09-.42,0-.4,0V5l.4,0,.42,0ZM13,6.58H12.6V7H13V6.58Zm1.31.78c0-.05,0-.11,0-.17h-.65v.17h-.22c0-.27,0-.68,0-.92v-.2h.41v-.4l-.6,0V5.64h.6V5.28l-.48.08a.75.75,0,0,0-.07-.19,3.4,3.4,0,0,0,1-.21l0,0a1.1,1.1,0,0,1,.21.13v0s0,0,0,0h-.08l-.37.11v.42l.66,0v.22l-.66,0v.4h.45v.2c0,.24,0,.65,0,.92Zm0-.92H13.7s0,.27,0,.55h.65Z"/><path class="cls-1" d="M16.86,6.21l.07,0h0a1.06,1.06,0,0,1,.18.12,0,0,0,0,1,0,0s-.07.06-.09.09a2.57,2.57,0,0,1-.5.49,3.59,3.59,0,0,0,1,.26.56.56,0,0,0-.11.2A3.66,3.66,0,0,1,16.37,7a3.23,3.23,0,0,1-1.21.34.55.55,0,0,0-.1-.19,3.4,3.4,0,0,0,1.13-.27,2.4,2.4,0,0,1-.51-.5h-.2V6.2h1.38Zm.38.06c0-.1,0-.22,0-.27V6H15.39V6s0,.16,0,.27h-.24c0-.1,0-.26,0-.37V5.77h.5a1.72,1.72,0,0,0-.21-.43l.18-.06a1.61,1.61,0,0,1,.23.43l-.15.06h1A1.77,1.77,0,0,0,17,5.26s0-.07,0-.07h0s.23,0,.23.09l0,0a.17.17,0,0,0-.07.08,2.55,2.55,0,0,1-.22.37h.55v.07c0,.1,0,.31,0,.43Zm.08-1.16h-.1a15.22,15.22,0,0,1-1.9.16.75.75,0,0,0-.07-.2h.07a8.6,8.6,0,0,0,1.75-.15l.05,0h0s.22.14.22.18,0,0,0,0Zm-.79,1.28h-.62a2.22,2.22,0,0,0,.46.41,1.35,1.35,0,0,0,.44-.41Zm-.28-.66a1.37,1.37,0,0,0-.12-.44l.19,0a1.47,1.47,0,0,1,.13.42Z"/><path class="cls-1" d="M18.26,7.36c0-.45,0-.84,0-1.15V5.88a4.91,4.91,0,0,1-.31.44.77.77,0,0,0-.1-.24A3.27,3.27,0,0,0,18.46,5s0-.1,0-.1h0c.23.06.24.08.24.09s0,0,0,0a.18.18,0,0,0-.06.09,3,3,0,0,1-.21.46c.08,0,.1,0,.1,0a.09.09,0,0,1,0,.06s0,0,0,.56c0,.26,0,.64,0,1.12ZM20,7c0,.26-.11.33-.48.33h-.18a.65.65,0,0,0-.07-.23h.26c.22,0,.25,0,.25-.16,0-.27,0-.69,0-1.07V5.65H18.68V5.44l.88,0h.2c0-.25,0-.43,0-.47l0-.07s0,0,0,0h0c.22,0,.27,0,.27.06l0,0s0,.06,0,.44h.42v.22H20c0,.42,0,1,0,1.35Zm-.74-.46a3.18,3.18,0,0,0-.41-.66l.18-.1a2.69,2.69,0,0,1,.42.65Z"/><path class="cls-1" d="M21.81,6.68a.4.4,0,0,0,.42.3c.23,0,.52-.22.52-.79a.57.57,0,0,1-.53.28.63.63,0,0,1-.69-.65.67.67,0,0,1,.7-.71c.43,0,.76.27.76,1s-.36,1.09-.76,1.09a.65.65,0,0,1-.67-.51Zm.42-1.35a.45.45,0,0,0-.46.49.43.43,0,0,0,.47.43.49.49,0,0,0,.5-.41A.51.51,0,0,0,22.23,5.33Z"/><path class="cls-1" d="M23.49,6.17V5.83h.29v.34Zm0,1V6.81h.29v.34Z"/><path class="cls-1" d="M24.26,6.15c0-.6.23-1,.74-1s.73.44.73,1-.23,1-.73,1S24.26,6.79,24.26,6.15Zm1.23,0c0-.49-.17-.82-.49-.82s-.49.32-.49.82S24.68,7,25,7,25.49,6.66,25.49,6.15Z"/><path class="cls-1" d="M26,6.15c0-.6.23-1,.74-1s.73.44.73,1-.23,1-.73,1S26,6.79,26,6.15Zm1.23,0c0-.49-.17-.82-.49-.82s-.49.32-.49.82.17.82.49.82S27.23,6.66,27.23,6.15Z"/><path class="cls-1" d="M29.56,6.36A1.14,1.14,0,0,1,29,6.17,1,1,0,0,0,28.49,6h0a.49.49,0,0,0-.43.3l-.17-.08a.63.63,0,0,1,.59-.41h0a1.11,1.11,0,0,1,.58.19,1.09,1.09,0,0,0,.49.16h0A.45.45,0,0,0,30,5.87l.18.07a.66.66,0,0,1-.58.42Z"/><path class="cls-1" d="M30.6,7.15V7a.94.94,0,0,1,.65-.86c.31-.13.46-.3.46-.48s-.16-.35-.41-.35a.45.45,0,0,0-.45.46h-.23a.66.66,0,0,1,.68-.68c.43,0,.66.24.66.57s-.19.49-.6.67a.79.79,0,0,0-.51.58H32v.22Z"/><path class="cls-1" d="M33,7.15V5.57h-.37V5.4a.51.51,0,0,0,.46-.25h.15v2Z"/><path class="cls-1" d="M34.25,6.17V5.83h.29v.34Zm0,1V6.81h.29v.34Z"/><path class="cls-1" d="M35,6.15c0-.6.23-1,.73-1s.74.44.74,1-.23,1-.74,1S35,6.79,35,6.15Zm1.22,0c0-.49-.17-.82-.49-.82s-.49.32-.49.82.17.82.49.82S36.24,6.66,36.24,6.15Z"/><path class="cls-1" d="M36.76,6.15c0-.6.23-1,.73-1s.74.44.74,1-.23,1-.74,1S36.76,6.79,36.76,6.15Zm1.22,0c0-.49-.17-.82-.49-.82s-.49.32-.49.82.17.82.49.82S38,6.66,38,6.15Z"/><path class="cls-1" d="M38.43,7.53a2,2,0,0,0,.46-1.33,2.05,2.05,0,0,0-.46-1.34l.16-.07a2.07,2.07,0,0,1,.52,1.41,2.07,2.07,0,0,1-.52,1.4Z"/><rect class="cls-2" y="0.14" width="5.54" height="3.62"/><path class="cls-3" d="M1.39,3a.69.69,0,0,1-.68-.72c0-.37.37-.67.68-.84.32.17.68.47.68.84A.69.69,0,0,1,1.39,3m2.09-.72c0-.38.37-.67.68-.85.31.18.68.47.68.85a.68.68,0,1,1-1.36,0M5.54.7A3.08,3.08,0,0,0,4.14,1,3,3,0,0,0,2.77.7,3,3,0,0,0,1.4,1,3.08,3.08,0,0,0,0,.7V1a2.72,2.72,0,0,1,1.05.2,1.33,1.33,0,0,0-.68,1,1,1,0,0,0,1,1,1,1,0,0,0,1-1,1.29,1.29,0,0,0-.65-1,2.58,2.58,0,0,1,1-.2,2.58,2.58,0,0,1,1,.2,1.29,1.29,0,0,0-.65,1,1,1,0,0,0,1,1,1,1,0,0,0,1-1,1.32,1.32,0,0,0-.67-1,2.72,2.72,0,0,1,1-.2Z"/></g></g></svg>