<svg xmlns="http://www.w3.org/2000/svg" viewBox="0 0 40.18 7.6"><defs><style>.cls-1{fill:#040000;}.cls-2{fill:#b60005;}.cls-3{fill:#fff;}</style></defs><g id="Layer_2" data-name="Layer 2"><g id="レイアウト"><path class="cls-1" d="M6.76,1.82C6.76.91,7.11,0,8.06,0S9.34.9,9.34,1.82,9,3.64,8.06,3.64,6.76,2.82,6.76,1.82Zm1.86,0c0-.69-.19-1.17-.56-1.17s-.57.47-.57,1.17S7.69,3,8.06,3,8.62,2.56,8.62,1.82Z"/><path class="cls-1" d="M10.75,3.56V1h-.6V.55a.85.85,0,0,0,.76-.46h.56V3.56Z"/><path class="cls-1" d="M12.77,3.56v-.3A1.89,1.89,0,0,1,13.83,1.7c.4-.21.55-.43.55-.66a.42.42,0,0,0-.45-.41.52.52,0,0,0-.5.56h-.69A1.16,1.16,0,0,1,14,0a1,1,0,0,1,1.14,1c0,.48-.3.84-1,1.2a1,1,0,0,0-.59.7h1.55v.64Z"/><path class="cls-1" d="M15.6,1.82C15.6.91,15.94,0,16.89,0s1.29.9,1.29,1.82-.34,1.82-1.29,1.82S15.6,2.82,15.6,1.82Zm1.85,0c0-.69-.19-1.17-.56-1.17s-.56.47-.56,1.17S16.52,3,16.89,3,17.45,2.56,17.45,1.82Z"/><path class="cls-1" d="M18.6,2.62V2h1.7v.67Z"/><path class="cls-1" d="M21.63.7l-.1.79a.8.8,0,0,1,.62-.25A1.07,1.07,0,0,1,23.28,2.4,1.16,1.16,0,0,1,22,3.64a1.15,1.15,0,0,1-1.23-1h.68A.52.52,0,0,0,22,3a.55.55,0,0,0,.57-.59A.55.55,0,0,0,22,1.84a.52.52,0,0,0-.51.31L20.83,2,21.05.09h2V.7Z"/><path class="cls-1" d="M23.66,1.82C23.66.91,24,0,25,0s1.29.9,1.29,1.82S25.91,3.64,25,3.64,23.66,2.82,23.66,1.82Zm1.85,0c0-.69-.18-1.17-.56-1.17s-.56.47-.56,1.17S24.59,3,25,3,25.51,2.56,25.51,1.82Z"/><path class="cls-1" d="M26.6,1.82C26.6.91,27,0,27.9,0s1.28.9,1.28,1.82-.33,1.82-1.28,1.82S26.6,2.82,26.6,1.82Zm1.86,0c0-.69-.19-1.17-.56-1.17s-.57.47-.57,1.17S27.53,3,27.9,3,28.46,2.56,28.46,1.82Z"/><path class="cls-1" d="M29.61,2.62V2h1.7v.67Z"/><path class="cls-1" d="M34.29,2.55a1.28,1.28,0,0,1-2.54,0,.87.87,0,0,1,.5-.87.78.78,0,0,1-.37-.75C31.88.38,32.34,0,33,0s1.13.38,1.13.93a.81.81,0,0,1-.37.75A.9.9,0,0,1,34.29,2.55ZM33,2a.53.53,0,0,0-.58.5A.55.55,0,0,0,33,3a.54.54,0,0,0,.58-.52A.54.54,0,0,0,33,2ZM33,.58a.43.43,0,0,0-.48.41c0,.22.19.39.48.39A.42.42,0,0,0,33.49,1,.43.43,0,0,0,33,.58Z"/><path class="cls-1" d="M37.23,2.55a1.28,1.28,0,0,1-2.54,0,.87.87,0,0,1,.5-.87.8.8,0,0,1-.36-.75C34.83.38,35.28,0,36,0s1.13.38,1.13.93a.81.81,0,0,1-.37.75A.9.9,0,0,1,37.23,2.55ZM36,2a.53.53,0,0,0-.57.5A.54.54,0,0,0,36,3a.55.55,0,0,0,.59-.52A.54.54,0,0,0,36,2ZM36,.58a.43.43,0,0,0-.47.41.42.42,0,0,0,.47.39A.43.43,0,0,0,36.44,1,.44.44,0,0,0,36,.58Z"/><path class="cls-1" d="M40.18,2.55a1.29,1.29,0,0,1-2.55,0,.88.88,0,0,1,.51-.87.78.78,0,0,1-.37-.75c0-.55.45-.93,1.13-.93S40,.38,40,.93a.83.83,0,0,1-.37.75A.9.9,0,0,1,40.18,2.55ZM38.91,2a.53.53,0,0,0-.58.5.54.54,0,0,0,.58.52.55.55,0,0,0,.58-.52A.54.54,0,0,0,38.91,2Zm0-1.43a.43.43,0,0,0-.47.41.42.42,0,0,0,.47.39A.43.43,0,0,0,39.38,1,.44.44,0,0,0,38.9.58Z"/><path class="cls-1" d="M8.38,7.6a2.07,2.07,0,0,1-.52-1.4,2.07,2.07,0,0,1,.52-1.41l.16.07A2.05,2.05,0,0,0,8.08,6.2a2,2,0,0,0,.46,1.33Z"/><path class="cls-1" d="M11.65,5.78c0-.13,0-.34,0-.34h-.87c0,.17,0,.39,0,.56h-.21c0-.17,0-.39,0-.56H9.75v0c0,.07,0,.2,0,.29H9.54c0-.08,0-.25,0-.36V5.28h1V5.16l-.92,0V5l1,0,1,0v.19l-.94,0v.12h1.06v.08a2.88,2.88,0,0,0,0,.42Zm-.87,1.16V7c0,.1,0,.11.44.11h.33c.16,0,.18,0,.24-.46a.51.51,0,0,0,.18.12c-.07.41-.15.51-.35.53h-.41c-.44,0-.62,0-.62-.29V6.94H10v.17H9.79c0-.18,0-.44,0-.65s0-.39,0-.39h1.81v.87ZM10.47,5.7H9.89V5.55h.58Zm0,.25H9.89V5.79l.28,0,.3,0Zm.12.28H10v.19h.6Zm0,.34H10v.21h.6Zm.83-.34h-.64v.19h.64Zm0,.34h-.64v.21h.64Zm.1-.87h-.59V5.55h.59Zm0,.25h-.59V5.79l.28,0,.31,0Z"/><path class="cls-1" d="M13.34,5.54l-.54,0-.55,0v-.2l.55,0,.54,0Zm-.08.32h-.89V5.67l.44,0,.45,0Zm0,.35h-.89V6l.44,0,.45,0ZM13,7.3V7.16H12.6a1.21,1.21,0,0,1,0,.18h-.22c0-.23,0-.61,0-.81V6.4h.84v.17c0,.21,0,.55,0,.73Zm.19-2.09-.42,0-.4,0V5l.4,0,.42,0ZM13,6.58H12.6V7H13c0-.11,0-.21,0-.29Zm1.31.78c0-.05,0-.11,0-.17h-.65v.17h-.22c0-.27,0-.68,0-.92v-.2h.41v-.4l-.6,0V5.64h.6V5.28l-.48.08a.75.75,0,0,0-.07-.19,3.4,3.4,0,0,0,1-.21l0,0a1.53,1.53,0,0,1,.21.13v0s0,0,0,0h-.08l-.37.11v.42l.66,0v.22l-.66,0v.4h.45v.2c0,.24,0,.65,0,.92Zm0-.92H13.7s0,.27,0,.55h.65Z"/><path class="cls-1" d="M16.86,6.21l.07,0s0,0,0,0a1.06,1.06,0,0,1,.18.12v0s-.07.06-.09.09a2.57,2.57,0,0,1-.5.49,3.59,3.59,0,0,0,1,.26.56.56,0,0,0-.11.2A3.66,3.66,0,0,1,16.37,7a3.29,3.29,0,0,1-1.22.34.45.45,0,0,0-.09-.19,3.4,3.4,0,0,0,1.13-.27,2.4,2.4,0,0,1-.51-.5h-.2V6.2h1.38Zm.38.06c0-.1,0-.22,0-.27V6H15.39V6s0,.16,0,.27h-.24c0-.1,0-.26,0-.37V5.77h.5a1.72,1.72,0,0,0-.21-.43l.18-.06a1.61,1.61,0,0,1,.23.43l-.15.06h1A1.77,1.77,0,0,0,17,5.26s0-.07,0-.07h0c.06,0,.24,0,.24.09l0,0a.17.17,0,0,0-.07.08,4,4,0,0,1-.22.37h.55v.07c0,.1,0,.31,0,.43Zm.08-1.16h-.1a15.23,15.23,0,0,1-1.91.16.58.58,0,0,0-.06-.2h.07a8.6,8.6,0,0,0,1.75-.15l0,0h0s.22.14.22.18,0,0,0,0Zm-.79,1.28h-.62a2.22,2.22,0,0,0,.46.41,1.46,1.46,0,0,0,.44-.41Zm-.28-.66a1.37,1.37,0,0,0-.12-.44l.19,0a1.8,1.8,0,0,1,.13.43Z"/><path class="cls-1" d="M18.26,7.36c0-.45,0-.84,0-1.15a3.22,3.22,0,0,0,0-.33,3.41,3.41,0,0,1-.3.44.94.94,0,0,0-.11-.24A3.13,3.13,0,0,0,18.46,5s0-.1,0-.1h0c.24,0,.24.08.24.09s0,0,0,0a.31.31,0,0,0-.07.09,4.29,4.29,0,0,1-.2.46c.08,0,.1,0,.1,0s0,0,0,.06,0,0,0,.56c0,.26,0,.64,0,1.12ZM20,7c0,.26-.11.33-.47.33h-.18a.83.83,0,0,0-.08-.23l.27,0c.22,0,.25-.05.25-.17V5.65H18.68V5.44l.88,0h.19a2.28,2.28,0,0,0,0-.47.31.31,0,0,0,0-.07s0,0,0,0h0c.22,0,.27,0,.27.06l0,0s0,.06,0,.44h.43v.22H20V7Zm-.73-.46a3.18,3.18,0,0,0-.41-.66l.18-.1a3,3,0,0,1,.42.65Z"/><path class="cls-1" d="M21.81,6.68a.39.39,0,0,0,.42.3c.23,0,.52-.22.52-.79a.57.57,0,0,1-.53.28.63.63,0,0,1-.69-.65.67.67,0,0,1,.7-.71c.43,0,.76.27.76,1s-.36,1.09-.76,1.09a.65.65,0,0,1-.67-.51Zm.42-1.35a.45.45,0,0,0-.46.49.43.43,0,0,0,.46.43.49.49,0,0,0,.51-.41A.51.51,0,0,0,22.23,5.33Z"/><path class="cls-1" d="M23.49,6.17V5.83h.29v.34Zm0,1V6.81h.29v.34Z"/><path class="cls-1" d="M24.26,6.15c0-.6.23-1,.73-1s.74.44.74,1-.23,1-.74,1S24.26,6.79,24.26,6.15Zm1.23,0c0-.49-.18-.82-.5-.82s-.48.32-.48.82S24.67,7,25,7,25.49,6.66,25.49,6.15Z"/><path class="cls-1" d="M26,6.15c0-.6.23-1,.74-1s.73.44.73,1-.23,1-.73,1S26,6.79,26,6.15Zm1.23,0c0-.49-.17-.82-.49-.82s-.49.32-.49.82.17.82.49.82S27.23,6.66,27.23,6.15Z"/><path class="cls-1" d="M29.56,6.36A1.14,1.14,0,0,1,29,6.17,1,1,0,0,0,28.49,6h0a.49.49,0,0,0-.43.3l-.17-.08a.63.63,0,0,1,.59-.41h0a1.11,1.11,0,0,1,.58.19,1,1,0,0,0,.49.16h0A.47.47,0,0,0,30,5.87l.18.07a.66.66,0,0,1-.58.42Z"/><path class="cls-1" d="M30.6,7.15V7a.94.94,0,0,1,.65-.86c.3-.13.46-.3.46-.48s-.16-.35-.42-.35a.45.45,0,0,0-.44.46h-.23a.65.65,0,0,1,.68-.68c.43,0,.66.24.66.57s-.19.49-.6.67a.77.77,0,0,0-.51.58H32v.22Z"/><path class="cls-1" d="M33,7.15V5.57h-.37V5.4a.51.51,0,0,0,.46-.25h.15v2Z"/><path class="cls-1" d="M34.25,6.17V5.83h.28v.34Zm0,1V6.81h.28v.34Z"/><path class="cls-1" d="M35,6.15c0-.6.24-1,.74-1s.74.44.74,1-.23,1-.74,1S35,6.79,35,6.15Zm1.23,0c0-.49-.17-.82-.49-.82s-.49.32-.49.82.17.82.49.82S36.24,6.66,36.24,6.15Z"/><path class="cls-1" d="M36.76,6.15c0-.6.23-1,.73-1s.74.44.74,1-.23,1-.74,1S36.76,6.79,36.76,6.15Zm1.22,0c0-.49-.17-.82-.49-.82s-.49.32-.49.82.17.82.49.82S38,6.66,38,6.15Z"/><path class="cls-1" d="M38.43,7.53a2,2,0,0,0,.45-1.33,2,2,0,0,0-.45-1.34l.16-.07a2.07,2.07,0,0,1,.52,1.41,2.07,2.07,0,0,1-.52,1.4Z"/><rect class="cls-2" y="0.14" width="5.54" height="3.62"/><path class="cls-3" d="M1.39,3a.69.69,0,0,1-.68-.72c0-.37.37-.66.68-.84.32.18.68.47.68.84A.69.69,0,0,1,1.39,3m2.09-.72c0-.38.37-.67.68-.85.31.18.68.47.68.85a.68.68,0,1,1-1.36,0M5.54.7A3.08,3.08,0,0,0,4.14,1,3,3,0,0,0,2.77.7,3,3,0,0,0,1.4,1,3.08,3.08,0,0,0,0,.7V1a2.72,2.72,0,0,1,1.05.2,1.33,1.33,0,0,0-.68,1,1,1,0,0,0,1,1,1,1,0,0,0,1-1,1.29,1.29,0,0,0-.65-1,2.58,2.58,0,0,1,1-.2,2.58,2.58,0,0,1,1,.2,1.29,1.29,0,0,0-.65,1,1,1,0,0,0,1,1,1,1,0,0,0,1-1,1.32,1.32,0,0,0-.67-1,2.72,2.72,0,0,1,1-.2Z"/></g></g></svg>