<svg xmlns="http://www.w3.org/2000/svg" viewBox="0 0 111.24 11.68"><defs><style>.cls-1{fill:#b00005;}.cls-2{fill:#b50005;}</style></defs><g id="Layer_2" data-name="Layer 2"><g id="レイアウト"><path class="cls-1" d="M45,6.26c0-.64,0-1.92,0-2.71V2.88h1.51V4.2h-1c0,.69,0,1.53,0,2.06Zm1-3h-.48v.13H46Zm0,.44h-.48v.14H46Zm1.45,2.55a1.4,1.4,0,0,0-.08-.36.74.74,0,0,0-.08.18,1.39,1.39,0,0,1-.65-.46,1.54,1.54,0,0,1-.88.5,1.57,1.57,0,0,0-.21-.43,1.11,1.11,0,0,0,.65-.25h-.6V5h.74s0-.08,0-.15l-.63,0V4.53H46a.73.73,0,0,0-.18-.22l.49-.11a2.13,2.13,0,0,1,.23.33h.15a.6.6,0,0,0,.11-.24c0-.07,0-.09,0-.09h0c.48,0,.5.08.5.12s0,0-.06.06a.23.23,0,0,0-.07.07.19.19,0,0,1,0,.07h.26v.38h-.64a.81.81,0,0,0,0,.15h.77v.39H47a1,1,0,0,0,.48.25l-.05.07h.1c.13,0,.14,0,.14-.11V4.2h-1V2.88h1.56V5.69c0,.44-.12.56-.69.56Zm.25-3h-.53v.13h.53Zm0,.44h-.53v.14h.53Z"/><path class="cls-1" d="M50.7,6.26c0-.28,0-.62,0-1a3.46,3.46,0,0,1-1.25.83,1.69,1.69,0,0,0-.26-.51A2.74,2.74,0,0,0,50.29,5H49.6V3.6h1.13V3.47l-1.4,0V3L50,3h.69a.88.88,0,0,0,0-.14.41.41,0,0,1,0-.08s0,0,.07,0h0c.58,0,.58.05.58.09a.13.13,0,0,1,0,.07.12.12,0,0,0,0,.08c.47,0,1,0,1.45,0v.51l-1.46,0V3.6h1.17V5h-.74a2.43,2.43,0,0,0,1.14.55,2,2,0,0,0-.25.52,3.36,3.36,0,0,1-1.33-.83c0,.35,0,.69,0,1Zm0-2.27h-.64v.15h.64Zm0,.51h-.64v.16h.64ZM51.94,4h-.7v.15h.7Zm0,.51h-.7v.16h.7Z"/><path class="cls-1" d="M57,5.72c-.12,0-.48,0-.91,0-.87,0-2,0-2.31,0V5.15l1.3,0c0-.25,0-.53,0-.79V3.9l-1,0V3.36c.18,0,.61,0,1.07,0s1.27,0,1.51,0v.57c-.17,0-.57,0-1,0V5.16c.61,0,1.18,0,1.35,0Z"/><path class="cls-1" d="M58.73,5c0-.26,0-.73,0-1.15s0-.67,0-.81a.31.31,0,0,1,0-.08s0,0,0,0c.62,0,.65,0,.65.07a.06.06,0,0,1,0,.05,2.93,2.93,0,0,0,0,.86c0,.38,0,.8,0,1.08Zm1.54-2.08C60.94,3,61,3,61,3a.14.14,0,0,1,0,.06c0,.1,0,.1-.08,1.38a2.21,2.21,0,0,1-1.17,1.92,2.92,2.92,0,0,0-.61-.45,1.57,1.57,0,0,0,1.21-1.83c0-.42,0-.84,0-1,0,0,0-.06,0-.08s0,0,0,0Z"/><path class="cls-1" d="M63.85,3.88c.66.06.66.07.66.1a.15.15,0,0,1,0,.06s0,.06-.07.34a1.66,1.66,0,0,0,.68-.66c-.63,0-2,0-2.44.1V3.2c.16,0,.49,0,.86,0,.72,0,1.6,0,1.79,0s.1,0,.14,0,0,0,.47.27c0,0,0,0,0,0s-.09.08-.15.19a3.27,3.27,0,0,1-1,1.19,3.17,3.17,0,0,0-.37-.36,2.26,2.26,0,0,1-1.27,1.8,3.21,3.21,0,0,0-.51-.45,1.6,1.6,0,0,0,1.23-1.65,1.34,1.34,0,0,0,0-.2s0-.07,0-.08,0,0,0,0Z"/><rect class="cls-2" y="8.26" width="111.24" height="1.06"/><rect class="cls-2" width="111.24" height="1.06"/><polygon class="cls-2" points="55.58 11.68 53.25 8.87 57.99 8.87 55.58 11.68"/></g></g></svg>