<svg xmlns="http://www.w3.org/2000/svg" viewBox="0 0 63.021 14.103"><defs><style>.cls-1{isolation:isolate;}.cls-2{opacity:0.75;mix-blend-mode:multiply;}.cls-3{fill:none;stroke:#000;stroke-linecap:round;stroke-miterlimit:10;stroke-width:0.15px;}.cls-4{fill:#fff;}.cls-5{fill:#b20005;}</style></defs><g class="cls-1"><g id="Layer_2" data-name="Layer 2"><g id="レイアウト"><g class="cls-2"><rect x="1.463" y="0.475" width="61.482" height="8.753" rx="2.664"/><rect class="cls-3" x="1.463" y="0.475" width="61.482" height="8.753" rx="2.664"/></g><rect class="cls-4" x="1.063" y="0.075" width="61.482" height="8.753" rx="2.664"/><rect class="cls-3" x="1.063" y="0.075" width="61.482" height="8.753" rx="2.664"/><path class="cls-5" d="M4.638,5.854v-3.4h1.25v.473H5.139V5.854Z"/><path class="cls-5" d="M10.2,6.008a10.16,10.16,0,0,1-1.631.15,6.072,6.072,0,0,1-.674-.037c-.59-.075-.965-.422-.965-.867A1.231,1.231,0,0,1,7.358,4.4l.52.328c-.206.2-.314.361-.314.492,0,.215.3.3.946.3a4.946,4.946,0,0,0,1.654-.276ZM7.986,3.755c.079-.056.2-.15.285-.215-.238,0-.449.009-.674.009H7.349L7.283,2.86a3.552,3.552,0,0,0,.88.08A5.827,5.827,0,0,0,9.2,2.86c.079-.014.117-.042.14-.042s.014,0,.024.014c.032.047.327.52.327.549,0,.046-.116.056-.2.093a4.39,4.39,0,0,0-.988.614Z"/><path class="cls-5" d="M13.091,5.563c.037,0,.074,0,.112,0a1.138,1.138,0,0,0,1.288-1.1,1.105,1.105,0,0,0-.867-1.086,5.95,5.95,0,0,1-.857,2.388.77.77,0,0,1-.609.38c-.482,0-.89-.642-.89-1.387a1.944,1.944,0,0,1,2-1.995,1.724,1.724,0,0,1,1.888,1.714,1.778,1.778,0,0,1-1.687,1.766A4.459,4.459,0,0,0,13.091,5.563ZM11.9,4.753c0,.426.183.67.262.67a3.89,3.89,0,0,0,.82-2.052A1.347,1.347,0,0,0,11.9,4.753Z"/><path class="cls-5" d="M18.706,3.188a4.235,4.235,0,0,1-1,3.289,2.473,2.473,0,0,0-.454-.539,3.364,3.364,0,0,0,.815-2.745c-.155,0-.309,0-.44.014l.187.59c-.375.108-.726.216-1.073.328,0,.389,0,.764.005,1,0,.051,0,.08.145.08.22,0,.249-.01.286-.914a1.553,1.553,0,0,0,.581.239c-.131,1.2-.286,1.251-.914,1.251-.416,0-.7-.038-.7-.511V5.226c0-.216.01-.543.01-.9-.075.028-.15.051-.225.079l-.2-.6c.14-.038.281-.075.417-.113a11.213,11.213,0,0,0-.047-1.138c-.009-.052-.019-.08-.019-.1s.01-.029.052-.029h.033c.623.033.684.061.684.108a.14.14,0,0,1-.047.089c-.056.061-.056.066-.066.885.281-.089.563-.192.857-.3-.032,0-.07.005-.1.005V2.57c.535.019,1.556.023,2.034.023h.257c0,.923-.014,2.413-.089,3.087-.061.539-.2.745-.862.745-.122,0-.258,0-.417-.019a2.141,2.141,0,0,0-.14-.646,4.665,4.665,0,0,0,.5.047c.225,0,.267-.061.282-.183.074-.548.079-1.714.093-2.436Z"/><path class="cls-5" d="M24.64,5.212c-.328-.009-1.171-.028-1.714-.028V5.61c0,.693-.211.867-.989.867-.14,0-.3,0-.473-.014a2.521,2.521,0,0,0-.2-.666c.267.024.459.038.6.038.323,0,.365-.07.365-.248v-.4c-.628,0-1.251.009-1.808.028V4.575c.567.019,1.185.033,1.808.033V4.153c-.487.005-.969.014-1.461.028V3.558c.482.019.965.033,1.461.033V3.24c-.341.028-.829.056-1.274.056a1.938,1.938,0,0,0-.2-.614c.2.01.389.01.567.01A6.61,6.61,0,0,0,23.5,2.425c.033-.014.056-.052.094-.052a.078.078,0,0,1,.042.014,6.1,6.1,0,0,1,.51.394.1.1,0,0,1,.042.079.068.068,0,0,1-.074.071H24.1a.925.925,0,0,0-.113,0,.3.3,0,0,0-.093.009,6,6,0,0,1-.965.22v.436c.44,0,.885-.014,1.349-.033v.623c-.483-.018-1.209-.028-1.349-.028v.455c.585,0,1.171-.014,1.714-.033Z"/><path class="cls-5" d="M27.44,5.854a.626.626,0,0,0,.67-.619,1.262,1.262,0,0,0-.572-.932,2.066,2.066,0,0,0,.633-.206,1.618,1.618,0,0,1,.581,1.171,1.239,1.239,0,0,1-1.3,1.218,1.128,1.128,0,0,1-1.171-1.1,2.225,2.225,0,0,1,.023-.258.808.808,0,0,1-.642-.754.725.725,0,0,1,.384-.637l.385.3c-.155.08-.225.183-.225.272a.183.183,0,0,0,.112.168.476.476,0,0,0,.075.038c.038-.253.08-.515.122-.782a2.093,2.093,0,0,1-.525-.3l.164-.651a1.27,1.27,0,0,0,.44.351c.024-.22.043-.426.047-.6V2.518c0-.046-.009-.084-.009-.107s.005-.024.018-.024a.242.242,0,0,0,.024,0c.164.047.567.159.707.2.052.014.066.028.066.046a.1.1,0,0,1-.037.061c-.029.033-.085.108-.2.656a2.025,2.025,0,0,0,.431.052,1.073,1.073,0,0,0,.173-.014l-.089.623a3.17,3.17,0,0,1-.632-.089c-.042.229-.084.473-.117.707a2.725,2.725,0,0,0,.286.014,2.036,2.036,0,0,0,.43-.042l-.112.661a2.538,2.538,0,0,1-.271.013c-.132,0-.267-.009-.408-.023a.033.033,0,0,0,0,.023V5.32a.541.541,0,0,0,.539.534Z"/><path class="cls-5" d="M30.99,4.744c.707.032.716.065.716.116a.109.109,0,0,1-.046.08.132.132,0,0,0-.061.113,1.453,1.453,0,0,1-1.541,1.419,2.157,2.157,0,0,0-.253-.59c.646-.056,1.148-.206,1.148-.9a.73.73,0,0,0-.01-.113.734.734,0,0,1-.019-.1c0-.024.014-.028.047-.028Zm2.22.313c.015-.173.015-.323.015-.435H30.592v.122a2.56,2.56,0,0,0,.014.313h-.661c.019-.276.019-.66.019-.857V4.074h3.888V4.2c0,.2,0,.581.019.857Zm.248-1.133c-.5-.014-1.044-.024-1.573-.024s-1.05.01-1.523.024V3.39c.375.014.773.018,1.185.023v-.2c-.51,0-1.021.009-1.522.023V2.668c.506.014,1.007.028,1.513.028a1.025,1.025,0,0,0-.019-.192.36.36,0,0,1-.028-.1c0-.023.014-.028.056-.028h.024c.182,0,.459.024.66.047.057,0,.08.028.08.061a.115.115,0,0,1-.038.075c-.051.056-.061.07-.061.136V2.7c.52,0,1.045-.014,1.579-.028v.562c-.529-.014-1.063-.023-1.588-.023v.2c.426,0,.853-.009,1.255-.023ZM32.119,5.877c0-.075,0-.22,0-.37a4.682,4.682,0,0,0-.023-.614.859.859,0,0,1-.019-.1c0-.023.01-.028.042-.028h.024c.641.028.712.056.712.113a.123.123,0,0,1-.047.084c-.056.046-.061.084-.061.44,0,.131.005.262.005.342s.052.1.29.1c.333,0,.366-.009.38-.628a2.179,2.179,0,0,0,.59.235c-.089.936-.262.946-1.012.946-.552,0-.885-.014-.885-.5Z"/><path class="cls-5" d="M38.086,5.516c.131,0,.351-.173.613-.529a3.211,3.211,0,0,0,.244.736,1.552,1.552,0,0,1-1.017.529.623.623,0,0,1-.632-.656c.014-.422.113-.965.136-1.611,0-.122-.028-.174-.1-.174a.471.471,0,0,0-.21.085,5.548,5.548,0,0,0-.923.829c-.005.117-.005.234-.005.356A8.235,8.235,0,0,0,36.287,6.4l-.726.037c0-.314.009-.656.018-1.007a5.161,5.161,0,0,0-.332.45c-.065.089-.089.173-.126.173a3.591,3.591,0,0,1-.45-.595.075.075,0,0,1-.014-.028c0-.037.075-.042.159-.126a6.05,6.05,0,0,0,.8-1.031c0-.1.009-.211.014-.323a2.977,2.977,0,0,0-.562.229A.107.107,0,0,1,35,4.214c-.023,0-.037-.019-.047-.061s-.154-.632-.154-.669c0-.015.014-.019.033-.019h.112a4.662,4.662,0,0,0,.712-.127c.009-.262.019-.5.019-.646V2.6a.823.823,0,0,0-.023-.145c0-.015.009-.019.037-.019H35.7c.127.009.548.033.708.042.037,0,.061.023.061.051a.083.083,0,0,1-.029.057c-.065.065-.074.15-.126.576l.281.229a.162.162,0,0,1,.07.127.381.381,0,0,1-.061.131,1.451,1.451,0,0,1,.844-.478c.341,0,.618.253.618.82-.028.59-.113.881-.122,1.3C37.945,5.437,38,5.516,38.086,5.516Z"/><path class="cls-5" d="M43.069,5.067c0,.852-.82,1.236-1.57,1.236-.627,0-1.208-.271-1.208-.763a.685.685,0,0,1,.754-.647.937.937,0,0,1,.932.755.632.632,0,0,0,.422-.586v0c0-.332-.347-.557-.815-.557a2.166,2.166,0,0,0-1.663.927l-.478-.52a10.856,10.856,0,0,0,1.785-1.564,4.352,4.352,0,0,0-1.049.276.1.1,0,0,1-.052.019c-.033,0-.056-.038-.244-.731a.039.039,0,0,1,0-.018c0-.015.009-.019.023-.019s.066.009.122.009a10.26,10.26,0,0,0,1.714-.2c.061-.018.08-.051.108-.051.061,0,.426.445.464.487s.038.047.038.056c0,.033-.071.033-.16.108-.333.272-.5.408-.942.787A2.646,2.646,0,0,1,41.823,4c.8,0,1.236.455,1.246,1.05Zm-2.23.421c0,.16.277.263.59.263a.5.5,0,0,0-.435-.394c-.085,0-.15.038-.155.122Z"/><path class="cls-5" d="M44.117,5.91a5.772,5.772,0,0,0,.838-1.677,1.252,1.252,0,0,0-.51.131.106.106,0,0,1-.056.028q-.029,0-.042-.042c-.047-.159-.146-.473-.183-.628a.045.045,0,0,1-.005-.023c0-.024.019-.028.042-.028s.057,0,.085,0c.225,0,.431-.028.838-.075a4.278,4.278,0,0,0,.094-.861c0-.033-.01-.066-.01-.089a.03.03,0,0,1,.033-.033h.009c.183.014.535.07.68.094.051.009.07.032.07.056a.094.094,0,0,1-.028.056c-.042.047-.042.051-.2.717.019,0,.038,0,.057,0a1.365,1.365,0,0,1,.187-.009c.759,0,.778.566.778.871a6.06,6.06,0,0,1-.136,1.19c-.1.417-.384.6-1,.6-.061,0-.127,0-.193-.005a4.1,4.1,0,0,0-.187-.745,2.132,2.132,0,0,0,.478.08c.155,0,.253-.047.286-.178a5.1,5.1,0,0,0,.107-.984V4.331c0-.159-.051-.224-.2-.224H45.9c-.108.009-.2.018-.3.032a11.034,11.034,0,0,1-.843,2.117Zm3.518-1a3.223,3.223,0,0,0-.979-1.358L47.2,3.2a3.856,3.856,0,0,1,1.045,1.321Z"/><path class="cls-5" d="M48.753,5.474a6.26,6.26,0,0,0,.932-1.766c-.112,0-.229.01-.341.01s-.23,0-.347-.01l-.056-.665a2.608,2.608,0,0,0,.637.066c.094,0,.192,0,.295-.01a3.046,3.046,0,0,0,.089-.52V2.556c0-.038-.005-.071-.005-.089s.01-.038.038-.038a.108.108,0,0,1,.037.005c.675.127.7.131.7.178a.114.114,0,0,1-.042.075.431.431,0,0,0-.093.169c-.015.046-.029.1-.043.154a2.541,2.541,0,0,0,.5-.154l-.1.688c-.206.043-.408.075-.605.1a13.722,13.722,0,0,1-.955,2.2Zm3.457.759A4.042,4.042,0,0,0,51.7,5.84a.846.846,0,0,1-.894.539c-.515,0-1.045-.258-1.045-.708,0-.089.043-.693.9-.693a2.269,2.269,0,0,1,.347.028,2.555,2.555,0,0,1-.061-.492.662.662,0,0,1,.543-.736,3.146,3.146,0,0,0-.534-.168l.338-.487a7.241,7.241,0,0,1,1.4.6l-.333.525a.649.649,0,0,0-.426-.174c-.384,0-.389.408-.389.469a3.072,3.072,0,0,0,.113.637,4.454,4.454,0,0,1,.964.492ZM51.1,5.563a1.714,1.714,0,0,0-.483-.1c-.145,0-.239.051-.258.183v.014c0,.112.183.178.37.178s.375-.066.375-.22Z"/><path class="cls-5" d="M55.02,5.137c0-.08,0-.164,0-.225A1.088,1.088,0,0,1,55.629,4,.653.653,0,0,0,56,3.437c0-.319-.257-.488-.656-.488a.609.609,0,0,0-.693.642l-.7,0a1.252,1.252,0,0,1,1.4-1.218c.825,0,1.317.45,1.317,1.049a1.022,1.022,0,0,1-.581.918c-.29.178-.478.333-.478.619,0,.056,0,.112.005.173Zm-.037.988V5.432h.679v.693Z"/><path class="cls-5" d="M57.928,6.4V5.924h.75V3h.5V6.4Z"/><g class="cls-2"><circle cx="1.934" cy="8.463" r="1.659"/><circle class="cls-3" cx="1.934" cy="8.463" r="1.659"/></g><circle class="cls-4" cx="1.734" cy="8.263" r="1.659"/><circle class="cls-3" cx="1.734" cy="8.263" r="1.659"/><g class="cls-2"><circle cx="1.946" cy="11.075" r="1.165"/><circle class="cls-3" cx="1.946" cy="11.075" r="1.165"/></g><circle class="cls-4" cx="1.746" cy="10.875" r="1.165"/><circle class="cls-3" cx="1.746" cy="10.875" r="1.165"/><g class="cls-2"><circle cx="3.24" cy="13.093" r="0.935"/><circle class="cls-3" cx="3.24" cy="13.093" r="0.935"/></g><circle class="cls-4" cx="3.04" cy="12.893" r="0.935"/><circle class="cls-3" cx="3.04" cy="12.893" r="0.935"/></g></g></g></svg>