<svg xmlns="http://www.w3.org/2000/svg" viewBox="0 0 185.3 229.728"><defs><style>.cls-1{fill:#b50005;}</style></defs><g id="Layer_2" data-name="Layer 2"><g id="レイヤー_1" data-name="レイヤー 1"><path class="cls-1" d="M184.236,93.068c-1.574-6.176-1.836-12.624-1.836-18.92a96.04,96.04,0,0,1,2.263-20.339,31.666,31.666,0,0,0-1.307-16.826,26.917,26.917,0,0,0-25.229-17.17A27.831,27.831,0,0,0,147.6,21.941c-.338-6.716-1.863-16.312-9.32-20.12-11.319-5.78-25.293,3.7-30.426,7.632A124.938,124.938,0,0,0,96.322,19.629a79.727,79.727,0,0,0-9.27-.6,79.85,79.85,0,0,0-9.278.6A119.275,119.275,0,0,0,66.243,9.453C60.906,5.415,47.316-3.907,35.819,1.821c-11.133,5.547-9.588,24.807-8.871,30.612a86.483,86.483,0,0,0,4.02,16.5A39.791,39.791,0,0,0,26.35,67.4a41.218,41.218,0,0,0,6.582,21.78C12.886,103.633,0,125.916,0,150.886c0,43.475,39.02,78.842,86.982,78.842s86.982-35.367,86.982-78.842a71.84,71.84,0,0,0-4.7-25.51c.069-.037.142-.082.207-.109,8.307-4.129,11.59-8.317,14.334-15.337C185.72,105.028,185.72,98.89,184.236,93.068Zm-52.65-78.983c4.775,2.412,2.177,19.007,1.361,22.093A60.97,60.97,0,0,0,111.918,23.43C115.186,19.937,126.314,11.423,131.586,14.085ZM87.052,33.945a61.765,61.765,0,0,1,17.278,2.49c-1.134,7.022-8.516,12.424-17.278,12.424S70.9,43.457,69.765,36.435A61.829,61.829,0,0,1,87.052,33.945Zm0,28.551c14.171,0,26.218-8.333,29.59-20.86,9.783,6.139,16.2,15.621,16.2,25.76,0,18.446-20.539,33.694-45.786,33.694S41.265,85.842,41.265,67.4c0-10.139,6.405-19.621,16.188-25.76C60.676,53.786,72.465,62.5,87.052,62.5Zm8.492,65.888a8.492,8.492,0,1,1-8.492-8.492A8.493,8.493,0,0,1,95.544,128.384ZM42.509,14.085c5.22-2.68,16.45,5.887,19.668,9.345A61.083,61.083,0,0,0,41.148,36.178C40.343,33.132,37.709,16.55,42.509,14.085ZM86.982,214.84c-39.753,0-72.094-28.69-72.094-63.954,0-20.506,10.948-38.774,27.918-50.486a63.928,63.928,0,0,0,27.932,13.526,20.7,20.7,0,0,0-5.814,14.458,22.128,22.128,0,1,0,44.256,0,20.7,20.7,0,0,0-5.823-14.458c10.53-2.236,20.618-6.931,28.015-13.724-.358,14.053,9.13,25.657,22.594,27.1a57.352,57.352,0,0,1,5.11,23.589C159.076,186.15,126.735,214.84,86.982,214.84ZM169.337,85.45c.525,4.8.947,7.495,1.841,12.133,1.029,5.343.18,8.589-2.85,12a15.326,15.326,0,0,1-10.185,4.722,14.579,14.579,0,0,1-10.185-4.722c-3.029-3.412-3.879-6.658-2.85-12,.894-4.638,1.316-7.33,1.841-12.133a104.04,104.04,0,0,0,.573-11.3A92.62,92.62,0,0,0,146.9,62.8c-.523-4.258-1.58-9.9-2.158-13.891a13.29,13.29,0,0,1,2.152-9.467,13.557,13.557,0,0,1,22.5,0,13.294,13.294,0,0,1,2.151,9.467c-.577,3.99-1.635,9.633-2.158,13.891a92.819,92.819,0,0,0-.621,11.351A104.294,104.294,0,0,0,169.337,85.45Z"/></g></g></svg>