<svg xmlns="http://www.w3.org/2000/svg" viewBox="0 0 109.03 110.05"><defs><style>.cls-3{fill:#fff;stroke:#a5a5d3;stroke-linecap:round;stroke-linejoin:round;stroke-width:3px}</style></defs><g id="レイヤー_2" data-name="レイヤー 2"><g id="デザイン"><path d="M17 19.65a42.38 42.38 0 00-6.5-6.25 35.16 35.16 0 01-8 6.6A12 12 0 000 18 25.07 25.07 0 0012.22 6.15a88 88 0 00-9 .54l-.06-3c.85 0 2.18.09 3.62.09 2.13 0 4.57-.07 6.36-.21.47 0 .56-.26.79-.26s2.32 1.4 2.32 1.75-.51.37-.83 1a38 38 0 01-3.32 5.34 58 58 0 017.15 6zm8-1.44C31.66 16.56 36.35 11.15 37.74 7c-2.69.07-4.76.12-6.2.21A25.4 25.4 0 0126 12.47a9.84 9.84 0 00-2.6-1.74c3.77-1.86 7.2-5.67 8-8.8.11-.51 0-.79.23-.79a.32.32 0 01.12 0c.79.21 2.13.67 2.71.88.24.07.35.19.35.31a.47.47 0 01-.23.34c-.28.21-.28.24-1.25 1.95 1.69 0 3.87-.09 5.27-.2.53-.05.56-.26.72-.26a9.46 9.46 0 012.23 1.74c0 .21-.42.42-.79 1.23-2.72 6-6.09 10.24-13.36 13.31a13.26 13.26 0 00-2.4-2.23zM45.78 7.15c.7.07 2.14.1 3.86.1 3.83 0 9-.14 10.68-.21.35 0 .49-.28.76-.28a9 9 0 012.4 1.67c0 .26-.49.51-.89 1.32a19.68 19.68 0 01-12 10.87 18.32 18.32 0 00-2.37-2.3c6-1.32 10-5.31 11.38-8.84-3.43 0-11.35.27-13.63.51zm14.86-2C60 5.06 58.81 5 57.44 5c-3.3 0-7.8.12-9.43.25V2.58h2.44c3.35 0 8.5-.1 10.2-.26zm10.04 6.9a17.83 17.83 0 00-2.14-4.9l2.28-.81a24.57 24.57 0 012.25 4.6zm10.26-5.92C80.94 6 81 6 81 6h.09c.63.19 2.16.74 2.65.93.16.07.23.14.23.23s-.07.17-.19.28a2.1 2.1 0 00-.48.84c-1.91 5.41-4.58 9.12-10.52 11.7a7.33 7.33 0 00-2.21-1.81 13.74 13.74 0 0010.37-11.5zM75.05 11a16.3 16.3 0 00-1.65-4.9l2.25-.56a15.46 15.46 0 011.83 4.83zm14.1-6.4c1.11.09 3 .14 5.13.14 2.92 0 6.32-.1 8.87-.26.44 0 .56-.21.77-.21A6.4 6.4 0 01106.33 6c0 .3-.58.55-.93 1.46-2.34 6.15-5.83 10.08-12.4 13.35a8.28 8.28 0 00-2.44-2.2c6.58-2 11-7.53 12-11.62-3.42.07-10.52.19-13.4.61zm17.62-.09a2.24 2.24 0 01-2.25-2.26 2.26 2.26 0 014.51 0 2.25 2.25 0 01-2.26 2.26zm0-3.35a1.09 1.09 0 000 2.18 1.09 1.09 0 100-2.18z" fill="#a5a5d3"/><path class="cls-3" d="M47.33 84.93l11.83-7.37v10.96l-7.61 4.11-4.22-7.7zm11.83-7.37l10.63 6.58-3.85 11.5-6.78-7.12V77.56zm10.63 6.58v-9.48l-5.31-3.56-5.32 6.46 10.63 6.58z"/><path class="cls-3" d="M59.16 77.56l-9.72-6.46-2.11 13.83 11.83-7.37zm-9.72-6.46l11.66-8.69 3.38 8.69-5.32 6.46-9.72-6.46zm-33.56 7.81l9.33-6.95 2.7 6.95-4.25 5.16-7.78-5.16zm45.22-16.5l9.68-.99-.99 13.24-5.31-3.56-3.38-8.69zm22.55-16.15l9.68-.99-.99 13.24-5.31-3.56-3.38-8.69z"/><path class="cls-3" d="M70.78 61.42l9.02 6.62-10.01 6.62.99-13.24z"/><path class="cls-3" d="M79.8 68.04L78.49 79.6l-8.7 4.54v-9.48l10.01-6.62zM38.21 41.02l5.74-7.13 8.61 3.81-7.12 5.67-7.23-2.35zM61.1 62.41l-9.89-4.54 14.73-7.91-4.84 12.45zm4.84-12.45l7.61 2.76-2.77 8.7-9.68.99 4.84-12.45z"/><path class="cls-3" d="M51.21 57.87l9.89 4.54-11.66 8.69 1.77-13.23z"/><path class="cls-3" d="M51.21 57.87l-7.5-.21-1.38 10.38 7.11 3.06 1.77-13.23zm-8.88 10.17l7.11 3.06-2.11 13.83-7.77-6.91 2.77-9.98zm31.22-15.32l8.47 3.46-2.22 11.86-9.02-6.62 2.77-8.7zm-3.76 31.42l8.46 6.59-12.31 4.91 3.85-11.5zm8.7-4.54l6.41 2-6.65 9.13-8.46-6.59 8.7-4.54zm7.4 10.82l6.55-1.49-1.15 11.23-10.62-1.43 5.22-8.31zm-26.73-1.9l-2.2 12.05 8.98-4.93-6.78-7.12z"/><path class="cls-3" d="M65.94 95.64l6.1 8.49 6.21-13.4-12.31 4.91zm-6.78-7.12l-2.2 12.05h-9.63l4.22-7.94 7.61-4.11z"/><path class="cls-3" d="M65.94 95.64l6.1 8.49-9.09 4.43-5.99-7.99 8.98-4.93zM47.33 84.93l4.22 7.7-4.22 7.94-7.77-6.88 7.77-8.76zM25.54 96.06l6.94-1.81 5.85 6.83-7.48 5.41-5.31-10.43z"/><path class="cls-3" d="M47.33 84.93l-7.77-6.91-6.54 7.14 6.54 8.53 7.77-8.76zM79.8 68.04l10.86 3.06-5.76 10.5-6.41-2 1.31-11.56zm-37.47 0l-12.19 1.94 9.42 8.04 2.77-9.98z"/><path class="cls-3" d="M30.14 69.98l2.88-12.11 9.31 10.17-12.19 1.94zm2.88-12.11l6.54-7.91 4.15 7.7-1.38 10.38-9.31-10.17zm6.54-7.91l9.88-2.05 1.77 9.96-7.5-.21-4.15-7.7z"/><path class="cls-3" d="M49.44 47.91l9.14-4.88 7.36 6.93-14.73 7.91-1.77-9.96z"/></g></g></svg>