<svg xmlns="http://www.w3.org/2000/svg" viewBox="0 0 119.79 91.76"><defs><style>.cls-1{fill:#4a8d37;}.cls-2{fill:#fff;}</style></defs><g id="Layer_2" data-name="Layer 2"><g id="レイヤー_1" data-name="レイヤー 1"><rect class="cls-1" width="119.79" height="91.76" rx="15.45"/><path class="cls-2" d="M15.53,63.08V28.69h6.88V56.34H36.68v6.74Z"/><path class="cls-2" d="M41,63.08V28.69h7.11V63.08Z"/><path class="cls-2" d="M70.78,63.08l-10-21.24a30.2,30.2,0,0,1-1.4-5.67h-.23c.23,1.67.7,7.48.7,10.64V63.08H53.17V28.69h8L71.29,49A28.63,28.63,0,0,1,73,54.9h.23a97.43,97.43,0,0,1-.88-10.23v-16h6.69V63.08Z"/><path class="cls-2" d="M84.77,63.08V28.69h22.44v6.23H91.65V42h12.91v6.22H91.65v8.6h16.49v6.23Z"/></g></g></svg>