<svg xmlns="http://www.w3.org/2000/svg" viewBox="0 0 119.79 91.76"><defs><style>.cls-1{fill:#fff;}.cls-2{fill:#ad0005;}</style></defs><g id="Layer_2" data-name="Layer 2"><g id="レイヤー_1" data-name="レイヤー 1"><rect class="cls-1" width="119.79" height="91.76" rx="15.45"/><path class="cls-2" d="M51.37,37.27c.23-.21.89-.88.89-.88h0l2.27-2.28a3.78,3.78,0,0,0,0-5.37l-7.9-7.91a3.8,3.8,0,0,0-5.38,0L39,23.1h0l-1.7,1.71a.61.61,0,0,0,0,.91S51.1,37.52,51.37,37.27Z"/><path class="cls-2" d="M55.81,49.67c-5.75-5.75-6.52-8.63-6-10.35L35.16,27.11c-4.6,6.55.26,19.6,11.94,31.28,8.73,8.73,18.24,13.66,25.22,13.66a9.78,9.78,0,0,0,7.16-2.64l.43-.43L66,55.65C64.3,56.15,61.43,55.29,55.81,49.67Z"/><path class="cls-2" d="M86.35,61.08a3.77,3.77,0,0,0-1.11-2.69l-7.91-7.91a3.8,3.8,0,0,0-5.37,0l-2.28,2.28h0l-1.12,1.12c-.15.15-.53.41-.37.6a.94.94,0,0,0,.2.2l13.34,12s.27.33.49.09S83,66,83,66h0l2.28-2.28A3.74,3.74,0,0,0,86.35,61.08Z"/></g></g></svg>