<svg xmlns="http://www.w3.org/2000/svg" viewBox="0 0 136.75 64.61"><defs><style>.cls-1{fill:#fff;}.cls-2{fill:none;stroke:#fff;stroke-miterlimit:10;stroke-width:1.63px;}.cls-3{fill:#d70000;}</style></defs><g id="Layer_2" data-name="Layer 2"><g id="レイヤー_1" data-name="レイヤー 1"><path class="cls-1" d="M22.65,58.87V57.33c0-3.23,2.35-6.45,5.52-8.16,2.08-1.1,2.91-2.25,2.91-3.42a2.18,2.18,0,0,0-2.37-2.13,2.68,2.68,0,0,0-2.59,2.91H22.53c.07-3.76,2.52-6.21,6.47-6.21,3.77,0,6,2.25,6,5.33,0,2.52-1.54,4.4-5,6.25a5.38,5.38,0,0,0-3.1,3.67h8.11v3.3Z"/><path class="cls-1" d="M45.66,58.87V55.1H37.92V52.05l8-11.26h3.22V51.85H51.5V55.1H49.18v3.77Zm0-7c0-2.37.05-3.81.2-6h-.12a66.33,66.33,0,0,1-3.94,6Z"/><path class="cls-1" d="M66.77,58.87V51.12H60.32v7.75H56.7V40.79h3.62v7h6.45v-7h3.61V58.87Z"/><path class="cls-1" d="M91.11,51.41c0,.3-.64.62-.75.77a16.26,16.26,0,0,1-3.25,3.19,26.08,26.08,0,0,0,6.6,1.11,10.9,10.9,0,0,0-1.14,2.89,27.42,27.42,0,0,1-8.4-2.26,31.25,31.25,0,0,1-8.69,2.26,10.47,10.47,0,0,0-1.12-2.86,27,27,0,0,0,7-1.12,16.4,16.4,0,0,1-2.79-2.65c-.54,0-1.08,0-1.57,0V51.41H75c.09-1.42.09-3.29.09-4.23v-.63h3.2a10.7,10.7,0,0,0-1.29-2l2.69-.6a11.72,11.72,0,0,1,1.42,2.64h2a11.4,11.4,0,0,0-1-2.51l2.71-.3a10.78,10.78,0,0,1,.92,2.81h1a5.7,5.7,0,0,0,1.4-2.64c0-.35,0-.43.26-.43a1.24,1.24,0,0,1,.25,0c2.28.34,2.65.45,2.65.73,0,.11-.07.21-.22.3s-.32.17-.41.35a9.57,9.57,0,0,1-.9,1.67H93v.63c0,.94,0,2.81.09,4.23Zm1.16-8.3c-.19,0-.36,0-.51,0a3.28,3.28,0,0,0-.46,0,138.59,138.59,0,0,1-15.13.78,7.24,7.24,0,0,0-.9-2.61c1.18,0,2.36,0,3.5,0a67.46,67.46,0,0,0,11-.63c.19,0,.28-.15.41-.15s2.54,1.81,2.54,2.24c0,.19-.15.32-.41.32ZM78,49.2v.88c2.64.06,5.91.06,7.78.06h1.55a1.12,1.12,0,0,0,.73-.23.41.41,0,0,1,.28-.11c.06,0,.34,0,1.7.84,0-.65,0-1,0-1.44Zm4.25,3.48a8.06,8.06,0,0,0,2.13,1.55,7.8,7.8,0,0,0,2.05-1.55Z"/><path class="cls-1" d="M98.1,59.37c0-1.55.06-3.57.06-5.55,0-1.1,0-2.17,0-3.14-.34.49-.69,1-1.07,1.46a13.77,13.77,0,0,0-1.23-3.37A15.87,15.87,0,0,0,99.28,41v0c0-.11,0-.2,0-.26s0-.22.19-.22,3.21.5,3.21,1a.47.47,0,0,1-.24.34c-.3.22-.37.33-.43.5a29.84,29.84,0,0,1-1.42,3.91c.58.07.82.13.82.32a.65.65,0,0,1-.22.41c-.28.3-.28.3-.28,5.25,0,2.3,0,5,.07,7.14Zm17.11-12.62c-2.23-.09-4.56-.11-6.86-.11s-4.58,0-6.73.11V44.1q3.3.1,6.76.11c2.27,0,4.6,0,6.83-.11Zm-3.78,12.62c0-.26,0-.52,0-.78h-6.19c0,.26,0,.52,0,.78h-3c.1-2.11.1-4.73.1-5.94v-.62h11.85v.79c0,1.25,0,3.72.08,5.77Zm2.38-15.78c-1.67-.09-3.63-.11-5.56-.11s-3.81,0-5.38.11V41.16c1.59.06,3.48.1,5.4.1s3.87,0,5.54-.1Zm0,5.89c-1.7-.09-3.66-.11-5.57-.11s-3.79,0-5.36.11V47.22c1.57.06,3.47.11,5.38.11s3.87,0,5.55-.11Zm0,2.73c-1.7-.09-3.66-.11-5.57-.11s-3.79,0-5.36.11V50c1.57.06,3.47.11,5.38.11s3.87-.05,5.55-.11ZM111.54,55h-6.3v1.44h6.3Z"/><path class="cls-1" d="M131,44.17c-1.22,0-2.43,0-3.65,0-3.33,0-6.64,0-10,.11v-3c3.29.07,6.52.11,9.74.11s6.43,0,9.65-.11v3c-.9,0-1.78,0-2.68,0V56.06c0,2.45-1.06,3.31-4.67,3.31-.41,0-.88,0-1.37,0a9.7,9.7,0,0,0-.82-3c1,.09,1.76.13,2.32.13,1.4,0,1.48-.3,1.48-1.05ZM125.6,55.28c0-.34,0-.71,0-1.07h-3.36c0,.6,0,1.18,0,1.72h-3.08c.09-2.33.11-5.92.11-8.24V45.46h9.22v1.76c0,2.13,0,5.7.07,8.06Zm.1-7.12h-3.46V51.5h3.46Z"/><path class="cls-1" d="M21.76,25.42v-20h4V21.49h8.32v3.93Z"/><path class="cls-1" d="M39.67,25.42v-20h4.14V25.42Z"/><path class="cls-1" d="M59.64,25.42,53.81,13A18,18,0,0,1,53,9.73h-.13c.13,1,.4,4.37.4,6.21v9.48h-3.9v-20h4.69l5.88,11.87a16.87,16.87,0,0,1,1,3.41h.14a55.57,55.57,0,0,1-.52-6V5.37h3.91V25.42Z"/><path class="cls-1" d="M69.8,25.42v-20H82.89V9H73.82v4.15h7.53v3.63H73.82v5h9.62v3.63Z"/><path class="cls-1" d="M110,25.45c-3.77-.08-7.65-.13-11.48-.13s-7.65.05-11.32.13v-3l3.29.08V12.9c-.56.17-1.35.38-2,.56a8.37,8.37,0,0,0-1.43-3.14A16.31,16.31,0,0,0,93.84,8.2c-1.88,0-3.75.05-5.61.1v-3c2.86.08,5.74.13,8.62.13a3.38,3.38,0,0,0-.15-1.15,1.6,1.6,0,0,1-.15-.53c0-.1.1-.16.36-.16h.15c3.37.18,3.65.34,3.65.59a.82.82,0,0,1-.26.49.82.82,0,0,0-.28.56v.2c2.93,0,5.89,0,8.88-.13v3c-1.94-.05-3.88-.07-5.82-.1a17,17,0,0,0,6.92,2.12,8.18,8.18,0,0,0-1.43,3.14c-.67-.16-1.43-.36-2-.54v9.6l3.34-.08ZM96.78,12c.1-.69.1-2.55.1-2.55A15.82,15.82,0,0,1,92,12.39H105.1a17,17,0,0,1-4.95-2.94s0,1.84.1,2.55Zm6.43,2.94H94v1h9.19Zm0,3.21H94v1h9.19Zm0,3.29H94v1.13h2.66c2.19,0,4.41,0,6.53,0Z"/><path class="cls-1" d="M132.92,18.53c-2.06-.07-4.54-.1-6.25-.1V22c.87.05,1.84.08,2.88.08,2,0,4.34-.1,6.56-.23a15,15,0,0,0-.81,3.55l-4.32,0c-6.73,0-9.84-.41-12.39-3.21a10.42,10.42,0,0,1-3.09,3.77,13.38,13.38,0,0,0-2.32-3c3.19-2.16,4-6.76,4-7.88,0-.2,0-.36,0-.46s0-.15.16-.15a1,1,0,0,1,.22,0c3.19.69,3.6.85,3.6,1.15a.62.62,0,0,1-.33.46.76.76,0,0,0-.36.54c-.15.69-.35,1.53-.61,2.4a7.89,7.89,0,0,0,3.27,2.39V13.36l-6.79.07V11.65h-2.5c.1-1.43.1-3.3.1-4.57V5.68h8.65a5.76,5.76,0,0,0-.13-1.38,2.1,2.1,0,0,1-.15-.56c0-.13.08-.16.31-.16h.12c3.47.16,4.09.26,4.09.62a.68.68,0,0,1-.21.4c-.25.29-.28.26-.3.62a2.53,2.53,0,0,1-.06.46h9.11v.76c0,1.2,0,3.52.1,5.21h-2.06v1.78q-3.41-.07-6.74-.07v2c1.71,0,4.16-.05,6.25-.13Zm-1-9.74H117.44v1.43c2.52.07,5,.1,7.55.1,2.27,0,4.54,0,6.89-.08Z"/><line class="cls-2" x1="19.53" y1="33.61" x2="136.71" y2="33.61"/><rect class="cls-1" width="13.13" height="64.61"/><path class="cls-3" d="M6.29,15.86c0-.74,0-1.65.06-2.59-1.82,0-3.45,0-5.19.06V11.7L3,11.75V9.66a5.67,5.67,0,0,1-.89.86A5.46,5.46,0,0,0,1.16,9,5.75,5.75,0,0,0,3.39,5.57c0-.23,0-.29.11-.29a11.06,11.06,0,0,1,1.76.44.2.2,0,0,1,.16.18c0,.07,0,.14-.17.2a1,1,0,0,0-.34.29s0,0,0,.05c1.54,0,4.54,0,6.71-.05V8l-3.51,0v.85c1,0,2,0,2.74-.06v1.57l-2.74,0v1.52c1.25,0,2.69,0,3.93-.06v1.63L8.1,13.27c0,.94,0,1.85.05,2.59Zm.08-7.95H4.21a5.47,5.47,0,0,1-.55.89H6.37Zm0,2.33H4.66v1.52c.59,0,1.12,0,1.71,0Z"/><path class="cls-3" d="M9.63,27.23c0-.2,0-.42,0-.64H7.4c0,1.09,0,2.2,0,3.26H5.59c0-1,0-2.13,0-3.26H3.55c0,.22,0,.44,0,.64H1.81c.05-1.48.06-3.52.06-4.8V21.2H5.64a9.66,9.66,0,0,0-.09-1.57.76.76,0,0,1-.08-.25c0-.07,0-.09.15-.09h.1c1.58.11,2,.15,2,.34a.37.37,0,0,1-.12.23.47.47,0,0,0-.18.35c0,.22,0,.55,0,1h4v1.48c0,1.32,0,3.22,0,4.55Zm-4-4.5H3.52v2.33H5.64c0-.58,0-1.12,0-1.65Zm4,0H7.39v2.33h2.3Z"/><path class="cls-3" d="M11.78,41.05C10.11,41,8.33,41,6.55,41S3,41,1.41,41.05V39.54l1.31,0V38.22c-.52,0-1.05,0-1.56,0V36.72l1.56,0v-.46l-.52.36a5.53,5.53,0,0,0-.84-1.34,3.62,3.62,0,0,0,1.81-1.76c.05-.2,0-.28.18-.28a.32.32,0,0,1,.13,0c.44.06.85.14,1.34.25A.17.17,0,0,1,5,33.7c0,.07,0,.14-.15.2a.81.81,0,0,0-.25.22c1.77,0,5,0,6.92-.06v1.47h-1v1.23l1.5,0v1.54l-1.5,0v1.36l1.26,0Zm-9.58.28c0-.19,0-.22.08-.22h.1a12.29,12.29,0,0,1,1.51.35c.09,0,.15.1.15.17s0,.13-.15.19a.59.59,0,0,0-.25.28,6.74,6.74,0,0,1-.9,1.74,8.45,8.45,0,0,0-1.58-.73A4.57,4.57,0,0,0,2.2,41.33ZM4.83,35.5H4.2v1.27c.18,0,.45,0,.63,0Zm0,2.7H4.57l-.37,0V39.6h.63Zm-.28,5.59c0-.45,0-.87,0-1.29s0-.73,0-1.09l1.54-.06A13.31,13.31,0,0,1,6.19,43c0,.23,0,.46,0,.7ZM6.9,35.5H6.25v1.3H6.9Zm0,2.7H6.25v1.41H6.9Zm.41,5.58a13,13,0,0,0-.37-2.36l1.53-.15A13.18,13.18,0,0,1,9,43.58ZM9,35.51h-.7v1.28c.22,0,.48,0,.7,0Zm0,2.7h-.7v1.4H9Zm1.4,5.64a12.13,12.13,0,0,0-1-2.39l1.51-.36A11.57,11.57,0,0,1,12,43.29Z"/><path class="cls-3" d="M7.07,57.84c0-1.57.07-3.68.09-5.58A14.31,14.31,0,0,1,4.76,57a5,5,0,0,0-.62-1.17c0,.7,0,1.4,0,2H2.51c0-.87,0-2,0-3.15,0-.61,0-1.23,0-1.77a8.8,8.8,0,0,1-.65.83,7.24,7.24,0,0,0-.72-1.85,8.56,8.56,0,0,0,2.09-4.36v-.1c0-.12,0-.17.09-.17s1.83.3,1.83.56c0,.06,0,.13-.14.2s-.2.17-.24.28A15.26,15.26,0,0,1,4,50.49c.32,0,.46.07.46.18a.32.32,0,0,1-.13.23.53.53,0,0,0-.13.35c0,.35,0,2,0,3.81a13.27,13.27,0,0,0,2-4.12L4.53,51V49.3c.89,0,1.73.05,2.6.06a13.27,13.27,0,0,0-.07-1.74A.94.94,0,0,1,7,47.34c0-.06,0-.07.15-.07h.08c1.58.08,1.82.13,1.82.29a.37.37,0,0,1-.12.23c-.15.16-.15.19-.17,1.57,1,0,2,0,3-.06V51l-2.1,0A13.39,13.39,0,0,0,12,55.45,4.72,4.72,0,0,0,11.1,57a14.31,14.31,0,0,1-2.37-4.73c0,1.8,0,3.93,0,5.58Z"/></g></g></svg>