<svg xmlns="http://www.w3.org/2000/svg" viewBox="0 0 212.59 64.61"><defs><style>.cls-1{fill:#fff;}.cls-2{fill:#00408b;}.cls-3{fill:#8086bb;}.cls-4{fill:none;stroke:#fff;stroke-miterlimit:10;stroke-width:1.63px;}.cls-5{fill:#d70000;}</style></defs><g id="Layer_2" data-name="Layer 2"><g id="レイヤー_1" data-name="レイヤー 1"><path class="cls-1" d="M64.54,57.74a6.82,6.82,0,0,1-6.8,6.8H6.8A6.82,6.82,0,0,1,0,57.74V6.8A6.82,6.82,0,0,1,6.8,0H57.74a6.82,6.82,0,0,1,6.8,6.8Z"/><path class="cls-2" d="M42.82,56.08a9.54,9.54,0,0,0-.14,1.61,10.84,10.84,0,0,0,.13,1.62,7.86,7.86,0,0,0,.43,1.54h-.61a7.68,7.68,0,0,1-.5-1.49,7.2,7.2,0,0,1-.18-1.6c0-.26,0-.53,0-.81a8.32,8.32,0,0,1,.13-.85,6.87,6.87,0,0,1,.22-.81,4.7,4.7,0,0,1,.29-.72h.62A7.06,7.06,0,0,0,42.82,56.08Z"/><path class="cls-2" d="M44.78,56.65a2.74,2.74,0,0,1,.29-.76,1.12,1.12,0,0,1,.42-.42,1.17,1.17,0,0,1,1,0,1.12,1.12,0,0,1,.42.42,2.46,2.46,0,0,1,.29.76,5.81,5.81,0,0,1,.1,1.19,5.72,5.72,0,0,1-.1,1.2,2.41,2.41,0,0,1-.29.78,1.07,1.07,0,0,1-1.87,0,2.66,2.66,0,0,1-.29-.78,6.49,6.49,0,0,1-.1-1.2A6.61,6.61,0,0,1,44.78,56.65Zm.64,1.69a3.7,3.7,0,0,0,.07.57,1.47,1.47,0,0,0,.17.46.37.37,0,0,0,.34.19.39.39,0,0,0,.35-.19,1.47,1.47,0,0,0,.18-.46,5.51,5.51,0,0,0,.06-.57c0-.2,0-.36,0-.5v-.3c0-.12,0-.24,0-.36s0-.25,0-.37a2.17,2.17,0,0,0-.1-.33,1.06,1.06,0,0,0-.17-.23.39.39,0,0,0-.26-.09.37.37,0,0,0-.25.09.63.63,0,0,0-.16.23,1.06,1.06,0,0,0-.1.33,1.57,1.57,0,0,0-.05.37,2.17,2.17,0,0,0,0,.36c0,.12,0,.22,0,.3S45.42,58.14,45.42,58.34Z"/><path class="cls-2" d="M49.77,60.27V57.14h-.91v-.73a1.5,1.5,0,0,0,.37,0,1,1,0,0,0,.32-.16,1.22,1.22,0,0,0,.24-.3,1.19,1.19,0,0,0,.13-.46h.58v4.82Z"/><path class="cls-2" d="M53.1,59.34a9.52,9.52,0,0,0,.14-1.6,9.66,9.66,0,0,0-.14-1.62,8.83,8.83,0,0,0-.41-1.55h.6a6.87,6.87,0,0,1,.5,1.49A7.29,7.29,0,0,1,54,57.67a7.88,7.88,0,0,1,0,.82,8.38,8.38,0,0,1-.13.83,5.34,5.34,0,0,1-.21.81,6,6,0,0,1-.3.72h-.61A8.07,8.07,0,0,0,53.1,59.34Z"/><path class="cls-2" d="M12,60.27V57.14h-.91v-.73a1.45,1.45,0,0,0,.37,0,.88.88,0,0,0,.32-.16.89.89,0,0,0,.24-.3,1.19,1.19,0,0,0,.13-.46h.59v4.82Z"/><path class="cls-2" d="M16.76,57.1a7,7,0,0,0-.37,1,9.05,9.05,0,0,0-.32,2.14h-.78a8.49,8.49,0,0,1,.38-2.08,8.24,8.24,0,0,1,.83-1.83H14.79v-.91h2.47v.84A3.19,3.19,0,0,0,16.76,57.1Z"/><path class="cls-2" d="M18.71,56.65a2.23,2.23,0,0,1,.29-.76,1.06,1.06,0,0,1,.42-.42,1.23,1.23,0,0,1,.5-.12,1.28,1.28,0,0,1,.52.12,1.12,1.12,0,0,1,.42.42,2.46,2.46,0,0,1,.29.76,5.74,5.74,0,0,1,.11,1.19,5.64,5.64,0,0,1-.11,1.2,2.41,2.41,0,0,1-.29.78,1,1,0,0,1-.94.53,1.08,1.08,0,0,1-.5-.11,1.06,1.06,0,0,1-.42-.42,2.2,2.2,0,0,1-.29-.78,5.64,5.64,0,0,1-.11-1.2A5.74,5.74,0,0,1,18.71,56.65Zm.63,1.69a3.7,3.7,0,0,0,.07.57,1.47,1.47,0,0,0,.17.46.37.37,0,0,0,.34.19.38.38,0,0,0,.35-.19,1.47,1.47,0,0,0,.18-.46,3.68,3.68,0,0,0,.06-.57c0-.2,0-.36,0-.5v-.3c0-.12,0-.24,0-.36s0-.25-.05-.37a1.43,1.43,0,0,0-.1-.33.81.81,0,0,0-.17-.23.39.39,0,0,0-.26-.09.37.37,0,0,0-.25.09.79.79,0,0,0-.16.23,1.06,1.06,0,0,0-.1.33c0,.12,0,.25-.06.37s0,.24,0,.36,0,.22,0,.3S19.34,58.14,19.34,58.34Z"/><path class="cls-2" d="M22.61,56.65a2.46,2.46,0,0,1,.29-.76,1.12,1.12,0,0,1,.42-.42,1.14,1.14,0,0,1,1,0,1.22,1.22,0,0,1,.43.42,2.74,2.74,0,0,1,.29.76,5.81,5.81,0,0,1,.1,1.19,5.72,5.72,0,0,1-.1,1.2,2.66,2.66,0,0,1-.29.78,1.22,1.22,0,0,1-.43.42,1.06,1.06,0,0,1-1.44-.42,2.41,2.41,0,0,1-.29-.78,5.72,5.72,0,0,1-.1-1.2A5.81,5.81,0,0,1,22.61,56.65Zm.64,1.69a3.7,3.7,0,0,0,.07.57,1.26,1.26,0,0,0,.17.46.37.37,0,0,0,.34.19.39.39,0,0,0,.35-.19,1.26,1.26,0,0,0,.17-.46,3.7,3.7,0,0,0,.07-.57c0-.2,0-.36,0-.5v-.3c0-.12,0-.24,0-.36l-.06-.37a1.06,1.06,0,0,0-.1-.33.66.66,0,0,0-.17-.23.39.39,0,0,0-.5,0,.66.66,0,0,0-.17.23,2.17,2.17,0,0,0-.1.33c0,.12,0,.25,0,.37s0,.24,0,.36v.3C23.24,58,23.24,58.14,23.25,58.34Z"/><path class="cls-2" d="M27.74,57.4a.81.81,0,0,0,.25-.08.53.53,0,0,0,.19-.2.61.61,0,0,0,.07-.32.65.65,0,0,0-.15-.47.46.46,0,0,0-.36-.17.44.44,0,0,0-.42.25,1.13,1.13,0,0,0-.14.61h-.7a2.84,2.84,0,0,1,.11-.68,1.73,1.73,0,0,1,.25-.53,1.26,1.26,0,0,1,.39-.34,1.2,1.2,0,0,1,.51-.12,1.14,1.14,0,0,1,.43.09,1.36,1.36,0,0,1,.39.25,1.28,1.28,0,0,1,.28.43,1.54,1.54,0,0,1,0,1.19.69.69,0,0,1-.38.37h0a.8.8,0,0,1,.47.38,1.33,1.33,0,0,1,.17.71,1.83,1.83,0,0,1-.11.68,1.64,1.64,0,0,1-.29.5,1.39,1.39,0,0,1-.43.3,1.28,1.28,0,0,1-.51.09,1.23,1.23,0,0,1-.55-.11,1.09,1.09,0,0,1-.43-.34,1.52,1.52,0,0,1-.27-.54,2.21,2.21,0,0,1-.09-.75h.7a1.5,1.5,0,0,0,0,.37,1.17,1.17,0,0,0,.12.3.52.52,0,0,0,.19.2.44.44,0,0,0,.28.08.55.55,0,0,0,.42-.2.87.87,0,0,0,.17-.56.92.92,0,0,0-.08-.42.41.41,0,0,0-.21-.2.5.5,0,0,0-.27-.08l-.28,0V57.4Z"/><path class="cls-2" d="M32.37,57.1a8.33,8.33,0,0,0-.36,1,10.23,10.23,0,0,0-.23,1.1,7.88,7.88,0,0,0-.08,1h-.79a8.49,8.49,0,0,1,.38-2.08,7.84,7.84,0,0,1,.84-1.83H30.41v-.91h2.47v.84A3.51,3.51,0,0,0,32.37,57.1Z"/><path class="cls-2" d="M36.28,57.1a7,7,0,0,0-.36,1,8.27,8.27,0,0,0-.23,1.1,10.21,10.21,0,0,0-.09,1h-.79a9,9,0,0,1,.39-2.08A8.24,8.24,0,0,1,36,56.36H34.32v-.91h2.47v.84A3.51,3.51,0,0,0,36.28,57.1Z"/><path class="cls-2" d="M39.45,57.4a.73.73,0,0,0,.25-.08.46.46,0,0,0,.19-.2.73.73,0,0,0-.08-.79.46.46,0,0,0-.77.08,1.13,1.13,0,0,0-.14.61h-.7a2.85,2.85,0,0,1,.1-.68,1.75,1.75,0,0,1,.26-.53,1.07,1.07,0,0,1,.39-.34,1.19,1.19,0,0,1,.5-.12,1.15,1.15,0,0,1,.44.09,1.36,1.36,0,0,1,.39.25,1.45,1.45,0,0,1,.28.43,1.54,1.54,0,0,1,0,1.19.69.69,0,0,1-.38.37h0a.8.8,0,0,1,.47.38,1.43,1.43,0,0,1,.17.71,2.06,2.06,0,0,1-.11.68,1.66,1.66,0,0,1-.3.5,1.28,1.28,0,0,1-.43.3,1.23,1.23,0,0,1-.5.09,1.27,1.27,0,0,1-.56-.11,1.09,1.09,0,0,1-.43-.34,1.7,1.7,0,0,1-.26-.54,2.48,2.48,0,0,1-.1-.75h.7a2.2,2.2,0,0,0,0,.37.73.73,0,0,0,.12.3.52.52,0,0,0,.19.2.44.44,0,0,0,.28.08.56.56,0,0,0,.42-.2A.87.87,0,0,0,40,58.8a.92.92,0,0,0-.08-.42.61.61,0,0,0-.48-.28l-.28,0V57.4Z"/><path class="cls-2" d="M42.73,14.09C36.41,12.6,29.09,14,22.64,18s-11,9.91-12.48,16.23a15.57,15.57,0,0,0,1.68,12.06c5.33,8.61,18.84,9.93,30.13,2.94S58.11,29.58,52.78,21a15.63,15.63,0,0,0-10.05-6.88ZM40.84,47.42c-10.28,6.36-22.46,5.35-27.16-2.25a13.48,13.48,0,0,1-1.42-10.42C13.6,29.07,17.9,23.5,23.78,19.86s12.78-5,18.46-3.67a13.51,13.51,0,0,1,8.7,5.91c4.7,7.6.17,19-10.1,25.32Z"/><path class="cls-2" d="M15.81,42.46c4.47,0,25.87-8,25.41-14.12-.44-5.8-12.81.07-16.78,2l.49-4.74c2.71-2.17,20-9.69,22.88-.78,3.51,10.94-22.67,18.32-32,17.6Z"/><path class="cls-3" d="M24,32.78a4.24,4.24,0,1,0-4.24-4.24A4.24,4.24,0,0,0,24,32.78Z"/><path class="cls-3" d="M27.18,49.53c0-4,0-11.38,0-11.49a3.14,3.14,0,0,0-6.28,0V48.61a19.11,19.11,0,0,0,6.29.92Z"/><path class="cls-3" d="M4.45,30.5l.53.28.41-1.09.79.31-.45,1.18a22.48,22.48,0,0,1,3,2l-.57.68a16,16,0,0,0-2.72-1.88l-.24.62-.79-.3.27-.71a5.5,5.5,0,0,0-.6-.28l.36-.76Zm3.41.2a.85.85,0,0,0,.35.38c.29.1.43-.16.61-.65a7.49,7.49,0,0,0,.34-1l.83.3c0,.13-.09.27-.23.65A2.91,2.91,0,0,1,9,31.68a.9.9,0,0,1-.93.17,1.69,1.69,0,0,1-.82-.76l.58-.39ZM7.5,28.85a4.46,4.46,0,0,0-.21.5A3.23,3.23,0,0,0,7,30.73l-.78,0a4.37,4.37,0,0,1,.44-2.15l.83.31Z"/><path class="cls-3" d="M6.64,26.32a13.09,13.09,0,0,0,1.42,1,5.78,5.78,0,0,0,1.2.58c.15,0,.43.12.53-.05s0-.28-.08-.42a5.41,5.41,0,0,0-.51-.67l.72-.34c.36.4,1.14,1.34.73,2a1.05,1.05,0,0,1-1.17.37A6.69,6.69,0,0,1,7.56,28c-.49-.3-1-.71-1.43-1l.51-.69Zm4.79-.23-.34-.22a6.4,6.4,0,0,0-1.76-.78,2.69,2.69,0,0,0-1.32,0l-.08-.81a3.81,3.81,0,0,1,2.49.32,9.45,9.45,0,0,1,1.42.74l-.41.79Z"/><path class="cls-3" d="M11.17,19.46c.17.13.32.23.82.65l.47-.57.63.54-.46.57c.85.76,1.34,1.22.76,1.91a3.35,3.35,0,0,1-.53.5l-.63-.52a4.34,4.34,0,0,0,.45-.4c.17-.2,0-.36-.56-.86l-.91,1.13.94.82c.66.56.7.59,1.43-.26.32-.39.68-.81.93-1.18l.67.57c-.17.24-.49.63-.75.92-.61.73-1.06,1.26-1.69,1.18-.24,0-.46-.1-1-.59l-1-.84-.47.58-.64-.54.47-.58-.77-.65.52-.62.75.64.9-1.11c-.47-.39-.62-.49-.82-.64l.52-.65Z"/><path class="cls-3" d="M15.45,20.71a7.93,7.93,0,0,0,1.25-1.27,1.33,1.33,0,0,0,0-1.83,1.16,1.16,0,0,0-.63-.4.89.89,0,0,0-.84.28,7.45,7.45,0,0,0-1,1.25l-.56.83L12.86,19c.2-.23.33-.4.66-.82a8.15,8.15,0,0,1,1.2-1.38,1.77,1.77,0,0,1,2.63.28,2.06,2.06,0,0,1,.43,2.28,6.06,6.06,0,0,1-1.61,1.93l-.72-.54Z"/><path class="cls-3" d="M17.56,14.13a17.86,17.86,0,0,0,1.33,2.38,12.15,12.15,0,0,0,1.25,1.61l-.67.53a12.8,12.8,0,0,1-1.2-1.57,27.65,27.65,0,0,1-1.46-2.53l.75-.42Zm2.77-1.47.49.74-2.18,1.45-.5-.75,2.19-1.44Zm-.23,2.86a1.11,1.11,0,0,0,.16.65c.22.34.59.17,1-.1a8.29,8.29,0,0,0,1-.72l.52.76a7.65,7.65,0,0,1-.75.56c-.7.46-1.64,1-2.27.08a2.21,2.21,0,0,1-.35-1.13l.74-.1Z"/><path class="cls-3" d="M21.93,11.33c.38.85,1.18,2.55,1.25,2.68.32.66.61.93,1.2.64,1-.5.76-1.49.53-2.21h.86a3.23,3.23,0,0,1,.08,1.82,1.84,1.84,0,0,1-1.07,1.17c-1.37.68-1.93-.21-2.44-1.24-.2-.4-1-2.13-1.2-2.48l.79-.38Z"/><path class="cls-3" d="M27.15,9.55,27,9.12l.78-.27.15.44,1.45-.5.26.75-1.46.5.14.4L29.67,10l.25.73-1.35.47.19.54a5.61,5.61,0,0,1,1.69.47l-.23,1a4.9,4.9,0,0,0-1.15-.5l0,.09a.73.73,0,0,1,0,.64,1.25,1.25,0,0,1-.76.57c-.85.3-1.42,0-1.63-.59s.18-1.22,1-1.5a.86.86,0,0,1,.3-.06l-.12-.35L26.18,12l-.25-.74,1.62-.55-.14-.4-1.72.6-.26-.75,1.72-.6Zm1,2.94a1.24,1.24,0,0,0-.4,0c-.18.06-.48.24-.38.52s.46.2.57.16c.41-.14.34-.36.29-.49l-.08-.24Z"/><path class="cls-3" d="M32.37,7.64l.82-.15.1.5,1.32-.24.16.82-1.32.25L33.68,10a4.59,4.59,0,0,1,.23.75,1.46,1.46,0,0,1-.59,1.59,3.14,3.14,0,0,1-1.29.53l-.4-.73a4.13,4.13,0,0,0,1-.31c.4-.19.43-.38.45-.53a.63.63,0,0,1-.44.25,1.09,1.09,0,0,1-1.25-1,1.12,1.12,0,0,1,.9-1.35,1.53,1.53,0,0,1,.38,0L32.66,9l-2.31.44-.16-.82,2.29-.44-.11-.51Zm.56,2.6a.37.37,0,0,0-.44-.32.42.42,0,0,0-.33.55c0,.19.17.48.5.42a.38.38,0,0,0,.3-.49l0-.16Z"/><path class="cls-2" d="M39.25,5.28c0,1,.43,1.26.83,1.26-.13,2.06-.59,4.74-3.24,5.69l-.4-1.29c2.08-.53,2.62-2.26,2.76-4.32l-3.15,0V5.32l3.21,0Zm.76,1c-.33,0-.58-.42-.59-1s.24-.95.56-1,.58.42.59,1-.25,1-.56,1Zm0-1.36c-.13,0-.24.19-.24.4s.12.4.25.39.24-.18.23-.4-.11-.39-.24-.39Z"/><path class="cls-2" d="M45.31,5.69l-.2,1.23-3.45-.56.2-1.23,3.45.56Zm0,2.1c-.62,2.78-1.59,4.61-4.21,4.5l0-1.28a2.58,2.58,0,0,0,3.09-2.13L41,8.35l.2-1.23,4.16.67Z"/><path class="cls-2" d="M47.17,13.79l-.8-.31,1.23-3.24a8,8,0,0,1-2,.58V9.59a7.09,7.09,0,0,0,2.64-.83,12.11,12.11,0,0,0,2.35-1.69l.38,1a14.74,14.74,0,0,1-2.17,1.53l-1.58,4.14Z"/><path class="cls-2" d="M48.86,13.26a8.7,8.7,0,0,0,2.21-1.82,29.2,29.2,0,0,0,2.06-2.55l.59.57c-2.29,3-3.45,4.25-4.89,5l0-1.24Zm6.23-3a9.47,9.47,0,0,1-.54,1.11l.08,0A14.4,14.4,0,0,0,52.76,16l-1.18.37A19.31,19.31,0,0,1,54.52,10l.57.24Zm-.28,1A9.42,9.42,0,0,0,55.4,10l.44.13a8.59,8.59,0,0,1-.55,1.25l-.48-.11Zm.64.28A11,11,0,0,0,56,10.3l.43.12a12.86,12.86,0,0,1-.55,1.26l-.45-.11Z"/><path class="cls-2" d="M57.13,14.92a5.7,5.7,0,0,0-.26-1.79l1.06-.5a5.37,5.37,0,0,1,.34,1.78l-1.14.51Zm-1.87.95a5.65,5.65,0,0,0-.18-1.79l1.06-.5a4.69,4.69,0,0,1,.26,1.77l-1.14.52Zm-2,.07c1.2,1.1,2.29,1.65,5.73-.27l0,1c-3.69,1.95-5.25,1.59-6.74.38l1-1.1Z"/><polygon class="cls-2" points="60.45 22.38 59.14 22.93 57.4 18.78 58.71 18.23 60.45 22.38 60.45 22.38 60.45 22.38"/><path class="cls-1" d="M99.64,54.26a2.51,2.51,0,0,0,2.6,1.88c1.49,0,3.29-1.39,3.29-5.33a4.39,4.39,0,0,1-3.82,1.87c-3.24,0-5.73-2.12-5.73-5.94a6,6,0,0,1,6.29-6.38c3.77,0,6.74,2.56,6.74,9,0,7.06-2.87,10-6.79,10a5.84,5.84,0,0,1-6-5.05Zm2.7-10.61a2.74,2.74,0,0,0-2.78,3.06,2.71,2.71,0,0,0,2.76,2.88,3.21,3.21,0,0,0,2.94-2.49C105.14,44.69,103.8,43.65,102.34,43.65Z"/><path class="cls-1" d="M119.06,56.75c0-.32,0-.67,0-1h-1c0,.58,0,1.14,0,1.65h-2.89c.11-3.39.11-10.59.11-14V41.59h6.58V44c0,3.53,0,10.12.08,12.8Zm.11-12.52H118v3h1.18Zm0,8.87c0-1.09,0-3.32,0-3.32H118s0,2.21,0,3.32Zm14.62-4.29s-3.56-.08-6.33-.08c-2,0-3.36,0-5.14.08V46.13c1.43.07,2.76.09,4.13.11V44.83c-1.09,0-2.23,0-3.45.08V42.32l1.76.08c.56,0,1.12,0,1.67.05a9.77,9.77,0,0,0-.1-1.31c-.05-.24-.11-.37-.11-.45s.06-.13.26-.13h.12c3.11.15,3.11.28,3.11.49a.63.63,0,0,1-.21.41.78.78,0,0,0-.24.62v.37c1.14,0,2.34-.07,3.65-.13v2.59c-1.33,0-2.53-.08-3.69-.08v1.41c1.46,0,3-.06,4.57-.11Zm-2,7.36c0,2.33-.66,3.17-3.86,3.17-.4,0-.85,0-1.37,0a7.37,7.37,0,0,0-.75-2.77c.92.09,1.57.13,2,.13,1.09,0,1.13-.26,1.16-.94s0-1.76,0-3c-1.38,0-2.43,0-3.78,0a17,17,0,0,1,2.3,2.85l-2.45,1.25a14.73,14.73,0,0,0-2.27-3.26l1.89-.82c-.69,0-1.7,0-2.4.05V50.17c1.9.06,3.71.1,5.55.1H129v-.19a2,2,0,0,0-.09-.62,2.78,2.78,0,0,1-.11-.47c0-.11.07-.13.26-.13h.13c2.66.15,3,.23,3,.49a.42.42,0,0,1-.15.32l-.25.26s0,.13,0,.21v.09l2.17-.06v2.68c-.73,0-1.46-.05-2.17-.05Z"/><path class="cls-1" d="M152.31,52.14a9.38,9.38,0,0,1-4.46-1.37,6.57,6.57,0,0,0-3.26-1.1,3.11,3.11,0,0,0-2.76,2.17l-2.23-1.18a5,5,0,0,1,4.82-3.54,9.34,9.34,0,0,1,4.4,1.31,6.75,6.75,0,0,0,3.43,1.11,3,3,0,0,0,2.4-2.16l2.34,1a5,5,0,0,1-4.57,3.71Z"/><path class="cls-1" d="M163.64,58.84V57.31c0-3.22,2.34-6.43,5.51-8.14,2.07-1.09,2.9-2.24,2.9-3.4a2.18,2.18,0,0,0-2.37-2.12,2.66,2.66,0,0,0-2.58,2.89h-3.58c.08-3.75,2.51-6.18,6.46-6.18,3.75,0,5.94,2.24,5.94,5.31,0,2.51-1.53,4.38-5,6.23a5.33,5.33,0,0,0-3.09,3.65h8.08v3.29Z"/><path class="cls-1" d="M182.33,58.84V45.64h-3.14V43.23a4.37,4.37,0,0,0,3.94-2.41h3v18Z"/><path class="cls-1" d="M196.78,56.75c0-.32,0-.67,0-1h-1.05c0,.58.05,1.14.05,1.65h-2.9c.11-3.39.11-10.59.11-14V41.59h6.58V44c0,3.53,0,10.12.09,12.8Zm.11-12.52h-1.18v3h1.18Zm0,8.87c0-1.09,0-3.32,0-3.32h-1.18s0,2.21,0,3.32Zm14.62-4.29s-3.56-.08-6.33-.08c-2,0-3.36,0-5.14.08V46.13c1.43.07,2.76.09,4.14.11V44.83c-1.1,0-2.23,0-3.46.08V42.32l1.76.08c.56,0,1.12,0,1.67.05a9.77,9.77,0,0,0-.1-1.31c0-.24-.11-.37-.11-.45s.06-.13.26-.13h.12c3.11.15,3.11.28,3.11.49a.63.63,0,0,1-.21.41.82.82,0,0,0-.24.62v.37c1.14,0,2.34-.07,3.65-.13v2.59c-1.33,0-2.53-.08-3.69-.08v1.41c1.46,0,3-.06,4.57-.11Zm-2,7.36c0,2.33-.66,3.17-3.85,3.17-.41,0-.86,0-1.38,0a7.37,7.37,0,0,0-.75-2.77c.92.09,1.57.13,2,.13,1.09,0,1.13-.26,1.16-.94s0-1.76,0-3c-1.37,0-2.43,0-3.78,0a17,17,0,0,1,2.3,2.85l-2.45,1.25a14.73,14.73,0,0,0-2.27-3.26l1.89-.82c-.69,0-1.7,0-2.4.05V50.17c1.91.06,3.71.1,5.55.1h1.16v-.19a2,2,0,0,0-.09-.62,2.78,2.78,0,0,1-.11-.47c0-.11.07-.13.26-.13h.13c2.66.15,3,.23,3,.49a.42.42,0,0,1-.15.32l-.25.26s0,.13,0,.21v.09l2.17-.06v2.68c-.73,0-1.46-.05-2.17-.05Z"/><path class="cls-1" d="M120.32,19.69c-4-.12-8.37-.15-12.67-.15s-8.55,0-12.47.15V16l3.16.09V12.84c-1.26,0-2.55,0-3.78.09V9.18l3.78.09V8.15c-.38.3-.82.59-1.26.88a12.61,12.61,0,0,0-2-3.25c2.49-1.22,4.19-3.36,4.39-4.27.12-.5.09-.67.44-.67a1,1,0,0,1,.29,0c1.09.14,2.08.35,3.25.61.27.06.38.21.38.38s-.11.35-.38.5a1.6,1.6,0,0,0-.58.53c4.27,0,12,0,16.77-.15V6.31c-.73,0-1.5,0-2.34,0v3l3.62-.09v3.75l-3.62-.09v3.28l3-.09Zm-23.24.67c.06-.44.06-.53.21-.53a.79.79,0,0,1,.23,0,30.49,30.49,0,0,1,3.66.85c.23.09.38.23.38.41s-.12.32-.38.47a1.4,1.4,0,0,0-.59.67,16.12,16.12,0,0,1-2.19,4.22,19.73,19.73,0,0,0-3.84-1.76A10.73,10.73,0,0,0,97.08,20.36Zm6.38-14.14h-1.52V9.33c.44,0,1.08,0,1.52,0Zm0,6.56-.61,0a8.17,8.17,0,0,0-.91.06v3.36h1.52Zm-.67,13.55c.09-1.08.12-2.11.12-3.13s0-1.76-.09-2.64l3.71-.14a30.47,30.47,0,0,1,.24,4.07c0,.55,0,1.11,0,1.69ZM108.5,6.22h-1.58V9.38h1.58Zm0,6.56a6.78,6.78,0,0,0-.79,0,6.87,6.87,0,0,0-.79,0V16.2h1.58Zm1,13.52a30.85,30.85,0,0,0-.91-5.71l3.72-.38a32.27,32.27,0,0,1,1.2,5.62Zm4.16-20H112v3.1c.53,0,1.17,0,1.7,0Zm0,6.56c-.53,0-1.17,0-1.7,0v3.39h1.7ZM117,26.48a28.42,28.42,0,0,0-2.52-5.8l3.66-.88a29,29,0,0,1,2.72,5.33Z"/><path class="cls-1" d="M129,26.48c.06-1.85.12-4.57.18-7.58a51.81,51.81,0,0,1-2.46,5.15A18.61,18.61,0,0,0,125,19.8a25.35,25.35,0,0,0,3.51-7c-1,0-2.1,0-3.13.06V9.3c1.29,0,2.64.11,3.89.14,0-4.18,0-7.46-.14-7.78A3.64,3.64,0,0,1,129,1c0-.14.12-.2.41-.2h.15c3.63.09,3.8.38,3.8.61A.85.85,0,0,1,133,2a1.21,1.21,0,0,0-.32.91c0,1-.06,3.45-.06,6.52,1.17,0,2.49-.06,3.66-.14v3.54l-3.43-.09a21.26,21.26,0,0,0,3.37,4,18.14,18.14,0,0,0-1.46,3.78c-.76-1.09-1.47-2.2-2.11-3.31,0,3.48.06,6.85.12,9.28ZM126.44,9.09a32.16,32.16,0,0,0-1-6.29L128,2.16a39.62,39.62,0,0,1,1.14,6.29Zm7.31-6.38a2.6,2.6,0,0,1,0-.44c0-.14,0-.2.18-.2a.59.59,0,0,1,.2,0c2.58.32,2.75.61,2.75.79a.78.78,0,0,1-.26.49,1.22,1.22,0,0,0-.29.68c-.18,1.31-.41,3.07-.88,5.15a16.7,16.7,0,0,0-2.63-.82,24.15,24.15,0,0,0,1-5.41Zm10.89,23.77c.06-1.85.09-4.13.12-6.53-2.73.61-5.45,1.32-8.08,2.05l-.91-4.07c3-.5,6-1.11,9-1.84V12.87c0-5.74-.06-10.74-.27-11.21a1.9,1.9,0,0,1-.2-.59c0-.14.11-.2.38-.2h.23c4.07.2,4.45.41,4.45.73a.92.92,0,0,1-.29.56,1,1,0,0,0-.32.84c-.06,1.61-.09,6.59-.09,12.06.61-.17,1.2-.35,1.78-.53l.94,4-2.69.53c0,2.61.06,5.18.11,7.38Zm-3.89-10.07a28.88,28.88,0,0,0-4.39-6l3-2A30.23,30.23,0,0,1,144,14.1Zm.7-6.67a27.76,27.76,0,0,0-4.19-6l3-1.94a30.74,30.74,0,0,1,4.42,5.74Z"/><path class="cls-1" d="M177,17h-3.07c0,1.26.08,2.52.14,3.63h-3.86c.06-1.11.12-2.37.12-3.63h-2.75c0,1.5.05,3,.11,4.39H164.1c1.23.62,2.49.73,7.41.73,3.16,0,6.64-.14,10.27-.43a20.06,20.06,0,0,0-1.08,4.06s-9.57,0-14.14-.09a8,8,0,0,1-5.8-2.31,27.82,27.82,0,0,1-2.6,1.94,1.34,1.34,0,0,0-.61.76c-.09.26-.27.41-.44.41s-.35-.15-.47-.5a31.52,31.52,0,0,1-1.2-3.75c0-.14.12-.14.47-.23a7.51,7.51,0,0,0,2.46-1.44V14.33h-.56a10.73,10.73,0,0,0-2,.15V10.32c1.61.18,4.07.21,5.41.21h1v9.62a7.63,7.63,0,0,0,1.46,1c.24-4.3.24-14.52.24-14.52h3.8a21.55,21.55,0,0,0-2.25-.88l2.48-1.11c-1.66,0-3.33,0-4.59.09V1.66c3.8.11,8.49.11,10.83.11h1.52a2,2,0,0,0,1.2-.29.8.8,0,0,1,.41-.17,1,1,0,0,1,.44.17c2.87,1.67,3.13,2,3.13,2.23,0,.46-1.08.79-1.67,1.26a27.78,27.78,0,0,1-2.31,1.69h3.66V17.78c0,2.93-.59,3.63-3.92,3.63-.44,0-.91,0-1.44,0a10.5,10.5,0,0,0-1-3.16,15.65,15.65,0,0,0,1.75.12c.91,0,1-.2,1-.59Zm-16.51-8.6a26.59,26.59,0,0,0-4.77-4.77l2.75-2.52a26.8,26.8,0,0,1,5,4.54Zm9.92,1H167.5v1.09h2.89Zm0,3.75H167.5c0,.38,0,.76,0,1.17h2.83Zm-1.22-8.55c1.05.38,2.22.91,3.42,1.47A14.64,14.64,0,0,0,175,4.64ZM177,9.44h-3.13v1.09H177Zm0,3.75h-3.13c0,.38,0,.76,0,1.17H177Z"/><path class="cls-1" d="M196.79,8.42c-1.9-.09-3.72-.15-5.5-.15s-3.57.06-5.41.15V5c1.9.12,3.65.18,5.44.18s3.57-.06,5.47-.18Zm-.58,3.39c-1.58-.08-3.16-.11-4.74-.11s-3.11,0-4.63.11v-3c1.55.09,3.1.15,4.65.15s3.14-.06,4.72-.15Zm0,3.46c-1.58-.09-3.16-.12-4.74-.12s-3.11,0-4.63.12v-3c1.55.09,3.1.15,4.65.15s3.14-.06,4.72-.15ZM192.46,26c0-.24,0-.5.06-.76h-1.93c0,.41,0,.79,0,1.17h-3.75c.12-2.75.12-6.94.12-9.13V15.82h9.16v1.47c0,2.19,0,6.41.11,8.66Zm3.28-21.31c-1.44-.06-2.84-.08-4.22-.08s-2.75,0-4.12.08v-3c1.43.09,2.78.11,4.15.11s2.75,0,4.19-.11ZM192.61,19h-2.08v3h2.08Zm14.57,7.47c0-.36,0-.71,0-1.06H202c0,.35.06.73.06,1.06h-3.92c.11-2.38.11-6.21.11-8.9V14.51h4.22V11.73c-1.85,0-3.54.08-5.44.14V8c1.9.09,3.59.12,5.44.14V5.9c-1.35.12-2.72.21-4.13.26a16.27,16.27,0,0,0-1.17-3.57h.56c4.24,0,9.39-.61,10.36-1.2.2-.14.35-.29.49-.29a9.87,9.87,0,0,1,2.76,3.25c0,.23-.24.32-.56.32h-.09a1.38,1.38,0,0,0-.35,0,1.12,1.12,0,0,0-.41.06,27.88,27.88,0,0,1-3.57.7V8.15c1.82,0,3.86-.08,5.83-.14v3.86c-2-.09-4-.12-5.83-.14v2.78H211v1.66c0,2.52,0,7.38.11,10.31ZM201.94,18s0,1.81,0,4h5.33c0-2.2,0-4,0-4Z"/><line class="cls-4" x1="95.41" y1="33.61" x2="212.59" y2="33.61"/><rect class="cls-1" x="74.91" width="13.13" height="64.61"/><path class="cls-5" d="M81.2,15.86c0-.74,0-1.65.06-2.59-1.82,0-3.45,0-5.19.06V11.7l1.84.05V9.66a5.78,5.78,0,0,1-.9.86A5.21,5.21,0,0,0,76.07,9,5.69,5.69,0,0,0,78.3,5.57c0-.23,0-.29.11-.29a11.07,11.07,0,0,1,1.77.44.2.2,0,0,1,.15.18c0,.07,0,.14-.17.2a1,1,0,0,0-.34.29s0,0,0,.05c1.55,0,4.54,0,6.71-.05V8L83,7.93v.85c1,0,2,0,2.74-.06v1.57l-2.74,0v1.52c1.25,0,2.69,0,3.93-.06v1.63L83,13.27c0,.94,0,1.85,0,2.59Zm.09-7.95H79.13a6.33,6.33,0,0,1-.56.89h2.72Zm0,2.33H79.57v1.52c.59,0,1.12,0,1.72,0Z"/><path class="cls-5" d="M84.54,27.23c0-.2,0-.42,0-.64H82.31c0,1.09,0,2.2,0,3.26H80.5c0-1,0-2.13,0-3.26H78.46c0,.22,0,.44,0,.64H76.72c0-1.48.06-3.52.06-4.8V21.2h3.77a10.33,10.33,0,0,0-.08-1.57.85.85,0,0,1-.09-.25c0-.07.05-.09.16-.09h.09c1.59.11,2,.15,2,.34a.34.34,0,0,1-.13.23.5.5,0,0,0-.18.35c0,.22,0,.55,0,1h4v1.48c0,1.32,0,3.22,0,4.55Zm-4-4.5H78.44v2.33h2.11c0-.58,0-1.12,0-1.65Zm4,0H82.3v2.33h2.3Z"/><path class="cls-5" d="M86.69,41.05C85,41,83.24,41,81.47,41s-3.53,0-5.15.06V39.54l1.31,0V38.22c-.52,0-1,0-1.56,0V36.72l1.56,0v-.46l-.52.36a5.32,5.32,0,0,0-.83-1.34,3.71,3.71,0,0,0,1.81-1.76c0-.2,0-.28.18-.28a.3.3,0,0,1,.12,0c.45.06.86.14,1.34.25a.17.17,0,0,1,.16.16c0,.07,0,.14-.16.2a.88.88,0,0,0-.24.22c1.76,0,5,0,6.91-.06v1.47h-1v1.23l1.49,0v1.54l-1.49,0v1.36l1.25,0Zm-9.58.28c0-.19,0-.22.08-.22h.1a11.88,11.88,0,0,1,1.51.35c.1,0,.16.1.16.17s0,.13-.16.19a.56.56,0,0,0-.24.28,6.79,6.79,0,0,1-.91,1.74,8.09,8.09,0,0,0-1.58-.73A4.44,4.44,0,0,0,77.11,41.33Zm2.63-5.83h-.63v1.27c.18,0,.45,0,.63,0Zm0,2.7h-.25l-.38,0V39.6h.63Zm-.28,5.59c0-.45.05-.87.05-1.29s0-.73,0-1.09L81,41.35A13.31,13.31,0,0,1,81.1,43c0,.23,0,.46,0,.7Zm2.36-8.29h-.66v1.3h.66Zm0,2.7h-.66v1.41h.66Zm.41,5.58a12.13,12.13,0,0,0-.38-2.36l1.54-.15a14.18,14.18,0,0,1,.49,2.31Zm1.71-8.27h-.7v1.28c.22,0,.48,0,.7,0Zm0,2.7h-.7v1.4h.7Zm1.4,5.64a11.57,11.57,0,0,0-1-2.39l1.51-.36a11.57,11.57,0,0,1,1.12,2.19Z"/><path class="cls-5" d="M82,57.84c0-1.57.07-3.68.08-5.58A14.12,14.12,0,0,1,79.67,57a5,5,0,0,0-.62-1.17c0,.7,0,1.4,0,2H77.42c0-.87,0-2,0-3.15,0-.61,0-1.23,0-1.77-.21.29-.43.57-.65.83a7.47,7.47,0,0,0-.73-1.85,8.56,8.56,0,0,0,2.09-4.36v-.1c0-.12,0-.17.1-.17s1.82.3,1.82.56A.31.31,0,0,1,80,48c-.16.12-.21.17-.25.28a15.26,15.26,0,0,1-.84,2.18c.32,0,.46.07.46.18a.35.35,0,0,1-.12.23.54.54,0,0,0-.14.35c0,.35,0,2,0,3.81a13.29,13.29,0,0,0,2-4.12l-1.62,0V49.3c.89,0,1.74.05,2.61.06A14.37,14.37,0,0,0,82,47.62a1.41,1.41,0,0,1-.08-.28c0-.06,0-.07.16-.07h.07c1.58.08,1.82.13,1.82.29a.37.37,0,0,1-.12.23c-.14.16-.14.19-.17,1.57,1,0,2,0,3-.06V51l-2.1,0A13.42,13.42,0,0,0,87,55.45,4.53,4.53,0,0,0,86,57a14.15,14.15,0,0,1-2.38-4.73c0,1.8,0,3.93,0,5.58Z"/></g></g></svg>