<svg xmlns="http://www.w3.org/2000/svg" viewBox="0 0 91.76 91.76"><defs><style>.cls-1{fill:#fff;}.cls-2,.cls-3{fill:#ad0005;}.cls-3{font-size:16px;font-family:CezanneProN-B, CezanneProN B-90ms-RKSJ-H;}</style></defs><g id="レイヤー_2" data-name="レイヤー 2"><g id="レイアウト"><rect class="cls-1" width="91.76" height="91.76" rx="13.53"/><path class="cls-2" d="M38.24,27.41c.23-.21.88-.89.88-.89h0l2.28-2.27a3.81,3.81,0,0,0,0-5.38L33.49,11a3.78,3.78,0,0,0-5.37,0l-2.28,2.27h0L24.14,15a.6.6,0,0,0,0,.9S38,27.66,38.24,27.41Z"/><path class="cls-2" d="M42.68,39.81c-5.75-5.75-6.52-8.63-6-10.35L22,17.25c-4.61,6.55.26,19.6,11.93,31.27,8.74,8.74,18.25,13.67,25.23,13.67a9.79,9.79,0,0,0,7.16-2.65l.43-.42L52.9,45.79C51.17,46.28,48.3,45.43,42.68,39.81Z"/><path class="cls-2" d="M73.22,51.21a3.78,3.78,0,0,0-1.11-2.68L64.2,40.62a3.81,3.81,0,0,0-5.38,0L56.55,42.9h0L55.43,44c-.16.16-.53.42-.37.61a1.26,1.26,0,0,0,.19.19l13.35,12s.27.32.48.09c.35-.39.75-.76.75-.76h0l2.28-2.28A3.81,3.81,0,0,0,73.22,51.21Z"/><text class="cls-3" transform="translate(13.88 84.22)">無料通話</text></g></g></svg>