<svg xmlns="http://www.w3.org/2000/svg" viewBox="0 0 91.76 91.76"><defs><style>.cls-1{fill:#06c755;}.cls-2{fill:#fff;}</style></defs><g id="レイヤー_2" data-name="レイヤー 2"><g id="レイアウト"><rect class="cls-1" width="91.76" height="91.76" rx="20.69"/><path class="cls-2" d="M76.47,41.56c0-13.69-13.73-24.83-30.6-24.83S15.28,27.87,15.28,41.56c0,12.27,10.88,22.55,25.59,24.49,1,.22,2.35.66,2.69,1.51a6.33,6.33,0,0,1,.1,2.77s-.36,2.16-.44,2.62c-.13.77-.61,3,2.65,1.65s17.62-10.38,24-17.77h0C74.34,52,76.47,47,76.47,41.56Z"/><path class="cls-1" d="M66.29,49.46h-8.6a.58.58,0,0,1-.58-.58h0V35.54h0a.59.59,0,0,1,.58-.59h8.6a.59.59,0,0,1,.58.59V37.7a.58.58,0,0,1-.58.58H60.45v2.25h5.84a.59.59,0,0,1,.58.59v2.17a.58.58,0,0,1-.58.58H60.45v2.26h5.84a.58.58,0,0,1,.58.58v2.17A.58.58,0,0,1,66.29,49.46Z"/><path class="cls-1" d="M34.49,49.46a.58.58,0,0,0,.59-.58V46.71a.58.58,0,0,0-.59-.58H28.65V35.53a.59.59,0,0,0-.58-.59H25.9a.6.6,0,0,0-.59.59V48.87h0a.59.59,0,0,0,.59.58h8.59Z"/><rect class="cls-1" x="36.92" y="34.94" width="3.34" height="14.52" rx="0.58"/><path class="cls-1" d="M54.44,34.94H52.27a.59.59,0,0,0-.58.59v7.93l-6.11-8.25,0-.06h0l0,0h0l0,0h0l0,0h0l0,0H42.92a.59.59,0,0,0-.58.59V48.88a.58.58,0,0,0,.58.58h2.17a.58.58,0,0,0,.59-.58V41l6.11,8.26.15.15h0l0,0h.14a.39.39,0,0,0,.15,0h2.16a.58.58,0,0,0,.58-.58V35.53A.59.59,0,0,0,54.44,34.94Z"/></g></g></svg>