<svg xmlns="http://www.w3.org/2000/svg" viewBox="0 0 237 70.43"><defs><style>.cls-1{fill:#fff;}</style></defs><g id="レイヤー_2" data-name="レイヤー 2"><g id="レイアウト"><path class="cls-1" d="M97.18,35.36c.64-.73.46-1.73.27-2.83-.16-.9.22-1.41,0-1.54s-.5.05-.86.3c-1.81,1.3-4.88,2.52-10.28,2.81,0-1.48.06-2.72.1-3.53.08-1.95-.24-2.82-1-3.52s-2.15-.69-3.49-.62-1.73-.32-1.93-.13-.06.3.27.8c.63.95,1.38,2.12,1.52,6.78a2.72,2.72,0,0,0,0,.28c-6.27-.13-9.66-1.35-11.62-2.74-.36-.26-.59-.46-.85-.31s.14.65,0,1.55c-.19,1.09-.37,2.09.26,2.83,1.79,2,9.11,2.61,12.27,2.75,0,1.25,0,2.61,0,4-6.2-.08-9-.92-10.94-2.32-.36-.26-.58-.39-.8-.24s.14.74,0,1.64c-.19,1.15-.44,1.76.12,2.56a5.27,5.27,0,0,0,3.25,1.55,44.48,44.48,0,0,0,8.37.77c0,1.47,0,2.86,0,4.06a24.73,24.73,0,0,0-6.93.35c-3.48.72-5.65,3-5.65,5.8,0,3.43,3.13,6.27,7.56,6.36,3,0,5.34-.45,7-1.78,1.92-1.53,2.29-3.64,2.38-5.85,6.23,1.78,6.72,4.9,6.65,6.08,0,.66.07,1,.39,1.05.82.08.94-.74,2.32-1.63,2-1.3,2.19-3.15,1.25-4.64A10.26,10.26,0,0,0,92,52.46a29.32,29.32,0,0,0-5.89-1.69c0-1.32,0-2.91,0-4.61a42.92,42.92,0,0,0,7.15-.85c1.6-.36,2.74-.84,3.25-1.56s.31-1.41.13-2.55c-.15-.9.18-1.5,0-1.64s-.43,0-.79.24c-1.83,1.3-4.39,2.21-9.7,2.4,0-1.37,0-2.74,0-4.05C89.74,37.9,95.59,37.2,97.18,35.36Zm-16.12,22c-.57.79-1.84,1.51-4.22,1.43s-3.57-1.14-3.57-2.38,1.39-1.87,2.73-2.12a20.58,20.58,0,0,1,5.66.09A5.13,5.13,0,0,1,81.06,57.4ZM184.22,37.56c.34,1.11.7,1.75.39,2.48s-1.24,1.51-2.85,2.15c-2,.79-3.66,1.33-5.2,1.79a67.77,67.77,0,0,0,5.17,6.37,1.84,1.84,0,0,1,.61.94c.11.5-.4.93-.86,1.31-.88.73-1.41,1.17-1.77,1.42a2.31,2.31,0,0,1-2.17,0h0A30.41,30.41,0,0,0,169,52.25c-3.08-.08-6.28.73-6.67,2.66-.3,1.48,1.08,2.67,2.25,3.23,2.28,1.08,6.73,1.27,10.33.75,2.38-.35,3.07-.94,3.33-1.64.19-.52.41-.75.65-.66.66.25.6.9,1.54,2.08,1.14,1.47.9,2.39-.12,3.08s-3.64,1.26-6.61,1.37c-3.73.15-7.89.06-11.42-1.66a7.2,7.2,0,0,1-3.77-4.29,6.4,6.4,0,0,1,.65-4.84,7.2,7.2,0,0,1,4.52-3.18,19.73,19.73,0,0,1,5.74-.6,33.8,33.8,0,0,1,6.12.84c-1.09-1.43-2.39-2.84-3.44-4.37a50.73,50.73,0,0,1-11.28.62,5.25,5.25,0,0,1-3.46-1.09c-.67-.7-.53-1.32-.53-2.49,0-.87-.43-1.33-.23-1.53s.48-.12.87.08c2.11,1.06,6.92,1.66,12.62.81-.71-1.16-1.55-2.36-2.2-3.64-4,.41-9.4.39-11-1-.75-.64-.54-1.35-.54-2.53,0-.93-.42-1.48-.25-1.64s.48,0,.87.15c1.89.9,4.57,1.69,9.28,1.32-.33-.78-.69-1.59-1-2.42-.66-1.81-.67-2.67-.2-3.61s1.69-1.37,3.08-1.79c1.2-.36,1.44-.89,1.7-.76s.18.22,0,.77a9,9,0,0,0,.46,6.24l.37.93c5-1,7.14-2.44,8.75-4,.31-.31.52-.51.76-.37s0,.69.24,1.62.79,1.78.3,2.54c-1.14,1.72-5.21,3-8.44,3.78.67,1.23,1.3,2.26,2.12,3.51,5.17-1.23,7.14-2.59,8.76-4.16.31-.31.46-.54.73-.39S184,36.73,184.22,37.56Zm47.34,3.74a7.29,7.29,0,0,0-3.77-4.85c-2.73-1.44-5.71-1.57-11.27-.14-.61-1.52-1.39-3.55-2-5.64-.6-1.9-1.4-2.62-2.42-2.93a5.39,5.39,0,0,0-3.7.86c-1.06.58-1.65.43-1.72.67s.33.57.86.85c1.36.71,2.24.9,4.93,7.36-1.52.47-3.58,1.13-5.66,1.79l-.07-.15c-.71-1.51-1.87-4.13-2.84-6.84-.69-1.93-1.53-2.6-2.59-2.87s-2.56.3-3.77,1-1.69.5-1.76.77.36.54.92.8c1.62.77,2.52,1.06,6,8.59-.88.27-1.37.45-1.58.51-5.58,1.62-6,.75-7.2.38-.55-.18-1.07-.34-1.21-.11s.4.65.61,1.88.46,2.55,1.38,3.17,2.41.66,4.29,0l5.41-1.85c1.42,3,3.35,6.65,4.42,8.9,2.52,5.32,2.19,7.34,1.82,8.77-.15.6-.17,1.09.09,1.16s.59-.49,2-1,2.57-.88,3-1.83.6-2.16-.33-4c-1.63-3.16-3.13-6-4.12-8-.72-1.45-1.73-3.61-2.69-5.62,2.2-.73,3.86-1.33,5.31-1.78,1.8,4,3.54,6.33,6.64,7.78a9.07,9.07,0,0,0,9.11-1.39A7,7,0,0,0,231.56,41.3Zm-4.64,3.13c-1,1.26-3.33,1.61-5,.84s-3-2.48-4-5.13c4.51-1.18,6.68-.73,7.72-.2A2.93,2.93,0,0,1,226.92,44.43Zm-84.54,7.93c.8-3.88,1-10.78-2-15.28a10.11,10.11,0,0,0-8.18-4.7,13.14,13.14,0,0,0-8.6,2.89c.06-1.43.15-2.66.24-3.8.15-1.94-.26-2.82-1-3.51s-2.24-.68-3.61-.62-1.64-.34-1.86-.13-.06.29.27.79a10.51,10.51,0,0,1,1.41,5c.08,1.67.12,3.58.15,5.95l-.1.11a34.26,34.26,0,0,0-5.73,10.65,60.53,60.53,0,0,0,1-9c-.07-1.93-.53-3-1.29-3.67s-2-.62-3.37-.52-1.66-.3-1.88-.08-.06.32.3.81c1.22,1.67,2.4,3,2.14,10.6-.17,2.28-.46,4.58-.76,6.86-.18,1.43.7,1.76,2,2.11,1.89.52,2.62.36,3.15-1,1-2.66,3.08-8.41,4.84-11.13,0,3.5,0,6.4,0,9.89-.12,4.28-.44,5.07-1.18,4.6s-1.07-.23-.83.63a4.3,4.3,0,0,0,2.14,2.8,3.15,3.15,0,0,0,3.25-.48c.75-.73,1-1.77,1-3.72-.09-4.89-.2-12-.08-18.18a10.29,10.29,0,0,1,8.12-3.88,6.15,6.15,0,0,1,4.77,2.78c2,2.84,2.13,8.45,1.63,11.58a13.11,13.11,0,0,0-6.94-.57c-2.83.59-5.3,2.77-5.14,6.17.17,3.74,3.35,5.56,6.5,5.5A8.89,8.89,0,0,0,141,56.53c2.38,1.7,1.9,3.27,1.85,4s.05.87.43.87c.74,0,.75-.82,2.16-1.57a2.71,2.71,0,0,0,1.12-3.86A9.71,9.71,0,0,0,142.38,52.36ZM132.47,58c-1.18-.05-2.53-.69-2.57-2s1.16-2.24,3.31-2.32a7.77,7.77,0,0,1,4.1.85A4.7,4.7,0,0,1,132.47,58Zm-76-29.49a23.59,23.59,0,0,1-.56-5.8,29.5,29.5,0,0,1,.69-6.23,9.7,9.7,0,0,0-.4-5.16,8.25,8.25,0,0,0-7.73-5.27,8.47,8.47,0,0,0-3.23.66c-.1-2.06-.57-5-2.86-6.17-3.47-1.77-7.75,1.13-9.32,2.34A37.26,37.26,0,0,0,29.53,6a24.18,24.18,0,0,0-2.84-.19A24.21,24.21,0,0,0,23.84,6,35.66,35.66,0,0,0,20.31,2.9C18.67,1.66,14.51-1.2,11,.56S8,8.16,8.26,9.94A27,27,0,0,0,9.49,15a12.32,12.32,0,0,0-1.41,5.66,12.56,12.56,0,0,0,2,6.68A23.37,23.37,0,0,0,0,46.26C0,59.59,12,70.43,26.67,70.43S53.33,59.59,53.33,46.26a22,22,0,0,0-1.44-7.82l.07,0a7.78,7.78,0,0,0,4.39-4.7A8.62,8.62,0,0,0,56.48,28.53ZM40.34,4.32c1.47.74.67,5.83.42,6.77a18.72,18.72,0,0,0-6.45-3.91C35.31,6.11,38.73,3.5,40.34,4.32ZM26.69,10.41a18.9,18.9,0,0,1,5.3.76c-.35,2.15-2.62,3.81-5.3,3.81s-5-1.66-5.3-3.81A18.9,18.9,0,0,1,26.69,10.41Zm0,8.75c4.34,0,8-2.56,9.07-6.4,3,1.89,5,4.79,5,7.9,0,5.66-6.3,10.33-14,10.33s-14-4.67-14-10.33c0-3.11,2-6,5-7.9C18.6,16.49,22.22,19.16,26.69,19.16Zm2.6,20.2a2.6,2.6,0,1,1-2.6-2.6A2.59,2.59,0,0,1,29.29,39.36ZM13,4.32c1.6-.82,5,1.8,6,2.86a18.8,18.8,0,0,0-6.44,3.91C12.37,10.16,11.56,5.07,13,4.32ZM26.67,65.86c-12.19,0-22.11-8.79-22.11-19.6a18.91,18.91,0,0,1,8.56-15.48,19.65,19.65,0,0,0,8.57,4.15,6.34,6.34,0,0,0-1.79,4.43,6.79,6.79,0,0,0,13.57,0,6.34,6.34,0,0,0-1.78-4.43,18.57,18.57,0,0,0,8.59-4.21A7.87,7.87,0,0,0,47.2,39a17.49,17.49,0,0,1,1.57,7.23C48.77,57.07,38.85,65.86,26.67,65.86ZM51.92,26.2c.16,1.47.29,2.29.56,3.72a3.82,3.82,0,0,1-.87,3.68A4.74,4.74,0,0,1,48.48,35a4.48,4.48,0,0,1-3.12-1.44,3.77,3.77,0,0,1-.87-3.68c.27-1.43.4-2.25.56-3.72a30.66,30.66,0,0,0,.18-3.47A30.2,30.2,0,0,0,45,19.25c-.16-1.3-.49-3-.67-4.26a4.08,4.08,0,0,1,.66-2.9,4.15,4.15,0,0,1,6.9,0,4.08,4.08,0,0,1,.66,2.9c-.18,1.23-.5,3-.66,4.26a28.11,28.11,0,0,0-.19,3.48A30.66,30.66,0,0,0,51.92,26.2Zm56.47-12.59a.11.11,0,0,1,.15.1v1.44a.12.12,0,0,1-.07.1,11.94,11.94,0,0,1-1.91.51,10.56,10.56,0,0,1-2,.19,9.55,9.55,0,0,1-1,0,.11.11,0,0,1-.09-.13l.36-1.36a.13.13,0,0,1,.12-.08,6.41,6.41,0,0,0,2.4-.09A10.51,10.51,0,0,0,108.39,13.61Zm5.63.63a10.65,10.65,0,0,1-2.13-.63.1.1,0,0,0-.14.1v1.44a.12.12,0,0,0,.07.1,11.38,11.38,0,0,0,1.91.51,10.56,10.56,0,0,0,2,.19,9.35,9.35,0,0,0,1,0,.1.1,0,0,0,.09-.13l-.36-1.36a.11.11,0,0,0-.11-.08A6.42,6.42,0,0,1,114,14.24Zm.83-1.17h-9.41a.11.11,0,0,1-.11-.11V6.05a.11.11,0,0,1,.11-.11h9.41a.1.1,0,0,1,.1.11V13A.1.1,0,0,1,114.85,13.07Zm-1.34-6h-6.73v.83h6.73Zm-6.73,2v.83h6.73V9.05Zm0,2v.91h6.73V11Zm9.83-5.9H103.67a.1.1,0,0,1-.1-.1V1.78a.1.1,0,0,1,.1-.1h12.94a.11.11,0,0,1,.11.1V5A.11.11,0,0,1,116.61,5.12ZM111.43,4V2.76h-2.57V4Zm4-1.22h-2.75V4h2.75Zm-10.55,0V4h2.75V2.76Zm33.76,10v1.41a.09.09,0,0,0,.06.09l2.62,1.17a.1.1,0,0,0,.14-.09V13.94a.1.1,0,0,0-.06-.09l-2.62-1.17A.1.1,0,0,0,138.63,12.77Zm8.06-2h3.18a.1.1,0,0,1,.09.14l-.34,1a.1.1,0,0,1-.1.07h-2.83v3.78a.11.11,0,0,1-.11.11h-3.12a.1.1,0,0,1-.1-.08L143,14.6a.1.1,0,0,1,.09-.13h2V12h-9.52a.1.1,0,0,1-.1-.07l-.34-1a.09.09,0,0,1,.09-.13h9.87v-1h-8a.11.11,0,0,1-.1-.11V4.44a.11.11,0,0,1,.1-.1h4.62V3.51H136.1a.09.09,0,0,1-.09-.08l-.35-1a.11.11,0,0,1,.1-.14h6V1.07a.11.11,0,0,1,.1-.1h1.35a.11.11,0,0,1,.1.1v1.2h6a.1.1,0,0,1,.1.13l-.35,1a.1.1,0,0,1-.1.07h-5.66v.83h4.61a.11.11,0,0,1,.11.1v5.2a.11.11,0,0,1-.11.11h-1.24Zm-.1-3.18h-3.27v1h3.27Zm-3.27-2.14v1h3.27v-1Zm-1.55,0H138.5v1h3.27ZM138.5,8.61h3.27v-1H138.5Zm42.92-5h-5.15v2.3h4.62A.1.1,0,0,1,181,6l-.35,1.24a.1.1,0,0,1-.1.08h-4.27V9.65h4.67a.1.1,0,0,1,.1.1v6.06a.11.11,0,0,1-.1.11H171.6a.11.11,0,0,1-.1-.11V9.75a.1.1,0,0,1,.1-.1h3.12V3.56H170.4V8.22a27.43,27.43,0,0,1-.81,7.62.1.1,0,0,1-.1.08h-1.68a.1.1,0,0,1-.1-.14,23.82,23.82,0,0,0,1-7.56V2.32a.11.11,0,0,1,.11-.11h5.87V1.07a.1.1,0,0,1,.1-.1h1.35a.11.11,0,0,1,.1.1V2.21h5.5a.11.11,0,0,1,.1.14l-.35,1.14A.12.12,0,0,1,181.42,3.56ZM179.59,11H173v3.58h6.64ZM90,1.68h-1.4a.1.1,0,0,0-.1.1,16.11,16.11,0,0,1-.72,4.06,7.73,7.73,0,0,1-1.55,2.59.09.09,0,0,0,0,.07v1.83a.1.1,0,0,0,.16.08,8.24,8.24,0,0,0,1.44-1.59v7a.11.11,0,0,0,.11.11h1.24a.11.11,0,0,0,.1-.11V6.38a17.46,17.46,0,0,0,.85-4.59A.1.1,0,0,0,90,1.68Zm1,2-.35-1.14a.1.1,0,0,1,.1-.13h9.93a.1.1,0,0,1,.1.13l-.35,1.14a.1.1,0,0,1-.1.08H97.69V6h2.78a.1.1,0,0,1,.1.1v9.76a.11.11,0,0,1-.1.11H90.78a.1.1,0,0,1-.1-.11V6.05a.09.09,0,0,1,.1-.1h2.78V3.74H91.11A.11.11,0,0,1,91,3.66Zm1.22,11h1.33V7.19H92.23Zm2.68,0h1.43V7.19H94.91Zm2.78-7.49v7.49H99V7.19ZM96.34,3.74H94.91V6h1.43ZM73.8,14.15V10.93a.11.11,0,0,1,.11-.11h6.2a.11.11,0,0,1,.11.11v3.22a.1.1,0,0,1-.11.1h-6.2A.1.1,0,0,1,73.8,14.15Zm1.31-1.05h3.8V12h-3.8Zm-4.86,2.82h1.34a.11.11,0,0,0,.11-.11V10H82.32v4.44H80.77a.1.1,0,0,0-.1.13L81,15.85a.1.1,0,0,0,.1.07h2.64a.1.1,0,0,0,.1-.11v-7a.1.1,0,0,0-.11-.1H70.25a.1.1,0,0,0-.11.1v7A.11.11,0,0,0,70.25,15.92ZM77.73,1H76.29a.11.11,0,0,0-.11.1V2.39h-5.9a.09.09,0,0,0-.09.13l.35,1.14a.09.09,0,0,0,.09.08H83.39a.09.09,0,0,0,.09-.08l.35-1.14a.1.1,0,0,0-.09-.13h-5.9V1.07A.11.11,0,0,0,77.73,1Zm-5,3.56h8.56a.09.09,0,0,1,.1.1V7.79a.1.1,0,0,1-.1.11H72.73a.1.1,0,0,1-.1-.11V4.63A.09.09,0,0,1,72.73,4.53Zm7.36,1.15H73.93V6.74h6.16Zm72.24-4h5.72a.1.1,0,0,1,.1.1V7.52a.1.1,0,0,1-.1.1h-4.27v8.19a.11.11,0,0,1-.11.11h-1.34a.1.1,0,0,1-.1-.11v-14A.1.1,0,0,1,152.33,1.68Zm1.45,1.14V4.1h2.92V2.82Zm0,3.66h2.92V5.24h-2.92Zm11.6-4.7v14a.1.1,0,0,1-.1.11H162a.1.1,0,0,1-.1-.07l-.36-1.25a.11.11,0,0,1,.1-.13h2.24V7.62h-4.27a.11.11,0,0,1-.11-.1V1.78a.11.11,0,0,1,.11-.1h5.72A.1.1,0,0,1,165.38,1.78Zm-4.48,1V4.1h2.93V2.82Zm2.93,3.66V5.24H160.9V6.48Zm-32.62,4.31a24.62,24.62,0,0,0,1.14-3.14,24.26,24.26,0,0,0,.91-5.86.11.11,0,0,0-.1-.11h-5.87a.11.11,0,0,0-.1.12L127.37,3a.11.11,0,0,0,.1.09h4.26a25.75,25.75,0,0,1-1.34,6.09,17.64,17.64,0,0,1-1.25-5,.11.11,0,0,0-.1-.09h-1.41a.1.1,0,0,0-.1.12,28.35,28.35,0,0,0,.81,3.53,21.51,21.51,0,0,0,1.23,3,11.85,11.85,0,0,1-2.32,3,.09.09,0,0,0,0,.07v2a.08.08,0,0,0,.13.06,14.18,14.18,0,0,0,3-3.67,13.78,13.78,0,0,0,3.07,3.67.08.08,0,0,0,.13-.06v-2a.11.11,0,0,0,0-.08A12,12,0,0,1,131.21,10.79Zm-5-9v14a.11.11,0,0,1-.1.1h-1.26a.11.11,0,0,1-.11-.1V12.9A24.63,24.63,0,0,1,122,14a5.39,5.39,0,0,1-2.26.28.16.16,0,0,1-.09-.07l-.34-1.16a.1.1,0,0,1,.11-.13,5,5,0,0,0,1.22,0V3h-1a.1.1,0,0,1-.1-.07l-.35-1.14a.1.1,0,0,1,.1-.13h6.86A.11.11,0,0,1,126.21,1.78Zm-4.1,6.54h2.63V6.45h-2.63Zm0-5.3V5.11h2.63V3Zm2.63,8.45V9.67h-2.63v2.87C123,12.24,124.16,11.73,124.74,11.47ZM227.92,60.11a4.32,4.32,0,0,1,.36-1.75A4.54,4.54,0,0,1,230.71,56a4.61,4.61,0,0,1,1.77-.34,4.49,4.49,0,0,1,1.76.34,4.44,4.44,0,0,1,2.4,2.39,4.32,4.32,0,0,1,.36,1.75,4.25,4.25,0,0,1-.36,1.75,4.46,4.46,0,0,1-2.4,2.38,4.49,4.49,0,0,1-1.76.34,4.61,4.61,0,0,1-1.77-.34,4.53,4.53,0,0,1-1.45-1,4.45,4.45,0,0,1-1-1.42A4.25,4.25,0,0,1,227.92,60.11Zm.44,0a3.82,3.82,0,0,0,.33,1.58,4.07,4.07,0,0,0,.89,1.3,4.4,4.4,0,0,0,1.31.89,4,4,0,0,0,3.17,0,4.31,4.31,0,0,0,1.29-.89,4.23,4.23,0,0,0,.89-1.3,4,4,0,0,0,0-3.15,4.4,4.4,0,0,0-.89-1.31,4.28,4.28,0,0,0-1.29-.88,4,4,0,0,0-3.17,0,4.37,4.37,0,0,0-1.31.88,4.22,4.22,0,0,0-.89,1.31A3.81,3.81,0,0,0,228.36,60.11Zm5.58,2.45-1.47-2.19h-1.09v2.19h-.44v-5h1.68a1.88,1.88,0,0,1,1.2.35,1.25,1.25,0,0,1,.44,1,1.18,1.18,0,0,1-.42,1,1.7,1.7,0,0,1-.92.36l1.53,2.25Zm-.12-3.62a.81.81,0,0,0-.37-.79,1.78,1.78,0,0,0-.83-.2h-1.24V60h.94a2.28,2.28,0,0,0,1.1-.23A.91.91,0,0,0,233.82,58.94Z"/></g></g></svg>