<?xml version="1.0" encoding="UTF-8"?><svg id="a" xmlns="http://www.w3.org/2000/svg" xmlns:xlink="http://www.w3.org/1999/xlink" viewBox="0 0 200 200"><defs><style>.d{fill:#fff;}.e{fill:#8d93c8;}.f{clip-path:url(#b);}.g{clip-path:url(#c);}.h{fill:none;}.i{fill:#004098;}</style><clipPath id="b"><polygon class="h" points="12.25 12.06 12.25 165.84 187.75 165.84 187.75 12.06 12.25 12.06 12.25 12.06"/></clipPath><clipPath id="c"><polygon class="h" points="12.25 12.06 12.25 165.84 187.75 165.84 187.75 12.06 12.25 12.06 12.25 12.06"/></clipPath></defs><rect class="d" width="200" height="200" rx="25" ry="25"/><g><g class="f"><path class="i" d="M126.68,146.16c-31.99,19.8-69.94,16.67-84.58-6.99-5.71-9.22-7.23-20.45-4.4-32.47,4.16-17.7,17.57-35.02,35.87-46.35,18.3-11.33,39.79-15.6,57.48-11.44,12.02,2.83,21.39,9.2,27.1,18.42,14.64,23.66,.53,59.02-31.46,78.82h0Zm5.91-103.79c-19.68-4.63-42.48-.16-62.56,12.27-20.08,12.43-34.25,30.84-38.88,50.53-3.25,13.79-1.44,26.78,5.23,37.55,16.59,26.81,58.69,30.92,93.84,9.16,35.15-21.76,50.24-61.27,33.64-88.08-6.67-10.78-17.48-18.19-31.28-21.43h0Z"/></g><path class="i" d="M48.75,130.74c13.91,0,80.57-24.93,79.13-43.98-1.36-18.06-39.88,.2-52.27,6.34l1.53-14.76c8.44-6.75,62.4-30.16,71.27-2.43,10.91,34.08-70.6,57.07-99.66,54.84h0Z"/><path class="e" d="M74.24,100.59c7.29,0,13.2-5.91,13.2-13.2s-5.91-13.19-13.2-13.19-13.19,5.91-13.19,13.19,5.91,13.2,13.19,13.2h0Z"/><path class="e" d="M84.14,152.72c.02-12.42-.03-35.42-.03-35.78,0-5.4-4.38-9.77-9.77-9.77s-9.78,4.38-9.78,9.77v32.92c6,1.99,12.63,2.95,19.58,2.86h0Z"/><path class="e" d="M22.87,88.32c-.2,.47-.4,.9-.66,1.57-.8,2.1-.89,3.21-.85,4.3l-2.43-.11c-.18-1.65,.05-3.45,1.37-6.7l2.57,.95h0Zm1.13,5.79c.2,.37,.56,.96,1.1,1.17,.87,.33,1.33-.51,1.9-2.01,.4-1.04,.78-2.08,1.04-3.16l2.58,.95c-.13,.39-.26,.82-.7,1.99-.85,2.22-1.38,3.38-2.27,4.11-.42,.35-1.51,1.04-2.91,.5-1.14-.44-1.96-1.34-2.54-2.35l1.8-1.22h0Zm-10.64-.63c.84,.44,.99,.52,1.67,.88l1.29-3.37,2.46,.94-1.41,3.68c4.21,2.32,6.24,3.75,9.36,6.08l-1.77,2.11c-2.39-2.26-6.57-4.79-8.49-5.86l-.74,1.93-2.45-.94,.84-2.21c-.78-.38-1.04-.5-1.88-.87l1.11-2.36h0Z"/><path class="e" d="M35.1,79.74c-.29-.2-.59-.39-1.06-.68-1.7-1.04-3.61-1.98-5.47-2.42-1.39-.34-2.83-.51-4.12-.14l-.25-2.52c2.21-.39,3.99-.57,7.77,.99,1.86,.77,3.37,1.67,4.41,2.32l-1.29,2.45h0Zm-14.91,.7c1.41,1.15,2.87,2.25,4.42,3.19,1.04,.63,2.56,1.47,3.73,1.81,.49,.15,1.34,.37,1.66-.16,.24-.39,.01-.87-.24-1.3-.31-.52-.87-1.29-1.58-2.09l2.23-1.06c1.1,1.24,3.54,4.16,2.28,6.26-.87,1.44-2.48,1.34-3.66,1.14-1.64-.29-4.15-1.49-5.96-2.59-1.54-.93-3.29-2.19-4.46-3.05l1.59-2.16h0Z"/><path class="e" d="M34.31,59.12c.52,.37,.97,.7,2.55,2.02l1.45-1.79,1.99,1.69-1.45,1.79c2.64,2.37,4.18,3.79,2.36,5.94-.13,.16-.68,.8-1.66,1.55l-1.94-1.6c.8-.61,1.39-1.26,1.39-1.26,.52-.62,.02-1.12-1.74-2.66l-2.85,3.52,2.94,2.54c2.06,1.74,2.19,1.86,4.45-.81,1.01-1.19,2.12-2.51,2.89-3.69l2.1,1.78c-.54,.77-1.53,1.94-2.34,2.89-1.92,2.26-3.32,3.91-5.28,3.66-.73-.1-1.44-.32-3.23-1.84l-3.09-2.62-1.46,1.8-2-1.67,1.47-1.81-2.38-2.02,1.62-1.91,2.32,1.98,2.81-3.48c-1.47-1.19-1.93-1.51-2.55-1.95l1.62-2.02h0Z"/><path class="e" d="M47.62,62.99c1.19-1,2.85-2.48,3.92-3.94,.65-.9,2.24-3.15-.02-5.72-.69-.78-1.36-1.13-1.97-1.25-.77-.15-1.58-.04-2.6,.86-.87,.77-2.21,2.51-3.16,3.93-1.4,2.08-1.56,2.31-1.74,2.59l-2.47-1.92c.61-.72,1.02-1.24,2.05-2.57,2.09-2.73,2.92-3.58,3.73-4.29,2.43-2.14,5.74-1.9,8.19,.88,2.38,2.7,2.11,5.52,1.35,7.11-1.03,2.2-2.65,3.95-5.02,6.02l-2.25-1.69h0Z"/><path class="e" d="M62.12,46.83c-.03,1.21,.38,1.86,.51,2.05,.67,1.02,1.81,.49,3.07-.34,.94-.62,2.15-1.49,2.99-2.24l1.61,2.37c-.37,.31-1.01,.86-2.32,1.73-2.17,1.44-5.12,3.22-7.08,.25-.69-1.04-1.02-2.29-1.09-3.51l2.32-.31h0Zm.7-8.9l1.53,2.33-6.8,4.51-1.53-2.33,6.8-4.51h0Zm-8.62,4.59c1.19,2.58,2.57,5.04,4.14,7.41,.77,1.16,2.21,3.26,3.88,5l-2.07,1.65c-1.4-1.51-2.63-3.19-3.75-4.88-1.67-2.53-3.15-5.19-4.55-7.88l2.34-1.3h0Z"/><path class="e" d="M67.82,33.79c1.16,2.64,3.67,7.93,3.87,8.34,1.01,2.04,1.91,2.9,3.76,1.98,3.1-1.53,2.36-4.65,1.63-6.86h2.69c.27,.92,.98,3.36,.24,5.67-.44,1.4-1.25,2.6-3.34,3.64-4.27,2.11-6.01-.65-7.6-3.88-.6-1.22-3.2-6.61-3.74-7.7l2.48-1.18h0Z"/><path class="e" d="M87.23,37.39c-.33,0-.73-.01-1.23,.16-.57,.2-1.49,.73-1.19,1.62,.32,.93,1.45,.62,1.79,.5,1.28-.44,1.04-1.12,.9-1.54l-.26-.75h0Zm-3.16-9.14l-.46-1.35,2.4-.83,.47,1.35,4.53-1.56,.8,2.33-4.53,1.56,.43,1.23,4.2-1.45,.78,2.27-4.2,1.45,.58,1.7c1.96,.18,4.07,.91,5.26,1.47l-.7,2.93c-.68-.4-2.21-1.2-3.58-1.57l.07,.31c.19,.74,.31,1.24-.13,2-.34,.58-.88,1.26-2.37,1.77-2.64,.91-4.44-.02-5.07-1.84-.69-2.02,.53-3.82,2.97-4.66,.49-.17,.67-.2,.94-.21l-.37-1.08-5.05,1.74-.78-2.27,5.04-1.74-.42-1.23-5.36,1.84-.8-2.34,5.36-1.85h0Z"/><g class="g"><path class="e" d="M102.05,30.4c-.06-.26-.34-1.21-1.37-1.01-.25,.04-1.27,.37-1.01,1.74,.11,.57,.52,1.48,1.55,1.28,.75-.14,1.06-.76,.92-1.52l-.09-.48h0Zm-1.73-8.09l2.56-.49,.3,1.59,4.12-.79,.49,2.55-4.12,.79,.71,3.73c.21,.53,.54,1.33,.73,2.34,.5,2.6-.58,4.03-1.85,4.95-1,.75-2.28,1.29-4.02,1.65l-1.23-2.28c.59-.11,2.21-.44,3.23-.94,1.24-.63,1.34-1.21,1.41-1.67-.24,.26-.55,.61-1.36,.76-2.02,.39-3.54-1.12-3.89-2.97-.29-1.53,.31-3.72,2.78-4.19,.48-.09,.88-.02,1.21,.02l-.19-.92-7.19,1.38-.48-2.55,7.12-1.36-.34-1.58h0Z"/><path class="i" d="M124.04,13.81c-.41,0-.74,.56-.73,1.22,0,.69,.35,1.24,.76,1.24,.41,0,.74-.56,.73-1.25,0-.66-.35-1.21-.76-1.21h0Zm.05,4.21c-1,.01-1.81-1.3-1.83-2.97-.02-1.64,.76-2.97,1.76-2.99,1-.01,1.81,1.3,1.83,2.94,.02,1.67-.76,3-1.76,3.01h0Zm-2.34-3.07c.1,3.15,1.33,3.93,2.57,3.91-.4,6.41-1.83,14.79-10.09,17.71l-1.26-4.01c6.49-1.64,8.17-7.03,8.6-13.44l-9.8,.11-.05-4.18,10.01-.11h0Z"/></g><path class="i" d="M140.61,22.78c-1.94,8.64-4.96,14.34-13.12,14.03l-.11-4.01c5.5,.49,8.06-1.69,9.61-6.64l-9.97-1.63,.63-3.86,12.96,2.12h0Zm0-6.54l-.63,3.84-10.76-1.76,.62-3.84,10.77,1.76h0Z"/><path class="i" d="M146.41,41.44l-2.51-.96,3.85-10.09c-2.75,1.19-4.93,1.57-6.36,1.79l-.03-3.84c2.66-.2,5.45-1.15,8.22-2.58,3.05-1.58,5.43-3.59,7.3-5.26l1.19,3.26c-2.13,1.79-3.95,3.14-6.75,4.79l-4.91,12.88h0Z"/><path class="i" d="M172.2,34.53c1.08-2.22,1.4-2.99,1.76-3.97l1.34,.38c-.59,1.65-1.33,3.14-1.72,3.93l-1.37-.34h0Zm-2-.88c.5-.88,1.41-2.76,1.83-3.95l1.36,.4c-.24,.7-.95,2.53-1.72,3.9l-1.48-.35h0Zm.87-3.26c-.71,1.6-.84,1.93-1.71,3.46l.27,.06c-2.74,4.38-5.08,10.04-5.82,14.35l-3.68,1.15c1.13-5.41,3.58-10.85,9.16-19.77l1.78,.75h0Zm-19.41,9.42c2.62-1.43,4.93-3.56,6.88-5.69,3.17-3.47,5.3-6.4,6.43-7.94l1.82,1.78c-7.12,9.26-10.76,13.24-15.22,15.68l.09-3.83h0Z"/><path class="i" d="M165.28,48.14c3.74,3.4,7.14,5.14,17.84-.83l.04,3.06c-11.48,6.06-16.33,4.98-20.97,1.18l3.08-3.42h0Zm6.32-.21c.12-1.86-.09-3.8-.56-5.58l3.31-1.56c.45,1.23,.91,3.46,.8,5.5l-3.54,1.64h0Zm5.82-2.95c.05-2.03-.3-3.88-.82-5.6l3.3-1.53c.59,1.47,1.06,3.55,1.07,5.53l-3.54,1.6h0Z"/><polygon class="i" points="187.75 68.19 183.67 69.9 178.26 56.98 182.34 55.27 187.75 68.19 187.75 68.19 187.75 68.19 187.75 68.19"/><path class="i" d="M39.34,186.18h-2.28v-9.74h-2.83v-2.29c1.59,.04,3.06-.69,3.3-2.98h1.82v15.01h0Z"/><path class="i" d="M53.51,173.78c-2.37,2.74-3.65,8.39-3.68,12.4h-2.44c.26-4.44,1.64-8.75,3.78-12.18h-5.34v-2.83h7.69v2.62h0Z"/><path class="i" d="M61.81,183.97c1.87,0,1.87-3.67,1.87-5.36,0-1.57,0-5.23-1.87-5.23s-1.83,3.67-1.83,5.23c0,1.7,0,5.36,1.83,5.36h0Zm0-13.11c2.25,0,4.15,1.89,4.15,7.74s-1.9,7.87-4.15,7.87-4.12-1.89-4.12-7.87,1.9-7.74,4.12-7.74h0Z"/><path class="i" d="M73.97,183.97c1.87,0,1.87-3.67,1.87-5.36,0-1.57,0-5.23-1.87-5.23s-1.83,3.67-1.83,5.23c0,1.7,0,5.36,1.83,5.36h0Zm0-13.11c2.25,0,4.15,1.89,4.15,7.74s-1.9,7.87-4.15,7.87-4.12-1.89-4.12-7.87,1.9-7.74,4.12-7.74h0Z"/><path class="i" d="M85.35,177.24c.98,.11,2.4-.15,2.4-1.87,0-1.27-.76-2-1.59-2-1.14,0-1.75,1.14-1.74,2.68h-2.17c.08-3.07,1.58-5.19,3.89-5.19,1.8,0,3.78,1.48,3.78,4.16,0,1.42-.53,2.68-1.58,3.07v.04c1.24,.36,1.99,1.74,1.99,3.41,0,3.15-1.98,4.93-4.18,4.93-2.53,0-4.23-2.01-4.18-5.47h2.17c.05,1.63,.66,2.96,1.98,2.96,1.03,0,1.83-.94,1.83-2.36,0-2.27-1.5-2.23-2.61-2.23v-2.14h0Z"/><path class="i" d="M102.16,173.78c-2.36,2.74-3.65,8.39-3.68,12.4h-2.44c.26-4.44,1.64-8.75,3.78-12.18h-5.34v-2.83h7.69v2.62h0Z"/><path class="i" d="M114.32,173.78c-2.37,2.74-3.65,8.39-3.68,12.4h-2.44c.26-4.44,1.64-8.75,3.78-12.18h-5.34v-2.83h7.69v2.62h0Z"/><path class="i" d="M121.83,177.24c.98,.11,2.4-.15,2.4-1.87,0-1.27-.76-2-1.59-2-1.14,0-1.75,1.14-1.74,2.68h-2.17c.08-3.07,1.57-5.19,3.89-5.19,1.8,0,3.78,1.48,3.78,4.16,0,1.42-.53,2.68-1.57,3.07v.04c1.24,.36,1.99,1.74,1.99,3.41,0,3.15-1.98,4.93-4.18,4.93-2.53,0-4.23-2.01-4.18-5.47h2.17c.05,1.63,.66,2.96,1.98,2.96,1.03,0,1.83-.94,1.83-2.36,0-2.27-1.5-2.23-2.61-2.23v-2.14h0Z"/><path class="i" d="M135.2,168.36c-1.19,3.02-1.75,6.39-1.75,9.71s.55,6.78,1.74,9.87h-1.9c-1.32-2.92-2.12-6.31-2.12-9.65s.71-7.21,2.12-9.93h1.91Z"/><path class="i" d="M142.76,183.97c1.87,0,1.87-3.67,1.87-5.36,0-1.57,0-5.23-1.87-5.23s-1.83,3.67-1.83,5.23c0,1.7,0,5.36,1.83,5.36h0Zm0-13.11c2.25,0,4.15,1.89,4.15,7.74s-1.9,7.87-4.15,7.87-4.12-1.89-4.12-7.87,1.9-7.74,4.12-7.74h0Z"/><path class="i" d="M151.06,176.94c-.08-3.43,1.38-6.07,4.09-6.07,2.06,0,3.86,1.76,3.86,4.7,0,2.25-.9,3.5-2.01,4.55-1.11,1.05-2.43,1.91-3.25,3.45h5.32v2.61h-8.27c.02-3.47,1.61-4.95,3.55-6.71,1-.9,2.35-1.82,2.37-3.67,0-1.42-.71-2.32-1.69-2.32-1.35,0-1.79,1.87-1.79,3.45h-2.19Z"/><path class="i" d="M162.52,187.94c1.19-3,1.75-6.37,1.75-9.69s-.55-6.78-1.74-9.89h1.9c1.32,2.94,2.12,6.33,2.12,9.67s-.71,7.21-2.12,9.91h-1.91Z"/></g></svg>