<svg xmlns="http://www.w3.org/2000/svg" viewBox="0 0 91.76 91.76"><defs><style>.cls-1{fill:#fff;}.cls-2{fill:#ad0005;}.cls-3{fill:#b50005;}</style></defs><g id="レイヤー_2" data-name="レイヤー 2"><g id="レイアウト"><rect class="cls-1" width="91.76" height="91.76" rx="13.53"/><path class="cls-2" d="M28.78,74.68c-2.37-.07-5.71-.08-8.1-.08H17.93v2.18a22.46,22.46,0,0,1-1.33,8.64A9.28,9.28,0,0,0,14.68,84a17.38,17.38,0,0,0,1.14-7.25v-4h5.25a3.32,3.32,0,0,0-.08-.81,1.05,1.05,0,0,1-.1-.35c0-.08.05-.09.19-.09h.08c.63,0,1.64.09,2.21.14.2,0,.28.11.28.21a.5.5,0,0,1-.12.26.61.61,0,0,0-.19.46.86.86,0,0,1,0,.16c2,0,4,0,5.45-.08ZM25.41,85.42c0-.21,0-.42,0-.64H20.62c0,.21,0,.43,0,.64H18.43c.08-1.57.08-4.31.08-5.59v-.69h2.88V77.93a21.9,21.9,0,0,0-.08-2.74c0-.18-.08-.27-.08-.34s.05-.09.19-.09h.1a18.24,18.24,0,0,1,2.08.17c.17,0,.25.1.25.2a.47.47,0,0,1-.16.3.59.59,0,0,0-.17.46v.18c1.39,0,3.5,0,5.09-.11V78c-1.57-.08-3.72-.08-5.12-.08v1.21h4.08V80c0,1.34,0,3.89.06,5.41Zm.08-4.36h-4.9v1.8h4.9Z"/><path class="cls-2" d="M39.93,85.05c0-.83,0-1.94,0-3.14H39.2c0,1.32,0,2.6.09,3.51H37.2c.08-1.81.09-5.7.09-8.1v-2H40v-.56c-1,0-1.95,0-2.94,0a8.52,8.52,0,0,0-.4,1,13.42,13.42,0,0,1-2.58-1.87c-.21.28-.43.54-.67.81,1.86.11,1.9.21,1.9.35a.48.48,0,0,1-.12.28.57.57,0,0,0-.13.43v.17c.53,0,1.07,0,1.6-.06v1.68c-.55,0-1.09-.05-1.63-.05v.61c.68,0,1.37,0,2.09-.09v1.74c-1.07,0-2.06-.08-3.05-.08s-2,0-3.08.08V78c.39,0,.75,0,1.12.06l1.08,0v-.61l-1.59.05V76.29l-.4.29a6.11,6.11,0,0,0-.56-2.14,5.51,5.51,0,0,0,2.5-2.66c.05-.27,0-.38.14-.38h.11c1.76.24,2.07.35,2.07.58s-.07.19-.21.26a.29.29,0,0,0-.11.06,9.19,9.19,0,0,0,1.92,1.23v-.7L40,72.9a8.36,8.36,0,0,0-.09-1.09.78.78,0,0,1-.1-.3c0-.1.06-.11.21-.11h.11c2,.06,2.13.24,2.13.35a.5.5,0,0,1-.16.29.55.55,0,0,0-.18.46c0,.07,0,.21,0,.4h1A9.29,9.29,0,0,0,42.4,72l1.5-.52a9.11,9.11,0,0,1,1.19,2.13l-.39.15v1l-2.83,0v.56h2.74v8.19c0,1.54-.42,1.94-1.75,1.94a4.52,4.52,0,0,1-.51,0,7.13,7.13,0,0,0-.46-2c0,.6,0,1.16,0,1.66Zm-5.23.22c0-.17,0-.36,0-.54H33.47c0,.22,0,.45,0,.69h-2c.05-1.51.05-3.38.05-4.45v-.88h5.24v1.57c0,1.13,0,2.62,0,3.61ZM33.08,75a10.75,10.75,0,0,1-.93.83l1,0A3.45,3.45,0,0,0,33.08,75Zm1.68,6.77H33.45V83h1.31ZM40,77h-.83v.77H40Zm0,3.29c0-.31,0-.6,0-.9h-.83c0,.29,0,.59,0,.9ZM42.72,77h-.85v.77h.85Zm0,2.39h-.85v.9h.85Zm0,2.51h-.83v1.44a2.77,2.77,0,0,0,.51.05c.26,0,.32-.08.32-.27Z"/><path class="cls-2" d="M56.93,81.77a10.76,10.76,0,0,0,4.16,1.31,6,6,0,0,0-.9,2,12,12,0,0,1-5.33-2.55c0,.9,0,1.94,0,2.9H52.73c0-.83.05-1.86.05-2.83a12.13,12.13,0,0,1-5.2,2.46,5.27,5.27,0,0,0-.9-2,10.5,10.5,0,0,0,4.12-1.3c-1.25,0-2.49,0-3.72,0V79.93c1.91,0,3.78.08,5.65.08a2.37,2.37,0,0,0,0-.53,31.43,31.43,0,0,1-4.25.21,5.23,5.23,0,0,0-.77-1.7c.81,0,1.57.05,2.27.05a15.58,15.58,0,0,0,2.58-.16l-1.41-.34c-.19.16-.38.32-.58.47l-1.81-.85a11.8,11.8,0,0,0,1.12-.88l-1.64,0v-.77H47.05a25.26,25.26,0,0,0,.11-2.67v-.5h5.46a2.38,2.38,0,0,0-.08-.53,1.39,1.39,0,0,1-.1-.35c0-.08.05-.09.2-.09h.08c2.37.06,2.46.17,2.46.35a.66.66,0,0,1-.11.26c-.14.17-.18.19-.19.36h5.73v.32c0,.61,0,2,.08,2.85H59.55v.77l-1.7,0A6.25,6.25,0,0,1,57,77.46c.92.23,1.88.5,2.89.8l-1.09,1.59c-1.17-.45-2.29-.83-3.41-1.19a6.73,6.73,0,0,1-.91.39l.51.06c.17,0,.25.1.25.19a.47.47,0,0,1-.16.31.52.52,0,0,0-.17.4c1.9,0,3.84,0,5.81-.08v1.89Zm-7.72-7.62v.45c.77,0,1.54,0,2.29,0,.14-.18.27-.34.37-.48Zm3.23,2.11-.14.15c.85.16,1.71.33,2.61.54a3.62,3.62,0,0,0,.72-.69Zm6.12-2.11h-4.5c-.1.16-.21.32-.34.5,1.59,0,3.16,0,4.84-.05Z"/><path class="cls-2" d="M74,80.92l-1.68,1.59A39.15,39.15,0,0,0,70,79.27a9.49,9.49,0,0,1-3,3.89,8.78,8.78,0,0,0-1.21-2c0,1.46,0,2.93.07,4.28H63.47c.08-3.19.09-8.74.09-11V73.32h5.2a8.87,8.87,0,0,0-.08-1.51,1.71,1.71,0,0,1-.08-.3c0-.08.05-.1.18-.1h.1c2.29.1,2.48.21,2.48.39a.5.5,0,0,1-.16.29.58.58,0,0,0-.23.49c0,.16,0,.42,0,.74h5.24v9.73c0,1.82-.55,2.35-2.82,2.35-.37,0-.79,0-1.25,0a5.92,5.92,0,0,0-.54-2c.65,0,1.13.08,1.48.08.9,0,1-.18,1-.61Zm-8.26-5.59c0,1,0,3.27,0,5.73a7.1,7.1,0,0,0,3-5.73Zm8.26,0H70.85c0,.56-.1,1.14-.18,1.64,1.07,1.15,2.22,2.46,3.33,3.87Z"/><path class="cls-3" d="M68.87,11h-46a9.33,9.33,0,0,0-9.31,9.31V28a1.84,1.84,0,0,0,1.83,1.84h2.92V60.54a1.83,1.83,0,0,0,1.84,1.83H71.6a1.84,1.84,0,0,0,1.84-1.83V29.8h2.91A1.85,1.85,0,0,0,78.19,28V20.35A9.33,9.33,0,0,0,68.87,11ZM36.82,58.7V41.26H44V58.7Zm10.9,0V41.26H55V58.7Zm22,0H58.62V39.43a1.84,1.84,0,0,0-1.84-1.84H35a1.84,1.84,0,0,0-1.84,1.84V58.7H22V29.8H69.76Zm4.75-32.58H17.25V20.35a5.65,5.65,0,0,1,5.64-5.64h46a5.65,5.65,0,0,1,5.64,5.64Z"/></g></g></svg>