<svg xmlns="http://www.w3.org/2000/svg" viewBox="0 0 21.97 14.7"><defs><style>.cls-1{fill:#fff;}</style></defs><g id="レイヤー_2" data-name="レイヤー 2"><g id="レイアウト"><path class="cls-1" d="M5.69,2.77A13.94,13.94,0,0,1,11,1.67a13.93,13.93,0,0,1,5.29,1.1A16.44,16.44,0,0,1,22,1.67V0H0V1.67A16.19,16.19,0,0,1,5.69,2.77Z"/><path class="cls-1" d="M14.21,7.43a3.13,3.13,0,0,0,.18,2.88,2.22,2.22,0,0,0,1.82.89,2.71,2.71,0,0,0,2.12-1.12,2.71,2.71,0,0,0,.19-2.56,4.74,4.74,0,0,0-2.24-2.4A4.18,4.18,0,0,0,14.21,7.43Z"/><path class="cls-1" d="M5.7,5.12a4.72,4.72,0,0,0-2.25,2.4,2.71,2.71,0,0,0,.19,2.56A2.71,2.71,0,0,0,5.76,11.2a2.25,2.25,0,0,0,1.83-.89,3.16,3.16,0,0,0,.17-2.88A4.2,4.2,0,0,0,5.7,5.12Z"/><path class="cls-1" d="M18.68,4.22a6,6,0,0,1,1.84,2.57,4.79,4.79,0,0,1-.44,4.51,4.86,4.86,0,0,1-3.87,2,4.39,4.39,0,0,1-3.55-1.78,5.22,5.22,0,0,1-.48-4.79A5.78,5.78,0,0,1,13.91,4.2,11.69,11.69,0,0,0,11,3.8a11.77,11.77,0,0,0-2.93.4A5.78,5.78,0,0,1,9.79,6.77a5.22,5.22,0,0,1-.48,4.79,4.38,4.38,0,0,1-3.55,1.78,4.88,4.88,0,0,1-3.87-2,4.81,4.81,0,0,1-.44-4.51A6.1,6.1,0,0,1,3.29,4.22,16.93,16.93,0,0,0,0,3.8V14.7H22V3.8A16.93,16.93,0,0,0,18.68,4.22Z"/></g></g></svg>