<svg xmlns="http://www.w3.org/2000/svg" viewBox="0 0 299.93 41.18"><defs><style>.cls-1{fill:#fff;}</style></defs><g id="レイヤー_2" data-name="レイヤー 2"><g id="logo"><path class="cls-1" d="M193.62,19.7c-1.18,0-2.38,0-3.57,0s-2.38,0-3.52,0v-.88l1.52,0h1.53V17.12c-.76,0-1.55,0-2.42,0v-.84c.88,0,1.67.05,2.42.06v-.73c-.46,0-.93,0-1.35,0v-.47a11.36,11.36,0,0,1-1.35.57,2.44,2.44,0,0,0-.49-.84,4.76,4.76,0,0,0,3.18-2c0-.1,0-.17.13-.17h.05a8.93,8.93,0,0,1,.89.23c.05,0,.09.06.09.1a.14.14,0,0,1-.09.13l-.09,0a7,7,0,0,0,3.22,1.59,2.56,2.56,0,0,0-.5.86,9.72,9.72,0,0,1-1.54-.62v.56c-.39,0-.86,0-1.31,0v.73c.8,0,1.63,0,2.56-.06v.84c-.92,0-1.76,0-2.56,0v1.75c1.06,0,2.14,0,3.2-.05Zm-5.28-.88a5.36,5.36,0,0,0-.77-1.33l.76-.25a7.08,7.08,0,0,1,.79,1.29ZM190,13.91a5.76,5.76,0,0,1-1.21,1l1.17,0,1.39,0A7.68,7.68,0,0,1,190,13.91Zm1.53,3.48c0-.14,0-.18.08-.18h.06c.81.14.86.2.86.26s0,.07-.09.11a.38.38,0,0,0-.16.19,7.25,7.25,0,0,1-.61,1,5.66,5.66,0,0,0-.79-.27,3.5,3.5,0,0,0,.65-1.16Z"/><path class="cls-1" d="M198.22,17a.7.7,0,0,1-.72-.7.72.72,0,1,1,.72.7Z"/><path class="cls-1" d="M209.8,19.68c-1.17,0-2.32,0-3.46,0s-2.27,0-3.4,0V18.8l1.46,0,1.47,0V17.43c-.69,0-1.37,0-2,.05v-.82c.6,0,1.27,0,2,0v-.92l-2.23,0v-.51H203c0-.45,0-1.25,0-1.62v-.2h2.82a2.59,2.59,0,0,0,0-.48,1.33,1.33,0,0,1-.05-.19s0-.05.08-.05h0c.27,0,.66.05.94.08.07,0,.09,0,.09.08a.25.25,0,0,1-.05.15.5.5,0,0,0-.08.26.75.75,0,0,0,0,.15h2.94v.25c0,.39,0,1.14,0,1.57h-.64v.51l-2.37,0v.92c.71,0,1.45,0,2.11,0v.81c-.61,0-1.46,0-2.11,0v1.42c1,0,2.1,0,3.06-.05Zm-1-5.39h-5v.21c0,.13,0,.3,0,.48.87,0,1.67,0,2.47,0s1.61,0,2.48,0c0-.18,0-.35,0-.48Zm-.83,4.5a5.62,5.62,0,0,0-.8-1l.73-.29a9.25,9.25,0,0,1,.83.95Z"/><path class="cls-1" d="M216.51,19.92c0-.16,0-.35,0-.56h-3.15c0,.21,0,.4,0,.56h-1c0-.66,0-1.93,0-2.89a4,4,0,0,1-1.15,1,3.19,3.19,0,0,0-.49-.86A6,6,0,0,0,213.38,14l-2.26,0V13.1c1.12,0,2.31.06,3.51.06s2.41,0,3.55-.06V14c-1,0-2.09,0-3.18,0h-.67a6.63,6.63,0,0,1-.8,1.73h3.91s0,3,0,4.2Zm0-3.36h-3.18s0,1.05,0,2h3.17Z"/><path class="cls-1" d="M222.66,17a.71.71,0,0,1-.72-.7.72.72,0,1,1,1.44,0A.71.71,0,0,1,222.66,17Z"/><path class="cls-1" d="M227.64,14.18c.39,0,1.05.05,1.8.05,1,0,2.23,0,3.12-.09.16,0,.2-.07.28-.07a2.19,2.19,0,0,1,.84.61c0,.11-.2.2-.32.52A8,8,0,0,1,229,19.89a3,3,0,0,0-.85-.77A6.33,6.33,0,0,0,232.35,15c-1.2,0-3.7.07-4.71.21Zm5.92-.07a5.46,5.46,0,0,0-.76-.76l.45-.32a8.84,8.84,0,0,1,.77.72Zm.74-.47a7.16,7.16,0,0,0-.76-.7l.43-.31a8.21,8.21,0,0,1,.77.67Z"/><path class="cls-1" d="M235.81,15.08c.25,0,.75,0,1.36,0,1.35,0,3.18,0,3.75-.07.13,0,.18-.1.27-.1a3.32,3.32,0,0,1,.85.59c0,.09-.18.18-.31.47a7,7,0,0,1-4.22,3.82,6.35,6.35,0,0,0-.83-.81,5.53,5.53,0,0,0,4-3.11c-1.21,0-4,.1-4.8.18Zm5.23-.72-1.13,0c-1.16,0-2.74,0-3.32.09v-.94h.86c1.17,0,3,0,3.58-.09Z"/><path class="cls-1" d="M245.44,19.29a1.12,1.12,0,0,0-.42.25c-.08.08-.12.12-.16.12a5.68,5.68,0,0,1-.72-1l0-.05c0-.07.13,0,.35-.09A11.51,11.51,0,0,0,249.93,15a8.72,8.72,0,0,0,.55.8A15,15,0,0,1,245.44,19.29Zm.52-3.71a7.29,7.29,0,0,0-1.76-1.47l.7-.64a7,7,0,0,1,1.72,1.33Z"/><path class="cls-1" d="M254,19.74c.09-.83.15-2.71.15-4.26a21.91,21.91,0,0,0-.08-2.29A1.31,1.31,0,0,1,254,13s0,0,.07,0h0l1,.06c.09,0,.12,0,.12.07a.36.36,0,0,1,0,.11c-.1.21-.15.39-.16,2.43l.37-.45c.6.26,1.57.75,2.18,1.09l-.55.91A8.84,8.84,0,0,0,255,16v.5c0,1.25,0,2.54.09,3.11Zm3.09-5.07a6.82,6.82,0,0,0-.76-.76l.45-.32c.27.22.54.49.77.72Zm.64-.54a8.38,8.38,0,0,0-.75-.7l.43-.31a8.21,8.21,0,0,1,.77.67Z"/><path class="cls-1" d="M264.52,18.63a15,15,0,0,0,2.48.54,3,3,0,0,0-.38.76,16,16,0,0,1-2.89-.84l.58-.46h-1.87c.59.33.62.4.62.45s-.05.1-.13.11a.72.72,0,0,0-.29.06,10.42,10.42,0,0,1-2.52.67,2.39,2.39,0,0,0-.35-.76,7.22,7.22,0,0,0,2.38-.53h-1.37V15.2H266v3.43Zm-4.31-3.74V13.06h6.38v1.83Zm1.9-1.18H261v.53h1.08Zm3,2.11h-3.52v.35h3.52Zm0,.9h-3.52v.36h3.52Zm0,.9h-3.52V18h3.52Zm-1.22-3.91h-1.08v.53h1.08Zm1.86,0h-1.12v.53h1.12Z"/><path class="cls-1" d="M270.49,19.92c0-.5,0-1.08,0-1.69-.74.22-1.47.4-2,.5a.38.38,0,0,0-.23.16c0,.06-.09.1-.13.1s-.09,0-.11-.13a5.78,5.78,0,0,1-.22-.89s0,0,.06,0H268l.51-.07v-4l-.57,0V13c.66,0,1.26.06,1.86.06s1.23,0,1.91-.07v.46l1.14,0c1,0,2,0,2,0a10.05,10.05,0,0,1-1,4.21,5.79,5.79,0,0,0,1.34,1.41,3.06,3.06,0,0,0-.53.84,8,8,0,0,1-1.3-1.59,6.5,6.5,0,0,1-1.46,1.59,2.36,2.36,0,0,0-.52-.79,5.75,5.75,0,0,0,1.51-1.52,9.16,9.16,0,0,1-1-3.31h-.31v-.45h-.3V15c0,1.43,0,3.51,0,4.9Zm.05-6.1h-1.21v.71h1.21Zm0,1.4h-1.21V16h1.21Zm-1.21,1.48v1l1.2-.28c0-.24,0-.48,0-.72Zm4.07.14a8.12,8.12,0,0,0,.57-2.57h-1.21A9.43,9.43,0,0,0,273.4,16.84Z"/><path class="cls-1" d="M276.49,18.15A11,11,0,0,0,278.13,15c-.23,0-.45,0-.68,0h-.6l-.11-1a4.45,4.45,0,0,0,1,.11l.63,0a4.77,4.77,0,0,0,.15-.92V13c0-.05,0-.06.07-.06h.06c.93.18,1,.21,1,.28a.21.21,0,0,1-.07.13.9.9,0,0,0-.17.3c0,.11-.06.23-.1.35a4.36,4.36,0,0,0,1-.3l-.13,1c-.4.08-.79.15-1.17.2a23.84,23.84,0,0,1-1.63,3.82Zm5.94,1.27a4.43,4.43,0,0,0-1-.74c-.1.69-.83,1-1.58,1s-1.67-.39-1.67-1.12c0-.16.08-1.2,1.53-1.2a3.82,3.82,0,0,1,.68.07,7.06,7.06,0,0,1-.12-1c0-.63.23-1.18.9-1.3a6.36,6.36,0,0,0-1-.32l.53-.66a11.33,11.33,0,0,1,2.32,1l-.48.76a1.11,1.11,0,0,0-.76-.31c-.37,0-.7.25-.7.88a6.35,6.35,0,0,0,.23,1.29,7.82,7.82,0,0,1,1.63.83Zm-1.89-1v-.18a3.17,3.17,0,0,0-.86-.15c-.34,0-.54.11-.59.28v.06c0,.24.41.39.79.39s.67-.13.67-.39Z"/><path class="cls-1" d="M285.29,17.78a14.15,14.15,0,0,0,.33-3v-.12c0-.1,0-.18,0-.21s0,0,.06,0h0c.91.11,1,.11,1,.2a.25.25,0,0,1,0,.09c-.11.16-.13.31-.31,2.19a4.45,4.45,0,0,1,2.47-.89,1.75,1.75,0,0,1,2,1.48,1.36,1.36,0,0,1,0,.2c0,1.29-1.4,2.05-3.3,2.05h-.3a4.3,4.3,0,0,0-.36-1.1,4.33,4.33,0,0,0,1.13.15c1.16,0,1.88-.54,1.88-1.15,0-.28-.18-.81-1-.81a3.63,3.63,0,0,0-2.61,1.33Zm3-3.07a8.64,8.64,0,0,0-2.25-1l.41-.78a13.52,13.52,0,0,1,2.29,1Z"/><path class="cls-1" d="M193.5,25.69c-1.17,0-2.32-.05-3.46-.05s-2.26,0-3.41.05v-.81c.5,0,1,0,1.48,0l1.46,0a1.24,1.24,0,0,0,0-.33,1.29,1.29,0,0,1,0-.19s0-.05.08-.05h0c1,0,1,.1,1,.17a.21.21,0,0,1,0,.13.37.37,0,0,0-.08.22v.05c1,0,2,0,3-.05Zm-1.11,3h-4.6V29c0,.55,0,1.72,0,2.5h-1c0-.83.05-2.49.05-3.2V28h6.33v2.42c0,.88-.31,1.09-1.33,1.09h-.38a2.73,2.73,0,0,0-.18-.68h-2.12c0,.11,0,.21,0,.32h-.8c0-.44,0-1,0-1.45v-.59h3.14v1.62h.28c.45,0,.48-.09.48-.4Zm-4.63-1.05V26h4.66v1.71Zm3.83-1.05h-3V27h3Zm-.72,3.11h-1.63v.47h1.63Z"/><path class="cls-1" d="M200.75,31.52c0-.18,0-.36,0-.55h-3.07v.55h-.86c0-1,0-2.6,0-3.73V26.5h1.32v-.95l-1.39,0v-.78l0,0a.4.4,0,0,0-.18.24,11,11,0,0,1-.49,1.4c.23,0,.3,0,.3.11a.3.3,0,0,1-.07.15c-.09.12-.1.28-.1,1.77,0,.83,0,1.92,0,3h-.88c0-1.07,0-2.33,0-3.29v-.56a4.11,4.11,0,0,1-.54.93,3.57,3.57,0,0,0-.36-1,7.3,7.3,0,0,0,1.31-3c0-.08,0-.22.08-.22h0c.88.22.92.24.92.33.82,0,1.65,0,2.48,0s1.68,0,2.53,0v.87l-1.64,0v1h1.37v1.28c0,1.12,0,2.72,0,3.74Zm-2.57-4.26h-.52v1c0,.56,0,1.31,0,2h.51Zm1.29-1.72h-.54v1h.54Zm0,1.72h-.54v3h.54Zm1.31,3v-3h-.57v3Z"/><path class="cls-1" d="M207.48,30.23a16.27,16.27,0,0,0,2.49.55,2.31,2.31,0,0,0-.38.75,16.3,16.3,0,0,1-2.9-.84l.58-.46H205.4c.6.33.63.4.63.46s-.05.09-.13.1a.72.72,0,0,0-.29.06,10.54,10.54,0,0,1-2.52.67,2.39,2.39,0,0,0-.35-.76,7.27,7.27,0,0,0,2.38-.53h-1.38V26.8H209v3.43Zm-4.3-3.74V24.66h6.38v1.83Zm1.89-1.18H204v.53h1.07Zm3,2.12h-3.53v.34h3.53Zm0,.89h-3.53v.36h3.53Zm0,.9h-3.53v.39h3.53Zm-1.22-3.91h-1.08v.53h1.08Zm1.85,0h-1.11v.53h1.11Z"/><path class="cls-1" d="M213.46,31.52c0-.5,0-1.08,0-1.68-.73.21-1.47.39-2,.49a.4.4,0,0,0-.22.16c-.05.06-.1.1-.14.1s-.08,0-.11-.13a8.89,8.89,0,0,1-.22-.89s0-.05.07-.05H211l.51-.07v-4l-.57,0v-.84c.66,0,1.25.06,1.86.06s1.22,0,1.91-.06v.45l1.13,0c1,0,2,0,2,0a10.06,10.06,0,0,1-1,4.21,6.28,6.28,0,0,0,1.35,1.42,2.67,2.67,0,0,0-.53.83,7.66,7.66,0,0,1-1.3-1.59,6.51,6.51,0,0,1-1.46,1.59,2.24,2.24,0,0,0-.53-.79,5.6,5.6,0,0,0,1.51-1.52,9.35,9.35,0,0,1-1-3.31h-.31v-.45h-.3v1.18c0,1.42,0,3.5,0,4.89Zm0-6.1H212.3v.71h1.21Zm0,1.4H212.3v.79h1.21ZM212.3,28.3v1l1.2-.28c0-.24,0-.48,0-.72Zm4.07.14a8.71,8.71,0,0,0,.57-2.57h-1.22A9.09,9.09,0,0,0,216.37,28.44Z"/><path class="cls-1" d="M226.28,29.84l-1.73,0v.69c0,.74-.13,1-1.32,1-.18,0-.38,0-.62,0a2.74,2.74,0,0,0-.24-.8c.36,0,.62,0,.81,0,.52,0,.56-.1.56-.32v-.63H221a9.52,9.52,0,0,1,1.44.69l-.48.67a8.72,8.72,0,0,0-1.59-.86l.39-.5-1.71,0V29c1.13,0,2.31.05,3.5.05h1.19v-.4h-3.81V25.91h2.31v-.36c-1,0-2,0-2.92,0v-.78c.94,0,1.92.05,2.9.05a2.11,2.11,0,0,0,0-.25.45.45,0,0,1,0-.19s0-.05.07-.05h.05c.87.05.92.11.92.17a.35.35,0,0,1-.07.15.36.36,0,0,0-.07.17c1,0,2,0,2.95-.05v.78c-.95,0-2,0-3,0v.36h2.4v2.77h-.87v.4l1.73,0Zm-4-3.29h-1.52V27h1.52Zm0,1h-1.52v.48h1.52Zm2.41-1H223V27h1.63Zm0,1H223v.48h1.63Z"/><path class="cls-1" d="M227.58,31.52c0-1.44,0-4,0-5.55v-1.3h2.87v3.27h-2c0,1.27,0,2.52.05,3.58Zm2.12-6.13h-1.23V26h1.23Zm0,1.2h-1.23v.66h1.23Zm3.44,1.35H231V24.67h3v5.72c0,.9-.26,1.14-1.62,1.14h-.46a2.37,2.37,0,0,0-.28-.9l.84,0c.6,0,.68-.1.68-.37Zm0-2.55h-1.33V26h1.33Zm0,1.2h-1.33v.66h1.33Z"/><path class="cls-1" d="M242.49,25.94c-1.31,0-3.4-.05-4.64-.05h-1V27.1a9.87,9.87,0,0,1-.77,4.42,4.19,4.19,0,0,0-.77-.62,8,8,0,0,0,.68-3.82v-2h2.82a2.63,2.63,0,0,0-.05-.49,1.42,1.42,0,0,1,0-.2s0-.05.08-.05h0c.92.06,1,.08,1,.17a.35.35,0,0,1-.06.14.41.41,0,0,0-.07.26.43.43,0,0,0,0,.16l2.82,0Zm-1.37,5.58c0-.15,0-.3,0-.45h-3c0,.15,0,.3,0,.45h-.9c0-.79,0-2.11,0-2.73v-.33H239V27.7a14.16,14.16,0,0,0,0-1.46.58.58,0,0,1,0-.19s0-.05.08-.05h0c.86.05,1,.12,1,.18a.33.33,0,0,1-.07.16.44.44,0,0,0-.08.29v.21h.68c.61,0,1.33,0,1.87,0v.81c-.76,0-1.88,0-2.56,0v.88H242v.42c0,.64,0,1.86,0,2.64Zm-3-2.29v1.08h3.06c0-.52,0-1.08,0-1.08Z"/><path class="cls-1" d="M248.7,30.43V24.51h2.08v.68H249.4v5.24Z"/><path class="cls-1" d="M257.4,31.14A4.82,4.82,0,0,0,256,30.2v.05c0,.66-.77,1-1.56,1s-1.61-.35-1.66-1.08v-.1c0-.72.62-1.13,1.55-1.13a3.35,3.35,0,0,1,.71.07c0-.33,0-.68-.05-1l-.94,0q-.54,0-.93,0l0-.92a6.42,6.42,0,0,0,1.39.12H255c0-.22,0-.44,0-.64h-.52a13.5,13.5,0,0,1-1.42-.07l-.07-.91a6.82,6.82,0,0,0,1.69.15h.3c0-.4,0-.7,0-.85s0-.14,0-.18,0,0,.07,0h0c1,.06,1,.07,1,.15a.32.32,0,0,1,0,.09c-.08.13-.1.16-.13.78a8.61,8.61,0,0,0,1.59-.24v.91c-.45.06-1,.13-1.64.17v.63a8,8,0,0,0,1.54-.26v.91a14.57,14.57,0,0,1-1.52.16c0,.46.05.89.08,1.34a10.35,10.35,0,0,1,1.91,1ZM255.13,30v-.17a3.84,3.84,0,0,0-.89-.14c-.39,0-.61.12-.61.34v0c0,.22.39.34.76.34s.75-.12.75-.38Z"/><path class="cls-1" d="M266.56,31.07a2.29,2.29,0,0,0-.64-.71,1.85,1.85,0,0,1-1.47.68c-.72,0-1.3-.43-1.3-1a.93.93,0,0,1,.05-.29,1.12,1.12,0,0,1,1.2-.72,3.52,3.52,0,0,1,1.11.21,4,4,0,0,0,.09-.85c0-1.31-.37-1.47-.71-1.47a4,4,0,0,0-2.29,1.34c0,.25,0,.51,0,.76a17.39,17.39,0,0,0,.13,2.16l-1,0c0-.65,0-1.32,0-2-.22.3-.45.62-.68,1-.11.17-.17.33-.25.33a3.5,3.5,0,0,1-.61-.82s.1-.08.23-.21a8.53,8.53,0,0,0,1.39-1.93l0-.47-.69.25a1.35,1.35,0,0,0-.26.15.32.32,0,0,1-.17.09s-.06,0-.08-.07-.24-.89-.24-1,0,0,0,0h.24a6.83,6.83,0,0,0,1.2-.2c0-.48,0-.93,0-1.21v-.16a2.07,2.07,0,0,0,0-.22s0,0,.07,0h0c.92,0,1.07.05,1.07.15a.19.19,0,0,1-.05.09c-.12.14-.12.14-.24,1.09a1.67,1.67,0,0,1,.56.46s-.05.08-.13.15a4,4,0,0,0-.42.65,3.8,3.8,0,0,1,2.2-1.12c.35,0,1.51.07,1.51,2.23a4.46,4.46,0,0,1-.18,1.26,3.53,3.53,0,0,1,.89.7Zm-2.21-1.32c-.21,0-.36.06-.4.18V30c0,.15.17.24.41.24a1.15,1.15,0,0,0,.81-.32,2.22,2.22,0,0,0-.81-.18Z"/><path class="cls-1" d="M273.43,29.7a2.94,2.94,0,0,0-2-.74c-.72,0-1.34.25-1.34.75h0c0,.43.7.67,1.56.67a5.06,5.06,0,0,0,1.68-.28,3.74,3.74,0,0,0-.13.88v.15a10,10,0,0,1-1.45.13c-1.45,0-2.53-.43-2.57-1.5V29.7c0-1,1-1.48,2.14-1.48a4.81,4.81,0,0,1,1.14.14c-.17-.24-.35-.53-.53-.83A25.83,25.83,0,0,1,269,28l-.22-.84a14.74,14.74,0,0,0,2.73-.32l-.2-.37a18.75,18.75,0,0,1-2.11.28l-.21-.85h.24a11,11,0,0,0,1.72-.17l-.33-.68c0-.08-.1-.13-.1-.18a6,6,0,0,1,1-.27.07.07,0,0,1,.07.07h0v.15c0,.09,0,.14.25.71a5.38,5.38,0,0,0,1.44-.51l.2.85a12.78,12.78,0,0,1-1.31.39c.05.12.12.26.18.38a11.05,11.05,0,0,0,1.74-.57l.23.85c-.49.16-1,.3-1.57.44a7.22,7.22,0,0,0,1.41,1.7Z"/><path class="cls-1" d="M279.29,31.62a26.86,26.86,0,0,0-1.36-4.12,2.85,2.85,0,0,0-1,.68c-.07.1-.13.14-.18.14a5,5,0,0,1-.79-.92l0,0c0-.06.16-.05.42-.14s.79-.31,1.26-.5a8.94,8.94,0,0,0-.66-1.22c-.07-.11-.14-.16-.14-.2a7.37,7.37,0,0,1,1.07-.32c.06,0,.09.05.09.12v.15a4.85,4.85,0,0,0,.48,1.12c.35-.14.72-.27,1.07-.39a6.45,6.45,0,0,0-.75-.82l.8-.4a10,10,0,0,1,.88,1,3.4,3.4,0,0,1,.64-.09h.19a1.75,1.75,0,0,1,1.95,1.52c0,.05,0,.09,0,.14,0,.92-.82,1.9-2.53,1.9a3.17,3.17,0,0,1-.44,0,3.37,3.37,0,0,0-.35-1,4,4,0,0,0,.9.11c1.06,0,1.53-.51,1.53-1a.93.93,0,0,0-1-.86h0a2.07,2.07,0,0,0-.35,0c.17.24.33.51.51.81l-.92.45a10.11,10.11,0,0,0-.56-1c-.41.14-.81.29-1.21.47.54,1.26,1.1,2.7,1.55,4.06Z"/><path class="cls-1" d="M284.17,31.37v-.68h1.38V25.45h.7v5.92Z"/><path class="cls-1" d="M299.3,30.2a27.39,27.39,0,0,1-3.83-3.13.42.42,0,0,0-.26-.12.33.33,0,0,0-.24.12,8.54,8.54,0,0,0-1.5,1.78c0,.09-.06.14-.11.14a7.26,7.26,0,0,1-.95-.89s.08-.05.21-.12a11.23,11.23,0,0,0,1.75-1.56,1.14,1.14,0,0,1,.84-.38,1.22,1.22,0,0,1,.85.38,16.24,16.24,0,0,0,3.87,2.81A3.85,3.85,0,0,0,299.3,30.2Z"/><path class="cls-1" d="M157.1,30.76a3.05,3.05,0,0,1,.25-1.24,3.21,3.21,0,0,1,.68-1,3.32,3.32,0,0,1,3.52-.67,3.14,3.14,0,0,1,1,.67,3.12,3.12,0,0,1,.68,3.48,3.11,3.11,0,0,1-.68,1,3.31,3.31,0,0,1-1,.67,3.35,3.35,0,0,1-2.49,0,3.46,3.46,0,0,1-1-.67,3.28,3.28,0,0,1-.68-1A3,3,0,0,1,157.1,30.76Zm.3,0a2.79,2.79,0,0,0,.23,1.11,3.08,3.08,0,0,0,.63.91,3.27,3.27,0,0,0,.92.63,2.8,2.8,0,0,0,1.12.23,2.76,2.76,0,0,0,1.11-.23,3.13,3.13,0,0,0,.92-.63,3.06,3.06,0,0,0,.62-.91,2.82,2.82,0,0,0,0-2.23,3.19,3.19,0,0,0-.62-.91,2.93,2.93,0,0,0-.92-.62,2.6,2.6,0,0,0-1.11-.23,2.64,2.64,0,0,0-1.12.23,3,3,0,0,0-.92.62,3.22,3.22,0,0,0-.63.91A2.8,2.8,0,0,0,157.4,30.76Zm3.93,1.72-1-1.54h-.77v1.54h-.31V29h1.18a1.36,1.36,0,0,1,.85.24.9.9,0,0,1,.31.74.83.83,0,0,1-.3.69,1.23,1.23,0,0,1-.65.26l1.08,1.58Zm-.08-2.55a.59.59,0,0,0-.26-.56,1.28,1.28,0,0,0-.59-.14h-.87V30.7h.66a1.52,1.52,0,0,0,.77-.16A.64.64,0,0,0,161.25,29.93ZM65,13.33c.44-.52.32-1.22.18-2s.16-1,0-1.09-.35,0-.61.21c-1.27.91-3.44,1.78-7.23,2,0-1,0-1.91.06-2.49.06-1.37-.16-2-.71-2.48A3.41,3.41,0,0,0,54.27,7c-.86,0-1.21-.22-1.35-.09s0,.21.19.56c.44.67,1,1.5,1.07,4.77v.2c-4.41-.09-6.8-1-8.18-1.93-.25-.18-.41-.32-.6-.21s.1.45,0,1.09-.26,1.47.19,2c1.26,1.44,6.41,1.84,8.64,1.94,0,.88,0,1.84,0,2.81-4.36-.05-6.32-.65-7.7-1.63-.26-.18-.41-.28-.56-.17s.1.52,0,1.16c-.13.8-.3,1.24.09,1.8a3.79,3.79,0,0,0,2.29,1.09,30.68,30.68,0,0,0,5.89.54v2.86a17,17,0,0,0-4.88.25c-2.45.51-4,2.07-4,4.08,0,2.42,2.21,4.42,5.32,4.48a7.49,7.49,0,0,0,4.94-1.26,5,5,0,0,0,1.68-4.11C61.7,28.51,62,30.71,62,31.54c0,.46.06.72.28.74.58,0,.66-.53,1.63-1.15a2.25,2.25,0,0,0,.88-3.27,7.23,7.23,0,0,0-3.37-2.49,20.86,20.86,0,0,0-4.15-1.19c0-.93,0-2.05,0-3.25a29.39,29.39,0,0,0,5-.6,3.78,3.78,0,0,0,2.28-1.09c.4-.56.23-1,.09-1.8-.1-.64.14-1.06,0-1.15s-.31,0-.56.16c-1.28.92-3.09,1.56-6.82,1.7,0-1,0-1.93,0-2.85C59.8,15.11,63.91,14.62,65,13.33ZM53.69,28.85c-.41.56-1.3,1.06-3,1s-2.52-.8-2.52-1.67,1-1.32,1.92-1.49a14.38,14.38,0,0,1,4,.06A3.69,3.69,0,0,1,53.69,28.85Zm72.63-14c.25.78.5,1.23.28,1.74s-.87,1.07-2,1.52c-1.41.56-2.58.93-3.66,1.26a48.55,48.55,0,0,0,3.64,4.48,1.42,1.42,0,0,1,.43.66c.08.36-.28.66-.6.93-.62.51-1,.82-1.25,1a1.62,1.62,0,0,1-1.53,0h0a21.22,21.22,0,0,0-6-1.28c-2.16-.06-4.41.51-4.69,1.88-.21,1,.76,1.87,1.59,2.27,1.6.76,4.73.9,7.27.53,1.67-.25,2.16-.66,2.34-1.15s.29-.54.46-.47c.46.18.43.63,1.08,1.46.81,1,.64,1.69-.08,2.17a10.9,10.9,0,0,1-4.65,1c-2.63.1-5.56,0-8.05-1.17a5.13,5.13,0,0,1-2.65-3,4.45,4.45,0,0,1,.46-3.41A5,5,0,0,1,111.84,23a14.07,14.07,0,0,1,4-.43,23.2,23.2,0,0,1,4.31.6c-.77-1-1.68-2-2.42-3.08a36.23,36.23,0,0,1-7.94.44,3.7,3.7,0,0,1-2.44-.77c-.47-.49-.37-.93-.37-1.75,0-.62-.3-.94-.17-1.08s.34-.09.62.05c1.49.75,4.87,1.17,8.88.58-.49-.82-1.09-1.67-1.54-2.57-2.79.29-6.62.28-7.78-.7-.52-.45-.38-.95-.37-1.79,0-.65-.3-1-.18-1.15s.34,0,.62.1a12.05,12.05,0,0,0,6.53.94c-.23-.55-.49-1.12-.7-1.7-.47-1.28-.48-1.89-.15-2.55A3.5,3.5,0,0,1,115,6.92c.85-.26,1-.62,1.2-.53s.12.15,0,.54a6.26,6.26,0,0,0,.33,4.39c.08.22.17.44.26.66,3.54-.71,5-1.72,6.15-2.8.23-.21.37-.35.54-.25s0,.48.17,1.14.56,1.25.21,1.78c-.8,1.22-3.67,2.14-5.94,2.67.47.86.92,1.59,1.49,2.47,3.64-.87,5-1.82,6.17-2.93.22-.22.32-.38.52-.27S126.14,14.29,126.32,14.88Zm33.34,2.63A5.15,5.15,0,0,0,157,14.1c-1.93-1-4-1.11-7.94-.1-.43-1.07-1-2.5-1.44-4-.42-1.33-1-1.84-1.7-2a3.71,3.71,0,0,0-2.61.6c-.75.41-1.16.3-1.21.47s.24.4.61.59c.95.51,1.57.64,3.47,5.19l-4,1.26,0-.11c-.49-1.06-1.31-2.9-2-4.81-.49-1.36-1.08-1.83-1.83-2a3.81,3.81,0,0,0-2.65.72c-.78.46-1.2.35-1.25.54s.26.38.66.57c1.13.53,1.77.74,4.19,6l-1.11.36c-3.93,1.14-4.25.53-5.07.27-.39-.13-.75-.24-.85-.08s.28.45.43,1.32a3.15,3.15,0,0,0,1,2.24,3.52,3.52,0,0,0,3,0l3.81-1.31c1,2.09,2.36,4.68,3.11,6.27,1.77,3.74,1.54,5.16,1.28,6.17-.11.43-.12.77.06.82s.42-.34,1.4-.68,1.8-.62,2.14-1.3a2.86,2.86,0,0,0-.23-2.79c-1.15-2.22-2.2-4.19-2.9-5.6-.51-1-1.22-2.55-1.9-4,1.55-.51,2.72-.94,3.74-1.25,1.27,2.82,2.5,4.45,4.68,5.47a6.37,6.37,0,0,0,6.41-1A4.92,4.92,0,0,0,159.66,17.51Zm-3.27,2.21a3.12,3.12,0,0,1-3.51.59,5.89,5.89,0,0,1-2.8-3.61c3.17-.84,4.7-.52,5.43-.14A2.06,2.06,0,0,1,156.39,19.72ZM96.86,25.3c.57-2.74.68-7.6-1.38-10.76a7.13,7.13,0,0,0-5.76-3.31,9.31,9.31,0,0,0-6.06,2c0-1,.11-1.87.17-2.67a2.66,2.66,0,0,0-.7-2.47,3.6,3.6,0,0,0-2.55-.44c-.89,0-1.15-.24-1.3-.09s0,.2.18.55a7.43,7.43,0,0,1,1,3.54c.05,1.18.08,2.52.1,4.19l-.07.08a24.24,24.24,0,0,0-4,7.49,41.82,41.82,0,0,0,.72-6.31,3.37,3.37,0,0,0-.91-2.59c-.6-.53-1.42-.43-2.38-.36s-1.16-.21-1.32,0,0,.22.21.57c.87,1.17,1.69,2.13,1.51,7.46-.12,1.6-.33,3.23-.53,4.83-.13,1,.49,1.24,1.38,1.48,1.33.37,1.84.26,2.21-.71a53.38,53.38,0,0,1,3.41-7.84c0,2.47,0,4.51,0,7-.08,3-.31,3.57-.83,3.24s-.76-.16-.59.44a3,3,0,0,0,1.51,2,2.21,2.21,0,0,0,2.29-.33c.53-.52.72-1.25.7-2.62-.07-3.45-.15-8.46-.06-12.8a7.18,7.18,0,0,1,5.72-2.73,4.28,4.28,0,0,1,3.35,2c1.38,2,1.5,5.95,1.15,8.16a9.14,9.14,0,0,0-4.88-.4,4.23,4.23,0,0,0-3.63,4.34C85.58,30.74,87.81,32,90,32a6.27,6.27,0,0,0,5.84-3.75A2.53,2.53,0,0,1,97.16,31c0,.41,0,.61.31.61.52,0,.53-.58,1.52-1.11a1.9,1.9,0,0,0,.79-2.72A6.9,6.9,0,0,0,96.86,25.3Zm-7,4c-.84,0-1.79-.48-1.81-1.39s.81-1.57,2.32-1.63a5.39,5.39,0,0,1,2.89.6A3.3,3.3,0,0,1,89.89,29.28ZM33,16.68a13.83,13.83,0,0,1-.33-3.39,17.3,17.3,0,0,1,.41-3.65,5.79,5.79,0,0,0-.23-3,4.85,4.85,0,0,0-4.53-3.08,5.13,5.13,0,0,0-1.88.38C26.4,2.73,26.12,1,24.79.33c-2-1-4.54.66-5.46,1.36a23.29,23.29,0,0,0-2.06,1.83,13.13,13.13,0,0,0-1.67-.11,13,13,0,0,0-1.66.11,22.21,22.21,0,0,0-2.07-1.83C10.92,1,8.48-.7,6.42.33S4.7,4.77,4.83,5.81a15.1,15.1,0,0,0,.72,3,7.15,7.15,0,0,0-.83,3.31A7.37,7.37,0,0,0,5.9,16,13.7,13.7,0,0,0,0,27.05c0,7.79,7,14.13,15.59,14.13s15.59-6.34,15.59-14.13a13,13,0,0,0-.84-4.58l0,0A4.57,4.57,0,0,0,33,19.7,5.06,5.06,0,0,0,33,16.68ZM23.59,2.52c.85.44.39,3.41.24,4A10.91,10.91,0,0,0,20.06,4.2C20.65,3.57,22.64,2.05,23.59,2.52Zm-8,3.56a11.05,11.05,0,0,1,3.1.45,3,3,0,0,1-3.1,2.23,3,3,0,0,1-3.1-2.23A11.11,11.11,0,0,1,15.6,6.08Zm0,5.12a5.31,5.31,0,0,0,5.31-3.74,5.66,5.66,0,0,1,2.9,4.62c0,3.31-3.68,6-8.21,6s-8.2-2.73-8.2-6a5.64,5.64,0,0,1,2.9-4.62A5.3,5.3,0,0,0,15.6,11.2ZM17.13,23a1.53,1.53,0,1,1-1.53-1.52A1.53,1.53,0,0,1,17.13,23ZM7.62,2.52c.93-.48,3,1.06,3.52,1.68A11,11,0,0,0,7.38,6.48C7.23,5.94,6.76,3,7.62,2.52Zm8,36c-7.12,0-12.92-5.14-12.92-11.46a11,11,0,0,1,5-9,11.51,11.51,0,0,0,5,2.42,3.71,3.71,0,0,0-1,2.59,4,4,0,1,0,7.93,0,3.73,3.73,0,0,0-1-2.59,10.83,10.83,0,0,0,5-2.46,4.6,4.6,0,0,0,4.05,4.86,10.23,10.23,0,0,1,.91,4.23C28.51,33.37,22.72,38.51,15.59,38.51ZM30.35,15.32c.1.86.17,1.34.33,2.17a2.2,2.2,0,0,1-.51,2.15,2.72,2.72,0,0,1-1.82.85,2.59,2.59,0,0,1-1.83-.85A2.22,2.22,0,0,1,26,17.49a21.8,21.8,0,0,0,.33-2.17,19.57,19.57,0,0,0,.1-2,16.58,16.58,0,0,0-.11-2c-.09-.77-.28-1.78-.39-2.49a2.37,2.37,0,0,1,.39-1.7,2.43,2.43,0,0,1,4,0,2.37,2.37,0,0,1,.39,1.7c-.11.71-.3,1.72-.39,2.49a16.58,16.58,0,0,0-.11,2A19.57,19.57,0,0,0,30.35,15.32Z"/></g></g></svg>